ISO-10303-21;
HEADER;
/* Generated by software containing ST-Developer
 * from STEP Tools, Inc. (www.steptools.com) 
 */
/* OPTION: using custom renumber hook */

FILE_DESCRIPTION(
/* description */ ('STEP AP242 Edition 2',
'CAx-IF Rec.Pracs.---Representation and Presentation of Product Manufa
cturing Information (PMI)---4.0---2014-10-13',
'CAx-IF Rec.Pracs.---3D Tessellated Geometry---0.4---2014-09-14','2;1',
'CAx-IF Rec.Pracs.---User Defined Attributes---1.5---2016-08-15'),
/* implementation_level */ '2;1');

FILE_NAME(
/* name */ 'Case - BottomCase',
/* time_stamp */ '2026-08-21T20:41:15Z',
/* author */ (''),
/* organization */ (''),
/* preprocessor_version */ 'ST-DEVELOPER v20',
/* originating_system */ 'ONSHAPE BY PTC INC, 1.219',
/* authorisation */ '  ');

FILE_SCHEMA (('AP242_MANAGED_MODEL_BASED_3D_ENGINEERING_MIM_LF { 1 0 10303 442 3 1 4 }'));
ENDSEC;

DATA;
#10=SHAPE_REPRESENTATION_RELATIONSHIP('','',#451,#11);
#11=ADVANCED_BREP_SHAPE_REPRESENTATION('',(#449),#769);
#12=LINE('',#695,#24);
#13=LINE('',#698,#25);
#14=LINE('',#700,#26);
#15=LINE('',#702,#27);
#16=LINE('',#704,#28);
#17=LINE('',#706,#29);
#18=LINE('',#708,#30);
#19=LINE('',#710,#31);
#20=LINE('',#712,#32);
#21=LINE('',#714,#33);
#22=LINE('',#716,#34);
#23=LINE('',#717,#35);
#24=VECTOR('',#567,1.);
#25=VECTOR('',#568,1.);
#26=VECTOR('',#569,1.);
#27=VECTOR('',#570,1.);
#28=VECTOR('',#573,1.);
#29=VECTOR('',#574,1.);
#30=VECTOR('',#575,1.);
#31=VECTOR('',#578,1.);
#32=VECTOR('',#579,1.);
#33=VECTOR('',#580,1.);
#34=VECTOR('',#583,1.);
#35=VECTOR('',#584,1.);
#36=PLANE('',#477);
#37=PLANE('',#478);
#38=PLANE('',#479);
#39=PLANE('',#480);
#40=PLANE('',#481);
#41=PLANE('',#482);
#42=PLANE('',#493);
#43=PLANE('',#496);
#44=PLANE('',#499);
#45=PLANE('',#502);
#46=PLANE('',#505);
#47=PLANE('',#508);
#48=PLANE('',#511);
#49=PLANE('',#514);
#50=ELLIPSE('',#455,0.00120660993547622,0.0012);
#51=ELLIPSE('',#458,0.00120660993547622,0.0012);
#52=ELLIPSE('',#461,0.00120660993547623,0.0012);
#53=ELLIPSE('',#464,0.0012066099354762,0.00119999999999998);
#54=ELLIPSE('',#467,0.0012066099354762,0.00119999999999998);
#55=ELLIPSE('',#470,0.0012066099354762,0.00119999999999998);
#56=ELLIPSE('',#473,0.0012066099354762,0.00119999999999998);
#57=ELLIPSE('',#476,0.00120660993547623,0.0012);
#58=ORIENTED_EDGE('',*,*,#146,.F.);
#59=ORIENTED_EDGE('',*,*,#147,.T.);
#60=ORIENTED_EDGE('',*,*,#148,.F.);
#61=ORIENTED_EDGE('',*,*,#149,.T.);
#62=ORIENTED_EDGE('',*,*,#150,.F.);
#63=ORIENTED_EDGE('',*,*,#151,.T.);
#64=ORIENTED_EDGE('',*,*,#152,.F.);
#65=ORIENTED_EDGE('',*,*,#153,.T.);
#66=ORIENTED_EDGE('',*,*,#154,.F.);
#67=ORIENTED_EDGE('',*,*,#155,.T.);
#68=ORIENTED_EDGE('',*,*,#156,.F.);
#69=ORIENTED_EDGE('',*,*,#157,.T.);
#70=ORIENTED_EDGE('',*,*,#158,.F.);
#71=ORIENTED_EDGE('',*,*,#159,.T.);
#72=ORIENTED_EDGE('',*,*,#160,.F.);
#73=ORIENTED_EDGE('',*,*,#161,.T.);
#74=ORIENTED_EDGE('',*,*,#162,.F.);
#75=ORIENTED_EDGE('',*,*,#163,.F.);
#76=ORIENTED_EDGE('',*,*,#164,.F.);
#77=ORIENTED_EDGE('',*,*,#165,.T.);
#78=ORIENTED_EDGE('',*,*,#166,.T.);
#79=ORIENTED_EDGE('',*,*,#167,.F.);
#80=ORIENTED_EDGE('',*,*,#168,.T.);
#81=ORIENTED_EDGE('',*,*,#163,.T.);
#82=ORIENTED_EDGE('',*,*,#169,.T.);
#83=ORIENTED_EDGE('',*,*,#170,.F.);
#84=ORIENTED_EDGE('',*,*,#171,.F.);
#85=ORIENTED_EDGE('',*,*,#167,.T.);
#86=ORIENTED_EDGE('',*,*,#172,.F.);
#87=ORIENTED_EDGE('',*,*,#165,.F.);
#88=ORIENTED_EDGE('',*,*,#173,.T.);
#89=ORIENTED_EDGE('',*,*,#170,.T.);
#90=ORIENTED_EDGE('',*,*,#160,.T.);
#91=ORIENTED_EDGE('',*,*,#158,.T.);
#92=ORIENTED_EDGE('',*,*,#156,.T.);
#93=ORIENTED_EDGE('',*,*,#154,.T.);
#94=ORIENTED_EDGE('',*,*,#152,.T.);
#95=ORIENTED_EDGE('',*,*,#150,.T.);
#96=ORIENTED_EDGE('',*,*,#148,.T.);
#97=ORIENTED_EDGE('',*,*,#146,.T.);
#98=ORIENTED_EDGE('',*,*,#162,.T.);
#99=ORIENTED_EDGE('',*,*,#172,.T.);
#100=ORIENTED_EDGE('',*,*,#169,.F.);
#101=ORIENTED_EDGE('',*,*,#166,.F.);
#102=ORIENTED_EDGE('',*,*,#174,.F.);
#103=ORIENTED_EDGE('',*,*,#175,.F.);
#104=ORIENTED_EDGE('',*,*,#176,.F.);
#105=ORIENTED_EDGE('',*,*,#177,.F.);
#106=ORIENTED_EDGE('',*,*,#178,.F.);
#107=ORIENTED_EDGE('',*,*,#179,.F.);
#108=ORIENTED_EDGE('',*,*,#180,.F.);
#109=ORIENTED_EDGE('',*,*,#181,.F.);
#110=ORIENTED_EDGE('',*,*,#168,.F.);
#111=ORIENTED_EDGE('',*,*,#171,.T.);
#112=ORIENTED_EDGE('',*,*,#173,.F.);
#113=ORIENTED_EDGE('',*,*,#164,.T.);
#114=ORIENTED_EDGE('',*,*,#182,.F.);
#115=ORIENTED_EDGE('',*,*,#174,.T.);
#116=ORIENTED_EDGE('',*,*,#161,.F.);
#117=ORIENTED_EDGE('',*,*,#182,.T.);
#118=ORIENTED_EDGE('',*,*,#183,.F.);
#119=ORIENTED_EDGE('',*,*,#175,.T.);
#120=ORIENTED_EDGE('',*,*,#159,.F.);
#121=ORIENTED_EDGE('',*,*,#183,.T.);
#122=ORIENTED_EDGE('',*,*,#184,.F.);
#123=ORIENTED_EDGE('',*,*,#176,.T.);
#124=ORIENTED_EDGE('',*,*,#157,.F.);
#125=ORIENTED_EDGE('',*,*,#184,.T.);
#126=ORIENTED_EDGE('',*,*,#185,.F.);
#127=ORIENTED_EDGE('',*,*,#177,.T.);
#128=ORIENTED_EDGE('',*,*,#155,.F.);
#129=ORIENTED_EDGE('',*,*,#185,.T.);
#130=ORIENTED_EDGE('',*,*,#186,.F.);
#131=ORIENTED_EDGE('',*,*,#178,.T.);
#132=ORIENTED_EDGE('',*,*,#153,.F.);
#133=ORIENTED_EDGE('',*,*,#186,.T.);
#134=ORIENTED_EDGE('',*,*,#187,.F.);
#135=ORIENTED_EDGE('',*,*,#179,.T.);
#136=ORIENTED_EDGE('',*,*,#151,.F.);
#137=ORIENTED_EDGE('',*,*,#187,.T.);
#138=ORIENTED_EDGE('',*,*,#188,.F.);
#139=ORIENTED_EDGE('',*,*,#180,.T.);
#140=ORIENTED_EDGE('',*,*,#149,.F.);
#141=ORIENTED_EDGE('',*,*,#188,.T.);
#142=ORIENTED_EDGE('',*,*,#189,.F.);
#143=ORIENTED_EDGE('',*,*,#181,.T.);
#144=ORIENTED_EDGE('',*,*,#147,.F.);
#145=ORIENTED_EDGE('',*,*,#189,.T.);
#146=EDGE_CURVE('',#190,#190,#230,.T.);
#147=EDGE_CURVE('',#191,#191,#50,.T.);
#148=EDGE_CURVE('',#192,#192,#231,.T.);
#149=EDGE_CURVE('',#193,#193,#51,.T.);
#150=EDGE_CURVE('',#194,#194,#232,.T.);
#151=EDGE_CURVE('',#195,#195,#52,.T.);
#152=EDGE_CURVE('',#196,#196,#233,.T.);
#153=EDGE_CURVE('',#197,#197,#53,.T.);
#154=EDGE_CURVE('',#198,#198,#234,.T.);
#155=EDGE_CURVE('',#199,#199,#54,.T.);
#156=EDGE_CURVE('',#200,#200,#235,.T.);
#157=EDGE_CURVE('',#201,#201,#55,.T.);
#158=EDGE_CURVE('',#202,#202,#236,.T.);
#159=EDGE_CURVE('',#203,#203,#56,.T.);
#160=EDGE_CURVE('',#204,#204,#237,.T.);
#161=EDGE_CURVE('',#205,#205,#57,.T.);
#162=EDGE_CURVE('',#206,#207,#12,.T.);
#163=EDGE_CURVE('',#208,#206,#13,.T.);
#164=EDGE_CURVE('',#209,#208,#14,.T.);
#165=EDGE_CURVE('',#209,#207,#15,.T.);
#166=EDGE_CURVE('',#206,#210,#16,.T.);
#167=EDGE_CURVE('',#211,#210,#17,.T.);
#168=EDGE_CURVE('',#211,#208,#18,.T.);
#169=EDGE_CURVE('',#210,#212,#19,.T.);
#170=EDGE_CURVE('',#213,#212,#20,.T.);
#171=EDGE_CURVE('',#211,#213,#21,.T.);
#172=EDGE_CURVE('',#207,#212,#22,.T.);
#173=EDGE_CURVE('',#209,#213,#23,.T.);
#174=EDGE_CURVE('',#214,#214,#238,.T.);
#175=EDGE_CURVE('',#215,#215,#239,.T.);
#176=EDGE_CURVE('',#216,#216,#240,.T.);
#177=EDGE_CURVE('',#217,#217,#241,.T.);
#178=EDGE_CURVE('',#218,#218,#242,.T.);
#179=EDGE_CURVE('',#219,#219,#243,.T.);
#180=EDGE_CURVE('',#220,#220,#244,.T.);
#181=EDGE_CURVE('',#221,#221,#245,.T.);
#182=EDGE_CURVE('',#222,#222,#246,.T.);
#183=EDGE_CURVE('',#223,#223,#247,.T.);
#184=EDGE_CURVE('',#224,#224,#248,.T.);
#185=EDGE_CURVE('',#225,#225,#249,.T.);
#186=EDGE_CURVE('',#226,#226,#250,.T.);
#187=EDGE_CURVE('',#227,#227,#251,.T.);
#188=EDGE_CURVE('',#228,#228,#252,.T.);
#189=EDGE_CURVE('',#229,#229,#253,.T.);
#190=VERTEX_POINT('',#656);
#191=VERTEX_POINT('',#658);
#192=VERTEX_POINT('',#661);
#193=VERTEX_POINT('',#663);
#194=VERTEX_POINT('',#666);
#195=VERTEX_POINT('',#668);
#196=VERTEX_POINT('',#671);
#197=VERTEX_POINT('',#673);
#198=VERTEX_POINT('',#676);
#199=VERTEX_POINT('',#678);
#200=VERTEX_POINT('',#681);
#201=VERTEX_POINT('',#683);
#202=VERTEX_POINT('',#686);
#203=VERTEX_POINT('',#688);
#204=VERTEX_POINT('',#691);
#205=VERTEX_POINT('',#693);
#206=VERTEX_POINT('',#696);
#207=VERTEX_POINT('',#697);
#208=VERTEX_POINT('',#699);
#209=VERTEX_POINT('',#701);
#210=VERTEX_POINT('',#705);
#211=VERTEX_POINT('',#707);
#212=VERTEX_POINT('',#711);
#213=VERTEX_POINT('',#713);
#214=VERTEX_POINT('',#721);
#215=VERTEX_POINT('',#723);
#216=VERTEX_POINT('',#725);
#217=VERTEX_POINT('',#727);
#218=VERTEX_POINT('',#729);
#219=VERTEX_POINT('',#731);
#220=VERTEX_POINT('',#733);
#221=VERTEX_POINT('',#735);
#222=VERTEX_POINT('',#738);
#223=VERTEX_POINT('',#742);
#224=VERTEX_POINT('',#746);
#225=VERTEX_POINT('',#750);
#226=VERTEX_POINT('',#754);
#227=VERTEX_POINT('',#758);
#228=VERTEX_POINT('',#762);
#229=VERTEX_POINT('',#766);
#230=CIRCLE('',#454,0.0012);
#231=CIRCLE('',#457,0.0012);
#232=CIRCLE('',#460,0.0012);
#233=CIRCLE('',#463,0.00119999999999998);
#234=CIRCLE('',#466,0.00119999999999998);
#235=CIRCLE('',#469,0.00119999999999998);
#236=CIRCLE('',#472,0.00119999999999998);
#237=CIRCLE('',#475,0.0012);
#238=CIRCLE('',#483,0.0025);
#239=CIRCLE('',#484,0.0025);
#240=CIRCLE('',#485,0.0025);
#241=CIRCLE('',#486,0.0025);
#242=CIRCLE('',#487,0.0025);
#243=CIRCLE('',#488,0.0025);
#244=CIRCLE('',#489,0.0025);
#245=CIRCLE('',#490,0.0025);
#246=CIRCLE('',#492,0.0025);
#247=CIRCLE('',#495,0.0025);
#248=CIRCLE('',#498,0.0025);
#249=CIRCLE('',#501,0.0025);
#250=CIRCLE('',#504,0.0025);
#251=CIRCLE('',#507,0.0025);
#252=CIRCLE('',#510,0.0025);
#253=CIRCLE('',#513,0.0025);
#254=EDGE_LOOP('',(#58));
#255=EDGE_LOOP('',(#59));
#256=EDGE_LOOP('',(#60));
#257=EDGE_LOOP('',(#61));
#258=EDGE_LOOP('',(#62));
#259=EDGE_LOOP('',(#63));
#260=EDGE_LOOP('',(#64));
#261=EDGE_LOOP('',(#65));
#262=EDGE_LOOP('',(#66));
#263=EDGE_LOOP('',(#67));
#264=EDGE_LOOP('',(#68));
#265=EDGE_LOOP('',(#69));
#266=EDGE_LOOP('',(#70));
#267=EDGE_LOOP('',(#71));
#268=EDGE_LOOP('',(#72));
#269=EDGE_LOOP('',(#73));
#270=EDGE_LOOP('',(#74,#75,#76,#77));
#271=EDGE_LOOP('',(#78,#79,#80,#81));
#272=EDGE_LOOP('',(#82,#83,#84,#85));
#273=EDGE_LOOP('',(#86,#87,#88,#89));
#274=EDGE_LOOP('',(#90));
#275=EDGE_LOOP('',(#91));
#276=EDGE_LOOP('',(#92));
#277=EDGE_LOOP('',(#93));
#278=EDGE_LOOP('',(#94));
#279=EDGE_LOOP('',(#95));
#280=EDGE_LOOP('',(#96));
#281=EDGE_LOOP('',(#97));
#282=EDGE_LOOP('',(#98,#99,#100,#101));
#283=EDGE_LOOP('',(#102));
#284=EDGE_LOOP('',(#103));
#285=EDGE_LOOP('',(#104));
#286=EDGE_LOOP('',(#105));
#287=EDGE_LOOP('',(#106));
#288=EDGE_LOOP('',(#107));
#289=EDGE_LOOP('',(#108));
#290=EDGE_LOOP('',(#109));
#291=EDGE_LOOP('',(#110,#111,#112,#113));
#292=EDGE_LOOP('',(#114));
#293=EDGE_LOOP('',(#115));
#294=EDGE_LOOP('',(#116));
#295=EDGE_LOOP('',(#117));
#296=EDGE_LOOP('',(#118));
#297=EDGE_LOOP('',(#119));
#298=EDGE_LOOP('',(#120));
#299=EDGE_LOOP('',(#121));
#300=EDGE_LOOP('',(#122));
#301=EDGE_LOOP('',(#123));
#302=EDGE_LOOP('',(#124));
#303=EDGE_LOOP('',(#125));
#304=EDGE_LOOP('',(#126));
#305=EDGE_LOOP('',(#127));
#306=EDGE_LOOP('',(#128));
#307=EDGE_LOOP('',(#129));
#308=EDGE_LOOP('',(#130));
#309=EDGE_LOOP('',(#131));
#310=EDGE_LOOP('',(#132));
#311=EDGE_LOOP('',(#133));
#312=EDGE_LOOP('',(#134));
#313=EDGE_LOOP('',(#135));
#314=EDGE_LOOP('',(#136));
#315=EDGE_LOOP('',(#137));
#316=EDGE_LOOP('',(#138));
#317=EDGE_LOOP('',(#139));
#318=EDGE_LOOP('',(#140));
#319=EDGE_LOOP('',(#141));
#320=EDGE_LOOP('',(#142));
#321=EDGE_LOOP('',(#143));
#322=EDGE_LOOP('',(#144));
#323=EDGE_LOOP('',(#145));
#324=FACE_BOUND('',#254,.T.);
#325=FACE_BOUND('',#255,.T.);
#326=FACE_BOUND('',#256,.T.);
#327=FACE_BOUND('',#257,.T.);
#328=FACE_BOUND('',#258,.T.);
#329=FACE_BOUND('',#259,.T.);
#330=FACE_BOUND('',#260,.T.);
#331=FACE_BOUND('',#261,.T.);
#332=FACE_BOUND('',#262,.T.);
#333=FACE_BOUND('',#263,.T.);
#334=FACE_BOUND('',#264,.T.);
#335=FACE_BOUND('',#265,.T.);
#336=FACE_BOUND('',#266,.T.);
#337=FACE_BOUND('',#267,.T.);
#338=FACE_BOUND('',#268,.T.);
#339=FACE_BOUND('',#269,.T.);
#340=FACE_BOUND('',#270,.T.);
#341=FACE_BOUND('',#271,.T.);
#342=FACE_BOUND('',#272,.T.);
#343=FACE_BOUND('',#273,.T.);
#344=FACE_BOUND('',#274,.T.);
#345=FACE_BOUND('',#275,.T.);
#346=FACE_BOUND('',#276,.T.);
#347=FACE_BOUND('',#277,.T.);
#348=FACE_BOUND('',#278,.T.);
#349=FACE_BOUND('',#279,.T.);
#350=FACE_BOUND('',#280,.T.);
#351=FACE_BOUND('',#281,.T.);
#352=FACE_BOUND('',#282,.T.);
#353=FACE_BOUND('',#283,.T.);
#354=FACE_BOUND('',#284,.T.);
#355=FACE_BOUND('',#285,.T.);
#356=FACE_BOUND('',#286,.T.);
#357=FACE_BOUND('',#287,.T.);
#358=FACE_BOUND('',#288,.T.);
#359=FACE_BOUND('',#289,.T.);
#360=FACE_BOUND('',#290,.T.);
#361=FACE_BOUND('',#291,.T.);
#362=FACE_BOUND('',#292,.T.);
#363=FACE_BOUND('',#293,.T.);
#364=FACE_BOUND('',#294,.T.);
#365=FACE_BOUND('',#295,.T.);
#366=FACE_BOUND('',#296,.T.);
#367=FACE_BOUND('',#297,.T.);
#368=FACE_BOUND('',#298,.T.);
#369=FACE_BOUND('',#299,.T.);
#370=FACE_BOUND('',#300,.T.);
#371=FACE_BOUND('',#301,.T.);
#372=FACE_BOUND('',#302,.T.);
#373=FACE_BOUND('',#303,.T.);
#374=FACE_BOUND('',#304,.T.);
#375=FACE_BOUND('',#305,.T.);
#376=FACE_BOUND('',#306,.T.);
#377=FACE_BOUND('',#307,.T.);
#378=FACE_BOUND('',#308,.T.);
#379=FACE_BOUND('',#309,.T.);
#380=FACE_BOUND('',#310,.T.);
#381=FACE_BOUND('',#311,.T.);
#382=FACE_BOUND('',#312,.T.);
#383=FACE_BOUND('',#313,.T.);
#384=FACE_BOUND('',#314,.T.);
#385=FACE_BOUND('',#315,.T.);
#386=FACE_BOUND('',#316,.T.);
#387=FACE_BOUND('',#317,.T.);
#388=FACE_BOUND('',#318,.T.);
#389=FACE_BOUND('',#319,.T.);
#390=FACE_BOUND('',#320,.T.);
#391=FACE_BOUND('',#321,.T.);
#392=FACE_BOUND('',#322,.T.);
#393=FACE_BOUND('',#323,.T.);
#394=CYLINDRICAL_SURFACE('',#453,0.0012);
#395=CYLINDRICAL_SURFACE('',#456,0.0012);
#396=CYLINDRICAL_SURFACE('',#459,0.0012);
#397=CYLINDRICAL_SURFACE('',#462,0.00119999999999998);
#398=CYLINDRICAL_SURFACE('',#465,0.00119999999999998);
#399=CYLINDRICAL_SURFACE('',#468,0.00119999999999998);
#400=CYLINDRICAL_SURFACE('',#471,0.00119999999999998);
#401=CYLINDRICAL_SURFACE('',#474,0.0012);
#402=CYLINDRICAL_SURFACE('',#491,0.0025);
#403=CYLINDRICAL_SURFACE('',#494,0.0025);
#404=CYLINDRICAL_SURFACE('',#497,0.0025);
#405=CYLINDRICAL_SURFACE('',#500,0.0025);
#406=CYLINDRICAL_SURFACE('',#503,0.0025);
#407=CYLINDRICAL_SURFACE('',#506,0.0025);
#408=CYLINDRICAL_SURFACE('',#509,0.0025);
#409=CYLINDRICAL_SURFACE('',#512,0.0025);
#410=ADVANCED_FACE('',(#324,#325),#394,.F.);
#411=ADVANCED_FACE('',(#326,#327),#395,.F.);
#412=ADVANCED_FACE('',(#328,#329),#396,.F.);
#413=ADVANCED_FACE('',(#330,#331),#397,.F.);
#414=ADVANCED_FACE('',(#332,#333),#398,.F.);
#415=ADVANCED_FACE('',(#334,#335),#399,.F.);
#416=ADVANCED_FACE('',(#336,#337),#400,.F.);
#417=ADVANCED_FACE('',(#338,#339),#401,.F.);
#418=ADVANCED_FACE('',(#340),#36,.T.);
#419=ADVANCED_FACE('',(#341),#37,.F.);
#420=ADVANCED_FACE('',(#342),#38,.F.);
#421=ADVANCED_FACE('',(#343),#39,.T.);
#422=ADVANCED_FACE('',(#344,#345,#346,#347,#348,#349,#350,#351,#352),#40,
 .F.);
#423=ADVANCED_FACE('',(#353,#354,#355,#356,#357,#358,#359,#360,#361),#41,
 .F.);
#424=ADVANCED_FACE('',(#362,#363),#402,.F.);
#425=ADVANCED_FACE('',(#364,#365),#42,.T.);
#426=ADVANCED_FACE('',(#366,#367),#403,.F.);
#427=ADVANCED_FACE('',(#368,#369),#43,.T.);
#428=ADVANCED_FACE('',(#370,#371),#404,.F.);
#429=ADVANCED_FACE('',(#372,#373),#44,.T.);
#430=ADVANCED_FACE('',(#374,#375),#405,.F.);
#431=ADVANCED_FACE('',(#376,#377),#45,.T.);
#432=ADVANCED_FACE('',(#378,#379),#406,.F.);
#433=ADVANCED_FACE('',(#380,#381),#46,.T.);
#434=ADVANCED_FACE('',(#382,#383),#407,.F.);
#435=ADVANCED_FACE('',(#384,#385),#47,.T.);
#436=ADVANCED_FACE('',(#386,#387),#408,.F.);
#437=ADVANCED_FACE('',(#388,#389),#48,.T.);
#438=ADVANCED_FACE('',(#390,#391),#409,.F.);
#439=ADVANCED_FACE('',(#392,#393),#49,.T.);
#440=CLOSED_SHELL('',(#410,#411,#412,#413,#414,#415,#416,#417,#418,#419,
#420,#421,#422,#423,#424,#425,#426,#427,#428,#429,#430,#431,#432,#433,#434,
#435,#436,#437,#438,#439));
#441=STYLED_ITEM('',(#442),#449);
#442=PRESENTATION_STYLE_ASSIGNMENT((#443));
#443=SURFACE_STYLE_USAGE(.BOTH.,#444);
#444=SURFACE_SIDE_STYLE('',(#445));
#445=SURFACE_STYLE_FILL_AREA(#446);
#446=FILL_AREA_STYLE('',(#447));
#447=FILL_AREA_STYLE_COLOUR('',#448);
#448=COLOUR_RGB('',0.231372549019608,0.380392156862745,0.705882352941177);
#449=MANIFOLD_SOLID_BREP('BottomCase',#440);
#450=SHAPE_DEFINITION_REPRESENTATION(#774,#451);
#451=SHAPE_REPRESENTATION('BottomCase',(#452),#769);
#452=AXIS2_PLACEMENT_3D('',#653,#515,#516);
#453=AXIS2_PLACEMENT_3D('',#654,#517,#518);
#454=AXIS2_PLACEMENT_3D('',#655,#519,#520);
#455=AXIS2_PLACEMENT_3D('',#657,#521,#522);
#456=AXIS2_PLACEMENT_3D('',#659,#523,#524);
#457=AXIS2_PLACEMENT_3D('',#660,#525,#526);
#458=AXIS2_PLACEMENT_3D('',#662,#527,#528);
#459=AXIS2_PLACEMENT_3D('',#664,#529,#530);
#460=AXIS2_PLACEMENT_3D('',#665,#531,#532);
#461=AXIS2_PLACEMENT_3D('',#667,#533,#534);
#462=AXIS2_PLACEMENT_3D('',#669,#535,#536);
#463=AXIS2_PLACEMENT_3D('',#670,#537,#538);
#464=AXIS2_PLACEMENT_3D('',#672,#539,#540);
#465=AXIS2_PLACEMENT_3D('',#674,#541,#542);
#466=AXIS2_PLACEMENT_3D('',#675,#543,#544);
#467=AXIS2_PLACEMENT_3D('',#677,#545,#546);
#468=AXIS2_PLACEMENT_3D('',#679,#547,#548);
#469=AXIS2_PLACEMENT_3D('',#680,#549,#550);
#470=AXIS2_PLACEMENT_3D('',#682,#551,#552);
#471=AXIS2_PLACEMENT_3D('',#684,#553,#554);
#472=AXIS2_PLACEMENT_3D('',#685,#555,#556);
#473=AXIS2_PLACEMENT_3D('',#687,#557,#558);
#474=AXIS2_PLACEMENT_3D('',#689,#559,#560);
#475=AXIS2_PLACEMENT_3D('',#690,#561,#562);
#476=AXIS2_PLACEMENT_3D('',#692,#563,#564);
#477=AXIS2_PLACEMENT_3D('',#694,#565,#566);
#478=AXIS2_PLACEMENT_3D('',#703,#571,#572);
#479=AXIS2_PLACEMENT_3D('',#709,#576,#577);
#480=AXIS2_PLACEMENT_3D('',#715,#581,#582);
#481=AXIS2_PLACEMENT_3D('',#718,#585,#586);
#482=AXIS2_PLACEMENT_3D('',#719,#587,#588);
#483=AXIS2_PLACEMENT_3D('',#720,#589,#590);
#484=AXIS2_PLACEMENT_3D('',#722,#591,#592);
#485=AXIS2_PLACEMENT_3D('',#724,#593,#594);
#486=AXIS2_PLACEMENT_3D('',#726,#595,#596);
#487=AXIS2_PLACEMENT_3D('',#728,#597,#598);
#488=AXIS2_PLACEMENT_3D('',#730,#599,#600);
#489=AXIS2_PLACEMENT_3D('',#732,#601,#602);
#490=AXIS2_PLACEMENT_3D('',#734,#603,#604);
#491=AXIS2_PLACEMENT_3D('',#736,#605,#606);
#492=AXIS2_PLACEMENT_3D('',#737,#607,#608);
#493=AXIS2_PLACEMENT_3D('',#739,#609,#610);
#494=AXIS2_PLACEMENT_3D('',#740,#611,#612);
#495=AXIS2_PLACEMENT_3D('',#741,#613,#614);
#496=AXIS2_PLACEMENT_3D('',#743,#615,#616);
#497=AXIS2_PLACEMENT_3D('',#744,#617,#618);
#498=AXIS2_PLACEMENT_3D('',#745,#619,#620);
#499=AXIS2_PLACEMENT_3D('',#747,#621,#622);
#500=AXIS2_PLACEMENT_3D('',#748,#623,#624);
#501=AXIS2_PLACEMENT_3D('',#749,#625,#626);
#502=AXIS2_PLACEMENT_3D('',#751,#627,#628);
#503=AXIS2_PLACEMENT_3D('',#752,#629,#630);
#504=AXIS2_PLACEMENT_3D('',#753,#631,#632);
#505=AXIS2_PLACEMENT_3D('',#755,#633,#634);
#506=AXIS2_PLACEMENT_3D('',#756,#635,#636);
#507=AXIS2_PLACEMENT_3D('',#757,#637,#638);
#508=AXIS2_PLACEMENT_3D('',#759,#639,#640);
#509=AXIS2_PLACEMENT_3D('',#760,#641,#642);
#510=AXIS2_PLACEMENT_3D('',#761,#643,#644);
#511=AXIS2_PLACEMENT_3D('',#763,#645,#646);
#512=AXIS2_PLACEMENT_3D('',#764,#647,#648);
#513=AXIS2_PLACEMENT_3D('',#765,#649,#650);
#514=AXIS2_PLACEMENT_3D('',#767,#651,#652);
#515=DIRECTION('',(0.,0.,1.));
#516=DIRECTION('',(1.,0.,0.));
#517=DIRECTION('',(0.,0.,1.));
#518=DIRECTION('',(1.,0.,0.));
#519=DIRECTION('',(0.,0.,-1.));
#520=DIRECTION('',(-1.,0.,0.));
#521=DIRECTION('',(1.93707071688255E-17,-0.104528463267654,-0.994521895368273));
#522=DIRECTION('',(1.84299967740228E-16,-0.994521895368273,0.104528463267654));
#523=DIRECTION('',(0.,0.,1.));
#524=DIRECTION('',(1.,0.,0.));
#525=DIRECTION('',(0.,0.,-1.));
#526=DIRECTION('',(-1.,0.,0.));
#527=DIRECTION('',(1.93707071688255E-17,-0.104528463267654,-0.994521895368273));
#528=DIRECTION('',(1.84299967740228E-16,-0.994521895368273,0.104528463267654));
#529=DIRECTION('',(0.,0.,1.));
#530=DIRECTION('',(1.,0.,0.));
#531=DIRECTION('',(0.,0.,-1.));
#532=DIRECTION('',(-1.,0.,0.));
#533=DIRECTION('',(1.93707071688255E-17,-0.104528463267654,-0.994521895368273));
#534=DIRECTION('',(1.84299967740228E-16,-0.994521895368273,0.104528463267654));
#535=DIRECTION('',(0.,0.,1.));
#536=DIRECTION('',(1.,0.,0.));
#537=DIRECTION('',(0.,0.,-1.));
#538=DIRECTION('',(-1.,0.,0.));
#539=DIRECTION('',(1.93707071688255E-17,-0.104528463267654,-0.994521895368273));
#540=DIRECTION('',(1.84299967740228E-16,-0.994521895368273,0.104528463267654));
#541=DIRECTION('',(0.,0.,1.));
#542=DIRECTION('',(1.,0.,0.));
#543=DIRECTION('',(0.,0.,-1.));
#544=DIRECTION('',(-1.,0.,0.));
#545=DIRECTION('',(1.93707071688255E-17,-0.104528463267654,-0.994521895368273));
#546=DIRECTION('',(1.84299967740228E-16,-0.994521895368273,0.104528463267654));
#547=DIRECTION('',(0.,0.,1.));
#548=DIRECTION('',(1.,0.,0.));
#549=DIRECTION('',(0.,0.,-1.));
#550=DIRECTION('',(-1.,0.,0.));
#551=DIRECTION('',(1.93707071688255E-17,-0.104528463267654,-0.994521895368273));
#552=DIRECTION('',(1.84299967740228E-16,-0.994521895368273,0.104528463267654));
#553=DIRECTION('',(0.,0.,1.));
#554=DIRECTION('',(1.,0.,0.));
#555=DIRECTION('',(0.,0.,-1.));
#556=DIRECTION('',(-1.,0.,0.));
#557=DIRECTION('',(1.93707071688255E-17,-0.104528463267654,-0.994521895368273));
#558=DIRECTION('',(1.84299967740228E-16,-0.994521895368273,0.104528463267654));
#559=DIRECTION('',(0.,0.,1.));
#560=DIRECTION('',(1.,0.,0.));
#561=DIRECTION('',(0.,0.,-1.));
#562=DIRECTION('',(-1.,0.,0.));
#563=DIRECTION('',(1.93707071688255E-17,-0.104528463267654,-0.994521895368273));
#564=DIRECTION('',(1.84299967740228E-16,-0.994521895368273,0.104528463267654));
#565=DIRECTION('',(-1.,-1.85315143486088E-16,0.));
#566=DIRECTION('',(1.85315143486088E-16,-1.,0.));
#567=DIRECTION('',(1.85315143486088E-16,-1.,0.));
#568=DIRECTION('',(0.,0.,1.));
#569=DIRECTION('',(-1.84299967740228E-16,0.994521895368273,-0.104528463267654));
#570=DIRECTION('',(0.,0.,1.));
#571=DIRECTION('',(1.22116595130084E-16,-1.,0.));
#572=DIRECTION('',(1.,1.22116595130084E-16,0.));
#573=DIRECTION('',(1.,1.22116595130084E-16,0.));
#574=DIRECTION('',(0.,0.,1.));
#575=DIRECTION('',(-1.,-1.85315143486088E-16,0.));
#576=DIRECTION('',(-1.,0.,0.));
#577=DIRECTION('',(0.,0.,1.));
#578=DIRECTION('',(0.,-1.,0.));
#579=DIRECTION('',(0.,0.,1.));
#580=DIRECTION('',(0.,-0.994521895368273,0.104528463267654));
#581=DIRECTION('',(1.22116595130084E-16,-1.,0.));
#582=DIRECTION('',(1.,1.22116595130084E-16,0.));
#583=DIRECTION('',(1.,1.22116595130084E-16,0.));
#584=DIRECTION('',(1.,1.22116595130084E-16,0.));
#585=DIRECTION('',(0.,0.,-1.));
#586=DIRECTION('',(1.,0.,0.));
#587=DIRECTION('',(-1.93707071688255E-17,0.104528463267654,0.994521895368273));
#588=DIRECTION('',(0.,-0.994521895368273,0.104528463267654));
#589=DIRECTION('',(1.93707071688255E-17,-0.104528463267654,-0.994521895368273));
#590=DIRECTION('',(0.,0.994521895368273,-0.104528463267654));
#591=DIRECTION('',(1.93707071688255E-17,-0.104528463267654,-0.994521895368273));
#592=DIRECTION('',(0.,0.994521895368273,-0.104528463267654));
#593=DIRECTION('',(1.93707071688255E-17,-0.104528463267654,-0.994521895368273));
#594=DIRECTION('',(0.,0.994521895368273,-0.104528463267654));
#595=DIRECTION('',(1.93707071688255E-17,-0.104528463267654,-0.994521895368273));
#596=DIRECTION('',(0.,0.994521895368273,-0.104528463267654));
#597=DIRECTION('',(1.93707071688255E-17,-0.104528463267654,-0.994521895368273));
#598=DIRECTION('',(0.,0.994521895368273,-0.104528463267654));
#599=DIRECTION('',(1.93707071688255E-17,-0.104528463267654,-0.994521895368273));
#600=DIRECTION('',(0.,0.994521895368273,-0.104528463267654));
#601=DIRECTION('',(1.93707071688255E-17,-0.104528463267654,-0.994521895368273));
#602=DIRECTION('',(0.,0.994521895368273,-0.104528463267654));
#603=DIRECTION('',(1.93707071688255E-17,-0.104528463267654,-0.994521895368273));
#604=DIRECTION('',(0.,0.994521895368273,-0.104528463267654));
#605=DIRECTION('',(1.93707071688255E-17,-0.104528463267654,-0.994521895368273));
#606=DIRECTION('',(0.,0.994521895368273,-0.104528463267654));
#607=DIRECTION('',(1.93707071688255E-17,-0.104528463267654,-0.994521895368273));
#608=DIRECTION('',(0.,0.994521895368273,-0.104528463267654));
#609=DIRECTION('',(1.93707071688255E-17,-0.104528463267654,-0.994521895368273));
#610=DIRECTION('',(1.,2.02479025276506E-18,1.92645924081642E-17));
#611=DIRECTION('',(1.93707071688255E-17,-0.104528463267654,-0.994521895368273));
#612=DIRECTION('',(0.,0.994521895368273,-0.104528463267654));
#613=DIRECTION('',(1.93707071688255E-17,-0.104528463267654,-0.994521895368273));
#614=DIRECTION('',(0.,0.994521895368273,-0.104528463267654));
#615=DIRECTION('',(1.93707071688255E-17,-0.104528463267654,-0.994521895368273));
#616=DIRECTION('',(1.,2.02479025276506E-18,1.92645924081642E-17));
#617=DIRECTION('',(1.93707071688255E-17,-0.104528463267654,-0.994521895368273));
#618=DIRECTION('',(0.,0.994521895368273,-0.104528463267654));
#619=DIRECTION('',(1.93707071688255E-17,-0.104528463267654,-0.994521895368273));
#620=DIRECTION('',(0.,0.994521895368273,-0.104528463267654));
#621=DIRECTION('',(1.93707071688255E-17,-0.104528463267654,-0.994521895368273));
#622=DIRECTION('',(1.,2.02479025276506E-18,1.92645924081642E-17));
#623=DIRECTION('',(1.93707071688255E-17,-0.104528463267654,-0.994521895368273));
#624=DIRECTION('',(0.,0.994521895368273,-0.104528463267654));
#625=DIRECTION('',(1.93707071688255E-17,-0.104528463267654,-0.994521895368273));
#626=DIRECTION('',(0.,0.994521895368273,-0.104528463267654));
#627=DIRECTION('',(1.93707071688255E-17,-0.104528463267654,-0.994521895368273));
#628=DIRECTION('',(1.,2.02479025276506E-18,1.92645924081642E-17));
#629=DIRECTION('',(1.93707071688255E-17,-0.104528463267654,-0.994521895368273));
#630=DIRECTION('',(0.,0.994521895368273,-0.104528463267654));
#631=DIRECTION('',(1.93707071688255E-17,-0.104528463267654,-0.994521895368273));
#632=DIRECTION('',(0.,0.994521895368273,-0.104528463267654));
#633=DIRECTION('',(1.93707071688255E-17,-0.104528463267654,-0.994521895368273));
#634=DIRECTION('',(1.,2.02479025276506E-18,1.92645924081642E-17));
#635=DIRECTION('',(1.93707071688255E-17,-0.104528463267654,-0.994521895368273));
#636=DIRECTION('',(0.,0.994521895368273,-0.104528463267654));
#637=DIRECTION('',(1.93707071688255E-17,-0.104528463267654,-0.994521895368273));
#638=DIRECTION('',(0.,0.994521895368273,-0.104528463267654));
#639=DIRECTION('',(1.93707071688255E-17,-0.104528463267654,-0.994521895368273));
#640=DIRECTION('',(1.,2.02479025276506E-18,1.92645924081642E-17));
#641=DIRECTION('',(1.93707071688255E-17,-0.104528463267654,-0.994521895368273));
#642=DIRECTION('',(0.,0.994521895368273,-0.104528463267654));
#643=DIRECTION('',(1.93707071688255E-17,-0.104528463267654,-0.994521895368273));
#644=DIRECTION('',(0.,0.994521895368273,-0.104528463267654));
#645=DIRECTION('',(1.93707071688255E-17,-0.104528463267654,-0.994521895368273));
#646=DIRECTION('',(1.,2.02479025276506E-18,1.92645924081642E-17));
#647=DIRECTION('',(1.93707071688255E-17,-0.104528463267654,-0.994521895368273));
#648=DIRECTION('',(0.,0.994521895368273,-0.104528463267654));
#649=DIRECTION('',(1.93707071688255E-17,-0.104528463267654,-0.994521895368273));
#650=DIRECTION('',(0.,0.994521895368273,-0.104528463267654));
#651=DIRECTION('',(1.93707071688255E-17,-0.104528463267654,-0.994521895368273));
#652=DIRECTION('',(1.,2.02479025276506E-18,1.92645924081642E-17));
#653=CARTESIAN_POINT('',(0.,0.,0.));
#654=CARTESIAN_POINT('',(0.0188,-0.0188,-0.487844554191488));
#655=CARTESIAN_POINT('',(0.0188,-0.0188,-0.00749));
#656=CARTESIAN_POINT('',(0.0176,-0.0188,-0.00749));
#657=CARTESIAN_POINT('',(0.0188,-0.0188,-0.0243818825851578));
#658=CARTESIAN_POINT('',(0.0188,-0.02,-0.024255757502839));
#659=CARTESIAN_POINT('',(0.0188,-0.1616875,-0.487844554191488));
#660=CARTESIAN_POINT('',(0.0188,-0.1616875,-0.00749));
#661=CARTESIAN_POINT('',(0.0176,-0.1616875,-0.00749));
#662=CARTESIAN_POINT('',(0.0188,-0.1616875,-0.00936380116863339));
#663=CARTESIAN_POINT('',(0.0188,-0.1628875,-0.00923767608631458));
#664=CARTESIAN_POINT('',(0.1678,-0.1616875,-0.487844554191488));
#665=CARTESIAN_POINT('',(0.1678,-0.1616875,-0.00749));
#666=CARTESIAN_POINT('',(0.1666,-0.1616875,-0.00749));
#667=CARTESIAN_POINT('',(0.1678,-0.1616875,-0.00936380116863339));
#668=CARTESIAN_POINT('',(0.1678,-0.1628875,-0.00923767608631458));
#669=CARTESIAN_POINT('',(0.2978,-0.1616875,-0.487844554191488));
#670=CARTESIAN_POINT('',(0.2978,-0.1616875,-0.00749));
#671=CARTESIAN_POINT('',(0.2966,-0.1616875,-0.00749));
#672=CARTESIAN_POINT('',(0.2978,-0.1616875,-0.00936380116863339));
#673=CARTESIAN_POINT('',(0.2978,-0.1628875,-0.00923767608631458));
#674=CARTESIAN_POINT('',(0.4665875,-0.1616875,-0.487844554191488));
#675=CARTESIAN_POINT('',(0.4665875,-0.1616875,-0.00749));
#676=CARTESIAN_POINT('',(0.4653875,-0.1616875,-0.00749));
#677=CARTESIAN_POINT('',(0.4665875,-0.1616875,-0.00936380116863339));
#678=CARTESIAN_POINT('',(0.4665875,-0.1628875,-0.00923767608631458));
#679=CARTESIAN_POINT('',(0.4665875,-0.0188,-0.487844554191488));
#680=CARTESIAN_POINT('',(0.4665875,-0.0188,-0.00749));
#681=CARTESIAN_POINT('',(0.4653875,-0.0188,-0.00749));
#682=CARTESIAN_POINT('',(0.4665875,-0.0188,-0.0243818825851578));
#683=CARTESIAN_POINT('',(0.4665875,-0.02,-0.024255757502839));
#684=CARTESIAN_POINT('',(0.2978,-0.0188,-0.487844554191488));
#685=CARTESIAN_POINT('',(0.2978,-0.0188,-0.00749));
#686=CARTESIAN_POINT('',(0.2966,-0.0188,-0.00749));
#687=CARTESIAN_POINT('',(0.2978,-0.0188,-0.0243818825851578));
#688=CARTESIAN_POINT('',(0.2978,-0.02,-0.024255757502839));
#689=CARTESIAN_POINT('',(0.1678,-0.0188,-0.487844554191488));
#690=CARTESIAN_POINT('',(0.1678,-0.0188,-0.00749));
#691=CARTESIAN_POINT('',(0.1666,-0.0188,-0.00749));
#692=CARTESIAN_POINT('',(0.1678,-0.0188,-0.0243818825851578));
#693=CARTESIAN_POINT('',(0.1678,-0.02,-0.024255757502839));
#694=CARTESIAN_POINT('',(0.0156,-0.0904875,-0.01149));
#695=CARTESIAN_POINT('',(0.0156,-0.0904875,-0.00749));
#696=CARTESIAN_POINT('',(0.0156,-0.0156,-0.00749));
#697=CARTESIAN_POINT('',(0.0156,-0.165375,-0.00749));
#698=CARTESIAN_POINT('',(0.0156,-0.0156,-0.01149));
#699=CARTESIAN_POINT('',(0.0156,-0.0156,-0.0272319868369167));
#700=CARTESIAN_POINT('',(0.0156,-0.0904875,-0.0193609934184583));
#701=CARTESIAN_POINT('',(0.0156,-0.165375,-0.01149));
#702=CARTESIAN_POINT('',(0.0156,-0.165375,-0.01149));
#703=CARTESIAN_POINT('',(0.2428875,-0.0156,-0.01149));
#704=CARTESIAN_POINT('',(0.2428875,-0.0156,-0.00749));
#705=CARTESIAN_POINT('',(0.470175,-0.0156,-0.00749));
#706=CARTESIAN_POINT('',(0.470175,-0.0156,-0.01149));
#707=CARTESIAN_POINT('',(0.470175,-0.0156,-0.0272319868369167));
#708=CARTESIAN_POINT('',(0.470177,-0.0156,-0.0272319868369167));
#709=CARTESIAN_POINT('',(0.470175,-0.0904875,-0.01149));
#710=CARTESIAN_POINT('',(0.470175,-0.0904875,-0.00749));
#711=CARTESIAN_POINT('',(0.470175,-0.165375,-0.00749));
#712=CARTESIAN_POINT('',(0.470175,-0.165375,-0.01149));
#713=CARTESIAN_POINT('',(0.470175,-0.165375,-0.01149));
#714=CARTESIAN_POINT('',(0.470175,-0.0904875,-0.0193609934184583));
#715=CARTESIAN_POINT('',(0.2428875,-0.165375,-0.01149));
#716=CARTESIAN_POINT('',(0.2428875,-0.165375,-0.00749));
#717=CARTESIAN_POINT('',(0.2428875,-0.165375,-0.01149));
#718=CARTESIAN_POINT('',(0.2428875,-0.0904875,-0.00749));
#719=CARTESIAN_POINT('',(0.470177,-0.0904875,-0.0193609934184583));
#720=CARTESIAN_POINT('',(0.1678,-0.0188,-0.0268956532840666));
#721=CARTESIAN_POINT('',(0.1678,-0.0163136952615793,-0.0271569744422357));
#722=CARTESIAN_POINT('',(0.2978,-0.0188,-0.0268956532840666));
#723=CARTESIAN_POINT('',(0.2978,-0.0163136952615793,-0.0271569744422357));
#724=CARTESIAN_POINT('',(0.4665875,-0.0188,-0.0268956532840666));
#725=CARTESIAN_POINT('',(0.4665875,-0.0163136952615793,-0.0271569744422357));
#726=CARTESIAN_POINT('',(0.4665875,-0.1616875,-0.0118775718675422));
#727=CARTESIAN_POINT('',(0.4665875,-0.159201195261579,-0.0121388930257113));
#728=CARTESIAN_POINT('',(0.2978,-0.1616875,-0.0118775718675422));
#729=CARTESIAN_POINT('',(0.2978,-0.159201195261579,-0.0121388930257113));
#730=CARTESIAN_POINT('',(0.1678,-0.1616875,-0.0118775718675422));
#731=CARTESIAN_POINT('',(0.1678,-0.159201195261579,-0.0121388930257113));
#732=CARTESIAN_POINT('',(0.0188,-0.1616875,-0.0118775718675422));
#733=CARTESIAN_POINT('',(0.0188,-0.159201195261579,-0.0121388930257113));
#734=CARTESIAN_POINT('',(0.0188,-0.0188,-0.0268956532840666));
#735=CARTESIAN_POINT('',(0.0188,-0.0163136952615793,-0.0271569744422357));
#736=CARTESIAN_POINT('',(0.1678,-0.0185386788418309,-0.0244093485456459));
#737=CARTESIAN_POINT('',(0.1678,-0.0185386788418309,-0.0244093485456459));
#738=CARTESIAN_POINT('',(0.1678,-0.0160523741034102,-0.024670669703815));
#739=CARTESIAN_POINT('',(0.2428875,-0.0902261788418309,-0.0168746886800377));
#740=CARTESIAN_POINT('',(0.2978,-0.0185386788418309,-0.0244093485456459));
#741=CARTESIAN_POINT('',(0.2978,-0.0185386788418309,-0.0244093485456459));
#742=CARTESIAN_POINT('',(0.2978,-0.0160523741034102,-0.024670669703815));
#743=CARTESIAN_POINT('',(0.2428875,-0.0902261788418309,-0.0168746886800377));
#744=CARTESIAN_POINT('',(0.4665875,-0.0185386788418309,-0.0244093485456459));
#745=CARTESIAN_POINT('',(0.4665875,-0.0185386788418309,-0.0244093485456459));
#746=CARTESIAN_POINT('',(0.4665875,-0.0160523741034102,-0.024670669703815));
#747=CARTESIAN_POINT('',(0.2428875,-0.0902261788418309,-0.0168746886800377));
#748=CARTESIAN_POINT('',(0.4665875,-0.161426178841831,-0.00939126712912151));
#749=CARTESIAN_POINT('',(0.4665875,-0.161426178841831,-0.00939126712912151));
#750=CARTESIAN_POINT('',(0.4665875,-0.15893987410341,-0.00965258828729064));
#751=CARTESIAN_POINT('',(0.2428875,-0.0902261788418309,-0.0168746886800377));
#752=CARTESIAN_POINT('',(0.2978,-0.161426178841831,-0.00939126712912151));
#753=CARTESIAN_POINT('',(0.2978,-0.161426178841831,-0.00939126712912151));
#754=CARTESIAN_POINT('',(0.2978,-0.15893987410341,-0.00965258828729064));
#755=CARTESIAN_POINT('',(0.2428875,-0.0902261788418309,-0.0168746886800377));
#756=CARTESIAN_POINT('',(0.1678,-0.161426178841831,-0.00939126712912151));
#757=CARTESIAN_POINT('',(0.1678,-0.161426178841831,-0.00939126712912151));
#758=CARTESIAN_POINT('',(0.1678,-0.15893987410341,-0.00965258828729064));
#759=CARTESIAN_POINT('',(0.2428875,-0.0902261788418309,-0.0168746886800377));
#760=CARTESIAN_POINT('',(0.0188,-0.161426178841831,-0.00939126712912151));
#761=CARTESIAN_POINT('',(0.0188,-0.161426178841831,-0.00939126712912151));
#762=CARTESIAN_POINT('',(0.0188,-0.15893987410341,-0.00965258828729064));
#763=CARTESIAN_POINT('',(0.2428875,-0.0902261788418309,-0.0168746886800377));
#764=CARTESIAN_POINT('',(0.0188,-0.0185386788418309,-0.0244093485456459));
#765=CARTESIAN_POINT('',(0.0188,-0.0185386788418309,-0.0244093485456459));
#766=CARTESIAN_POINT('',(0.0188,-0.0160523741034102,-0.024670669703815));
#767=CARTESIAN_POINT('',(0.2428875,-0.0902261788418309,-0.0168746886800377));
#768=MECHANICAL_DESIGN_GEOMETRIC_PRESENTATION_REPRESENTATION('',(#441),
#769);
#769=(
GEOMETRIC_REPRESENTATION_CONTEXT(3)
GLOBAL_UNCERTAINTY_ASSIGNED_CONTEXT((#770))
GLOBAL_UNIT_ASSIGNED_CONTEXT((#773,#772,#771))
REPRESENTATION_CONTEXT('BottomCase','TOP_LEVEL_ASSEMBLY_PART')
);
#770=UNCERTAINTY_MEASURE_WITH_UNIT(LENGTH_MEASURE(1.E-8),#773,
'DISTANCE_ACCURACY_VALUE','Maximum Tolerance applied to model');
#771=(
NAMED_UNIT(*)
SI_UNIT($,.STERADIAN.)
SOLID_ANGLE_UNIT()
);
#772=(
NAMED_UNIT(*)
PLANE_ANGLE_UNIT()
SI_UNIT($,.RADIAN.)
);
#773=(
LENGTH_UNIT()
NAMED_UNIT(*)
SI_UNIT($,.METRE.)
);
#774=PRODUCT_DEFINITION_SHAPE('','',#775);
#775=PRODUCT_DEFINITION('','',#777,#776);
#776=PRODUCT_DEFINITION_CONTEXT('',#783,'design');
#777=PRODUCT_DEFINITION_FORMATION_WITH_SPECIFIED_SOURCE('','',#779,
 .NOT_KNOWN.);
#778=PRODUCT_RELATED_PRODUCT_CATEGORY('','',(#779));
#779=PRODUCT('BottomCase','BottomCase','BottomCase',(#781));
#780=PRODUCT_CATEGORY('','');
#781=PRODUCT_CONTEXT('',#783,'mechanical');
#782=APPLICATION_PROTOCOL_DEFINITION('international standard',
'ap242_managed_model_based_3d_engineering',2020,#783);
#783=APPLICATION_CONTEXT('managed model based 3d engineering');
ENDSEC;
END-ISO-10303-21;
