ISO-10303-21;
HEADER;
/* Generated by software containing ST-Developer
 * from STEP Tools, Inc. (www.steptools.com) 
 */
/* OPTION: using custom renumber hook */

FILE_DESCRIPTION(
/* description */ ('STEP AP242 Edition 2',
'CAx-IF Rec.Pracs.---Representation and Presentation of Product Manufa
cturing Information (PMI)---4.0---2014-10-13',
'CAx-IF Rec.Pracs.---3D Tessellated Geometry---0.4---2014-09-14','2;1',
'CAx-IF Rec.Pracs.---User Defined Attributes---1.5---2016-08-15'),
/* implementation_level */ '2;1');

FILE_NAME(
/* name */ 'Case - BottomCaseRight',
/* time_stamp */ '2026-10-05T22:03:44Z',
/* author */ (''),
/* organization */ (''),
/* preprocessor_version */ 'ST-DEVELOPER v20',
/* originating_system */ 'ONSHAPE BY PTC INC, 1.221',
/* authorisation */ '  ');

FILE_SCHEMA (('AP242_MANAGED_MODEL_BASED_3D_ENGINEERING_MIM_LF { 1 0 10303 442 3 1 4 }'));
ENDSEC;

DATA;
#10=SHAPE_REPRESENTATION_RELATIONSHIP('','',#325,#11);
#11=ADVANCED_BREP_SHAPE_REPRESENTATION('',(#323),#523);
#12=ELLIPSE('',#334,0.0012066099354762,0.00119999999999998);
#13=ELLIPSE('',#336,0.0012066099354762,0.00119999999999998);
#14=CYLINDRICAL_SURFACE('',#333,0.00119999999999998);
#15=CYLINDRICAL_SURFACE('',#335,0.00119999999999998);
#16=CYLINDRICAL_SURFACE('',#340,0.0025);
#17=CYLINDRICAL_SURFACE('',#343,0.0025);
#18=LINE('',#443,#48);
#19=LINE('',#446,#49);
#20=LINE('',#448,#50);
#21=LINE('',#450,#51);
#22=LINE('',#452,#52);
#23=LINE('',#454,#53);
#24=LINE('',#456,#54);
#25=LINE('',#458,#55);
#26=LINE('',#460,#56);
#27=LINE('',#462,#57);
#28=LINE('',#468,#58);
#29=LINE('',#471,#59);
#30=LINE('',#473,#60);
#31=LINE('',#475,#61);
#32=LINE('',#477,#62);
#33=LINE('',#479,#63);
#34=LINE('',#481,#64);
#35=LINE('',#483,#65);
#36=LINE('',#485,#66);
#37=LINE('',#487,#67);
#38=LINE('',#495,#68);
#39=LINE('',#496,#69);
#40=LINE('',#498,#70);
#41=LINE('',#500,#71);
#42=LINE('',#510,#72);
#43=LINE('',#512,#73);
#44=LINE('',#514,#74);
#45=LINE('',#516,#75);
#46=LINE('',#518,#76);
#47=LINE('',#520,#77);
#48=VECTOR('',#361,1.);
#49=VECTOR('',#362,1.);
#50=VECTOR('',#363,1.);
#51=VECTOR('',#364,1.);
#52=VECTOR('',#365,1.);
#53=VECTOR('',#366,1.);
#54=VECTOR('',#367,1.);
#55=VECTOR('',#368,1.);
#56=VECTOR('',#369,1.);
#57=VECTOR('',#370,1.);
#58=VECTOR('',#377,1.);
#59=VECTOR('',#378,1.);
#60=VECTOR('',#379,1.);
#61=VECTOR('',#380,1.);
#62=VECTOR('',#381,1.);
#63=VECTOR('',#382,1.);
#64=VECTOR('',#383,1.);
#65=VECTOR('',#384,1.);
#66=VECTOR('',#385,1.);
#67=VECTOR('',#386,1.);
#68=VECTOR('',#397,1.);
#69=VECTOR('',#398,1.);
#70=VECTOR('',#401,1.);
#71=VECTOR('',#404,1.);
#72=VECTOR('',#419,1.);
#73=VECTOR('',#422,1.);
#74=VECTOR('',#425,1.);
#75=VECTOR('',#428,1.);
#76=VECTOR('',#431,1.);
#77=VECTOR('',#434,1.);
#78=ORIENTED_EDGE('',*,*,#154,.T.);
#79=ORIENTED_EDGE('',*,*,#155,.T.);
#80=ORIENTED_EDGE('',*,*,#156,.F.);
#81=ORIENTED_EDGE('',*,*,#157,.T.);
#82=ORIENTED_EDGE('',*,*,#158,.F.);
#83=ORIENTED_EDGE('',*,*,#159,.F.);
#84=ORIENTED_EDGE('',*,*,#160,.F.);
#85=ORIENTED_EDGE('',*,*,#161,.F.);
#86=ORIENTED_EDGE('',*,*,#162,.F.);
#87=ORIENTED_EDGE('',*,*,#163,.F.);
#88=ORIENTED_EDGE('',*,*,#164,.F.);
#89=ORIENTED_EDGE('',*,*,#165,.F.);
#90=ORIENTED_EDGE('',*,*,#166,.F.);
#91=ORIENTED_EDGE('',*,*,#167,.F.);
#92=ORIENTED_EDGE('',*,*,#168,.F.);
#93=ORIENTED_EDGE('',*,*,#169,.T.);
#94=ORIENTED_EDGE('',*,*,#170,.T.);
#95=ORIENTED_EDGE('',*,*,#171,.T.);
#96=ORIENTED_EDGE('',*,*,#172,.T.);
#97=ORIENTED_EDGE('',*,*,#173,.T.);
#98=ORIENTED_EDGE('',*,*,#174,.T.);
#99=ORIENTED_EDGE('',*,*,#175,.T.);
#100=ORIENTED_EDGE('',*,*,#176,.F.);
#101=ORIENTED_EDGE('',*,*,#177,.T.);
#102=ORIENTED_EDGE('',*,*,#155,.F.);
#103=ORIENTED_EDGE('',*,*,#178,.T.);
#104=ORIENTED_EDGE('',*,*,#154,.F.);
#105=ORIENTED_EDGE('',*,*,#179,.T.);
#106=ORIENTED_EDGE('',*,*,#176,.T.);
#107=ORIENTED_EDGE('',*,*,#180,.T.);
#108=ORIENTED_EDGE('',*,*,#159,.T.);
#109=ORIENTED_EDGE('',*,*,#181,.F.);
#110=ORIENTED_EDGE('',*,*,#158,.T.);
#111=ORIENTED_EDGE('',*,*,#182,.F.);
#112=ORIENTED_EDGE('',*,*,#177,.F.);
#113=ORIENTED_EDGE('',*,*,#181,.T.);
#114=ORIENTED_EDGE('',*,*,#183,.F.);
#115=ORIENTED_EDGE('',*,*,#168,.T.);
#116=ORIENTED_EDGE('',*,*,#182,.T.);
#117=ORIENTED_EDGE('',*,*,#157,.F.);
#118=ORIENTED_EDGE('',*,*,#184,.F.);
#119=ORIENTED_EDGE('',*,*,#166,.T.);
#120=ORIENTED_EDGE('',*,*,#179,.F.);
#121=ORIENTED_EDGE('',*,*,#184,.T.);
#122=ORIENTED_EDGE('',*,*,#185,.F.);
#123=ORIENTED_EDGE('',*,*,#167,.T.);
#124=ORIENTED_EDGE('',*,*,#178,.F.);
#125=ORIENTED_EDGE('',*,*,#185,.T.);
#126=ORIENTED_EDGE('',*,*,#183,.T.);
#127=ORIENTED_EDGE('',*,*,#156,.T.);
#128=ORIENTED_EDGE('',*,*,#186,.F.);
#129=ORIENTED_EDGE('',*,*,#169,.F.);
#130=ORIENTED_EDGE('',*,*,#186,.T.);
#131=ORIENTED_EDGE('',*,*,#165,.T.);
#132=ORIENTED_EDGE('',*,*,#187,.F.);
#133=ORIENTED_EDGE('',*,*,#170,.F.);
#134=ORIENTED_EDGE('',*,*,#187,.T.);
#135=ORIENTED_EDGE('',*,*,#164,.T.);
#136=ORIENTED_EDGE('',*,*,#188,.F.);
#137=ORIENTED_EDGE('',*,*,#171,.F.);
#138=ORIENTED_EDGE('',*,*,#188,.T.);
#139=ORIENTED_EDGE('',*,*,#163,.T.);
#140=ORIENTED_EDGE('',*,*,#189,.F.);
#141=ORIENTED_EDGE('',*,*,#172,.F.);
#142=ORIENTED_EDGE('',*,*,#189,.T.);
#143=ORIENTED_EDGE('',*,*,#162,.T.);
#144=ORIENTED_EDGE('',*,*,#190,.F.);
#145=ORIENTED_EDGE('',*,*,#173,.F.);
#146=ORIENTED_EDGE('',*,*,#190,.T.);
#147=ORIENTED_EDGE('',*,*,#161,.T.);
#148=ORIENTED_EDGE('',*,*,#191,.F.);
#149=ORIENTED_EDGE('',*,*,#174,.F.);
#150=ORIENTED_EDGE('',*,*,#191,.T.);
#151=ORIENTED_EDGE('',*,*,#160,.T.);
#152=ORIENTED_EDGE('',*,*,#180,.F.);
#153=ORIENTED_EDGE('',*,*,#175,.F.);
#154=EDGE_CURVE('',#192,#192,#220,.T.);
#155=EDGE_CURVE('',#193,#193,#221,.T.);
#156=EDGE_CURVE('',#194,#195,#18,.F.);
#157=EDGE_CURVE('',#194,#196,#19,.T.);
#158=EDGE_CURVE('',#197,#196,#20,.T.);
#159=EDGE_CURVE('',#198,#197,#21,.T.);
#160=EDGE_CURVE('',#199,#198,#22,.F.);
#161=EDGE_CURVE('',#200,#199,#23,.F.);
#162=EDGE_CURVE('',#201,#200,#24,.F.);
#163=EDGE_CURVE('',#202,#201,#25,.F.);
#164=EDGE_CURVE('',#203,#202,#26,.F.);
#165=EDGE_CURVE('',#195,#203,#27,.F.);
#166=EDGE_CURVE('',#204,#204,#222,.T.);
#167=EDGE_CURVE('',#205,#205,#223,.T.);
#168=EDGE_CURVE('',#206,#207,#28,.T.);
#169=EDGE_CURVE('',#206,#208,#29,.T.);
#170=EDGE_CURVE('',#208,#209,#30,.T.);
#171=EDGE_CURVE('',#209,#210,#31,.T.);
#172=EDGE_CURVE('',#210,#211,#32,.T.);
#173=EDGE_CURVE('',#211,#212,#33,.T.);
#174=EDGE_CURVE('',#212,#213,#34,.T.);
#175=EDGE_CURVE('',#213,#214,#35,.T.);
#176=EDGE_CURVE('',#215,#214,#36,.T.);
#177=EDGE_CURVE('',#215,#207,#37,.T.);
#178=EDGE_CURVE('',#216,#216,#12,.T.);
#179=EDGE_CURVE('',#217,#217,#13,.T.);
#180=EDGE_CURVE('',#214,#198,#38,.T.);
#181=EDGE_CURVE('',#215,#197,#39,.T.);
#182=EDGE_CURVE('',#207,#196,#40,.T.);
#183=EDGE_CURVE('',#206,#194,#41,.T.);
#184=EDGE_CURVE('',#218,#218,#224,.T.);
#185=EDGE_CURVE('',#219,#219,#225,.T.);
#186=EDGE_CURVE('',#208,#195,#42,.T.);
#187=EDGE_CURVE('',#209,#203,#43,.T.);
#188=EDGE_CURVE('',#210,#202,#44,.T.);
#189=EDGE_CURVE('',#211,#201,#45,.T.);
#190=EDGE_CURVE('',#212,#200,#46,.T.);
#191=EDGE_CURVE('',#213,#199,#47,.T.);
#192=VERTEX_POINT('',#440);
#193=VERTEX_POINT('',#442);
#194=VERTEX_POINT('',#444);
#195=VERTEX_POINT('',#445);
#196=VERTEX_POINT('',#447);
#197=VERTEX_POINT('',#449);
#198=VERTEX_POINT('',#451);
#199=VERTEX_POINT('',#453);
#200=VERTEX_POINT('',#455);
#201=VERTEX_POINT('',#457);
#202=VERTEX_POINT('',#459);
#203=VERTEX_POINT('',#461);
#204=VERTEX_POINT('',#465);
#205=VERTEX_POINT('',#467);
#206=VERTEX_POINT('',#469);
#207=VERTEX_POINT('',#470);
#208=VERTEX_POINT('',#472);
#209=VERTEX_POINT('',#474);
#210=VERTEX_POINT('',#476);
#211=VERTEX_POINT('',#478);
#212=VERTEX_POINT('',#480);
#213=VERTEX_POINT('',#482);
#214=VERTEX_POINT('',#484);
#215=VERTEX_POINT('',#486);
#216=VERTEX_POINT('',#490);
#217=VERTEX_POINT('',#493);
#218=VERTEX_POINT('',#503);
#219=VERTEX_POINT('',#507);
#220=CIRCLE('',#328,0.00119999999999998);
#221=CIRCLE('',#329,0.00119999999999998);
#222=CIRCLE('',#331,0.0025);
#223=CIRCLE('',#332,0.0025);
#224=CIRCLE('',#341,0.0025);
#225=CIRCLE('',#344,0.0025);
#226=EDGE_LOOP('',(#78));
#227=EDGE_LOOP('',(#79));
#228=EDGE_LOOP('',(#80,#81,#82,#83,#84,#85,#86,#87,#88,#89));
#229=EDGE_LOOP('',(#90));
#230=EDGE_LOOP('',(#91));
#231=EDGE_LOOP('',(#92,#93,#94,#95,#96,#97,#98,#99,#100,#101));
#232=EDGE_LOOP('',(#102));
#233=EDGE_LOOP('',(#103));
#234=EDGE_LOOP('',(#104));
#235=EDGE_LOOP('',(#105));
#236=EDGE_LOOP('',(#106,#107,#108,#109));
#237=EDGE_LOOP('',(#110,#111,#112,#113));
#238=EDGE_LOOP('',(#114,#115,#116,#117));
#239=EDGE_LOOP('',(#118));
#240=EDGE_LOOP('',(#119));
#241=EDGE_LOOP('',(#120));
#242=EDGE_LOOP('',(#121));
#243=EDGE_LOOP('',(#122));
#244=EDGE_LOOP('',(#123));
#245=EDGE_LOOP('',(#124));
#246=EDGE_LOOP('',(#125));
#247=EDGE_LOOP('',(#126,#127,#128,#129));
#248=EDGE_LOOP('',(#130,#131,#132,#133));
#249=EDGE_LOOP('',(#134,#135,#136,#137));
#250=EDGE_LOOP('',(#138,#139,#140,#141));
#251=EDGE_LOOP('',(#142,#143,#144,#145));
#252=EDGE_LOOP('',(#146,#147,#148,#149));
#253=EDGE_LOOP('',(#150,#151,#152,#153));
#254=FACE_BOUND('',#226,.T.);
#255=FACE_BOUND('',#227,.T.);
#256=FACE_BOUND('',#228,.T.);
#257=FACE_BOUND('',#229,.T.);
#258=FACE_BOUND('',#230,.T.);
#259=FACE_BOUND('',#231,.T.);
#260=FACE_BOUND('',#232,.T.);
#261=FACE_BOUND('',#233,.T.);
#262=FACE_BOUND('',#234,.T.);
#263=FACE_BOUND('',#235,.T.);
#264=FACE_BOUND('',#236,.T.);
#265=FACE_BOUND('',#237,.T.);
#266=FACE_BOUND('',#238,.T.);
#267=FACE_BOUND('',#239,.T.);
#268=FACE_BOUND('',#240,.T.);
#269=FACE_BOUND('',#241,.T.);
#270=FACE_BOUND('',#242,.T.);
#271=FACE_BOUND('',#243,.T.);
#272=FACE_BOUND('',#244,.T.);
#273=FACE_BOUND('',#245,.T.);
#274=FACE_BOUND('',#246,.T.);
#275=FACE_BOUND('',#247,.T.);
#276=FACE_BOUND('',#248,.T.);
#277=FACE_BOUND('',#249,.T.);
#278=FACE_BOUND('',#250,.T.);
#279=FACE_BOUND('',#251,.T.);
#280=FACE_BOUND('',#252,.T.);
#281=FACE_BOUND('',#253,.T.);
#282=PLANE('',#327);
#283=PLANE('',#330);
#284=PLANE('',#337);
#285=PLANE('',#338);
#286=PLANE('',#339);
#287=PLANE('',#342);
#288=PLANE('',#345);
#289=PLANE('',#346);
#290=PLANE('',#347);
#291=PLANE('',#348);
#292=PLANE('',#349);
#293=PLANE('',#350);
#294=PLANE('',#351);
#295=PLANE('',#352);
#296=ADVANCED_FACE('',(#254,#255,#256),#282,.F.);
#297=ADVANCED_FACE('',(#257,#258,#259),#283,.F.);
#298=ADVANCED_FACE('',(#260,#261),#14,.F.);
#299=ADVANCED_FACE('',(#262,#263),#15,.F.);
#300=ADVANCED_FACE('',(#264),#284,.F.);
#301=ADVANCED_FACE('',(#265),#285,.F.);
#302=ADVANCED_FACE('',(#266),#286,.T.);
#303=ADVANCED_FACE('',(#267,#268),#16,.F.);
#304=ADVANCED_FACE('',(#269,#270),#287,.T.);
#305=ADVANCED_FACE('',(#271,#272),#17,.F.);
#306=ADVANCED_FACE('',(#273,#274),#288,.T.);
#307=ADVANCED_FACE('',(#275),#289,.F.);
#308=ADVANCED_FACE('',(#276),#290,.F.);
#309=ADVANCED_FACE('',(#277),#291,.F.);
#310=ADVANCED_FACE('',(#278),#292,.F.);
#311=ADVANCED_FACE('',(#279),#293,.F.);
#312=ADVANCED_FACE('',(#280),#294,.F.);
#313=ADVANCED_FACE('',(#281),#295,.F.);
#314=CLOSED_SHELL('',(#296,#297,#298,#299,#300,#301,#302,#303,#304,#305,
#306,#307,#308,#309,#310,#311,#312,#313));
#315=STYLED_ITEM('',(#316),#323);
#316=PRESENTATION_STYLE_ASSIGNMENT((#317));
#317=SURFACE_STYLE_USAGE(.BOTH.,#318);
#318=SURFACE_SIDE_STYLE('',(#319));
#319=SURFACE_STYLE_FILL_AREA(#320);
#320=FILL_AREA_STYLE('',(#321));
#321=FILL_AREA_STYLE_COLOUR('',#322);
#322=COLOUR_RGB('',0.231372549019608,0.380392156862745,0.705882352941177);
#323=MANIFOLD_SOLID_BREP('BottomCaseRight',#314);
#324=SHAPE_DEFINITION_REPRESENTATION(#528,#325);
#325=SHAPE_REPRESENTATION('BottomCaseRight',(#326),#523);
#326=AXIS2_PLACEMENT_3D('',#437,#353,#354);
#327=AXIS2_PLACEMENT_3D('',#438,#355,#356);
#328=AXIS2_PLACEMENT_3D('',#439,#357,#358);
#329=AXIS2_PLACEMENT_3D('',#441,#359,#360);
#330=AXIS2_PLACEMENT_3D('',#463,#371,#372);
#331=AXIS2_PLACEMENT_3D('',#464,#373,#374);
#332=AXIS2_PLACEMENT_3D('',#466,#375,#376);
#333=AXIS2_PLACEMENT_3D('',#488,#387,#388);
#334=AXIS2_PLACEMENT_3D('',#489,#389,#390);
#335=AXIS2_PLACEMENT_3D('',#491,#391,#392);
#336=AXIS2_PLACEMENT_3D('',#492,#393,#394);
#337=AXIS2_PLACEMENT_3D('',#494,#395,#396);
#338=AXIS2_PLACEMENT_3D('',#497,#399,#400);
#339=AXIS2_PLACEMENT_3D('',#499,#402,#403);
#340=AXIS2_PLACEMENT_3D('',#501,#405,#406);
#341=AXIS2_PLACEMENT_3D('',#502,#407,#408);
#342=AXIS2_PLACEMENT_3D('',#504,#409,#410);
#343=AXIS2_PLACEMENT_3D('',#505,#411,#412);
#344=AXIS2_PLACEMENT_3D('',#506,#413,#414);
#345=AXIS2_PLACEMENT_3D('',#508,#415,#416);
#346=AXIS2_PLACEMENT_3D('',#509,#417,#418);
#347=AXIS2_PLACEMENT_3D('',#511,#420,#421);
#348=AXIS2_PLACEMENT_3D('',#513,#423,#424);
#349=AXIS2_PLACEMENT_3D('',#515,#426,#427);
#350=AXIS2_PLACEMENT_3D('',#517,#429,#430);
#351=AXIS2_PLACEMENT_3D('',#519,#432,#433);
#352=AXIS2_PLACEMENT_3D('',#521,#435,#436);
#353=DIRECTION('',(0.,0.,1.));
#354=DIRECTION('',(1.,0.,0.));
#355=DIRECTION('',(0.,0.,-1.));
#356=DIRECTION('',(1.,0.,0.));
#357=DIRECTION('',(0.,0.,-1.));
#358=DIRECTION('',(-1.,0.,0.));
#359=DIRECTION('',(0.,0.,-1.));
#360=DIRECTION('',(-1.,0.,0.));
#361=DIRECTION('',(0.,-1.,0.));
#362=DIRECTION('',(1.,1.22116595130084E-16,0.));
#363=DIRECTION('',(0.,-1.,0.));
#364=DIRECTION('',(1.,1.22116595130084E-16,0.));
#365=DIRECTION('',(0.,-1.,0.));
#366=DIRECTION('',(0.866025403784438,0.5,0.));
#367=DIRECTION('',(1.22464679914735E-16,-1.,0.));
#368=DIRECTION('',(-0.866025403784439,0.5,0.));
#369=DIRECTION('',(0.,-1.,0.));
#370=DIRECTION('',(0.866025403784439,0.5,0.));
#371=DIRECTION('',(-1.93707071688255E-17,0.104528463267654,0.994521895368273));
#372=DIRECTION('',(0.,-0.994521895368273,0.104528463267654));
#373=DIRECTION('',(1.93707071688255E-17,-0.104528463267654,-0.994521895368273));
#374=DIRECTION('',(0.,0.994521895368273,-0.104528463267654));
#375=DIRECTION('',(1.93707071688255E-17,-0.104528463267654,-0.994521895368273));
#376=DIRECTION('',(0.,0.994521895368273,-0.104528463267654));
#377=DIRECTION('',(1.,1.22116595130084E-16,0.));
#378=DIRECTION('',(0.,0.994521895368274,-0.104528463267654));
#379=DIRECTION('',(-0.864832013045731,-0.49931099553576,0.0524797003455297));
#380=DIRECTION('',(0.,0.994521895368274,-0.104528463267654));
#381=DIRECTION('',(0.864832013045732,-0.499310995535759,0.0524797003455297));
#382=DIRECTION('',(-1.21793805584471E-16,0.994521895368274,-0.104528463267654));
#383=DIRECTION('',(-0.864832013045731,-0.49931099553576,0.0524797003455297));
#384=DIRECTION('',(0.,0.994521895368274,-0.104528463267654));
#385=DIRECTION('',(-1.,-1.85315143486088E-16,0.));
#386=DIRECTION('',(0.,-0.994521895368273,0.104528463267654));
#387=DIRECTION('',(0.,0.,1.));
#388=DIRECTION('',(1.,0.,0.));
#389=DIRECTION('',(1.93707071688255E-17,-0.104528463267654,-0.994521895368273));
#390=DIRECTION('',(1.84299967740228E-16,-0.994521895368273,0.104528463267654));
#391=DIRECTION('',(0.,0.,1.));
#392=DIRECTION('',(1.,0.,0.));
#393=DIRECTION('',(1.93707071688255E-17,-0.104528463267654,-0.994521895368273));
#394=DIRECTION('',(1.84299967740228E-16,-0.994521895368273,0.104528463267654));
#395=DIRECTION('',(1.22116595130084E-16,-1.,0.));
#396=DIRECTION('',(1.,1.22116595130084E-16,0.));
#397=DIRECTION('',(0.,0.,1.));
#398=DIRECTION('',(0.,0.,1.));
#399=DIRECTION('',(-1.,0.,0.));
#400=DIRECTION('',(0.,0.,1.));
#401=DIRECTION('',(0.,0.,1.));
#402=DIRECTION('',(1.22116595130084E-16,-1.,0.));
#403=DIRECTION('',(1.,1.22116595130084E-16,0.));
#404=DIRECTION('',(0.,0.,1.));
#405=DIRECTION('',(1.93707071688255E-17,-0.104528463267654,-0.994521895368273));
#406=DIRECTION('',(0.,0.994521895368273,-0.104528463267654));
#407=DIRECTION('',(1.93707071688255E-17,-0.104528463267654,-0.994521895368273));
#408=DIRECTION('',(0.,0.994521895368273,-0.104528463267654));
#409=DIRECTION('',(1.93707071688255E-17,-0.104528463267654,-0.994521895368273));
#410=DIRECTION('',(1.,2.02479025276506E-18,1.92645924081642E-17));
#411=DIRECTION('',(1.93707071688255E-17,-0.104528463267654,-0.994521895368273));
#412=DIRECTION('',(0.,0.994521895368273,-0.104528463267654));
#413=DIRECTION('',(1.93707071688255E-17,-0.104528463267654,-0.994521895368273));
#414=DIRECTION('',(0.,0.994521895368273,-0.104528463267654));
#415=DIRECTION('',(1.93707071688255E-17,-0.104528463267654,-0.994521895368273));
#416=DIRECTION('',(1.,2.02479025276506E-18,1.92645924081642E-17));
#417=DIRECTION('',(1.,0.,0.));
#418=DIRECTION('',(0.,0.,-1.));
#419=DIRECTION('',(0.,0.,1.));
#420=DIRECTION('',(-0.5,0.866025403784438,0.));
#421=DIRECTION('',(-0.866025403784438,-0.5,0.));
#422=DIRECTION('',(0.,0.,1.));
#423=DIRECTION('',(1.,0.,0.));
#424=DIRECTION('',(0.,0.,-1.));
#425=DIRECTION('',(0.,0.,1.));
#426=DIRECTION('',(-0.5,-0.866025403784439,0.));
#427=DIRECTION('',(0.866025403784439,-0.5,0.));
#428=DIRECTION('',(0.,0.,1.));
#429=DIRECTION('',(1.,1.22464679914735E-16,0.));
#430=DIRECTION('',(-1.22464679914735E-16,1.,0.));
#431=DIRECTION('',(0.,0.,1.));
#432=DIRECTION('',(-0.5,0.866025403784438,0.));
#433=DIRECTION('',(-0.866025403784439,-0.5,0.));
#434=DIRECTION('',(0.,0.,1.));
#435=DIRECTION('',(1.,0.,0.));
#436=DIRECTION('',(0.,0.,-1.));
#437=CARTESIAN_POINT('',(0.,0.,0.));
#438=CARTESIAN_POINT('',(0.2428875,-0.0904875,-0.00749));
#439=CARTESIAN_POINT('',(0.4665875,-0.0188,-0.00749));
#440=CARTESIAN_POINT('',(0.4653875,-0.0188,-0.00749));
#441=CARTESIAN_POINT('',(0.4665875,-0.1616875,-0.00749));
#442=CARTESIAN_POINT('',(0.4653875,-0.1616875,-0.00749));
#443=CARTESIAN_POINT('',(0.335175,-0.135716221362352,-0.00749));
#444=CARTESIAN_POINT('',(0.335175,-0.165375,-0.00749));
#445=CARTESIAN_POINT('',(0.335175,-0.115375,-0.00749));
#446=CARTESIAN_POINT('',(0.2428875,-0.165375,-0.00749));
#447=CARTESIAN_POINT('',(0.470175,-0.165375,-0.00749));
#448=CARTESIAN_POINT('',(0.470175,-0.0904875,-0.00749));
#449=CARTESIAN_POINT('',(0.470175,-0.0156,-0.00749));
#450=CARTESIAN_POINT('',(0.2428875,-0.0156,-0.00749));
#451=CARTESIAN_POINT('',(0.305175,-0.0156,-0.00749));
#452=CARTESIAN_POINT('',(0.305175,-0.0313502403229475,-0.00749));
#453=CARTESIAN_POINT('',(0.305175,-0.0656,-0.00749));
#454=CARTESIAN_POINT('',(0.339604237192093,-0.0457222706391513,-0.00749));
#455=CARTESIAN_POINT('',(0.333671125905074,-0.0491477540378444,-0.00749));
#456=CARTESIAN_POINT('',(0.333671125905074,-0.0558343460217151,-0.00749));
#457=CARTESIAN_POINT('',(0.333671125905074,-0.0991477540378444,-0.00749));
#458=CARTESIAN_POINT('',(0.339227045245281,-0.102355465564509,-0.00749));
#459=CARTESIAN_POINT('',(0.305175,-0.0826955080756888,-0.00749));
#460=CARTESIAN_POINT('',(0.305175,-0.0754823868772953,-0.00749));
#461=CARTESIAN_POINT('',(0.305175,-0.132695508075689,-0.00749));
#462=CARTESIAN_POINT('',(0.335382729166113,-0.115255067510026,-0.00749));
#463=CARTESIAN_POINT('',(0.470177,-0.0904875,-0.0193609934184583));
#464=CARTESIAN_POINT('',(0.4665875,-0.0188,-0.0268956532840666));
#465=CARTESIAN_POINT('',(0.4665875,-0.0163136952615793,-0.0271569744422357));
#466=CARTESIAN_POINT('',(0.4665875,-0.1616875,-0.0118775718675422));
#467=CARTESIAN_POINT('',(0.4665875,-0.159201195261579,-0.0121388930257113));
#468=CARTESIAN_POINT('',(0.2428875,-0.165375,-0.01149));
#469=CARTESIAN_POINT('',(0.335175,-0.165375,-0.01149));
#470=CARTESIAN_POINT('',(0.470175,-0.165375,-0.01149));
#471=CARTESIAN_POINT('',(0.335175,-0.0904875,-0.0193609934184583));
#472=CARTESIAN_POINT('',(0.335175,-0.115375,-0.0167452117632838));
#473=CARTESIAN_POINT('',(0.447013285088316,-0.0508051359985548,-0.0235317779403644));
#474=CARTESIAN_POINT('',(0.305175,-0.132695508075689,-0.0149247530075757));
#475=CARTESIAN_POINT('',(0.305175,-0.0904875,-0.0193609934184583));
#476=CARTESIAN_POINT('',(0.305175,-0.0826955080756888,-0.0201799647708594));
#477=CARTESIAN_POINT('',(0.431987582577294,-0.155910786763321,-0.0124847288946324));
#478=CARTESIAN_POINT('',(0.333671125905074,-0.0991477540378444,-0.0184507640406044));
#479=CARTESIAN_POINT('',(0.333671125905074,-0.0904875,-0.0193609934184583));
#480=CARTESIAN_POINT('',(0.333671125905074,-0.0491477540378444,-0.0237059758038881));
#481=CARTESIAN_POINT('',(0.417720029885947,-0.000622096699393837,-0.0288062279092102));
#482=CARTESIAN_POINT('',(0.305175,-0.0656,-0.021976775073633));
#483=CARTESIAN_POINT('',(0.305175,-0.0904875,-0.0193609934184583));
#484=CARTESIAN_POINT('',(0.305175,-0.0156,-0.0272319868369167));
#485=CARTESIAN_POINT('',(0.470177,-0.0156,-0.0272319868369167));
#486=CARTESIAN_POINT('',(0.470175,-0.0156,-0.0272319868369167));
#487=CARTESIAN_POINT('',(0.470175,-0.0904875,-0.0193609934184583));
#488=CARTESIAN_POINT('',(0.4665875,-0.1616875,-0.487844554191488));
#489=CARTESIAN_POINT('',(0.4665875,-0.1616875,-0.00936380116863339));
#490=CARTESIAN_POINT('',(0.4665875,-0.1628875,-0.00923767608631458));
#491=CARTESIAN_POINT('',(0.4665875,-0.0188,-0.487844554191488));
#492=CARTESIAN_POINT('',(0.4665875,-0.0188,-0.0243818825851578));
#493=CARTESIAN_POINT('',(0.4665875,-0.02,-0.024255757502839));
#494=CARTESIAN_POINT('',(0.2428875,-0.0156,-0.01149));
#495=CARTESIAN_POINT('',(0.305175,-0.0156,-0.487844554191488));
#496=CARTESIAN_POINT('',(0.470175,-0.0156,-0.01149));
#497=CARTESIAN_POINT('',(0.470175,-0.0904875,-0.01149));
#498=CARTESIAN_POINT('',(0.470175,-0.165375,-0.01149));
#499=CARTESIAN_POINT('',(0.2428875,-0.165375,-0.01149));
#500=CARTESIAN_POINT('',(0.335175,-0.165375,-0.487844554191488));
#501=CARTESIAN_POINT('',(0.4665875,-0.0185386788418309,-0.0244093485456459));
#502=CARTESIAN_POINT('',(0.4665875,-0.0185386788418309,-0.0244093485456459));
#503=CARTESIAN_POINT('',(0.4665875,-0.0160523741034102,-0.024670669703815));
#504=CARTESIAN_POINT('',(0.2428875,-0.0902261788418309,-0.0168746886800377));
#505=CARTESIAN_POINT('',(0.4665875,-0.161426178841831,-0.00939126712912151));
#506=CARTESIAN_POINT('',(0.4665875,-0.161426178841831,-0.00939126712912151));
#507=CARTESIAN_POINT('',(0.4665875,-0.15893987410341,-0.00965258828729064));
#508=CARTESIAN_POINT('',(0.2428875,-0.0902261788418309,-0.0168746886800377));
#509=CARTESIAN_POINT('',(0.335175,-0.135716221362352,-0.487844554191488));
#510=CARTESIAN_POINT('',(0.335175,-0.115375,-0.487844554191488));
#511=CARTESIAN_POINT('',(0.335382729166113,-0.115255067510026,-0.487844554191488));
#512=CARTESIAN_POINT('',(0.305175,-0.132695508075689,-0.487844554191488));
#513=CARTESIAN_POINT('',(0.305175,-0.0754823868772953,-0.487844554191488));
#514=CARTESIAN_POINT('',(0.305175,-0.0826955080756888,-0.487844554191488));
#515=CARTESIAN_POINT('',(0.339227045245281,-0.102355465564509,-0.487844554191488));
#516=CARTESIAN_POINT('',(0.333671125905074,-0.0991477540378444,-0.487844554191488));
#517=CARTESIAN_POINT('',(0.333671125905074,-0.0558343460217151,-0.487844554191488));
#518=CARTESIAN_POINT('',(0.333671125905074,-0.0491477540378444,-0.487844554191488));
#519=CARTESIAN_POINT('',(0.339604237192093,-0.0457222706391513,-0.487844554191488));
#520=CARTESIAN_POINT('',(0.305175,-0.0656,-0.487844554191488));
#521=CARTESIAN_POINT('',(0.305175,-0.0313502403229475,-0.487844554191488));
#522=MECHANICAL_DESIGN_GEOMETRIC_PRESENTATION_REPRESENTATION('',(#315),
#523);
#523=(
GEOMETRIC_REPRESENTATION_CONTEXT(3)
GLOBAL_UNCERTAINTY_ASSIGNED_CONTEXT((#524))
GLOBAL_UNIT_ASSIGNED_CONTEXT((#527,#526,#525))
REPRESENTATION_CONTEXT('BottomCaseRight','TOP_LEVEL_ASSEMBLY_PART')
);
#524=UNCERTAINTY_MEASURE_WITH_UNIT(LENGTH_MEASURE(1.E-8),#527,
'DISTANCE_ACCURACY_VALUE','Maximum Tolerance applied to model');
#525=(
NAMED_UNIT(*)
SI_UNIT($,.STERADIAN.)
SOLID_ANGLE_UNIT()
);
#526=(
NAMED_UNIT(*)
PLANE_ANGLE_UNIT()
SI_UNIT($,.RADIAN.)
);
#527=(
LENGTH_UNIT()
NAMED_UNIT(*)
SI_UNIT($,.METRE.)
);
#528=PRODUCT_DEFINITION_SHAPE('','',#529);
#529=PRODUCT_DEFINITION('','',#531,#530);
#530=PRODUCT_DEFINITION_CONTEXT('',#537,'design');
#531=PRODUCT_DEFINITION_FORMATION_WITH_SPECIFIED_SOURCE('','',#533,
 .NOT_KNOWN.);
#532=PRODUCT_RELATED_PRODUCT_CATEGORY('','',(#533));
#533=PRODUCT('BottomCaseRight','BottomCaseRight','BottomCaseRight',(#535));
#534=PRODUCT_CATEGORY('','');
#535=PRODUCT_CONTEXT('',#537,'mechanical');
#536=APPLICATION_PROTOCOL_DEFINITION('international standard',
'ap242_managed_model_based_3d_engineering',2020,#537);
#537=APPLICATION_CONTEXT('managed model based 3d engineering');
ENDSEC;
END-ISO-10303-21;
