ISO-10303-21;
HEADER;
/* Generated by software containing ST-Developer
 * from STEP Tools, Inc. (www.steptools.com) 
 */
/* OPTION: using custom renumber hook */

FILE_DESCRIPTION(
/* description */ ('STEP AP242 Edition 2',
'CAx-IF Rec.Pracs.---Representation and Presentation of Product Manufa
cturing Information (PMI)---4.0---2014-10-13',
'CAx-IF Rec.Pracs.---3D Tessellated Geometry---0.4---2014-09-14','2;1',
'CAx-IF Rec.Pracs.---User Defined Attributes---1.5---2016-08-15'),
/* implementation_level */ '2;1');

FILE_NAME(
/* name */ 'Case - BottomCaseLeft',
/* time_stamp */ '2026-10-05T22:03:08Z',
/* author */ (''),
/* organization */ (''),
/* preprocessor_version */ 'ST-DEVELOPER v20',
/* originating_system */ 'ONSHAPE BY PTC INC, 1.221',
/* authorisation */ '  ');

FILE_SCHEMA (('AP242_MANAGED_MODEL_BASED_3D_ENGINEERING_MIM_LF { 1 0 10303 442 3 1 4 }'));
ENDSEC;

DATA;
#10=SHAPE_REPRESENTATION_RELATIONSHIP('','',#367,#11);
#11=ADVANCED_BREP_SHAPE_REPRESENTATION('',(#365),#597);
#12=LINE('',#526,#42);
#13=LINE('',#529,#43);
#14=LINE('',#531,#44);
#15=LINE('',#533,#45);
#16=LINE('',#544,#46);
#17=LINE('',#547,#47);
#18=LINE('',#548,#48);
#19=LINE('',#550,#49);
#20=LINE('',#552,#50);
#21=LINE('',#554,#51);
#22=LINE('',#556,#52);
#23=LINE('',#558,#53);
#24=LINE('',#560,#54);
#25=LINE('',#562,#55);
#26=LINE('',#564,#56);
#27=LINE('',#566,#57);
#28=LINE('',#568,#58);
#29=LINE('',#570,#59);
#30=LINE('',#572,#60);
#31=LINE('',#574,#61);
#32=LINE('',#576,#62);
#33=LINE('',#578,#63);
#34=LINE('',#580,#64);
#35=LINE('',#582,#65);
#36=LINE('',#584,#66);
#37=LINE('',#586,#67);
#38=LINE('',#588,#68);
#39=LINE('',#590,#69);
#40=LINE('',#592,#70);
#41=LINE('',#594,#71);
#42=VECTOR('',#436,1.);
#43=VECTOR('',#437,1.);
#44=VECTOR('',#438,1.);
#45=VECTOR('',#439,1.);
#46=VECTOR('',#454,1.);
#47=VECTOR('',#455,1.);
#48=VECTOR('',#456,1.);
#49=VECTOR('',#457,1.);
#50=VECTOR('',#458,1.);
#51=VECTOR('',#459,1.);
#52=VECTOR('',#460,1.);
#53=VECTOR('',#461,1.);
#54=VECTOR('',#462,1.);
#55=VECTOR('',#465,1.);
#56=VECTOR('',#466,1.);
#57=VECTOR('',#467,1.);
#58=VECTOR('',#468,1.);
#59=VECTOR('',#469,1.);
#60=VECTOR('',#470,1.);
#61=VECTOR('',#471,1.);
#62=VECTOR('',#472,1.);
#63=VECTOR('',#473,1.);
#64=VECTOR('',#476,1.);
#65=VECTOR('',#479,1.);
#66=VECTOR('',#482,1.);
#67=VECTOR('',#485,1.);
#68=VECTOR('',#488,1.);
#69=VECTOR('',#491,1.);
#70=VECTOR('',#494,1.);
#71=VECTOR('',#497,1.);
#72=CYLINDRICAL_SURFACE('',#378,0.0012);
#73=CYLINDRICAL_SURFACE('',#380,0.0012);
#74=CYLINDRICAL_SURFACE('',#382,0.0012);
#75=CYLINDRICAL_SURFACE('',#385,0.0025);
#76=CYLINDRICAL_SURFACE('',#387,0.0025);
#77=CYLINDRICAL_SURFACE('',#389,0.0025);
#78=CIRCLE('',#371,0.0025);
#79=CIRCLE('',#374,0.0025);
#80=CIRCLE('',#377,0.0025);
#81=CIRCLE('',#379,0.0012);
#82=CIRCLE('',#381,0.0012);
#83=CIRCLE('',#383,0.0012);
#84=CIRCLE('',#386,0.0025);
#85=CIRCLE('',#388,0.0025);
#86=CIRCLE('',#390,0.0025);
#87=ORIENTED_EDGE('',*,*,#171,.F.);
#88=ORIENTED_EDGE('',*,*,#172,.T.);
#89=ORIENTED_EDGE('',*,*,#173,.F.);
#90=ORIENTED_EDGE('',*,*,#174,.T.);
#91=ORIENTED_EDGE('',*,*,#175,.F.);
#92=ORIENTED_EDGE('',*,*,#176,.T.);
#93=ORIENTED_EDGE('',*,*,#177,.F.);
#94=ORIENTED_EDGE('',*,*,#175,.T.);
#95=ORIENTED_EDGE('',*,*,#178,.F.);
#96=ORIENTED_EDGE('',*,*,#173,.T.);
#97=ORIENTED_EDGE('',*,*,#179,.F.);
#98=ORIENTED_EDGE('',*,*,#171,.T.);
#99=ORIENTED_EDGE('',*,*,#180,.F.);
#100=ORIENTED_EDGE('',*,*,#181,.F.);
#101=ORIENTED_EDGE('',*,*,#182,.F.);
#102=ORIENTED_EDGE('',*,*,#183,.T.);
#103=ORIENTED_EDGE('',*,*,#172,.F.);
#104=ORIENTED_EDGE('',*,*,#184,.T.);
#105=ORIENTED_EDGE('',*,*,#174,.F.);
#106=ORIENTED_EDGE('',*,*,#185,.T.);
#107=ORIENTED_EDGE('',*,*,#176,.F.);
#108=ORIENTED_EDGE('',*,*,#186,.T.);
#109=ORIENTED_EDGE('',*,*,#179,.T.);
#110=ORIENTED_EDGE('',*,*,#178,.T.);
#111=ORIENTED_EDGE('',*,*,#177,.T.);
#112=ORIENTED_EDGE('',*,*,#187,.F.);
#113=ORIENTED_EDGE('',*,*,#188,.F.);
#114=ORIENTED_EDGE('',*,*,#180,.T.);
#115=ORIENTED_EDGE('',*,*,#189,.T.);
#116=ORIENTED_EDGE('',*,*,#190,.F.);
#117=ORIENTED_EDGE('',*,*,#191,.F.);
#118=ORIENTED_EDGE('',*,*,#192,.F.);
#119=ORIENTED_EDGE('',*,*,#193,.F.);
#120=ORIENTED_EDGE('',*,*,#194,.F.);
#121=ORIENTED_EDGE('',*,*,#195,.F.);
#122=ORIENTED_EDGE('',*,*,#186,.F.);
#123=ORIENTED_EDGE('',*,*,#185,.F.);
#124=ORIENTED_EDGE('',*,*,#184,.F.);
#125=ORIENTED_EDGE('',*,*,#196,.F.);
#126=ORIENTED_EDGE('',*,*,#197,.T.);
#127=ORIENTED_EDGE('',*,*,#198,.T.);
#128=ORIENTED_EDGE('',*,*,#199,.T.);
#129=ORIENTED_EDGE('',*,*,#200,.T.);
#130=ORIENTED_EDGE('',*,*,#201,.T.);
#131=ORIENTED_EDGE('',*,*,#202,.T.);
#132=ORIENTED_EDGE('',*,*,#203,.T.);
#133=ORIENTED_EDGE('',*,*,#204,.F.);
#134=ORIENTED_EDGE('',*,*,#182,.T.);
#135=ORIENTED_EDGE('',*,*,#204,.T.);
#136=ORIENTED_EDGE('',*,*,#205,.T.);
#137=ORIENTED_EDGE('',*,*,#189,.F.);
#138=ORIENTED_EDGE('',*,*,#183,.F.);
#139=ORIENTED_EDGE('',*,*,#206,.F.);
#140=ORIENTED_EDGE('',*,*,#196,.T.);
#141=ORIENTED_EDGE('',*,*,#181,.T.);
#142=ORIENTED_EDGE('',*,*,#188,.T.);
#143=ORIENTED_EDGE('',*,*,#207,.T.);
#144=ORIENTED_EDGE('',*,*,#190,.T.);
#145=ORIENTED_EDGE('',*,*,#205,.F.);
#146=ORIENTED_EDGE('',*,*,#203,.F.);
#147=ORIENTED_EDGE('',*,*,#208,.T.);
#148=ORIENTED_EDGE('',*,*,#191,.T.);
#149=ORIENTED_EDGE('',*,*,#207,.F.);
#150=ORIENTED_EDGE('',*,*,#202,.F.);
#151=ORIENTED_EDGE('',*,*,#209,.T.);
#152=ORIENTED_EDGE('',*,*,#192,.T.);
#153=ORIENTED_EDGE('',*,*,#208,.F.);
#154=ORIENTED_EDGE('',*,*,#201,.F.);
#155=ORIENTED_EDGE('',*,*,#210,.T.);
#156=ORIENTED_EDGE('',*,*,#193,.T.);
#157=ORIENTED_EDGE('',*,*,#209,.F.);
#158=ORIENTED_EDGE('',*,*,#200,.F.);
#159=ORIENTED_EDGE('',*,*,#211,.T.);
#160=ORIENTED_EDGE('',*,*,#194,.T.);
#161=ORIENTED_EDGE('',*,*,#210,.F.);
#162=ORIENTED_EDGE('',*,*,#199,.F.);
#163=ORIENTED_EDGE('',*,*,#212,.T.);
#164=ORIENTED_EDGE('',*,*,#195,.T.);
#165=ORIENTED_EDGE('',*,*,#211,.F.);
#166=ORIENTED_EDGE('',*,*,#198,.F.);
#167=ORIENTED_EDGE('',*,*,#206,.T.);
#168=ORIENTED_EDGE('',*,*,#187,.T.);
#169=ORIENTED_EDGE('',*,*,#212,.F.);
#170=ORIENTED_EDGE('',*,*,#197,.F.);
#171=EDGE_CURVE('',#213,#213,#245,.T.);
#172=EDGE_CURVE('',#214,#214,#78,.T.);
#173=EDGE_CURVE('',#215,#215,#246,.T.);
#174=EDGE_CURVE('',#216,#216,#79,.T.);
#175=EDGE_CURVE('',#217,#217,#247,.T.);
#176=EDGE_CURVE('',#218,#218,#80,.T.);
#177=EDGE_CURVE('',#219,#219,#81,.T.);
#178=EDGE_CURVE('',#220,#220,#82,.T.);
#179=EDGE_CURVE('',#221,#221,#83,.T.);
#180=EDGE_CURVE('',#222,#223,#12,.T.);
#181=EDGE_CURVE('',#224,#222,#13,.T.);
#182=EDGE_CURVE('',#225,#224,#14,.T.);
#183=EDGE_CURVE('',#225,#223,#15,.T.);
#184=EDGE_CURVE('',#226,#226,#84,.T.);
#185=EDGE_CURVE('',#227,#227,#85,.T.);
#186=EDGE_CURVE('',#228,#228,#86,.T.);
#187=EDGE_CURVE('',#229,#230,#16,.T.);
#188=EDGE_CURVE('',#222,#229,#17,.T.);
#189=EDGE_CURVE('',#223,#231,#18,.T.);
#190=EDGE_CURVE('',#232,#231,#19,.T.);
#191=EDGE_CURVE('',#233,#232,#20,.T.);
#192=EDGE_CURVE('',#234,#233,#21,.T.);
#193=EDGE_CURVE('',#235,#234,#22,.T.);
#194=EDGE_CURVE('',#236,#235,#23,.T.);
#195=EDGE_CURVE('',#230,#236,#24,.T.);
#196=EDGE_CURVE('',#237,#224,#25,.T.);
#197=EDGE_CURVE('',#237,#238,#26,.T.);
#198=EDGE_CURVE('',#238,#239,#27,.T.);
#199=EDGE_CURVE('',#239,#240,#28,.T.);
#200=EDGE_CURVE('',#240,#241,#29,.T.);
#201=EDGE_CURVE('',#241,#242,#30,.T.);
#202=EDGE_CURVE('',#242,#243,#31,.T.);
#203=EDGE_CURVE('',#243,#244,#32,.T.);
#204=EDGE_CURVE('',#225,#244,#33,.T.);
#205=EDGE_CURVE('',#244,#231,#34,.T.);
#206=EDGE_CURVE('',#237,#229,#35,.T.);
#207=EDGE_CURVE('',#243,#232,#36,.T.);
#208=EDGE_CURVE('',#242,#233,#37,.T.);
#209=EDGE_CURVE('',#241,#234,#38,.T.);
#210=EDGE_CURVE('',#240,#235,#39,.T.);
#211=EDGE_CURVE('',#239,#236,#40,.T.);
#212=EDGE_CURVE('',#238,#230,#41,.T.);
#213=VERTEX_POINT('',#503);
#214=VERTEX_POINT('',#505);
#215=VERTEX_POINT('',#508);
#216=VERTEX_POINT('',#510);
#217=VERTEX_POINT('',#513);
#218=VERTEX_POINT('',#515);
#219=VERTEX_POINT('',#518);
#220=VERTEX_POINT('',#521);
#221=VERTEX_POINT('',#524);
#222=VERTEX_POINT('',#527);
#223=VERTEX_POINT('',#528);
#224=VERTEX_POINT('',#530);
#225=VERTEX_POINT('',#532);
#226=VERTEX_POINT('',#536);
#227=VERTEX_POINT('',#539);
#228=VERTEX_POINT('',#542);
#229=VERTEX_POINT('',#545);
#230=VERTEX_POINT('',#546);
#231=VERTEX_POINT('',#549);
#232=VERTEX_POINT('',#551);
#233=VERTEX_POINT('',#553);
#234=VERTEX_POINT('',#555);
#235=VERTEX_POINT('',#557);
#236=VERTEX_POINT('',#559);
#237=VERTEX_POINT('',#563);
#238=VERTEX_POINT('',#565);
#239=VERTEX_POINT('',#567);
#240=VERTEX_POINT('',#569);
#241=VERTEX_POINT('',#571);
#242=VERTEX_POINT('',#573);
#243=VERTEX_POINT('',#575);
#244=VERTEX_POINT('',#577);
#245=ELLIPSE('',#370,0.00120660993547622,0.0012);
#246=ELLIPSE('',#373,0.00120660993547622,0.0012);
#247=ELLIPSE('',#376,0.00120660993547623,0.0012);
#248=EDGE_LOOP('',(#87));
#249=EDGE_LOOP('',(#88));
#250=EDGE_LOOP('',(#89));
#251=EDGE_LOOP('',(#90));
#252=EDGE_LOOP('',(#91));
#253=EDGE_LOOP('',(#92));
#254=EDGE_LOOP('',(#93));
#255=EDGE_LOOP('',(#94));
#256=EDGE_LOOP('',(#95));
#257=EDGE_LOOP('',(#96));
#258=EDGE_LOOP('',(#97));
#259=EDGE_LOOP('',(#98));
#260=EDGE_LOOP('',(#99,#100,#101,#102));
#261=EDGE_LOOP('',(#103));
#262=EDGE_LOOP('',(#104));
#263=EDGE_LOOP('',(#105));
#264=EDGE_LOOP('',(#106));
#265=EDGE_LOOP('',(#107));
#266=EDGE_LOOP('',(#108));
#267=EDGE_LOOP('',(#109));
#268=EDGE_LOOP('',(#110));
#269=EDGE_LOOP('',(#111));
#270=EDGE_LOOP('',(#112,#113,#114,#115,#116,#117,#118,#119,#120,#121));
#271=EDGE_LOOP('',(#122));
#272=EDGE_LOOP('',(#123));
#273=EDGE_LOOP('',(#124));
#274=EDGE_LOOP('',(#125,#126,#127,#128,#129,#130,#131,#132,#133,#134));
#275=EDGE_LOOP('',(#135,#136,#137,#138));
#276=EDGE_LOOP('',(#139,#140,#141,#142));
#277=EDGE_LOOP('',(#143,#144,#145,#146));
#278=EDGE_LOOP('',(#147,#148,#149,#150));
#279=EDGE_LOOP('',(#151,#152,#153,#154));
#280=EDGE_LOOP('',(#155,#156,#157,#158));
#281=EDGE_LOOP('',(#159,#160,#161,#162));
#282=EDGE_LOOP('',(#163,#164,#165,#166));
#283=EDGE_LOOP('',(#167,#168,#169,#170));
#284=FACE_BOUND('',#248,.T.);
#285=FACE_BOUND('',#249,.T.);
#286=FACE_BOUND('',#250,.T.);
#287=FACE_BOUND('',#251,.T.);
#288=FACE_BOUND('',#252,.T.);
#289=FACE_BOUND('',#253,.T.);
#290=FACE_BOUND('',#254,.T.);
#291=FACE_BOUND('',#255,.T.);
#292=FACE_BOUND('',#256,.T.);
#293=FACE_BOUND('',#257,.T.);
#294=FACE_BOUND('',#258,.T.);
#295=FACE_BOUND('',#259,.T.);
#296=FACE_BOUND('',#260,.T.);
#297=FACE_BOUND('',#261,.T.);
#298=FACE_BOUND('',#262,.T.);
#299=FACE_BOUND('',#263,.T.);
#300=FACE_BOUND('',#264,.T.);
#301=FACE_BOUND('',#265,.T.);
#302=FACE_BOUND('',#266,.T.);
#303=FACE_BOUND('',#267,.T.);
#304=FACE_BOUND('',#268,.T.);
#305=FACE_BOUND('',#269,.T.);
#306=FACE_BOUND('',#270,.T.);
#307=FACE_BOUND('',#271,.T.);
#308=FACE_BOUND('',#272,.T.);
#309=FACE_BOUND('',#273,.T.);
#310=FACE_BOUND('',#274,.T.);
#311=FACE_BOUND('',#275,.T.);
#312=FACE_BOUND('',#276,.T.);
#313=FACE_BOUND('',#277,.T.);
#314=FACE_BOUND('',#278,.T.);
#315=FACE_BOUND('',#279,.T.);
#316=FACE_BOUND('',#280,.T.);
#317=FACE_BOUND('',#281,.T.);
#318=FACE_BOUND('',#282,.T.);
#319=FACE_BOUND('',#283,.T.);
#320=PLANE('',#369);
#321=PLANE('',#372);
#322=PLANE('',#375);
#323=PLANE('',#384);
#324=PLANE('',#391);
#325=PLANE('',#392);
#326=PLANE('',#393);
#327=PLANE('',#394);
#328=PLANE('',#395);
#329=PLANE('',#396);
#330=PLANE('',#397);
#331=PLANE('',#398);
#332=PLANE('',#399);
#333=PLANE('',#400);
#334=PLANE('',#401);
#335=ADVANCED_FACE('',(#284,#285),#320,.T.);
#336=ADVANCED_FACE('',(#286,#287),#321,.T.);
#337=ADVANCED_FACE('',(#288,#289),#322,.T.);
#338=ADVANCED_FACE('',(#290,#291),#72,.F.);
#339=ADVANCED_FACE('',(#292,#293),#73,.F.);
#340=ADVANCED_FACE('',(#294,#295),#74,.F.);
#341=ADVANCED_FACE('',(#296),#323,.T.);
#342=ADVANCED_FACE('',(#297,#298),#75,.F.);
#343=ADVANCED_FACE('',(#299,#300),#76,.F.);
#344=ADVANCED_FACE('',(#301,#302),#77,.F.);
#345=ADVANCED_FACE('',(#303,#304,#305,#306),#324,.F.);
#346=ADVANCED_FACE('',(#307,#308,#309,#310),#325,.F.);
#347=ADVANCED_FACE('',(#311),#326,.T.);
#348=ADVANCED_FACE('',(#312),#327,.F.);
#349=ADVANCED_FACE('',(#313),#328,.F.);
#350=ADVANCED_FACE('',(#314),#329,.F.);
#351=ADVANCED_FACE('',(#315),#330,.F.);
#352=ADVANCED_FACE('',(#316),#331,.F.);
#353=ADVANCED_FACE('',(#317),#332,.F.);
#354=ADVANCED_FACE('',(#318),#333,.F.);
#355=ADVANCED_FACE('',(#319),#334,.F.);
#356=CLOSED_SHELL('',(#335,#336,#337,#338,#339,#340,#341,#342,#343,#344,
#345,#346,#347,#348,#349,#350,#351,#352,#353,#354,#355));
#357=STYLED_ITEM('',(#358),#365);
#358=PRESENTATION_STYLE_ASSIGNMENT((#359));
#359=SURFACE_STYLE_USAGE(.BOTH.,#360);
#360=SURFACE_SIDE_STYLE('',(#361));
#361=SURFACE_STYLE_FILL_AREA(#362);
#362=FILL_AREA_STYLE('',(#363));
#363=FILL_AREA_STYLE_COLOUR('',#364);
#364=COLOUR_RGB('',0.231372549019608,0.380392156862745,0.705882352941177);
#365=MANIFOLD_SOLID_BREP('BottomCaseLeft',#356);
#366=SHAPE_DEFINITION_REPRESENTATION(#602,#367);
#367=SHAPE_REPRESENTATION('BottomCaseLeft',(#368),#597);
#368=AXIS2_PLACEMENT_3D('',#500,#402,#403);
#369=AXIS2_PLACEMENT_3D('',#501,#404,#405);
#370=AXIS2_PLACEMENT_3D('',#502,#406,#407);
#371=AXIS2_PLACEMENT_3D('',#504,#408,#409);
#372=AXIS2_PLACEMENT_3D('',#506,#410,#411);
#373=AXIS2_PLACEMENT_3D('',#507,#412,#413);
#374=AXIS2_PLACEMENT_3D('',#509,#414,#415);
#375=AXIS2_PLACEMENT_3D('',#511,#416,#417);
#376=AXIS2_PLACEMENT_3D('',#512,#418,#419);
#377=AXIS2_PLACEMENT_3D('',#514,#420,#421);
#378=AXIS2_PLACEMENT_3D('',#516,#422,#423);
#379=AXIS2_PLACEMENT_3D('',#517,#424,#425);
#380=AXIS2_PLACEMENT_3D('',#519,#426,#427);
#381=AXIS2_PLACEMENT_3D('',#520,#428,#429);
#382=AXIS2_PLACEMENT_3D('',#522,#430,#431);
#383=AXIS2_PLACEMENT_3D('',#523,#432,#433);
#384=AXIS2_PLACEMENT_3D('',#525,#434,#435);
#385=AXIS2_PLACEMENT_3D('',#534,#440,#441);
#386=AXIS2_PLACEMENT_3D('',#535,#442,#443);
#387=AXIS2_PLACEMENT_3D('',#537,#444,#445);
#388=AXIS2_PLACEMENT_3D('',#538,#446,#447);
#389=AXIS2_PLACEMENT_3D('',#540,#448,#449);
#390=AXIS2_PLACEMENT_3D('',#541,#450,#451);
#391=AXIS2_PLACEMENT_3D('',#543,#452,#453);
#392=AXIS2_PLACEMENT_3D('',#561,#463,#464);
#393=AXIS2_PLACEMENT_3D('',#579,#474,#475);
#394=AXIS2_PLACEMENT_3D('',#581,#477,#478);
#395=AXIS2_PLACEMENT_3D('',#583,#480,#481);
#396=AXIS2_PLACEMENT_3D('',#585,#483,#484);
#397=AXIS2_PLACEMENT_3D('',#587,#486,#487);
#398=AXIS2_PLACEMENT_3D('',#589,#489,#490);
#399=AXIS2_PLACEMENT_3D('',#591,#492,#493);
#400=AXIS2_PLACEMENT_3D('',#593,#495,#496);
#401=AXIS2_PLACEMENT_3D('',#595,#498,#499);
#402=DIRECTION('',(0.,0.,1.));
#403=DIRECTION('',(1.,0.,0.));
#404=DIRECTION('',(1.93707071688255E-17,-0.104528463267654,-0.994521895368273));
#405=DIRECTION('',(1.,2.02479025276506E-18,1.92645924081642E-17));
#406=DIRECTION('',(1.93707071688255E-17,-0.104528463267654,-0.994521895368273));
#407=DIRECTION('',(1.84299967740228E-16,-0.994521895368273,0.104528463267654));
#408=DIRECTION('',(1.93707071688255E-17,-0.104528463267654,-0.994521895368273));
#409=DIRECTION('',(0.,0.994521895368273,-0.104528463267654));
#410=DIRECTION('',(1.93707071688255E-17,-0.104528463267654,-0.994521895368273));
#411=DIRECTION('',(1.,2.02479025276506E-18,1.92645924081642E-17));
#412=DIRECTION('',(1.93707071688255E-17,-0.104528463267654,-0.994521895368273));
#413=DIRECTION('',(1.84299967740228E-16,-0.994521895368273,0.104528463267654));
#414=DIRECTION('',(1.93707071688255E-17,-0.104528463267654,-0.994521895368273));
#415=DIRECTION('',(0.,0.994521895368273,-0.104528463267654));
#416=DIRECTION('',(1.93707071688255E-17,-0.104528463267654,-0.994521895368273));
#417=DIRECTION('',(1.,2.02479025276506E-18,1.92645924081642E-17));
#418=DIRECTION('',(1.93707071688255E-17,-0.104528463267654,-0.994521895368273));
#419=DIRECTION('',(1.84299967740228E-16,-0.994521895368273,0.104528463267654));
#420=DIRECTION('',(1.93707071688255E-17,-0.104528463267654,-0.994521895368273));
#421=DIRECTION('',(0.,0.994521895368273,-0.104528463267654));
#422=DIRECTION('',(0.,0.,1.));
#423=DIRECTION('',(1.,0.,0.));
#424=DIRECTION('',(0.,0.,-1.));
#425=DIRECTION('',(-1.,0.,0.));
#426=DIRECTION('',(0.,0.,1.));
#427=DIRECTION('',(1.,0.,0.));
#428=DIRECTION('',(0.,0.,-1.));
#429=DIRECTION('',(-1.,0.,0.));
#430=DIRECTION('',(0.,0.,1.));
#431=DIRECTION('',(1.,0.,0.));
#432=DIRECTION('',(0.,0.,-1.));
#433=DIRECTION('',(-1.,0.,0.));
#434=DIRECTION('',(-1.,-1.85315143486088E-16,0.));
#435=DIRECTION('',(1.85315143486088E-16,-1.,0.));
#436=DIRECTION('',(1.85315143486088E-16,-1.,0.));
#437=DIRECTION('',(0.,0.,1.));
#438=DIRECTION('',(-1.84299967740228E-16,0.994521895368273,-0.104528463267654));
#439=DIRECTION('',(0.,0.,1.));
#440=DIRECTION('',(1.93707071688255E-17,-0.104528463267654,-0.994521895368273));
#441=DIRECTION('',(0.,0.994521895368273,-0.104528463267654));
#442=DIRECTION('',(1.93707071688255E-17,-0.104528463267654,-0.994521895368273));
#443=DIRECTION('',(0.,0.994521895368273,-0.104528463267654));
#444=DIRECTION('',(1.93707071688255E-17,-0.104528463267654,-0.994521895368273));
#445=DIRECTION('',(0.,0.994521895368273,-0.104528463267654));
#446=DIRECTION('',(1.93707071688255E-17,-0.104528463267654,-0.994521895368273));
#447=DIRECTION('',(0.,0.994521895368273,-0.104528463267654));
#448=DIRECTION('',(1.93707071688255E-17,-0.104528463267654,-0.994521895368273));
#449=DIRECTION('',(0.,0.994521895368273,-0.104528463267654));
#450=DIRECTION('',(1.93707071688255E-17,-0.104528463267654,-0.994521895368273));
#451=DIRECTION('',(0.,0.994521895368273,-0.104528463267654));
#452=DIRECTION('',(0.,0.,-1.));
#453=DIRECTION('',(1.,0.,0.));
#454=DIRECTION('',(1.85315143486088E-16,-1.,0.));
#455=DIRECTION('',(1.,1.22116595130084E-16,0.));
#456=DIRECTION('',(1.,1.22116595130084E-16,0.));
#457=DIRECTION('',(-6.15804247420192E-17,-1.,0.));
#458=DIRECTION('',(0.866025403784439,0.5,0.));
#459=DIRECTION('',(-6.15804247420192E-17,-1.,0.));
#460=DIRECTION('',(-0.866025403784439,0.5,0.));
#461=DIRECTION('',(1.22464679914735E-16,-1.,0.));
#462=DIRECTION('',(0.866025403784438,0.5,0.));
#463=DIRECTION('',(-1.93707071688255E-17,0.104528463267654,0.994521895368273));
#464=DIRECTION('',(0.,-0.994521895368273,0.104528463267654));
#465=DIRECTION('',(-1.,-1.85315143486088E-16,0.));
#466=DIRECTION('',(1.84299967740228E-16,-0.994521895368274,0.104528463267654));
#467=DIRECTION('',(0.864832013045731,0.49931099553576,-0.0524797003455297));
#468=DIRECTION('',(1.21793805584471E-16,-0.994521895368274,0.104528463267654));
#469=DIRECTION('',(-0.864832013045732,0.499310995535759,-0.0524797003455297));
#470=DIRECTION('',(-6.12430807320162E-17,-0.994521895368274,0.104528463267654));
#471=DIRECTION('',(0.864832013045732,0.499310995535759,-0.0524797003455296));
#472=DIRECTION('',(-6.12430807320162E-17,-0.994521895368274,0.104528463267654));
#473=DIRECTION('',(1.,1.22116595130084E-16,0.));
#474=DIRECTION('',(1.22116595130084E-16,-1.,0.));
#475=DIRECTION('',(1.,1.22116595130084E-16,0.));
#476=DIRECTION('',(0.,0.,1.));
#477=DIRECTION('',(1.22116595130084E-16,-1.,0.));
#478=DIRECTION('',(1.,1.22116595130084E-16,0.));
#479=DIRECTION('',(0.,0.,1.));
#480=DIRECTION('',(-1.,6.15804247420192E-17,0.));
#481=DIRECTION('',(-6.15804247420192E-17,-1.,0.));
#482=DIRECTION('',(0.,0.,1.));
#483=DIRECTION('',(0.5,-0.866025403784439,0.));
#484=DIRECTION('',(0.866025403784439,0.5,0.));
#485=DIRECTION('',(0.,0.,1.));
#486=DIRECTION('',(-1.,6.15804247420192E-17,0.));
#487=DIRECTION('',(-6.15804247420192E-17,-1.,0.));
#488=DIRECTION('',(0.,0.,1.));
#489=DIRECTION('',(0.5,0.866025403784439,0.));
#490=DIRECTION('',(-0.866025403784439,0.5,0.));
#491=DIRECTION('',(0.,0.,1.));
#492=DIRECTION('',(-1.,-1.22464679914735E-16,0.));
#493=DIRECTION('',(1.22464679914735E-16,-1.,0.));
#494=DIRECTION('',(0.,0.,1.));
#495=DIRECTION('',(0.5,-0.866025403784438,0.));
#496=DIRECTION('',(0.866025403784438,0.5,0.));
#497=DIRECTION('',(0.,0.,1.));
#498=DIRECTION('',(-1.,-1.85315143486088E-16,0.));
#499=DIRECTION('',(1.85315143486088E-16,-1.,0.));
#500=CARTESIAN_POINT('',(0.,0.,0.));
#501=CARTESIAN_POINT('',(0.2428875,-0.0902261788418309,-0.0168746886800377));
#502=CARTESIAN_POINT('',(0.0188,-0.0188,-0.0243818825851578));
#503=CARTESIAN_POINT('',(0.0188,-0.02,-0.024255757502839));
#504=CARTESIAN_POINT('',(0.0188,-0.0185386788418309,-0.0244093485456459));
#505=CARTESIAN_POINT('',(0.0188,-0.0160523741034102,-0.024670669703815));
#506=CARTESIAN_POINT('',(0.2428875,-0.0902261788418309,-0.0168746886800377));
#507=CARTESIAN_POINT('',(0.0188,-0.1616875,-0.00936380116863339));
#508=CARTESIAN_POINT('',(0.0188,-0.1628875,-0.00923767608631458));
#509=CARTESIAN_POINT('',(0.0188,-0.161426178841831,-0.00939126712912151));
#510=CARTESIAN_POINT('',(0.0188,-0.15893987410341,-0.00965258828729064));
#511=CARTESIAN_POINT('',(0.2428875,-0.0902261788418309,-0.0168746886800377));
#512=CARTESIAN_POINT('',(0.1678,-0.1616875,-0.00936380116863339));
#513=CARTESIAN_POINT('',(0.1678,-0.1628875,-0.00923767608631458));
#514=CARTESIAN_POINT('',(0.1678,-0.161426178841831,-0.00939126712912151));
#515=CARTESIAN_POINT('',(0.1678,-0.15893987410341,-0.00965258828729064));
#516=CARTESIAN_POINT('',(0.1678,-0.1616875,-0.487844554191488));
#517=CARTESIAN_POINT('',(0.1678,-0.1616875,-0.00749));
#518=CARTESIAN_POINT('',(0.1666,-0.1616875,-0.00749));
#519=CARTESIAN_POINT('',(0.0188,-0.1616875,-0.487844554191488));
#520=CARTESIAN_POINT('',(0.0188,-0.1616875,-0.00749));
#521=CARTESIAN_POINT('',(0.0176,-0.1616875,-0.00749));
#522=CARTESIAN_POINT('',(0.0188,-0.0188,-0.487844554191488));
#523=CARTESIAN_POINT('',(0.0188,-0.0188,-0.00749));
#524=CARTESIAN_POINT('',(0.0176,-0.0188,-0.00749));
#525=CARTESIAN_POINT('',(0.0156,-0.0904875,-0.01149));
#526=CARTESIAN_POINT('',(0.0156,-0.0904875,-0.00749));
#527=CARTESIAN_POINT('',(0.0156,-0.0156,-0.00749));
#528=CARTESIAN_POINT('',(0.0156,-0.165375,-0.00749));
#529=CARTESIAN_POINT('',(0.0156,-0.0156,-0.01149));
#530=CARTESIAN_POINT('',(0.0156,-0.0156,-0.0272319868369167));
#531=CARTESIAN_POINT('',(0.0156,-0.0904875,-0.0193609934184583));
#532=CARTESIAN_POINT('',(0.0156,-0.165375,-0.01149));
#533=CARTESIAN_POINT('',(0.0156,-0.165375,-0.01149));
#534=CARTESIAN_POINT('',(0.0188,-0.0185386788418309,-0.0244093485456459));
#535=CARTESIAN_POINT('',(0.0188,-0.0188,-0.0268956532840666));
#536=CARTESIAN_POINT('',(0.0188,-0.0163136952615793,-0.0271569744422357));
#537=CARTESIAN_POINT('',(0.0188,-0.161426178841831,-0.00939126712912151));
#538=CARTESIAN_POINT('',(0.0188,-0.1616875,-0.0118775718675422));
#539=CARTESIAN_POINT('',(0.0188,-0.159201195261579,-0.0121388930257113));
#540=CARTESIAN_POINT('',(0.1678,-0.161426178841831,-0.00939126712912151));
#541=CARTESIAN_POINT('',(0.1678,-0.1616875,-0.0118775718675422));
#542=CARTESIAN_POINT('',(0.1678,-0.159201195261579,-0.0121388930257113));
#543=CARTESIAN_POINT('',(0.2428875,-0.0904875,-0.00749));
#544=CARTESIAN_POINT('',(0.15845,-0.0399450419723987,-0.00749));
#545=CARTESIAN_POINT('',(0.15845,-0.0156,-0.00749));
#546=CARTESIAN_POINT('',(0.15845,-0.0658598076211354,-0.00749));
#547=CARTESIAN_POINT('',(0.2428875,-0.0156,-0.00749));
#548=CARTESIAN_POINT('',(0.2428875,-0.165375,-0.00749));
#549=CARTESIAN_POINT('',(0.18845,-0.165375,-0.00749));
#550=CARTESIAN_POINT('',(0.18845,-0.134597200166556,-0.00749));
#551=CARTESIAN_POINT('',(0.18845,-0.115634807621135,-0.00749));
#552=CARTESIAN_POINT('',(0.18382187914099,-0.118306854444927,-0.00749));
#553=CARTESIAN_POINT('',(0.15845,-0.132955315696824,-0.00749));
#554=CARTESIAN_POINT('',(0.15845,-0.0865571222161735,-0.00749));
#555=CARTESIAN_POINT('',(0.15845,-0.0824357004545535,-0.00749));
#556=CARTESIAN_POINT('',(0.178753127173528,-0.0941577163935812,-0.00749));
#557=CARTESIAN_POINT('',(0.186946125905074,-0.0988879464167091,-0.00749));
#558=CARTESIAN_POINT('',(0.186946125905074,-0.0725942154130307,-0.00749));
#559=CARTESIAN_POINT('',(0.186946125905074,-0.0494075616589798,-0.00749));
#560=CARTESIAN_POINT('',(0.168109466230066,-0.0602829121929786,-0.00749));
#561=CARTESIAN_POINT('',(0.470177,-0.0904875,-0.0193609934184583));
#562=CARTESIAN_POINT('',(0.470177,-0.0156,-0.0272319868369167));
#563=CARTESIAN_POINT('',(0.15845,-0.0156,-0.0272319868369168));
#564=CARTESIAN_POINT('',(0.15845,-0.0904875,-0.0193609934184583));
#565=CARTESIAN_POINT('',(0.15845,-0.0658598076211354,-0.0219494681922973));
#566=CARTESIAN_POINT('',(0.380849135824069,0.0625423933144311,-0.0354450833280597));
#567=CARTESIAN_POINT('',(0.186946125905074,-0.0494075616589797,-0.0236786689225526));
#568=CARTESIAN_POINT('',(0.186946125905074,-0.0904875,-0.0193609934184583));
#569=CARTESIAN_POINT('',(0.186946125905074,-0.0988879464167091,-0.0184780709219398));
#570=CARTESIAN_POINT('',(0.395116688515416,-0.219075276777147,-0.00584587347578286));
#571=CARTESIAN_POINT('',(0.15845,-0.0824357004545535,-0.0202072716521952));
#572=CARTESIAN_POINT('',(0.15845,-0.0904875,-0.0193609934184583));
#573=CARTESIAN_POINT('',(0.15845,-0.132955315696824,-0.0148974461262399));
#574=CARTESIAN_POINT('',(0.410142391026438,0.0123593540152701,-0.030170633359214));
#575=CARTESIAN_POINT('',(0.18845,-0.115634807621135,-0.0167179048819483));
#576=CARTESIAN_POINT('',(0.18845,-0.0904875,-0.0193609934184583));
#577=CARTESIAN_POINT('',(0.18845,-0.165375,-0.01149));
#578=CARTESIAN_POINT('',(0.2428875,-0.165375,-0.01149));
#579=CARTESIAN_POINT('',(0.2428875,-0.165375,-0.01149));
#580=CARTESIAN_POINT('',(0.18845,-0.165375,-0.487844554191488));
#581=CARTESIAN_POINT('',(0.2428875,-0.0156,-0.01149));
#582=CARTESIAN_POINT('',(0.15845,-0.0156,-0.487844554191488));
#583=CARTESIAN_POINT('',(0.18845,-0.134597200166556,-0.487844554191488));
#584=CARTESIAN_POINT('',(0.18845,-0.115634807621135,-0.487844554191488));
#585=CARTESIAN_POINT('',(0.18382187914099,-0.118306854444927,-0.487844554191488));
#586=CARTESIAN_POINT('',(0.15845,-0.132955315696824,-0.487844554191488));
#587=CARTESIAN_POINT('',(0.15845,-0.0865571222161735,-0.487844554191488));
#588=CARTESIAN_POINT('',(0.15845,-0.0824357004545535,-0.487844554191488));
#589=CARTESIAN_POINT('',(0.178753127173528,-0.0941577163935812,-0.487844554191488));
#590=CARTESIAN_POINT('',(0.186946125905074,-0.0988879464167091,-0.487844554191488));
#591=CARTESIAN_POINT('',(0.186946125905074,-0.0725942154130307,-0.487844554191488));
#592=CARTESIAN_POINT('',(0.186946125905074,-0.0494075616589798,-0.487844554191488));
#593=CARTESIAN_POINT('',(0.168109466230066,-0.0602829121929786,-0.487844554191488));
#594=CARTESIAN_POINT('',(0.15845,-0.0658598076211354,-0.487844554191488));
#595=CARTESIAN_POINT('',(0.15845,-0.0399450419723987,-0.487844554191488));
#596=MECHANICAL_DESIGN_GEOMETRIC_PRESENTATION_REPRESENTATION('',(#357),
#597);
#597=(
GEOMETRIC_REPRESENTATION_CONTEXT(3)
GLOBAL_UNCERTAINTY_ASSIGNED_CONTEXT((#598))
GLOBAL_UNIT_ASSIGNED_CONTEXT((#601,#600,#599))
REPRESENTATION_CONTEXT('BottomCaseLeft','TOP_LEVEL_ASSEMBLY_PART')
);
#598=UNCERTAINTY_MEASURE_WITH_UNIT(LENGTH_MEASURE(1.E-8),#601,
'DISTANCE_ACCURACY_VALUE','Maximum Tolerance applied to model');
#599=(
NAMED_UNIT(*)
SI_UNIT($,.STERADIAN.)
SOLID_ANGLE_UNIT()
);
#600=(
NAMED_UNIT(*)
PLANE_ANGLE_UNIT()
SI_UNIT($,.RADIAN.)
);
#601=(
LENGTH_UNIT()
NAMED_UNIT(*)
SI_UNIT($,.METRE.)
);
#602=PRODUCT_DEFINITION_SHAPE('','',#603);
#603=PRODUCT_DEFINITION('','',#605,#604);
#604=PRODUCT_DEFINITION_CONTEXT('',#611,'design');
#605=PRODUCT_DEFINITION_FORMATION_WITH_SPECIFIED_SOURCE('','',#607,
 .NOT_KNOWN.);
#606=PRODUCT_RELATED_PRODUCT_CATEGORY('','',(#607));
#607=PRODUCT('BottomCaseLeft','BottomCaseLeft','BottomCaseLeft',(#609));
#608=PRODUCT_CATEGORY('','');
#609=PRODUCT_CONTEXT('',#611,'mechanical');
#610=APPLICATION_PROTOCOL_DEFINITION('international standard',
'ap242_managed_model_based_3d_engineering',2020,#611);
#611=APPLICATION_CONTEXT('managed model based 3d engineering');
ENDSEC;
END-ISO-10303-21;
