ISO-10303-21;
HEADER;
/* Generated by software containing ST-Developer
 * from STEP Tools, Inc. (www.steptools.com) 
 */
/* OPTION: using custom renumber hook */

FILE_DESCRIPTION(
/* description */ ('STEP AP242 Edition 2',
'CAx-IF Rec.Pracs.---Representation and Presentation of Product Manufa
cturing Information (PMI)---4.0---2014-10-13',
'CAx-IF Rec.Pracs.---3D Tessellated Geometry---0.4---2014-09-14','2;1',
'CAx-IF Rec.Pracs.---User Defined Attributes---1.5---2016-08-15'),
/* implementation_level */ '2;1');

FILE_NAME(
/* name */ 'Case - TopCaseLeft',
/* time_stamp */ '2026-10-05T22:04:59Z',
/* author */ (''),
/* organization */ (''),
/* preprocessor_version */ 'ST-DEVELOPER v20',
/* originating_system */ 'ONSHAPE BY PTC INC, 1.221',
/* authorisation */ '  ');

FILE_SCHEMA (('AP242_MANAGED_MODEL_BASED_3D_ENGINEERING_MIM_LF { 1 0 10303 442 3 1 4 }'));
ENDSEC;

DATA;
#10=SHAPE_REPRESENTATION_RELATIONSHIP('','',#883,#11);
#11=ADVANCED_BREP_SHAPE_REPRESENTATION('',(#881),#1472);
#12=ELLIPSE('',#963,0.00424264068711928,0.003);
#13=ELLIPSE('',#966,0.00424264068711928,0.003);
#14=CONICAL_SURFACE('',#946,0.0016,0.785398163397448);
#15=CONICAL_SURFACE('',#947,0.0016,0.785398163397448);
#16=CONICAL_SURFACE('',#948,0.0016,0.785398163397448);
#17=CYLINDRICAL_SURFACE('',#905,0.001);
#18=CYLINDRICAL_SURFACE('',#910,0.001);
#19=CYLINDRICAL_SURFACE('',#913,0.001);
#20=CYLINDRICAL_SURFACE('',#918,0.001);
#21=CYLINDRICAL_SURFACE('',#922,0.001);
#22=CYLINDRICAL_SURFACE('',#927,0.00100000000000003);
#23=CYLINDRICAL_SURFACE('',#934,0.0016);
#24=CYLINDRICAL_SURFACE('',#938,0.0016);
#25=CYLINDRICAL_SURFACE('',#942,0.0016);
#26=CYLINDRICAL_SURFACE('',#949,0.0016);
#27=CYLINDRICAL_SURFACE('',#952,0.0016);
#28=CYLINDRICAL_SURFACE('',#955,0.0016);
#29=CYLINDRICAL_SURFACE('',#958,0.0016);
#30=CYLINDRICAL_SURFACE('',#961,0.003);
#31=CYLINDRICAL_SURFACE('',#964,0.003);
#32=CYLINDRICAL_SURFACE('',#967,0.003);
#33=CIRCLE('',#888,0.0016);
#34=CIRCLE('',#889,0.0016);
#35=CIRCLE('',#890,0.0016);
#36=CIRCLE('',#891,0.0016);
#37=CIRCLE('',#892,0.001);
#38=CIRCLE('',#893,0.001);
#39=CIRCLE('',#894,0.001);
#40=CIRCLE('',#895,0.001);
#41=CIRCLE('',#896,0.00100000000000003);
#42=CIRCLE('',#897,0.001);
#43=CIRCLE('',#906,0.001);
#44=CIRCLE('',#911,0.001);
#45=CIRCLE('',#914,0.001);
#46=CIRCLE('',#919,0.001);
#47=CIRCLE('',#923,0.001);
#48=CIRCLE('',#928,0.00100000000000003);
#49=CIRCLE('',#931,0.0021);
#50=CIRCLE('',#932,0.0021);
#51=CIRCLE('',#933,0.0021);
#52=CIRCLE('',#935,0.0016);
#53=CIRCLE('',#936,0.0016);
#54=CIRCLE('',#939,0.0016);
#55=CIRCLE('',#940,0.0016);
#56=CIRCLE('',#943,0.0016);
#57=CIRCLE('',#944,0.0016);
#58=CIRCLE('',#950,0.0016);
#59=CIRCLE('',#953,0.0016);
#60=CIRCLE('',#956,0.0016);
#61=CIRCLE('',#959,0.0016);
#62=CIRCLE('',#962,0.003);
#63=CIRCLE('',#965,0.003);
#64=ORIENTED_EDGE('',*,*,#292,.F.);
#65=ORIENTED_EDGE('',*,*,#293,.T.);
#66=ORIENTED_EDGE('',*,*,#294,.T.);
#67=ORIENTED_EDGE('',*,*,#295,.T.);
#68=ORIENTED_EDGE('',*,*,#296,.T.);
#69=ORIENTED_EDGE('',*,*,#297,.T.);
#70=ORIENTED_EDGE('',*,*,#298,.F.);
#71=ORIENTED_EDGE('',*,*,#299,.F.);
#72=ORIENTED_EDGE('',*,*,#300,.F.);
#73=ORIENTED_EDGE('',*,*,#301,.F.);
#74=ORIENTED_EDGE('',*,*,#302,.F.);
#75=ORIENTED_EDGE('',*,*,#303,.F.);
#76=ORIENTED_EDGE('',*,*,#304,.F.);
#77=ORIENTED_EDGE('',*,*,#295,.F.);
#78=ORIENTED_EDGE('',*,*,#305,.F.);
#79=ORIENTED_EDGE('',*,*,#298,.T.);
#80=ORIENTED_EDGE('',*,*,#306,.F.);
#81=ORIENTED_EDGE('',*,*,#307,.F.);
#82=ORIENTED_EDGE('',*,*,#308,.T.);
#83=ORIENTED_EDGE('',*,*,#309,.F.);
#84=ORIENTED_EDGE('',*,*,#310,.T.);
#85=ORIENTED_EDGE('',*,*,#311,.T.);
#86=ORIENTED_EDGE('',*,*,#312,.T.);
#87=ORIENTED_EDGE('',*,*,#313,.F.);
#88=ORIENTED_EDGE('',*,*,#314,.T.);
#89=ORIENTED_EDGE('',*,*,#315,.F.);
#90=ORIENTED_EDGE('',*,*,#316,.T.);
#91=ORIENTED_EDGE('',*,*,#317,.T.);
#92=ORIENTED_EDGE('',*,*,#318,.T.);
#93=ORIENTED_EDGE('',*,*,#319,.F.);
#94=ORIENTED_EDGE('',*,*,#320,.F.);
#95=ORIENTED_EDGE('',*,*,#321,.F.);
#96=ORIENTED_EDGE('',*,*,#322,.T.);
#97=ORIENTED_EDGE('',*,*,#323,.T.);
#98=ORIENTED_EDGE('',*,*,#324,.F.);
#99=ORIENTED_EDGE('',*,*,#325,.F.);
#100=ORIENTED_EDGE('',*,*,#326,.T.);
#101=ORIENTED_EDGE('',*,*,#327,.F.);
#102=ORIENTED_EDGE('',*,*,#328,.F.);
#103=ORIENTED_EDGE('',*,*,#329,.F.);
#104=ORIENTED_EDGE('',*,*,#330,.T.);
#105=ORIENTED_EDGE('',*,*,#331,.T.);
#106=ORIENTED_EDGE('',*,*,#332,.T.);
#107=ORIENTED_EDGE('',*,*,#333,.T.);
#108=ORIENTED_EDGE('',*,*,#334,.F.);
#109=ORIENTED_EDGE('',*,*,#329,.T.);
#110=ORIENTED_EDGE('',*,*,#294,.F.);
#111=ORIENTED_EDGE('',*,*,#335,.T.);
#112=ORIENTED_EDGE('',*,*,#299,.T.);
#113=ORIENTED_EDGE('',*,*,#305,.T.);
#114=ORIENTED_EDGE('',*,*,#336,.F.);
#115=ORIENTED_EDGE('',*,*,#337,.F.);
#116=ORIENTED_EDGE('',*,*,#331,.F.);
#117=ORIENTED_EDGE('',*,*,#338,.T.);
#118=ORIENTED_EDGE('',*,*,#339,.F.);
#119=ORIENTED_EDGE('',*,*,#340,.T.);
#120=ORIENTED_EDGE('',*,*,#341,.T.);
#121=ORIENTED_EDGE('',*,*,#342,.T.);
#122=ORIENTED_EDGE('',*,*,#343,.F.);
#123=ORIENTED_EDGE('',*,*,#338,.F.);
#124=ORIENTED_EDGE('',*,*,#330,.F.);
#125=ORIENTED_EDGE('',*,*,#334,.T.);
#126=ORIENTED_EDGE('',*,*,#344,.T.);
#127=ORIENTED_EDGE('',*,*,#320,.T.);
#128=ORIENTED_EDGE('',*,*,#345,.F.);
#129=ORIENTED_EDGE('',*,*,#346,.F.);
#130=ORIENTED_EDGE('',*,*,#345,.T.);
#131=ORIENTED_EDGE('',*,*,#319,.T.);
#132=ORIENTED_EDGE('',*,*,#347,.F.);
#133=ORIENTED_EDGE('',*,*,#348,.F.);
#134=ORIENTED_EDGE('',*,*,#349,.T.);
#135=ORIENTED_EDGE('',*,*,#347,.T.);
#136=ORIENTED_EDGE('',*,*,#318,.F.);
#137=ORIENTED_EDGE('',*,*,#350,.F.);
#138=ORIENTED_EDGE('',*,*,#351,.T.);
#139=ORIENTED_EDGE('',*,*,#350,.T.);
#140=ORIENTED_EDGE('',*,*,#317,.F.);
#141=ORIENTED_EDGE('',*,*,#352,.F.);
#142=ORIENTED_EDGE('',*,*,#353,.T.);
#143=ORIENTED_EDGE('',*,*,#352,.T.);
#144=ORIENTED_EDGE('',*,*,#316,.F.);
#145=ORIENTED_EDGE('',*,*,#354,.F.);
#146=ORIENTED_EDGE('',*,*,#354,.T.);
#147=ORIENTED_EDGE('',*,*,#315,.T.);
#148=ORIENTED_EDGE('',*,*,#355,.F.);
#149=ORIENTED_EDGE('',*,*,#356,.F.);
#150=ORIENTED_EDGE('',*,*,#357,.T.);
#151=ORIENTED_EDGE('',*,*,#355,.T.);
#152=ORIENTED_EDGE('',*,*,#314,.F.);
#153=ORIENTED_EDGE('',*,*,#358,.F.);
#154=ORIENTED_EDGE('',*,*,#358,.T.);
#155=ORIENTED_EDGE('',*,*,#313,.T.);
#156=ORIENTED_EDGE('',*,*,#359,.F.);
#157=ORIENTED_EDGE('',*,*,#360,.F.);
#158=ORIENTED_EDGE('',*,*,#361,.T.);
#159=ORIENTED_EDGE('',*,*,#359,.T.);
#160=ORIENTED_EDGE('',*,*,#312,.F.);
#161=ORIENTED_EDGE('',*,*,#362,.F.);
#162=ORIENTED_EDGE('',*,*,#363,.T.);
#163=ORIENTED_EDGE('',*,*,#362,.T.);
#164=ORIENTED_EDGE('',*,*,#311,.F.);
#165=ORIENTED_EDGE('',*,*,#364,.F.);
#166=ORIENTED_EDGE('',*,*,#365,.T.);
#167=ORIENTED_EDGE('',*,*,#364,.T.);
#168=ORIENTED_EDGE('',*,*,#310,.F.);
#169=ORIENTED_EDGE('',*,*,#366,.F.);
#170=ORIENTED_EDGE('',*,*,#366,.T.);
#171=ORIENTED_EDGE('',*,*,#309,.T.);
#172=ORIENTED_EDGE('',*,*,#367,.F.);
#173=ORIENTED_EDGE('',*,*,#368,.F.);
#174=ORIENTED_EDGE('',*,*,#369,.T.);
#175=ORIENTED_EDGE('',*,*,#367,.T.);
#176=ORIENTED_EDGE('',*,*,#308,.F.);
#177=ORIENTED_EDGE('',*,*,#370,.F.);
#178=ORIENTED_EDGE('',*,*,#307,.T.);
#179=ORIENTED_EDGE('',*,*,#371,.T.);
#180=ORIENTED_EDGE('',*,*,#372,.F.);
#181=ORIENTED_EDGE('',*,*,#370,.T.);
#182=ORIENTED_EDGE('',*,*,#373,.F.);
#183=ORIENTED_EDGE('',*,*,#374,.T.);
#184=ORIENTED_EDGE('',*,*,#327,.T.);
#185=ORIENTED_EDGE('',*,*,#375,.F.);
#186=ORIENTED_EDGE('',*,*,#376,.T.);
#187=ORIENTED_EDGE('',*,*,#375,.T.);
#188=ORIENTED_EDGE('',*,*,#326,.F.);
#189=ORIENTED_EDGE('',*,*,#377,.F.);
#190=ORIENTED_EDGE('',*,*,#377,.T.);
#191=ORIENTED_EDGE('',*,*,#325,.T.);
#192=ORIENTED_EDGE('',*,*,#378,.F.);
#193=ORIENTED_EDGE('',*,*,#379,.F.);
#194=ORIENTED_EDGE('',*,*,#378,.T.);
#195=ORIENTED_EDGE('',*,*,#324,.T.);
#196=ORIENTED_EDGE('',*,*,#380,.F.);
#197=ORIENTED_EDGE('',*,*,#381,.F.);
#198=ORIENTED_EDGE('',*,*,#382,.T.);
#199=ORIENTED_EDGE('',*,*,#380,.T.);
#200=ORIENTED_EDGE('',*,*,#323,.F.);
#201=ORIENTED_EDGE('',*,*,#383,.F.);
#202=ORIENTED_EDGE('',*,*,#384,.T.);
#203=ORIENTED_EDGE('',*,*,#383,.T.);
#204=ORIENTED_EDGE('',*,*,#322,.F.);
#205=ORIENTED_EDGE('',*,*,#385,.F.);
#206=ORIENTED_EDGE('',*,*,#385,.T.);
#207=ORIENTED_EDGE('',*,*,#321,.T.);
#208=ORIENTED_EDGE('',*,*,#344,.F.);
#209=ORIENTED_EDGE('',*,*,#386,.F.);
#210=ORIENTED_EDGE('',*,*,#387,.T.);
#211=ORIENTED_EDGE('',*,*,#388,.T.);
#212=ORIENTED_EDGE('',*,*,#389,.T.);
#213=ORIENTED_EDGE('',*,*,#372,.T.);
#214=ORIENTED_EDGE('',*,*,#390,.T.);
#215=ORIENTED_EDGE('',*,*,#332,.F.);
#216=ORIENTED_EDGE('',*,*,#328,.T.);
#217=ORIENTED_EDGE('',*,*,#337,.T.);
#218=ORIENTED_EDGE('',*,*,#391,.T.);
#219=ORIENTED_EDGE('',*,*,#373,.T.);
#220=ORIENTED_EDGE('',*,*,#376,.F.);
#221=ORIENTED_EDGE('',*,*,#379,.T.);
#222=ORIENTED_EDGE('',*,*,#381,.T.);
#223=ORIENTED_EDGE('',*,*,#382,.F.);
#224=ORIENTED_EDGE('',*,*,#384,.F.);
#225=ORIENTED_EDGE('',*,*,#386,.T.);
#226=ORIENTED_EDGE('',*,*,#346,.T.);
#227=ORIENTED_EDGE('',*,*,#348,.T.);
#228=ORIENTED_EDGE('',*,*,#349,.F.);
#229=ORIENTED_EDGE('',*,*,#351,.F.);
#230=ORIENTED_EDGE('',*,*,#353,.F.);
#231=ORIENTED_EDGE('',*,*,#356,.T.);
#232=ORIENTED_EDGE('',*,*,#357,.F.);
#233=ORIENTED_EDGE('',*,*,#360,.T.);
#234=ORIENTED_EDGE('',*,*,#361,.F.);
#235=ORIENTED_EDGE('',*,*,#363,.F.);
#236=ORIENTED_EDGE('',*,*,#365,.F.);
#237=ORIENTED_EDGE('',*,*,#368,.T.);
#238=ORIENTED_EDGE('',*,*,#369,.F.);
#239=ORIENTED_EDGE('',*,*,#392,.T.);
#240=ORIENTED_EDGE('',*,*,#393,.F.);
#241=ORIENTED_EDGE('',*,*,#393,.T.);
#242=ORIENTED_EDGE('',*,*,#394,.T.);
#243=ORIENTED_EDGE('',*,*,#395,.F.);
#244=ORIENTED_EDGE('',*,*,#395,.T.);
#245=ORIENTED_EDGE('',*,*,#396,.T.);
#246=ORIENTED_EDGE('',*,*,#397,.F.);
#247=ORIENTED_EDGE('',*,*,#397,.T.);
#248=ORIENTED_EDGE('',*,*,#387,.F.);
#249=ORIENTED_EDGE('',*,*,#394,.F.);
#250=ORIENTED_EDGE('',*,*,#388,.F.);
#251=ORIENTED_EDGE('',*,*,#396,.F.);
#252=ORIENTED_EDGE('',*,*,#389,.F.);
#253=ORIENTED_EDGE('',*,*,#392,.F.);
#254=ORIENTED_EDGE('',*,*,#398,.F.);
#255=ORIENTED_EDGE('',*,*,#300,.T.);
#256=ORIENTED_EDGE('',*,*,#398,.T.);
#257=ORIENTED_EDGE('',*,*,#399,.F.);
#258=ORIENTED_EDGE('',*,*,#301,.T.);
#259=ORIENTED_EDGE('',*,*,#399,.T.);
#260=ORIENTED_EDGE('',*,*,#400,.F.);
#261=ORIENTED_EDGE('',*,*,#302,.T.);
#262=ORIENTED_EDGE('',*,*,#400,.T.);
#263=ORIENTED_EDGE('',*,*,#401,.F.);
#264=ORIENTED_EDGE('',*,*,#303,.T.);
#265=ORIENTED_EDGE('',*,*,#401,.T.);
#266=ORIENTED_EDGE('',*,*,#402,.F.);
#267=ORIENTED_EDGE('',*,*,#296,.F.);
#268=ORIENTED_EDGE('',*,*,#403,.F.);
#269=ORIENTED_EDGE('',*,*,#340,.F.);
#270=ORIENTED_EDGE('',*,*,#404,.F.);
#271=ORIENTED_EDGE('',*,*,#342,.F.);
#272=ORIENTED_EDGE('',*,*,#405,.F.);
#273=ORIENTED_EDGE('',*,*,#293,.F.);
#274=ORIENTED_EDGE('',*,*,#403,.T.);
#275=ORIENTED_EDGE('',*,*,#335,.F.);
#276=ORIENTED_EDGE('',*,*,#405,.T.);
#277=ORIENTED_EDGE('',*,*,#341,.F.);
#278=ORIENTED_EDGE('',*,*,#391,.F.);
#279=ORIENTED_EDGE('',*,*,#336,.T.);
#280=ORIENTED_EDGE('',*,*,#343,.T.);
#281=ORIENTED_EDGE('',*,*,#404,.T.);
#282=ORIENTED_EDGE('',*,*,#292,.T.);
#283=ORIENTED_EDGE('',*,*,#304,.T.);
#284=ORIENTED_EDGE('',*,*,#374,.F.);
#285=ORIENTED_EDGE('',*,*,#306,.T.);
#286=ORIENTED_EDGE('',*,*,#297,.F.);
#287=ORIENTED_EDGE('',*,*,#402,.T.);
#288=ORIENTED_EDGE('',*,*,#339,.T.);
#289=ORIENTED_EDGE('',*,*,#333,.F.);
#290=ORIENTED_EDGE('',*,*,#390,.F.);
#291=ORIENTED_EDGE('',*,*,#371,.F.);
#292=EDGE_CURVE('',#406,#407,#487,.T.);
#293=EDGE_CURVE('',#406,#408,#488,.F.);
#294=EDGE_CURVE('',#408,#409,#489,.T.);
#295=EDGE_CURVE('',#409,#407,#490,.T.);
#296=EDGE_CURVE('',#410,#411,#491,.T.);
#297=EDGE_CURVE('',#411,#412,#492,.T.);
#298=EDGE_CURVE('',#413,#412,#493,.T.);
#299=EDGE_CURVE('',#410,#413,#494,.T.);
#300=EDGE_CURVE('',#414,#414,#33,.T.);
#301=EDGE_CURVE('',#415,#415,#34,.T.);
#302=EDGE_CURVE('',#416,#416,#35,.T.);
#303=EDGE_CURVE('',#417,#417,#36,.T.);
#304=EDGE_CURVE('',#407,#418,#495,.T.);
#305=EDGE_CURVE('',#413,#409,#496,.T.);
#306=EDGE_CURVE('',#419,#412,#497,.T.);
#307=EDGE_CURVE('',#420,#419,#498,.T.);
#308=EDGE_CURVE('',#420,#421,#37,.T.);
#309=EDGE_CURVE('',#422,#421,#499,.T.);
#310=EDGE_CURVE('',#422,#423,#500,.T.);
#311=EDGE_CURVE('',#423,#424,#501,.T.);
#312=EDGE_CURVE('',#424,#425,#38,.T.);
#313=EDGE_CURVE('',#426,#425,#502,.T.);
#314=EDGE_CURVE('',#426,#427,#39,.T.);
#315=EDGE_CURVE('',#428,#427,#503,.T.);
#316=EDGE_CURVE('',#428,#429,#504,.T.);
#317=EDGE_CURVE('',#429,#430,#505,.T.);
#318=EDGE_CURVE('',#430,#431,#40,.T.);
#319=EDGE_CURVE('',#432,#431,#506,.T.);
#320=EDGE_CURVE('',#433,#432,#507,.T.);
#321=EDGE_CURVE('',#434,#433,#508,.T.);
#322=EDGE_CURVE('',#434,#435,#41,.T.);
#323=EDGE_CURVE('',#435,#436,#509,.T.);
#324=EDGE_CURVE('',#437,#436,#510,.T.);
#325=EDGE_CURVE('',#438,#437,#511,.T.);
#326=EDGE_CURVE('',#438,#439,#42,.T.);
#327=EDGE_CURVE('',#418,#439,#512,.T.);
#328=EDGE_CURVE('',#440,#441,#513,.T.);
#329=EDGE_CURVE('',#442,#440,#514,.T.);
#330=EDGE_CURVE('',#442,#443,#515,.T.);
#331=EDGE_CURVE('',#443,#441,#516,.T.);
#332=EDGE_CURVE('',#440,#444,#517,.T.);
#333=EDGE_CURVE('',#444,#445,#518,.T.);
#334=EDGE_CURVE('',#442,#445,#519,.T.);
#335=EDGE_CURVE('',#408,#410,#520,.F.);
#336=EDGE_CURVE('',#446,#447,#521,.T.);
#337=EDGE_CURVE('',#441,#446,#522,.T.);
#338=EDGE_CURVE('',#443,#447,#523,.T.);
#339=EDGE_CURVE('',#448,#445,#524,.T.);
#340=EDGE_CURVE('',#448,#449,#525,.F.);
#341=EDGE_CURVE('',#449,#450,#526,.T.);
#342=EDGE_CURVE('',#450,#451,#527,.T.);
#343=EDGE_CURVE('',#447,#451,#528,.T.);
#344=EDGE_CURVE('',#452,#433,#529,.T.);
#345=EDGE_CURVE('',#453,#432,#530,.T.);
#346=EDGE_CURVE('',#452,#453,#531,.T.);
#347=EDGE_CURVE('',#454,#431,#532,.T.);
#348=EDGE_CURVE('',#453,#454,#533,.T.);
#349=EDGE_CURVE('',#455,#454,#43,.F.);
#350=EDGE_CURVE('',#455,#430,#534,.T.);
#351=EDGE_CURVE('',#456,#455,#535,.T.);
#352=EDGE_CURVE('',#456,#429,#536,.T.);
#353=EDGE_CURVE('',#457,#456,#537,.T.);
#354=EDGE_CURVE('',#457,#428,#538,.T.);
#355=EDGE_CURVE('',#458,#427,#539,.T.);
#356=EDGE_CURVE('',#457,#458,#540,.T.);
#357=EDGE_CURVE('',#459,#458,#44,.F.);
#358=EDGE_CURVE('',#459,#426,#541,.T.);
#359=EDGE_CURVE('',#460,#425,#542,.T.);
#360=EDGE_CURVE('',#459,#460,#543,.T.);
#361=EDGE_CURVE('',#461,#460,#45,.F.);
#362=EDGE_CURVE('',#461,#424,#544,.T.);
#363=EDGE_CURVE('',#462,#461,#545,.T.);
#364=EDGE_CURVE('',#462,#423,#546,.T.);
#365=EDGE_CURVE('',#463,#462,#547,.T.);
#366=EDGE_CURVE('',#463,#422,#548,.T.);
#367=EDGE_CURVE('',#464,#421,#549,.T.);
#368=EDGE_CURVE('',#463,#464,#550,.T.);
#369=EDGE_CURVE('',#465,#464,#46,.F.);
#370=EDGE_CURVE('',#465,#420,#551,.T.);
#371=EDGE_CURVE('',#419,#466,#552,.T.);
#372=EDGE_CURVE('',#465,#466,#553,.T.);
#373=EDGE_CURVE('',#467,#468,#554,.T.);
#374=EDGE_CURVE('',#467,#418,#555,.T.);
#375=EDGE_CURVE('',#468,#439,#556,.T.);
#376=EDGE_CURVE('',#469,#468,#47,.F.);
#377=EDGE_CURVE('',#469,#438,#557,.T.);
#378=EDGE_CURVE('',#470,#437,#558,.T.);
#379=EDGE_CURVE('',#469,#470,#559,.T.);
#380=EDGE_CURVE('',#471,#436,#560,.T.);
#381=EDGE_CURVE('',#470,#471,#561,.T.);
#382=EDGE_CURVE('',#472,#471,#562,.T.);
#383=EDGE_CURVE('',#472,#435,#563,.T.);
#384=EDGE_CURVE('',#473,#472,#48,.F.);
#385=EDGE_CURVE('',#473,#434,#564,.T.);
#386=EDGE_CURVE('',#473,#452,#565,.T.);
#387=EDGE_CURVE('',#474,#474,#49,.T.);
#388=EDGE_CURVE('',#475,#475,#50,.T.);
#389=EDGE_CURVE('',#476,#476,#51,.T.);
#390=EDGE_CURVE('',#466,#444,#566,.T.);
#391=EDGE_CURVE('',#446,#467,#567,.T.);
#392=EDGE_CURVE('',#477,#477,#52,.F.);
#393=EDGE_CURVE('',#478,#478,#53,.T.);
#394=EDGE_CURVE('',#479,#479,#54,.F.);
#395=EDGE_CURVE('',#480,#480,#55,.T.);
#396=EDGE_CURVE('',#481,#481,#56,.F.);
#397=EDGE_CURVE('',#482,#482,#57,.T.);
#398=EDGE_CURVE('',#483,#483,#58,.T.);
#399=EDGE_CURVE('',#484,#484,#59,.T.);
#400=EDGE_CURVE('',#485,#485,#60,.T.);
#401=EDGE_CURVE('',#486,#486,#61,.T.);
#402=EDGE_CURVE('',#411,#448,#62,.F.);
#403=EDGE_CURVE('',#449,#410,#12,.F.);
#404=EDGE_CURVE('',#451,#406,#63,.F.);
#405=EDGE_CURVE('',#408,#450,#13,.T.);
#406=VERTEX_POINT('',#1226);
#407=VERTEX_POINT('',#1227);
#408=VERTEX_POINT('',#1229);
#409=VERTEX_POINT('',#1231);
#410=VERTEX_POINT('',#1235);
#411=VERTEX_POINT('',#1236);
#412=VERTEX_POINT('',#1238);
#413=VERTEX_POINT('',#1240);
#414=VERTEX_POINT('',#1244);
#415=VERTEX_POINT('',#1246);
#416=VERTEX_POINT('',#1248);
#417=VERTEX_POINT('',#1250);
#418=VERTEX_POINT('',#1252);
#419=VERTEX_POINT('',#1255);
#420=VERTEX_POINT('',#1257);
#421=VERTEX_POINT('',#1259);
#422=VERTEX_POINT('',#1261);
#423=VERTEX_POINT('',#1263);
#424=VERTEX_POINT('',#1265);
#425=VERTEX_POINT('',#1267);
#426=VERTEX_POINT('',#1269);
#427=VERTEX_POINT('',#1271);
#428=VERTEX_POINT('',#1273);
#429=VERTEX_POINT('',#1275);
#430=VERTEX_POINT('',#1277);
#431=VERTEX_POINT('',#1279);
#432=VERTEX_POINT('',#1281);
#433=VERTEX_POINT('',#1283);
#434=VERTEX_POINT('',#1285);
#435=VERTEX_POINT('',#1287);
#436=VERTEX_POINT('',#1289);
#437=VERTEX_POINT('',#1291);
#438=VERTEX_POINT('',#1293);
#439=VERTEX_POINT('',#1295);
#440=VERTEX_POINT('',#1299);
#441=VERTEX_POINT('',#1300);
#442=VERTEX_POINT('',#1302);
#443=VERTEX_POINT('',#1304);
#444=VERTEX_POINT('',#1308);
#445=VERTEX_POINT('',#1310);
#446=VERTEX_POINT('',#1316);
#447=VERTEX_POINT('',#1317);
#448=VERTEX_POINT('',#1322);
#449=VERTEX_POINT('',#1324);
#450=VERTEX_POINT('',#1326);
#451=VERTEX_POINT('',#1328);
#452=VERTEX_POINT('',#1332);
#453=VERTEX_POINT('',#1334);
#454=VERTEX_POINT('',#1338);
#455=VERTEX_POINT('',#1342);
#456=VERTEX_POINT('',#1346);
#457=VERTEX_POINT('',#1350);
#458=VERTEX_POINT('',#1354);
#459=VERTEX_POINT('',#1358);
#460=VERTEX_POINT('',#1362);
#461=VERTEX_POINT('',#1366);
#462=VERTEX_POINT('',#1370);
#463=VERTEX_POINT('',#1374);
#464=VERTEX_POINT('',#1378);
#465=VERTEX_POINT('',#1382);
#466=VERTEX_POINT('',#1386);
#467=VERTEX_POINT('',#1390);
#468=VERTEX_POINT('',#1391);
#469=VERTEX_POINT('',#1396);
#470=VERTEX_POINT('',#1400);
#471=VERTEX_POINT('',#1404);
#472=VERTEX_POINT('',#1408);
#473=VERTEX_POINT('',#1412);
#474=VERTEX_POINT('',#1418);
#475=VERTEX_POINT('',#1420);
#476=VERTEX_POINT('',#1422);
#477=VERTEX_POINT('',#1427);
#478=VERTEX_POINT('',#1429);
#479=VERTEX_POINT('',#1433);
#480=VERTEX_POINT('',#1435);
#481=VERTEX_POINT('',#1439);
#482=VERTEX_POINT('',#1441);
#483=VERTEX_POINT('',#1448);
#484=VERTEX_POINT('',#1452);
#485=VERTEX_POINT('',#1456);
#486=VERTEX_POINT('',#1460);
#487=LINE('',#1225,#568);
#488=LINE('',#1228,#569);
#489=LINE('',#1230,#570);
#490=LINE('',#1232,#571);
#491=LINE('',#1234,#572);
#492=LINE('',#1237,#573);
#493=LINE('',#1239,#574);
#494=LINE('',#1241,#575);
#495=LINE('',#1251,#576);
#496=LINE('',#1253,#577);
#497=LINE('',#1254,#578);
#498=LINE('',#1256,#579);
#499=LINE('',#1260,#580);
#500=LINE('',#1262,#581);
#501=LINE('',#1264,#582);
#502=LINE('',#1268,#583);
#503=LINE('',#1272,#584);
#504=LINE('',#1274,#585);
#505=LINE('',#1276,#586);
#506=LINE('',#1280,#587);
#507=LINE('',#1282,#588);
#508=LINE('',#1284,#589);
#509=LINE('',#1288,#590);
#510=LINE('',#1290,#591);
#511=LINE('',#1292,#592);
#512=LINE('',#1296,#593);
#513=LINE('',#1298,#594);
#514=LINE('',#1301,#595);
#515=LINE('',#1303,#596);
#516=LINE('',#1305,#597);
#517=LINE('',#1307,#598);
#518=LINE('',#1309,#599);
#519=LINE('',#1311,#600);
#520=LINE('',#1313,#601);
#521=LINE('',#1315,#602);
#522=LINE('',#1318,#603);
#523=LINE('',#1319,#604);
#524=LINE('',#1321,#605);
#525=LINE('',#1323,#606);
#526=LINE('',#1325,#607);
#527=LINE('',#1327,#608);
#528=LINE('',#1329,#609);
#529=LINE('',#1331,#610);
#530=LINE('',#1333,#611);
#531=LINE('',#1335,#612);
#532=LINE('',#1337,#613);
#533=LINE('',#1339,#614);
#534=LINE('',#1343,#615);
#535=LINE('',#1345,#616);
#536=LINE('',#1347,#617);
#537=LINE('',#1349,#618);
#538=LINE('',#1351,#619);
#539=LINE('',#1353,#620);
#540=LINE('',#1355,#621);
#541=LINE('',#1359,#622);
#542=LINE('',#1361,#623);
#543=LINE('',#1363,#624);
#544=LINE('',#1367,#625);
#545=LINE('',#1369,#626);
#546=LINE('',#1371,#627);
#547=LINE('',#1373,#628);
#548=LINE('',#1375,#629);
#549=LINE('',#1377,#630);
#550=LINE('',#1379,#631);
#551=LINE('',#1383,#632);
#552=LINE('',#1385,#633);
#553=LINE('',#1387,#634);
#554=LINE('',#1389,#635);
#555=LINE('',#1392,#636);
#556=LINE('',#1393,#637);
#557=LINE('',#1397,#638);
#558=LINE('',#1399,#639);
#559=LINE('',#1401,#640);
#560=LINE('',#1403,#641);
#561=LINE('',#1405,#642);
#562=LINE('',#1407,#643);
#563=LINE('',#1409,#644);
#564=LINE('',#1413,#645);
#565=LINE('',#1415,#646);
#566=LINE('',#1423,#647);
#567=LINE('',#1424,#648);
#568=VECTOR('',#974,1.);
#569=VECTOR('',#975,1.);
#570=VECTOR('',#976,1.);
#571=VECTOR('',#977,1.);
#572=VECTOR('',#980,1.);
#573=VECTOR('',#981,1.);
#574=VECTOR('',#982,1.);
#575=VECTOR('',#983,1.);
#576=VECTOR('',#994,1.);
#577=VECTOR('',#995,1.);
#578=VECTOR('',#996,1.);
#579=VECTOR('',#997,1.);
#580=VECTOR('',#1000,1.);
#581=VECTOR('',#1001,1.);
#582=VECTOR('',#1002,1.);
#583=VECTOR('',#1005,1.);
#584=VECTOR('',#1008,1.);
#585=VECTOR('',#1009,1.);
#586=VECTOR('',#1010,1.);
#587=VECTOR('',#1013,1.);
#588=VECTOR('',#1014,1.);
#589=VECTOR('',#1015,1.);
#590=VECTOR('',#1018,1.);
#591=VECTOR('',#1019,1.);
#592=VECTOR('',#1020,1.);
#593=VECTOR('',#1023,1.);
#594=VECTOR('',#1026,1.);
#595=VECTOR('',#1027,1.);
#596=VECTOR('',#1028,1.);
#597=VECTOR('',#1029,1.);
#598=VECTOR('',#1032,1.);
#599=VECTOR('',#1033,1.);
#600=VECTOR('',#1034,1.);
#601=VECTOR('',#1037,1.);
#602=VECTOR('',#1040,1.);
#603=VECTOR('',#1041,1.);
#604=VECTOR('',#1042,1.);
#605=VECTOR('',#1045,1.);
#606=VECTOR('',#1046,1.);
#607=VECTOR('',#1047,1.);
#608=VECTOR('',#1048,1.);
#609=VECTOR('',#1049,1.);
#610=VECTOR('',#1052,1.);
#611=VECTOR('',#1053,1.);
#612=VECTOR('',#1054,1.);
#613=VECTOR('',#1057,1.);
#614=VECTOR('',#1058,1.);
#615=VECTOR('',#1063,1.);
#616=VECTOR('',#1066,1.);
#617=VECTOR('',#1067,1.);
#618=VECTOR('',#1070,1.);
#619=VECTOR('',#1071,1.);
#620=VECTOR('',#1074,1.);
#621=VECTOR('',#1075,1.);
#622=VECTOR('',#1080,1.);
#623=VECTOR('',#1083,1.);
#624=VECTOR('',#1084,1.);
#625=VECTOR('',#1089,1.);
#626=VECTOR('',#1092,1.);
#627=VECTOR('',#1093,1.);
#628=VECTOR('',#1096,1.);
#629=VECTOR('',#1097,1.);
#630=VECTOR('',#1100,1.);
#631=VECTOR('',#1101,1.);
#632=VECTOR('',#1106,1.);
#633=VECTOR('',#1109,1.);
#634=VECTOR('',#1110,1.);
#635=VECTOR('',#1113,1.);
#636=VECTOR('',#1114,1.);
#637=VECTOR('',#1115,1.);
#638=VECTOR('',#1120,1.);
#639=VECTOR('',#1123,1.);
#640=VECTOR('',#1124,1.);
#641=VECTOR('',#1127,1.);
#642=VECTOR('',#1128,1.);
#643=VECTOR('',#1131,1.);
#644=VECTOR('',#1132,1.);
#645=VECTOR('',#1137,1.);
#646=VECTOR('',#1140,1.);
#647=VECTOR('',#1149,1.);
#648=VECTOR('',#1150,1.);
#649=EDGE_LOOP('',(#64,#65,#66,#67));
#650=EDGE_LOOP('',(#68,#69,#70,#71));
#651=EDGE_LOOP('',(#72));
#652=EDGE_LOOP('',(#73));
#653=EDGE_LOOP('',(#74));
#654=EDGE_LOOP('',(#75));
#655=EDGE_LOOP('',(#76,#77,#78,#79,#80,#81,#82,#83,#84,#85,#86,#87,#88,
#89,#90,#91,#92,#93,#94,#95,#96,#97,#98,#99,#100,#101));
#656=EDGE_LOOP('',(#102,#103,#104,#105));
#657=EDGE_LOOP('',(#106,#107,#108,#109));
#658=EDGE_LOOP('',(#110,#111,#112,#113));
#659=EDGE_LOOP('',(#114,#115,#116,#117));
#660=EDGE_LOOP('',(#118,#119,#120,#121,#122,#123,#124,#125));
#661=EDGE_LOOP('',(#126,#127,#128,#129));
#662=EDGE_LOOP('',(#130,#131,#132,#133));
#663=EDGE_LOOP('',(#134,#135,#136,#137));
#664=EDGE_LOOP('',(#138,#139,#140,#141));
#665=EDGE_LOOP('',(#142,#143,#144,#145));
#666=EDGE_LOOP('',(#146,#147,#148,#149));
#667=EDGE_LOOP('',(#150,#151,#152,#153));
#668=EDGE_LOOP('',(#154,#155,#156,#157));
#669=EDGE_LOOP('',(#158,#159,#160,#161));
#670=EDGE_LOOP('',(#162,#163,#164,#165));
#671=EDGE_LOOP('',(#166,#167,#168,#169));
#672=EDGE_LOOP('',(#170,#171,#172,#173));
#673=EDGE_LOOP('',(#174,#175,#176,#177));
#674=EDGE_LOOP('',(#178,#179,#180,#181));
#675=EDGE_LOOP('',(#182,#183,#184,#185));
#676=EDGE_LOOP('',(#186,#187,#188,#189));
#677=EDGE_LOOP('',(#190,#191,#192,#193));
#678=EDGE_LOOP('',(#194,#195,#196,#197));
#679=EDGE_LOOP('',(#198,#199,#200,#201));
#680=EDGE_LOOP('',(#202,#203,#204,#205));
#681=EDGE_LOOP('',(#206,#207,#208,#209));
#682=EDGE_LOOP('',(#210));
#683=EDGE_LOOP('',(#211));
#684=EDGE_LOOP('',(#212));
#685=EDGE_LOOP('',(#213,#214,#215,#216,#217,#218,#219,#220,#221,#222,#223,
#224,#225,#226,#227,#228,#229,#230,#231,#232,#233,#234,#235,#236,#237,#238));
#686=EDGE_LOOP('',(#239));
#687=EDGE_LOOP('',(#240));
#688=EDGE_LOOP('',(#241));
#689=EDGE_LOOP('',(#242));
#690=EDGE_LOOP('',(#243));
#691=EDGE_LOOP('',(#244));
#692=EDGE_LOOP('',(#245));
#693=EDGE_LOOP('',(#246));
#694=EDGE_LOOP('',(#247));
#695=EDGE_LOOP('',(#248));
#696=EDGE_LOOP('',(#249));
#697=EDGE_LOOP('',(#250));
#698=EDGE_LOOP('',(#251));
#699=EDGE_LOOP('',(#252));
#700=EDGE_LOOP('',(#253));
#701=EDGE_LOOP('',(#254));
#702=EDGE_LOOP('',(#255));
#703=EDGE_LOOP('',(#256));
#704=EDGE_LOOP('',(#257));
#705=EDGE_LOOP('',(#258));
#706=EDGE_LOOP('',(#259));
#707=EDGE_LOOP('',(#260));
#708=EDGE_LOOP('',(#261));
#709=EDGE_LOOP('',(#262));
#710=EDGE_LOOP('',(#263));
#711=EDGE_LOOP('',(#264));
#712=EDGE_LOOP('',(#265));
#713=EDGE_LOOP('',(#266,#267,#268,#269));
#714=EDGE_LOOP('',(#270,#271,#272,#273));
#715=EDGE_LOOP('',(#274,#275,#276,#277));
#716=EDGE_LOOP('',(#278,#279,#280,#281,#282,#283,#284));
#717=EDGE_LOOP('',(#285,#286,#287,#288,#289,#290,#291));
#718=FACE_BOUND('',#649,.T.);
#719=FACE_BOUND('',#650,.T.);
#720=FACE_BOUND('',#651,.T.);
#721=FACE_BOUND('',#652,.T.);
#722=FACE_BOUND('',#653,.T.);
#723=FACE_BOUND('',#654,.T.);
#724=FACE_BOUND('',#655,.T.);
#725=FACE_BOUND('',#656,.T.);
#726=FACE_BOUND('',#657,.T.);
#727=FACE_BOUND('',#658,.T.);
#728=FACE_BOUND('',#659,.T.);
#729=FACE_BOUND('',#660,.T.);
#730=FACE_BOUND('',#661,.T.);
#731=FACE_BOUND('',#662,.T.);
#732=FACE_BOUND('',#663,.T.);
#733=FACE_BOUND('',#664,.T.);
#734=FACE_BOUND('',#665,.T.);
#735=FACE_BOUND('',#666,.T.);
#736=FACE_BOUND('',#667,.T.);
#737=FACE_BOUND('',#668,.T.);
#738=FACE_BOUND('',#669,.T.);
#739=FACE_BOUND('',#670,.T.);
#740=FACE_BOUND('',#671,.T.);
#741=FACE_BOUND('',#672,.T.);
#742=FACE_BOUND('',#673,.T.);
#743=FACE_BOUND('',#674,.T.);
#744=FACE_BOUND('',#675,.T.);
#745=FACE_BOUND('',#676,.T.);
#746=FACE_BOUND('',#677,.T.);
#747=FACE_BOUND('',#678,.T.);
#748=FACE_BOUND('',#679,.T.);
#749=FACE_BOUND('',#680,.T.);
#750=FACE_BOUND('',#681,.T.);
#751=FACE_BOUND('',#682,.T.);
#752=FACE_BOUND('',#683,.T.);
#753=FACE_BOUND('',#684,.T.);
#754=FACE_BOUND('',#685,.T.);
#755=FACE_BOUND('',#686,.T.);
#756=FACE_BOUND('',#687,.T.);
#757=FACE_BOUND('',#688,.T.);
#758=FACE_BOUND('',#689,.T.);
#759=FACE_BOUND('',#690,.T.);
#760=FACE_BOUND('',#691,.T.);
#761=FACE_BOUND('',#692,.T.);
#762=FACE_BOUND('',#693,.T.);
#763=FACE_BOUND('',#694,.T.);
#764=FACE_BOUND('',#695,.T.);
#765=FACE_BOUND('',#696,.T.);
#766=FACE_BOUND('',#697,.T.);
#767=FACE_BOUND('',#698,.T.);
#768=FACE_BOUND('',#699,.T.);
#769=FACE_BOUND('',#700,.T.);
#770=FACE_BOUND('',#701,.T.);
#771=FACE_BOUND('',#702,.T.);
#772=FACE_BOUND('',#703,.T.);
#773=FACE_BOUND('',#704,.T.);
#774=FACE_BOUND('',#705,.T.);
#775=FACE_BOUND('',#706,.T.);
#776=FACE_BOUND('',#707,.T.);
#777=FACE_BOUND('',#708,.T.);
#778=FACE_BOUND('',#709,.T.);
#779=FACE_BOUND('',#710,.T.);
#780=FACE_BOUND('',#711,.T.);
#781=FACE_BOUND('',#712,.T.);
#782=FACE_BOUND('',#713,.T.);
#783=FACE_BOUND('',#714,.T.);
#784=FACE_BOUND('',#715,.T.);
#785=FACE_BOUND('',#716,.T.);
#786=FACE_BOUND('',#717,.T.);
#787=PLANE('',#885);
#788=PLANE('',#886);
#789=PLANE('',#887);
#790=PLANE('',#898);
#791=PLANE('',#899);
#792=PLANE('',#900);
#793=PLANE('',#901);
#794=PLANE('',#902);
#795=PLANE('',#903);
#796=PLANE('',#904);
#797=PLANE('',#907);
#798=PLANE('',#908);
#799=PLANE('',#909);
#800=PLANE('',#912);
#801=PLANE('',#915);
#802=PLANE('',#916);
#803=PLANE('',#917);
#804=PLANE('',#920);
#805=PLANE('',#921);
#806=PLANE('',#924);
#807=PLANE('',#925);
#808=PLANE('',#926);
#809=PLANE('',#929);
#810=PLANE('',#930);
#811=PLANE('',#937);
#812=PLANE('',#941);
#813=PLANE('',#945);
#814=PLANE('',#951);
#815=PLANE('',#954);
#816=PLANE('',#957);
#817=PLANE('',#960);
#818=PLANE('',#968);
#819=PLANE('',#969);
#820=ADVANCED_FACE('',(#718),#787,.F.);
#821=ADVANCED_FACE('',(#719),#788,.T.);
#822=ADVANCED_FACE('',(#720,#721,#722,#723,#724),#789,.F.);
#823=ADVANCED_FACE('',(#725),#790,.T.);
#824=ADVANCED_FACE('',(#726),#791,.F.);
#825=ADVANCED_FACE('',(#727),#792,.F.);
#826=ADVANCED_FACE('',(#728),#793,.T.);
#827=ADVANCED_FACE('',(#729),#794,.T.);
#828=ADVANCED_FACE('',(#730),#795,.F.);
#829=ADVANCED_FACE('',(#731),#796,.F.);
#830=ADVANCED_FACE('',(#732),#17,.T.);
#831=ADVANCED_FACE('',(#733),#797,.T.);
#832=ADVANCED_FACE('',(#734),#798,.T.);
#833=ADVANCED_FACE('',(#735),#799,.F.);
#834=ADVANCED_FACE('',(#736),#18,.T.);
#835=ADVANCED_FACE('',(#737),#800,.F.);
#836=ADVANCED_FACE('',(#738),#19,.T.);
#837=ADVANCED_FACE('',(#739),#801,.T.);
#838=ADVANCED_FACE('',(#740),#802,.T.);
#839=ADVANCED_FACE('',(#741),#803,.F.);
#840=ADVANCED_FACE('',(#742),#20,.T.);
#841=ADVANCED_FACE('',(#743),#804,.F.);
#842=ADVANCED_FACE('',(#744),#805,.F.);
#843=ADVANCED_FACE('',(#745),#21,.T.);
#844=ADVANCED_FACE('',(#746),#806,.F.);
#845=ADVANCED_FACE('',(#747),#807,.F.);
#846=ADVANCED_FACE('',(#748),#808,.T.);
#847=ADVANCED_FACE('',(#749),#22,.T.);
#848=ADVANCED_FACE('',(#750),#809,.F.);
#849=ADVANCED_FACE('',(#751,#752,#753,#754),#810,.F.);
#850=ADVANCED_FACE('',(#755,#756),#23,.F.);
#851=ADVANCED_FACE('',(#757),#811,.T.);
#852=ADVANCED_FACE('',(#758,#759),#24,.F.);
#853=ADVANCED_FACE('',(#760),#812,.T.);
#854=ADVANCED_FACE('',(#761,#762),#25,.F.);
#855=ADVANCED_FACE('',(#763),#813,.T.);
#856=ADVANCED_FACE('',(#764,#765),#14,.F.);
#857=ADVANCED_FACE('',(#766,#767),#15,.F.);
#858=ADVANCED_FACE('',(#768,#769),#16,.F.);
#859=ADVANCED_FACE('',(#770,#771),#26,.F.);
#860=ADVANCED_FACE('',(#772),#814,.T.);
#861=ADVANCED_FACE('',(#773,#774),#27,.F.);
#862=ADVANCED_FACE('',(#775),#815,.T.);
#863=ADVANCED_FACE('',(#776,#777),#28,.F.);
#864=ADVANCED_FACE('',(#778),#816,.T.);
#865=ADVANCED_FACE('',(#779,#780),#29,.F.);
#866=ADVANCED_FACE('',(#781),#817,.T.);
#867=ADVANCED_FACE('',(#782),#30,.T.);
#868=ADVANCED_FACE('',(#783),#31,.T.);
#869=ADVANCED_FACE('',(#784),#32,.T.);
#870=ADVANCED_FACE('',(#785),#818,.F.);
#871=ADVANCED_FACE('',(#786),#819,.F.);
#872=CLOSED_SHELL('',(#820,#821,#822,#823,#824,#825,#826,#827,#828,#829,
#830,#831,#832,#833,#834,#835,#836,#837,#838,#839,#840,#841,#842,#843,#844,
#845,#846,#847,#848,#849,#850,#851,#852,#853,#854,#855,#856,#857,#858,#859,
#860,#861,#862,#863,#864,#865,#866,#867,#868,#869,#870,#871));
#873=STYLED_ITEM('',(#874),#881);
#874=PRESENTATION_STYLE_ASSIGNMENT((#875));
#875=SURFACE_STYLE_USAGE(.BOTH.,#876);
#876=SURFACE_SIDE_STYLE('',(#877));
#877=SURFACE_STYLE_FILL_AREA(#878);
#878=FILL_AREA_STYLE('',(#879));
#879=FILL_AREA_STYLE_COLOUR('',#880);
#880=COLOUR_RGB('',0.647058823529412,0.647058823529412,0.647058823529412);
#881=MANIFOLD_SOLID_BREP('TopCaseLeft',#872);
#882=SHAPE_DEFINITION_REPRESENTATION(#1477,#883);
#883=SHAPE_REPRESENTATION('TopCaseLeft',(#884),#1472);
#884=AXIS2_PLACEMENT_3D('',#1223,#970,#971);
#885=AXIS2_PLACEMENT_3D('',#1224,#972,#973);
#886=AXIS2_PLACEMENT_3D('',#1233,#978,#979);
#887=AXIS2_PLACEMENT_3D('',#1242,#984,#985);
#888=AXIS2_PLACEMENT_3D('',#1243,#986,#987);
#889=AXIS2_PLACEMENT_3D('',#1245,#988,#989);
#890=AXIS2_PLACEMENT_3D('',#1247,#990,#991);
#891=AXIS2_PLACEMENT_3D('',#1249,#992,#993);
#892=AXIS2_PLACEMENT_3D('',#1258,#998,#999);
#893=AXIS2_PLACEMENT_3D('',#1266,#1003,#1004);
#894=AXIS2_PLACEMENT_3D('',#1270,#1006,#1007);
#895=AXIS2_PLACEMENT_3D('',#1278,#1011,#1012);
#896=AXIS2_PLACEMENT_3D('',#1286,#1016,#1017);
#897=AXIS2_PLACEMENT_3D('',#1294,#1021,#1022);
#898=AXIS2_PLACEMENT_3D('',#1297,#1024,#1025);
#899=AXIS2_PLACEMENT_3D('',#1306,#1030,#1031);
#900=AXIS2_PLACEMENT_3D('',#1312,#1035,#1036);
#901=AXIS2_PLACEMENT_3D('',#1314,#1038,#1039);
#902=AXIS2_PLACEMENT_3D('',#1320,#1043,#1044);
#903=AXIS2_PLACEMENT_3D('',#1330,#1050,#1051);
#904=AXIS2_PLACEMENT_3D('',#1336,#1055,#1056);
#905=AXIS2_PLACEMENT_3D('',#1340,#1059,#1060);
#906=AXIS2_PLACEMENT_3D('',#1341,#1061,#1062);
#907=AXIS2_PLACEMENT_3D('',#1344,#1064,#1065);
#908=AXIS2_PLACEMENT_3D('',#1348,#1068,#1069);
#909=AXIS2_PLACEMENT_3D('',#1352,#1072,#1073);
#910=AXIS2_PLACEMENT_3D('',#1356,#1076,#1077);
#911=AXIS2_PLACEMENT_3D('',#1357,#1078,#1079);
#912=AXIS2_PLACEMENT_3D('',#1360,#1081,#1082);
#913=AXIS2_PLACEMENT_3D('',#1364,#1085,#1086);
#914=AXIS2_PLACEMENT_3D('',#1365,#1087,#1088);
#915=AXIS2_PLACEMENT_3D('',#1368,#1090,#1091);
#916=AXIS2_PLACEMENT_3D('',#1372,#1094,#1095);
#917=AXIS2_PLACEMENT_3D('',#1376,#1098,#1099);
#918=AXIS2_PLACEMENT_3D('',#1380,#1102,#1103);
#919=AXIS2_PLACEMENT_3D('',#1381,#1104,#1105);
#920=AXIS2_PLACEMENT_3D('',#1384,#1107,#1108);
#921=AXIS2_PLACEMENT_3D('',#1388,#1111,#1112);
#922=AXIS2_PLACEMENT_3D('',#1394,#1116,#1117);
#923=AXIS2_PLACEMENT_3D('',#1395,#1118,#1119);
#924=AXIS2_PLACEMENT_3D('',#1398,#1121,#1122);
#925=AXIS2_PLACEMENT_3D('',#1402,#1125,#1126);
#926=AXIS2_PLACEMENT_3D('',#1406,#1129,#1130);
#927=AXIS2_PLACEMENT_3D('',#1410,#1133,#1134);
#928=AXIS2_PLACEMENT_3D('',#1411,#1135,#1136);
#929=AXIS2_PLACEMENT_3D('',#1414,#1138,#1139);
#930=AXIS2_PLACEMENT_3D('',#1416,#1141,#1142);
#931=AXIS2_PLACEMENT_3D('',#1417,#1143,#1144);
#932=AXIS2_PLACEMENT_3D('',#1419,#1145,#1146);
#933=AXIS2_PLACEMENT_3D('',#1421,#1147,#1148);
#934=AXIS2_PLACEMENT_3D('',#1425,#1151,#1152);
#935=AXIS2_PLACEMENT_3D('',#1426,#1153,#1154);
#936=AXIS2_PLACEMENT_3D('',#1428,#1155,#1156);
#937=AXIS2_PLACEMENT_3D('',#1430,#1157,#1158);
#938=AXIS2_PLACEMENT_3D('',#1431,#1159,#1160);
#939=AXIS2_PLACEMENT_3D('',#1432,#1161,#1162);
#940=AXIS2_PLACEMENT_3D('',#1434,#1163,#1164);
#941=AXIS2_PLACEMENT_3D('',#1436,#1165,#1166);
#942=AXIS2_PLACEMENT_3D('',#1437,#1167,#1168);
#943=AXIS2_PLACEMENT_3D('',#1438,#1169,#1170);
#944=AXIS2_PLACEMENT_3D('',#1440,#1171,#1172);
#945=AXIS2_PLACEMENT_3D('',#1442,#1173,#1174);
#946=AXIS2_PLACEMENT_3D('',#1443,#1175,#1176);
#947=AXIS2_PLACEMENT_3D('',#1444,#1177,#1178);
#948=AXIS2_PLACEMENT_3D('',#1445,#1179,#1180);
#949=AXIS2_PLACEMENT_3D('',#1446,#1181,#1182);
#950=AXIS2_PLACEMENT_3D('',#1447,#1183,#1184);
#951=AXIS2_PLACEMENT_3D('',#1449,#1185,#1186);
#952=AXIS2_PLACEMENT_3D('',#1450,#1187,#1188);
#953=AXIS2_PLACEMENT_3D('',#1451,#1189,#1190);
#954=AXIS2_PLACEMENT_3D('',#1453,#1191,#1192);
#955=AXIS2_PLACEMENT_3D('',#1454,#1193,#1194);
#956=AXIS2_PLACEMENT_3D('',#1455,#1195,#1196);
#957=AXIS2_PLACEMENT_3D('',#1457,#1197,#1198);
#958=AXIS2_PLACEMENT_3D('',#1458,#1199,#1200);
#959=AXIS2_PLACEMENT_3D('',#1459,#1201,#1202);
#960=AXIS2_PLACEMENT_3D('',#1461,#1203,#1204);
#961=AXIS2_PLACEMENT_3D('',#1462,#1205,#1206);
#962=AXIS2_PLACEMENT_3D('',#1463,#1207,#1208);
#963=AXIS2_PLACEMENT_3D('',#1464,#1209,#1210);
#964=AXIS2_PLACEMENT_3D('',#1465,#1211,#1212);
#965=AXIS2_PLACEMENT_3D('',#1466,#1213,#1214);
#966=AXIS2_PLACEMENT_3D('',#1467,#1215,#1216);
#967=AXIS2_PLACEMENT_3D('',#1468,#1217,#1218);
#968=AXIS2_PLACEMENT_3D('',#1469,#1219,#1220);
#969=AXIS2_PLACEMENT_3D('',#1470,#1221,#1222);
#970=DIRECTION('',(0.,0.,1.));
#971=DIRECTION('',(1.,0.,0.));
#972=DIRECTION('',(-1.22116595130084E-16,1.,0.));
#973=DIRECTION('',(-1.,-1.22116595130084E-16,0.));
#974=DIRECTION('',(0.,0.,-1.));
#975=DIRECTION('',(1.,1.22116595130084E-16,0.));
#976=DIRECTION('',(0.,0.,-1.));
#977=DIRECTION('',(1.,1.22116595130084E-16,0.));
#978=DIRECTION('',(-1.22116595130084E-16,1.,0.));
#979=DIRECTION('',(-1.,-1.22116595130084E-16,0.));
#980=DIRECTION('',(1.,1.22116595130084E-16,0.));
#981=DIRECTION('',(0.,0.,-1.));
#982=DIRECTION('',(1.,1.22116595130084E-16,0.));
#983=DIRECTION('',(0.,0.,-1.));
#984=DIRECTION('',(0.,0.,1.));
#985=DIRECTION('',(1.,0.,0.));
#986=DIRECTION('',(0.,0.,-1.));
#987=DIRECTION('',(-1.,0.,0.));
#988=DIRECTION('',(0.,0.,-1.));
#989=DIRECTION('',(-1.,0.,0.));
#990=DIRECTION('',(0.,0.,-1.));
#991=DIRECTION('',(-1.,0.,0.));
#992=DIRECTION('',(0.,0.,-1.));
#993=DIRECTION('',(-1.,0.,0.));
#994=DIRECTION('',(-6.08842551727161E-17,1.,0.));
#995=DIRECTION('',(1.85315143486088E-16,-1.,0.));
#996=DIRECTION('',(-6.08842551727161E-17,1.,0.));
#997=DIRECTION('',(1.,0.,0.));
#998=DIRECTION('',(0.,0.,-1.));
#999=DIRECTION('',(-1.,0.,0.));
#1000=DIRECTION('',(0.,-1.,0.));
#1001=DIRECTION('',(-1.,0.,0.));
#1002=DIRECTION('',(0.,-1.,0.));
#1003=DIRECTION('',(0.,0.,-1.));
#1004=DIRECTION('',(-1.,0.,0.));
#1005=DIRECTION('',(1.,0.,0.));
#1006=DIRECTION('',(0.,0.,-1.));
#1007=DIRECTION('',(-1.,0.,0.));
#1008=DIRECTION('',(0.,-1.,0.));
#1009=DIRECTION('',(-1.,0.,0.));
#1010=DIRECTION('',(0.,-1.,0.));
#1011=DIRECTION('',(0.,0.,-1.));
#1012=DIRECTION('',(-1.,0.,0.));
#1013=DIRECTION('',(1.,0.,0.));
#1014=DIRECTION('',(0.,1.,0.));
#1015=DIRECTION('',(-1.,0.,0.));
#1016=DIRECTION('',(0.,0.,-1.));
#1017=DIRECTION('',(-1.,0.,0.));
#1018=DIRECTION('',(0.,-1.,0.));
#1019=DIRECTION('',(-1.,0.,0.));
#1020=DIRECTION('',(0.,-1.,0.));
#1021=DIRECTION('',(0.,0.,-1.));
#1022=DIRECTION('',(-1.,0.,0.));
#1023=DIRECTION('',(-1.,0.,0.));
#1024=DIRECTION('',(1.,0.,0.));
#1025=DIRECTION('',(0.,0.,-1.));
#1026=DIRECTION('',(0.,-1.,0.));
#1027=DIRECTION('',(0.,0.,-1.));
#1028=DIRECTION('',(0.,-1.,0.));
#1029=DIRECTION('',(0.,0.,-1.));
#1030=DIRECTION('',(-1.2892330309762E-16,1.,0.));
#1031=DIRECTION('',(-1.,-1.2892330309762E-16,0.));
#1032=DIRECTION('',(1.,1.2892330309762E-16,0.));
#1033=DIRECTION('',(0.,0.,1.));
#1034=DIRECTION('',(1.,1.2892330309762E-16,0.));
#1035=DIRECTION('',(1.,1.85315143486088E-16,0.));
#1036=DIRECTION('',(-1.85315143486088E-16,1.,0.));
#1037=DIRECTION('',(1.85315143486088E-16,-1.,0.));
#1038=DIRECTION('',(-1.2892330309762E-16,1.,0.));
#1039=DIRECTION('',(-1.,-1.2892330309762E-16,0.));
#1040=DIRECTION('',(0.,0.,1.));
#1041=DIRECTION('',(1.,1.2892330309762E-16,0.));
#1042=DIRECTION('',(1.,1.2892330309762E-16,0.));
#1043=DIRECTION('',(0.,0.,1.));
#1044=DIRECTION('',(1.,0.,0.));
#1045=DIRECTION('',(6.08842551727161E-17,-1.,0.));
#1046=DIRECTION('',(1.,1.22116595130084E-16,0.));
#1047=DIRECTION('',(1.85315143486088E-16,-1.,0.));
#1048=DIRECTION('',(1.,1.22116595130084E-16,0.));
#1049=DIRECTION('',(6.08842551727161E-17,-1.,0.));
#1050=DIRECTION('',(-1.,0.,0.));
#1051=DIRECTION('',(0.,0.,1.));
#1052=DIRECTION('',(0.,0.,-1.));
#1053=DIRECTION('',(0.,0.,-1.));
#1054=DIRECTION('',(0.,1.,0.));
#1055=DIRECTION('',(0.,1.,0.));
#1056=DIRECTION('',(0.,0.,1.));
#1057=DIRECTION('',(0.,0.,-1.));
#1058=DIRECTION('',(1.,0.,0.));
#1059=DIRECTION('',(0.,0.,-1.));
#1060=DIRECTION('',(-1.,0.,0.));
#1061=DIRECTION('',(0.,0.,1.));
#1062=DIRECTION('',(1.,0.,0.));
#1063=DIRECTION('',(0.,0.,-1.));
#1064=DIRECTION('',(1.,0.,0.));
#1065=DIRECTION('',(0.,0.,-1.));
#1066=DIRECTION('',(0.,-1.,0.));
#1067=DIRECTION('',(0.,0.,-1.));
#1068=DIRECTION('',(0.,-1.,0.));
#1069=DIRECTION('',(0.,0.,-1.));
#1070=DIRECTION('',(-1.,0.,0.));
#1071=DIRECTION('',(0.,0.,-1.));
#1072=DIRECTION('',(1.,0.,0.));
#1073=DIRECTION('',(0.,0.,-1.));
#1074=DIRECTION('',(0.,0.,-1.));
#1075=DIRECTION('',(0.,-1.,0.));
#1076=DIRECTION('',(0.,0.,-1.));
#1077=DIRECTION('',(-1.,0.,0.));
#1078=DIRECTION('',(0.,0.,1.));
#1079=DIRECTION('',(1.,0.,0.));
#1080=DIRECTION('',(0.,0.,-1.));
#1081=DIRECTION('',(0.,1.,0.));
#1082=DIRECTION('',(0.,0.,1.));
#1083=DIRECTION('',(0.,0.,-1.));
#1084=DIRECTION('',(1.,0.,0.));
#1085=DIRECTION('',(0.,0.,-1.));
#1086=DIRECTION('',(-1.,0.,0.));
#1087=DIRECTION('',(0.,0.,1.));
#1088=DIRECTION('',(1.,0.,0.));
#1089=DIRECTION('',(0.,0.,-1.));
#1090=DIRECTION('',(1.,0.,0.));
#1091=DIRECTION('',(0.,0.,-1.));
#1092=DIRECTION('',(0.,-1.,0.));
#1093=DIRECTION('',(0.,0.,-1.));
#1094=DIRECTION('',(0.,-1.,0.));
#1095=DIRECTION('',(0.,0.,-1.));
#1096=DIRECTION('',(-1.,0.,0.));
#1097=DIRECTION('',(0.,0.,-1.));
#1098=DIRECTION('',(1.,0.,0.));
#1099=DIRECTION('',(0.,0.,-1.));
#1100=DIRECTION('',(0.,0.,-1.));
#1101=DIRECTION('',(0.,-1.,0.));
#1102=DIRECTION('',(0.,0.,-1.));
#1103=DIRECTION('',(-1.,0.,0.));
#1104=DIRECTION('',(0.,0.,1.));
#1105=DIRECTION('',(1.,0.,0.));
#1106=DIRECTION('',(0.,0.,-1.));
#1107=DIRECTION('',(0.,1.,0.));
#1108=DIRECTION('',(0.,0.,1.));
#1109=DIRECTION('',(0.,0.,1.));
#1110=DIRECTION('',(1.,0.,0.));
#1111=DIRECTION('',(0.,-1.,0.));
#1112=DIRECTION('',(0.,0.,-1.));
#1113=DIRECTION('',(-1.,0.,0.));
#1114=DIRECTION('',(0.,0.,-1.));
#1115=DIRECTION('',(0.,0.,-1.));
#1116=DIRECTION('',(0.,0.,-1.));
#1117=DIRECTION('',(-1.,0.,0.));
#1118=DIRECTION('',(0.,0.,1.));
#1119=DIRECTION('',(1.,0.,0.));
#1120=DIRECTION('',(0.,0.,-1.));
#1121=DIRECTION('',(1.,0.,0.));
#1122=DIRECTION('',(0.,0.,-1.));
#1123=DIRECTION('',(0.,0.,-1.));
#1124=DIRECTION('',(0.,-1.,0.));
#1125=DIRECTION('',(0.,-1.,0.));
#1126=DIRECTION('',(0.,0.,-1.));
#1127=DIRECTION('',(0.,0.,-1.));
#1128=DIRECTION('',(-1.,0.,0.));
#1129=DIRECTION('',(1.,0.,0.));
#1130=DIRECTION('',(0.,0.,-1.));
#1131=DIRECTION('',(0.,-1.,0.));
#1132=DIRECTION('',(0.,0.,-1.));
#1133=DIRECTION('',(0.,0.,-1.));
#1134=DIRECTION('',(-1.,0.,0.));
#1135=DIRECTION('',(0.,0.,1.));
#1136=DIRECTION('',(1.,0.,0.));
#1137=DIRECTION('',(0.,0.,-1.));
#1138=DIRECTION('',(0.,-1.,0.));
#1139=DIRECTION('',(0.,0.,-1.));
#1140=DIRECTION('',(-1.,0.,0.));
#1141=DIRECTION('',(0.,0.,1.));
#1142=DIRECTION('',(1.,0.,0.));
#1143=DIRECTION('',(0.,0.,1.));
#1144=DIRECTION('',(1.,0.,0.));
#1145=DIRECTION('',(0.,0.,1.));
#1146=DIRECTION('',(1.,0.,0.));
#1147=DIRECTION('',(0.,0.,1.));
#1148=DIRECTION('',(1.,0.,0.));
#1149=DIRECTION('',(6.08842551727161E-17,-1.,0.));
#1150=DIRECTION('',(6.08842551727161E-17,-1.,0.));
#1151=DIRECTION('',(0.,0.,-1.));
#1152=DIRECTION('',(-1.,0.,0.));
#1153=DIRECTION('',(0.,0.,1.));
#1154=DIRECTION('',(1.,0.,0.));
#1155=DIRECTION('',(0.,0.,-1.));
#1156=DIRECTION('',(-1.,0.,0.));
#1157=DIRECTION('',(0.,0.,-1.));
#1158=DIRECTION('',(1.,0.,0.));
#1159=DIRECTION('',(0.,0.,-1.));
#1160=DIRECTION('',(-1.,0.,0.));
#1161=DIRECTION('',(0.,0.,1.));
#1162=DIRECTION('',(1.,0.,0.));
#1163=DIRECTION('',(0.,0.,-1.));
#1164=DIRECTION('',(-1.,0.,0.));
#1165=DIRECTION('',(0.,0.,-1.));
#1166=DIRECTION('',(1.,0.,0.));
#1167=DIRECTION('',(0.,0.,-1.));
#1168=DIRECTION('',(-1.,0.,0.));
#1169=DIRECTION('',(0.,0.,1.));
#1170=DIRECTION('',(1.,0.,0.));
#1171=DIRECTION('',(0.,0.,-1.));
#1172=DIRECTION('',(-1.,0.,0.));
#1173=DIRECTION('',(0.,0.,-1.));
#1174=DIRECTION('',(1.,0.,0.));
#1175=DIRECTION('',(0.,0.,-1.));
#1176=DIRECTION('',(-1.,0.,0.));
#1177=DIRECTION('',(0.,0.,-1.));
#1178=DIRECTION('',(-1.,0.,0.));
#1179=DIRECTION('',(0.,0.,-1.));
#1180=DIRECTION('',(-1.,0.,0.));
#1181=DIRECTION('',(0.,0.,-1.));
#1182=DIRECTION('',(-1.,0.,0.));
#1183=DIRECTION('',(0.,0.,-1.));
#1184=DIRECTION('',(-1.,0.,0.));
#1185=DIRECTION('',(0.,0.,-1.));
#1186=DIRECTION('',(1.,0.,0.));
#1187=DIRECTION('',(0.,0.,-1.));
#1188=DIRECTION('',(-1.,0.,0.));
#1189=DIRECTION('',(0.,0.,-1.));
#1190=DIRECTION('',(-1.,0.,0.));
#1191=DIRECTION('',(0.,0.,-1.));
#1192=DIRECTION('',(1.,0.,0.));
#1193=DIRECTION('',(0.,0.,-1.));
#1194=DIRECTION('',(-1.,0.,0.));
#1195=DIRECTION('',(0.,0.,-1.));
#1196=DIRECTION('',(-1.,0.,0.));
#1197=DIRECTION('',(0.,0.,-1.));
#1198=DIRECTION('',(1.,0.,0.));
#1199=DIRECTION('',(0.,0.,-1.));
#1200=DIRECTION('',(-1.,0.,0.));
#1201=DIRECTION('',(0.,0.,-1.));
#1202=DIRECTION('',(-1.,0.,0.));
#1203=DIRECTION('',(0.,0.,-1.));
#1204=DIRECTION('',(1.,0.,0.));
#1205=DIRECTION('',(1.,1.22116595130084E-16,0.));
#1206=DIRECTION('',(-1.22116595130084E-16,1.,0.));
#1207=DIRECTION('',(-1.,-6.08842551727161E-17,0.));
#1208=DIRECTION('',(6.08842551727161E-17,-1.,0.));
#1209=DIRECTION('',(0.707106781186547,0.707106781186548,0.));
#1210=DIRECTION('',(0.707106781186548,-0.707106781186547,0.));
#1211=DIRECTION('',(-1.,-1.22116595130084E-16,0.));
#1212=DIRECTION('',(1.22116595130084E-16,-1.,0.));
#1213=DIRECTION('',(-1.,-6.08842551727161E-17,0.));
#1214=DIRECTION('',(6.08842551727161E-17,-1.,0.));
#1215=DIRECTION('',(-0.707106781186548,0.707106781186547,0.));
#1216=DIRECTION('',(-0.707106781186547,-0.707106781186548,0.));
#1217=DIRECTION('',(-1.85315143486088E-16,1.,0.));
#1218=DIRECTION('',(-1.,-1.85315143486088E-16,0.));
#1219=DIRECTION('',(-1.,-6.08842551727161E-17,0.));
#1220=DIRECTION('',(6.08842551727161E-17,-1.,0.));
#1221=DIRECTION('',(-1.,-6.08842551727161E-17,0.));
#1222=DIRECTION('',(6.08842551727161E-17,-1.,0.));
#1223=CARTESIAN_POINT('',(0.,0.,0.));
#1224=CARTESIAN_POINT('',(0.2428875,-0.165375,0.01351));
#1225=CARTESIAN_POINT('',(0.18845,-0.165375,0.472864554191488));
#1226=CARTESIAN_POINT('',(0.18845,-0.165375,0.01051));
#1227=CARTESIAN_POINT('',(0.18845,-0.165375,-0.00749));
#1228=CARTESIAN_POINT('',(0.0156,-0.165375,0.01051));
#1229=CARTESIAN_POINT('',(0.0156,-0.165375,0.01051));
#1230=CARTESIAN_POINT('',(0.0156,-0.165375,0.01351));
#1231=CARTESIAN_POINT('',(0.0156,-0.165375,-0.00749));
#1232=CARTESIAN_POINT('',(0.2428875,-0.165375,-0.00749));
#1233=CARTESIAN_POINT('',(0.2428875,-0.0156,0.01351));
#1234=CARTESIAN_POINT('',(0.2428875,-0.0156,0.01051));
#1235=CARTESIAN_POINT('',(0.0156,-0.0156,0.01051));
#1236=CARTESIAN_POINT('',(0.18845,-0.0156,0.01051));
#1237=CARTESIAN_POINT('',(0.18845,-0.0156,0.472864554191488));
#1238=CARTESIAN_POINT('',(0.18845,-0.0156,-0.00749));
#1239=CARTESIAN_POINT('',(0.2428875,-0.0156,-0.00749));
#1240=CARTESIAN_POINT('',(0.0156,-0.0156,-0.00749));
#1241=CARTESIAN_POINT('',(0.0156,-0.0156,0.01351));
#1242=CARTESIAN_POINT('',(0.2428875,-0.0904875,-0.00749));
#1243=CARTESIAN_POINT('',(0.0188,-0.1616875,-0.00749));
#1244=CARTESIAN_POINT('',(0.0172,-0.1616875,-0.00749));
#1245=CARTESIAN_POINT('',(0.0188,-0.0188,-0.00749));
#1246=CARTESIAN_POINT('',(0.0172,-0.0188,-0.00749));
#1247=CARTESIAN_POINT('',(0.1678,-0.0188,-0.00749));
#1248=CARTESIAN_POINT('',(0.1662,-0.0188,-0.00749));
#1249=CARTESIAN_POINT('',(0.1678,-0.1616875,-0.00749));
#1250=CARTESIAN_POINT('',(0.1662,-0.1616875,-0.00749));
#1251=CARTESIAN_POINT('',(0.18845,-0.0904875,-0.00749));
#1252=CARTESIAN_POINT('',(0.18845,-0.158,-0.00749));
#1253=CARTESIAN_POINT('',(0.0156,-0.0904875,-0.00749));
#1254=CARTESIAN_POINT('',(0.18845,-0.0904875,-0.00749));
#1255=CARTESIAN_POINT('',(0.18845,-0.022,-0.00749));
#1256=CARTESIAN_POINT('',(0.2320925,-0.022,-0.00749));
#1257=CARTESIAN_POINT('',(0.15547875,-0.022,-0.00749));
#1258=CARTESIAN_POINT('',(0.15547875,-0.021,-0.00749));
#1259=CARTESIAN_POINT('',(0.15447875,-0.021,-0.00749));
#1260=CARTESIAN_POINT('',(0.15447875,-0.0185,-0.00749));
#1261=CARTESIAN_POINT('',(0.15447875,-0.016,-0.00749));
#1262=CARTESIAN_POINT('',(0.14747875,-0.016,-0.00749));
#1263=CARTESIAN_POINT('',(0.14047875,-0.016,-0.00749));
#1264=CARTESIAN_POINT('',(0.14047875,-0.0185,-0.00749));
#1265=CARTESIAN_POINT('',(0.14047875,-0.021,-0.00749));
#1266=CARTESIAN_POINT('',(0.13947875,-0.021,-0.00749));
#1267=CARTESIAN_POINT('',(0.13947875,-0.022,-0.00749));
#1268=CARTESIAN_POINT('',(0.102314375,-0.022,-0.00749));
#1269=CARTESIAN_POINT('',(0.06515,-0.022,-0.00749));
#1270=CARTESIAN_POINT('',(0.06515,-0.021,-0.00749));
#1271=CARTESIAN_POINT('',(0.06415,-0.021,-0.00749));
#1272=CARTESIAN_POINT('',(0.06415,-0.0185,-0.00749));
#1273=CARTESIAN_POINT('',(0.06415,-0.016,-0.00749));
#1274=CARTESIAN_POINT('',(0.05715,-0.016,-0.00749));
#1275=CARTESIAN_POINT('',(0.05015,-0.016,-0.00749));
#1276=CARTESIAN_POINT('',(0.05015,-0.0185,-0.00749));
#1277=CARTESIAN_POINT('',(0.05015,-0.021,-0.00749));
#1278=CARTESIAN_POINT('',(0.04915,-0.021,-0.00749));
#1279=CARTESIAN_POINT('',(0.04915,-0.022,-0.00749));
#1280=CARTESIAN_POINT('',(0.035575,-0.022,-0.00749));
#1281=CARTESIAN_POINT('',(0.022,-0.022,-0.00749));
#1282=CARTESIAN_POINT('',(0.022,-0.09,-0.00749));
#1283=CARTESIAN_POINT('',(0.022,-0.158,-0.00749));
#1284=CARTESIAN_POINT('',(0.034384375,-0.158,-0.00749));
#1285=CARTESIAN_POINT('',(0.04676875,-0.158,-0.00749));
#1286=CARTESIAN_POINT('',(0.04676875,-0.159,-0.00749));
#1287=CARTESIAN_POINT('',(0.04776875,-0.159,-0.00749));
#1288=CARTESIAN_POINT('',(0.04776875,-0.1615,-0.00749));
#1289=CARTESIAN_POINT('',(0.04776875,-0.164,-0.00749));
#1290=CARTESIAN_POINT('',(0.05476875,-0.164,-0.00749));
#1291=CARTESIAN_POINT('',(0.06176875,-0.164,-0.00749));
#1292=CARTESIAN_POINT('',(0.06176875,-0.1615,-0.00749));
#1293=CARTESIAN_POINT('',(0.06176875,-0.159,-0.00749));
#1294=CARTESIAN_POINT('',(0.06276875,-0.159,-0.00749));
#1295=CARTESIAN_POINT('',(0.06276875,-0.158,-0.00749));
#1296=CARTESIAN_POINT('',(0.148828125,-0.158,-0.00749));
#1297=CARTESIAN_POINT('',(0.0276,-0.0904875,0.01351));
#1298=CARTESIAN_POINT('',(0.0276,-0.0904875,0.00651));
#1299=CARTESIAN_POINT('',(0.0276,-0.0276,0.00651));
#1300=CARTESIAN_POINT('',(0.0276,-0.153375,0.00651));
#1301=CARTESIAN_POINT('',(0.0276,-0.0276,0.01351));
#1302=CARTESIAN_POINT('',(0.0276,-0.0276,0.01351));
#1303=CARTESIAN_POINT('',(0.0276,-0.0904875,0.01351));
#1304=CARTESIAN_POINT('',(0.0276,-0.153375,0.01351));
#1305=CARTESIAN_POINT('',(0.0276,-0.153375,0.01351));
#1306=CARTESIAN_POINT('',(0.2428875,-0.0276,0.01351));
#1307=CARTESIAN_POINT('',(0.2428875,-0.0276,0.00651));
#1308=CARTESIAN_POINT('',(0.18845,-0.0276,0.00651));
#1309=CARTESIAN_POINT('',(0.18845,-0.0276,0.01351));
#1310=CARTESIAN_POINT('',(0.18845,-0.0276,0.01351));
#1311=CARTESIAN_POINT('',(0.2428875,-0.0276,0.01351));
#1312=CARTESIAN_POINT('',(0.0156,-0.0904875,0.01351));
#1313=CARTESIAN_POINT('',(0.0156,-0.0156,0.01051));
#1314=CARTESIAN_POINT('',(0.2428875,-0.153375,0.01351));
#1315=CARTESIAN_POINT('',(0.18845,-0.153375,0.01351));
#1316=CARTESIAN_POINT('',(0.18845,-0.153375,0.00651));
#1317=CARTESIAN_POINT('',(0.18845,-0.153375,0.01351));
#1318=CARTESIAN_POINT('',(0.2428875,-0.153375,0.00651));
#1319=CARTESIAN_POINT('',(0.2428875,-0.153375,0.01351));
#1320=CARTESIAN_POINT('',(0.2428875,-0.0904875,0.01351));
#1321=CARTESIAN_POINT('',(0.18845,-0.0904875,0.01351));
#1322=CARTESIAN_POINT('',(0.18845,-0.0186,0.01351));
#1323=CARTESIAN_POINT('',(0.2428875,-0.0186,0.01351));
#1324=CARTESIAN_POINT('',(0.0186,-0.0186,0.01351));
#1325=CARTESIAN_POINT('',(0.0186,-0.165375,0.01351));
#1326=CARTESIAN_POINT('',(0.0186,-0.162375,0.01351));
#1327=CARTESIAN_POINT('',(0.470175,-0.162375,0.01351));
#1328=CARTESIAN_POINT('',(0.18845,-0.162375,0.01351));
#1329=CARTESIAN_POINT('',(0.18845,-0.0904875,0.01351));
#1330=CARTESIAN_POINT('',(0.022,-0.09,0.006512));
#1331=CARTESIAN_POINT('',(0.022,-0.158,0.006512));
#1332=CARTESIAN_POINT('',(0.022,-0.158,0.00651));
#1333=CARTESIAN_POINT('',(0.022,-0.022,0.006512));
#1334=CARTESIAN_POINT('',(0.022,-0.022,0.00651));
#1335=CARTESIAN_POINT('',(0.022,-0.09,0.00651));
#1336=CARTESIAN_POINT('',(0.035575,-0.022,0.006512));
#1337=CARTESIAN_POINT('',(0.04915,-0.022,0.006512));
#1338=CARTESIAN_POINT('',(0.04915,-0.022,0.00651));
#1339=CARTESIAN_POINT('',(0.035575,-0.022,0.00651));
#1340=CARTESIAN_POINT('',(0.04915,-0.021,0.006512));
#1341=CARTESIAN_POINT('',(0.04915,-0.021,0.00651));
#1342=CARTESIAN_POINT('',(0.05015,-0.021,0.00651));
#1343=CARTESIAN_POINT('',(0.05015,-0.021,0.006512));
#1344=CARTESIAN_POINT('',(0.05015,-0.0185,0.006512));
#1345=CARTESIAN_POINT('',(0.05015,-0.0185,0.00651));
#1346=CARTESIAN_POINT('',(0.05015,-0.016,0.00651));
#1347=CARTESIAN_POINT('',(0.05015,-0.016,0.006512));
#1348=CARTESIAN_POINT('',(0.05715,-0.016,0.006512));
#1349=CARTESIAN_POINT('',(0.05715,-0.016,0.00651));
#1350=CARTESIAN_POINT('',(0.06415,-0.016,0.00651));
#1351=CARTESIAN_POINT('',(0.06415,-0.016,0.006512));
#1352=CARTESIAN_POINT('',(0.06415,-0.0185,0.006512));
#1353=CARTESIAN_POINT('',(0.06415,-0.021,0.006512));
#1354=CARTESIAN_POINT('',(0.06415,-0.021,0.00651));
#1355=CARTESIAN_POINT('',(0.06415,-0.0185,0.00651));
#1356=CARTESIAN_POINT('',(0.06515,-0.021,0.006512));
#1357=CARTESIAN_POINT('',(0.06515,-0.021,0.00651));
#1358=CARTESIAN_POINT('',(0.06515,-0.022,0.00651));
#1359=CARTESIAN_POINT('',(0.06515,-0.022,0.006512));
#1360=CARTESIAN_POINT('',(0.102314375,-0.022,0.006512));
#1361=CARTESIAN_POINT('',(0.13947875,-0.022,0.006512));
#1362=CARTESIAN_POINT('',(0.13947875,-0.022,0.00651));
#1363=CARTESIAN_POINT('',(0.102314375,-0.022,0.00651));
#1364=CARTESIAN_POINT('',(0.13947875,-0.021,0.006512));
#1365=CARTESIAN_POINT('',(0.13947875,-0.021,0.00651));
#1366=CARTESIAN_POINT('',(0.14047875,-0.021,0.00651));
#1367=CARTESIAN_POINT('',(0.14047875,-0.021,0.006512));
#1368=CARTESIAN_POINT('',(0.14047875,-0.0185,0.006512));
#1369=CARTESIAN_POINT('',(0.14047875,-0.0185,0.00651));
#1370=CARTESIAN_POINT('',(0.14047875,-0.016,0.00651));
#1371=CARTESIAN_POINT('',(0.14047875,-0.016,0.006512));
#1372=CARTESIAN_POINT('',(0.14747875,-0.016,0.006512));
#1373=CARTESIAN_POINT('',(0.14747875,-0.016,0.00651));
#1374=CARTESIAN_POINT('',(0.15447875,-0.016,0.00651));
#1375=CARTESIAN_POINT('',(0.15447875,-0.016,0.006512));
#1376=CARTESIAN_POINT('',(0.15447875,-0.0185,0.006512));
#1377=CARTESIAN_POINT('',(0.15447875,-0.021,0.006512));
#1378=CARTESIAN_POINT('',(0.15447875,-0.021,0.00651));
#1379=CARTESIAN_POINT('',(0.15447875,-0.0185,0.00651));
#1380=CARTESIAN_POINT('',(0.15547875,-0.021,0.006512));
#1381=CARTESIAN_POINT('',(0.15547875,-0.021,0.00651));
#1382=CARTESIAN_POINT('',(0.15547875,-0.022,0.00651));
#1383=CARTESIAN_POINT('',(0.15547875,-0.022,0.006512));
#1384=CARTESIAN_POINT('',(0.2320925,-0.022,0.006512));
#1385=CARTESIAN_POINT('',(0.18845,-0.022,0.006512));
#1386=CARTESIAN_POINT('',(0.18845,-0.022,0.00651));
#1387=CARTESIAN_POINT('',(0.2320925,-0.022,0.00651));
#1388=CARTESIAN_POINT('',(0.148828125,-0.158,0.006512));
#1389=CARTESIAN_POINT('',(0.148828125,-0.158,0.00651));
#1390=CARTESIAN_POINT('',(0.18845,-0.158,0.00651));
#1391=CARTESIAN_POINT('',(0.06276875,-0.158,0.00651));
#1392=CARTESIAN_POINT('',(0.18845,-0.158,0.006512));
#1393=CARTESIAN_POINT('',(0.06276875,-0.158,0.006512));
#1394=CARTESIAN_POINT('',(0.06276875,-0.159,0.006512));
#1395=CARTESIAN_POINT('',(0.06276875,-0.159,0.00651));
#1396=CARTESIAN_POINT('',(0.06176875,-0.159,0.00651));
#1397=CARTESIAN_POINT('',(0.06176875,-0.159,0.006512));
#1398=CARTESIAN_POINT('',(0.06176875,-0.1615,0.006512));
#1399=CARTESIAN_POINT('',(0.06176875,-0.164,0.006512));
#1400=CARTESIAN_POINT('',(0.06176875,-0.164,0.00651));
#1401=CARTESIAN_POINT('',(0.06176875,-0.1615,0.00651));
#1402=CARTESIAN_POINT('',(0.05476875,-0.164,0.006512));
#1403=CARTESIAN_POINT('',(0.04776875,-0.164,0.006512));
#1404=CARTESIAN_POINT('',(0.04776875,-0.164,0.00651));
#1405=CARTESIAN_POINT('',(0.05476875,-0.164,0.00651));
#1406=CARTESIAN_POINT('',(0.04776875,-0.1615,0.006512));
#1407=CARTESIAN_POINT('',(0.04776875,-0.1615,0.00651));
#1408=CARTESIAN_POINT('',(0.04776875,-0.159,0.00651));
#1409=CARTESIAN_POINT('',(0.04776875,-0.159,0.006512));
#1410=CARTESIAN_POINT('',(0.04676875,-0.159,0.006512));
#1411=CARTESIAN_POINT('',(0.04676875,-0.159,0.00651));
#1412=CARTESIAN_POINT('',(0.04676875,-0.158,0.00651));
#1413=CARTESIAN_POINT('',(0.04676875,-0.158,0.006512));
#1414=CARTESIAN_POINT('',(0.034384375,-0.158,0.006512));
#1415=CARTESIAN_POINT('',(0.034384375,-0.158,0.00651));
#1416=CARTESIAN_POINT('',(0.2425,-0.09,0.00651));
#1417=CARTESIAN_POINT('',(0.05715,-0.02,0.00651));
#1418=CARTESIAN_POINT('',(0.05925,-0.02,0.00651));
#1419=CARTESIAN_POINT('',(0.14747875,-0.02,0.00651));
#1420=CARTESIAN_POINT('',(0.14957875,-0.02,0.00651));
#1421=CARTESIAN_POINT('',(0.05476875,-0.16,0.00651));
#1422=CARTESIAN_POINT('',(0.05686875,-0.16,0.00651));
#1423=CARTESIAN_POINT('',(0.18845,-0.09,0.00651));
#1424=CARTESIAN_POINT('',(0.18845,-0.09,0.00651));
#1425=CARTESIAN_POINT('',(0.05476875,-0.16,0.01151));
#1426=CARTESIAN_POINT('',(0.05476875,-0.16,0.00701));
#1427=CARTESIAN_POINT('',(0.05636875,-0.16,0.00701));
#1428=CARTESIAN_POINT('',(0.05476875,-0.16,0.01151));
#1429=CARTESIAN_POINT('',(0.05316875,-0.16,0.01151));
#1430=CARTESIAN_POINT('',(0.2425,-0.09,0.01151));
#1431=CARTESIAN_POINT('',(0.05715,-0.02,0.01151));
#1432=CARTESIAN_POINT('',(0.05715,-0.02,0.00701));
#1433=CARTESIAN_POINT('',(0.05875,-0.02,0.00701));
#1434=CARTESIAN_POINT('',(0.05715,-0.02,0.01151));
#1435=CARTESIAN_POINT('',(0.05555,-0.02,0.01151));
#1436=CARTESIAN_POINT('',(0.2425,-0.09,0.01151));
#1437=CARTESIAN_POINT('',(0.14747875,-0.02,0.01151));
#1438=CARTESIAN_POINT('',(0.14747875,-0.02,0.00701));
#1439=CARTESIAN_POINT('',(0.14907875,-0.02,0.00701));
#1440=CARTESIAN_POINT('',(0.14747875,-0.02,0.01151));
#1441=CARTESIAN_POINT('',(0.14587875,-0.02,0.01151));
#1442=CARTESIAN_POINT('',(0.2425,-0.09,0.01151));
#1443=CARTESIAN_POINT('',(0.05715,-0.02,0.00701));
#1444=CARTESIAN_POINT('',(0.14747875,-0.02,0.00701));
#1445=CARTESIAN_POINT('',(0.05476875,-0.16,0.00701));
#1446=CARTESIAN_POINT('',(0.0188,-0.1616875,-0.00249));
#1447=CARTESIAN_POINT('',(0.0188,-0.1616875,-0.00249));
#1448=CARTESIAN_POINT('',(0.0172,-0.1616875,-0.00249));
#1449=CARTESIAN_POINT('',(0.2428875,-0.0904875,-0.00249));
#1450=CARTESIAN_POINT('',(0.0188,-0.0188,-0.00249));
#1451=CARTESIAN_POINT('',(0.0188,-0.0188,-0.00249));
#1452=CARTESIAN_POINT('',(0.0172,-0.0188,-0.00249));
#1453=CARTESIAN_POINT('',(0.2428875,-0.0904875,-0.00249));
#1454=CARTESIAN_POINT('',(0.1678,-0.0188,-0.00249));
#1455=CARTESIAN_POINT('',(0.1678,-0.0188,-0.00249));
#1456=CARTESIAN_POINT('',(0.1662,-0.0188,-0.00249));
#1457=CARTESIAN_POINT('',(0.2428875,-0.0904875,-0.00249));
#1458=CARTESIAN_POINT('',(0.1678,-0.1616875,-0.00249));
#1459=CARTESIAN_POINT('',(0.1678,-0.1616875,-0.00249));
#1460=CARTESIAN_POINT('',(0.1662,-0.1616875,-0.00249));
#1461=CARTESIAN_POINT('',(0.2428875,-0.0904875,-0.00249));
#1462=CARTESIAN_POINT('',(0.2428875,-0.0186,0.01051));
#1463=CARTESIAN_POINT('',(0.18845,-0.0186,0.01051));
#1464=CARTESIAN_POINT('',(0.0186,-0.0186,0.01051));
#1465=CARTESIAN_POINT('',(0.2428875,-0.162375,0.01051));
#1466=CARTESIAN_POINT('',(0.18845,-0.162375,0.01051));
#1467=CARTESIAN_POINT('',(0.0186,-0.162375,0.01051));
#1468=CARTESIAN_POINT('',(0.0186,-0.0904875,0.01051));
#1469=CARTESIAN_POINT('',(0.18845,-0.0904875,0.472864554191488));
#1470=CARTESIAN_POINT('',(0.18845,-0.0904875,0.472864554191488));
#1471=MECHANICAL_DESIGN_GEOMETRIC_PRESENTATION_REPRESENTATION('',(#873),
#1472);
#1472=(
GEOMETRIC_REPRESENTATION_CONTEXT(3)
GLOBAL_UNCERTAINTY_ASSIGNED_CONTEXT((#1473))
GLOBAL_UNIT_ASSIGNED_CONTEXT((#1476,#1475,#1474))
REPRESENTATION_CONTEXT('TopCaseLeft','TOP_LEVEL_ASSEMBLY_PART')
);
#1473=UNCERTAINTY_MEASURE_WITH_UNIT(LENGTH_MEASURE(1.E-8),#1476,
'DISTANCE_ACCURACY_VALUE','Maximum Tolerance applied to model');
#1474=(
NAMED_UNIT(*)
SI_UNIT($,.STERADIAN.)
SOLID_ANGLE_UNIT()
);
#1475=(
NAMED_UNIT(*)
PLANE_ANGLE_UNIT()
SI_UNIT($,.RADIAN.)
);
#1476=(
LENGTH_UNIT()
NAMED_UNIT(*)
SI_UNIT($,.METRE.)
);
#1477=PRODUCT_DEFINITION_SHAPE('','',#1478);
#1478=PRODUCT_DEFINITION('','',#1480,#1479);
#1479=PRODUCT_DEFINITION_CONTEXT('',#1486,'design');
#1480=PRODUCT_DEFINITION_FORMATION_WITH_SPECIFIED_SOURCE('','',#1482,
 .NOT_KNOWN.);
#1481=PRODUCT_RELATED_PRODUCT_CATEGORY('','',(#1482));
#1482=PRODUCT('TopCaseLeft','TopCaseLeft','TopCaseLeft',(#1484));
#1483=PRODUCT_CATEGORY('','');
#1484=PRODUCT_CONTEXT('',#1486,'mechanical');
#1485=APPLICATION_PROTOCOL_DEFINITION('international standard',
'ap242_managed_model_based_3d_engineering',2020,#1486);
#1486=APPLICATION_CONTEXT('managed model based 3d engineering');
ENDSEC;
END-ISO-10303-21;
