ISO-10303-21;
HEADER;
/* Generated by software containing ST-Developer
 * from STEP Tools, Inc. (www.steptools.com) 
 */
/* OPTION: using custom renumber hook */

FILE_DESCRIPTION(
/* description */ ('STEP AP242 Edition 2',
'CAx-IF Rec.Pracs.---Representation and Presentation of Product Manufa
cturing Information (PMI)---4.0---2014-10-13',
'CAx-IF Rec.Pracs.---3D Tessellated Geometry---0.4---2014-09-14','2;1',
'CAx-IF Rec.Pracs.---User Defined Attributes---1.5---2016-08-15'),
/* implementation_level */ '2;1');

FILE_NAME(
/* name */ 'Case - TopCaseMidTop',
/* time_stamp */ '2026-10-05T22:04:45Z',
/* author */ (''),
/* organization */ (''),
/* preprocessor_version */ 'ST-DEVELOPER v20',
/* originating_system */ 'ONSHAPE BY PTC INC, 1.221',
/* authorisation */ '  ');

FILE_SCHEMA (('AP242_MANAGED_MODEL_BASED_3D_ENGINEERING_MIM_LF { 1 0 10303 442 3 1 4 }'));
ENDSEC;

DATA;
#10=SHAPE_REPRESENTATION_RELATIONSHIP('','',#353,#11);
#11=ADVANCED_BREP_SHAPE_REPRESENTATION('',(#351),#580);
#12=CONICAL_SURFACE('',#366,0.0016,0.785398163397448);
#13=LINE('',#497,#46);
#14=LINE('',#500,#47);
#15=LINE('',#502,#48);
#16=LINE('',#504,#49);
#17=LINE('',#506,#50);
#18=LINE('',#508,#51);
#19=LINE('',#510,#52);
#20=LINE('',#512,#53);
#21=LINE('',#514,#54);
#22=LINE('',#516,#55);
#23=LINE('',#523,#56);
#24=LINE('',#531,#57);
#25=LINE('',#533,#58);
#26=LINE('',#535,#59);
#27=LINE('',#537,#60);
#28=LINE('',#539,#61);
#29=LINE('',#541,#62);
#30=LINE('',#543,#63);
#31=LINE('',#545,#64);
#32=LINE('',#548,#65);
#33=LINE('',#549,#66);
#34=LINE('',#554,#67);
#35=LINE('',#558,#68);
#36=LINE('',#560,#69);
#37=LINE('',#562,#70);
#38=LINE('',#564,#71);
#39=LINE('',#566,#72);
#40=LINE('',#567,#73);
#41=LINE('',#569,#74);
#42=LINE('',#571,#75);
#43=LINE('',#573,#76);
#44=LINE('',#575,#77);
#45=LINE('',#576,#78);
#46=VECTOR('',#406,1.);
#47=VECTOR('',#407,1.);
#48=VECTOR('',#408,1.);
#49=VECTOR('',#409,1.);
#50=VECTOR('',#412,1.);
#51=VECTOR('',#413,1.);
#52=VECTOR('',#414,1.);
#53=VECTOR('',#417,1.);
#54=VECTOR('',#418,1.);
#55=VECTOR('',#419,1.);
#56=VECTOR('',#428,1.);
#57=VECTOR('',#437,1.);
#58=VECTOR('',#440,1.);
#59=VECTOR('',#441,1.);
#60=VECTOR('',#442,1.);
#61=VECTOR('',#445,1.);
#62=VECTOR('',#446,1.);
#63=VECTOR('',#447,1.);
#64=VECTOR('',#450,1.);
#65=VECTOR('',#451,1.);
#66=VECTOR('',#452,1.);
#67=VECTOR('',#457,1.);
#68=VECTOR('',#460,1.);
#69=VECTOR('',#463,1.);
#70=VECTOR('',#464,1.);
#71=VECTOR('',#465,1.);
#72=VECTOR('',#468,1.);
#73=VECTOR('',#469,1.);
#74=VECTOR('',#472,1.);
#75=VECTOR('',#473,1.);
#76=VECTOR('',#474,1.);
#77=VECTOR('',#477,1.);
#78=VECTOR('',#478,1.);
#79=CYLINDRICAL_SURFACE('',#359,0.0016);
#80=CYLINDRICAL_SURFACE('',#361,0.0016);
#81=CYLINDRICAL_SURFACE('',#368,0.001);
#82=CYLINDRICAL_SURFACE('',#371,0.001);
#83=CYLINDRICAL_SURFACE('',#377,0.003);
#84=ORIENTED_EDGE('',*,*,#172,.T.);
#85=ORIENTED_EDGE('',*,*,#173,.T.);
#86=ORIENTED_EDGE('',*,*,#174,.T.);
#87=ORIENTED_EDGE('',*,*,#172,.F.);
#88=ORIENTED_EDGE('',*,*,#173,.F.);
#89=ORIENTED_EDGE('',*,*,#175,.T.);
#90=ORIENTED_EDGE('',*,*,#176,.T.);
#91=ORIENTED_EDGE('',*,*,#177,.T.);
#92=ORIENTED_EDGE('',*,*,#178,.F.);
#93=ORIENTED_EDGE('',*,*,#179,.F.);
#94=ORIENTED_EDGE('',*,*,#180,.T.);
#95=ORIENTED_EDGE('',*,*,#181,.T.);
#96=ORIENTED_EDGE('',*,*,#182,.F.);
#97=ORIENTED_EDGE('',*,*,#176,.F.);
#98=ORIENTED_EDGE('',*,*,#183,.T.);
#99=ORIENTED_EDGE('',*,*,#184,.T.);
#100=ORIENTED_EDGE('',*,*,#185,.F.);
#101=ORIENTED_EDGE('',*,*,#181,.F.);
#102=ORIENTED_EDGE('',*,*,#186,.F.);
#103=ORIENTED_EDGE('',*,*,#174,.F.);
#104=ORIENTED_EDGE('',*,*,#187,.T.);
#105=ORIENTED_EDGE('',*,*,#188,.T.);
#106=ORIENTED_EDGE('',*,*,#189,.F.);
#107=ORIENTED_EDGE('',*,*,#184,.F.);
#108=ORIENTED_EDGE('',*,*,#190,.T.);
#109=ORIENTED_EDGE('',*,*,#178,.T.);
#110=ORIENTED_EDGE('',*,*,#191,.F.);
#111=ORIENTED_EDGE('',*,*,#192,.F.);
#112=ORIENTED_EDGE('',*,*,#193,.T.);
#113=ORIENTED_EDGE('',*,*,#194,.T.);
#114=ORIENTED_EDGE('',*,*,#195,.F.);
#115=ORIENTED_EDGE('',*,*,#192,.T.);
#116=ORIENTED_EDGE('',*,*,#196,.F.);
#117=ORIENTED_EDGE('',*,*,#197,.T.);
#118=ORIENTED_EDGE('',*,*,#198,.T.);
#119=ORIENTED_EDGE('',*,*,#188,.F.);
#120=ORIENTED_EDGE('',*,*,#186,.T.);
#121=ORIENTED_EDGE('',*,*,#199,.F.);
#122=ORIENTED_EDGE('',*,*,#200,.T.);
#123=ORIENTED_EDGE('',*,*,#196,.T.);
#124=ORIENTED_EDGE('',*,*,#187,.F.);
#125=ORIENTED_EDGE('',*,*,#183,.F.);
#126=ORIENTED_EDGE('',*,*,#180,.F.);
#127=ORIENTED_EDGE('',*,*,#179,.T.);
#128=ORIENTED_EDGE('',*,*,#190,.F.);
#129=ORIENTED_EDGE('',*,*,#195,.T.);
#130=ORIENTED_EDGE('',*,*,#201,.T.);
#131=ORIENTED_EDGE('',*,*,#202,.F.);
#132=ORIENTED_EDGE('',*,*,#203,.F.);
#133=ORIENTED_EDGE('',*,*,#204,.F.);
#134=ORIENTED_EDGE('',*,*,#205,.F.);
#135=ORIENTED_EDGE('',*,*,#206,.F.);
#136=ORIENTED_EDGE('',*,*,#207,.T.);
#137=ORIENTED_EDGE('',*,*,#208,.F.);
#138=ORIENTED_EDGE('',*,*,#203,.T.);
#139=ORIENTED_EDGE('',*,*,#207,.F.);
#140=ORIENTED_EDGE('',*,*,#209,.T.);
#141=ORIENTED_EDGE('',*,*,#199,.T.);
#142=ORIENTED_EDGE('',*,*,#210,.T.);
#143=ORIENTED_EDGE('',*,*,#175,.F.);
#144=ORIENTED_EDGE('',*,*,#211,.F.);
#145=ORIENTED_EDGE('',*,*,#212,.T.);
#146=ORIENTED_EDGE('',*,*,#213,.F.);
#147=ORIENTED_EDGE('',*,*,#193,.F.);
#148=ORIENTED_EDGE('',*,*,#191,.T.);
#149=ORIENTED_EDGE('',*,*,#177,.F.);
#150=ORIENTED_EDGE('',*,*,#182,.T.);
#151=ORIENTED_EDGE('',*,*,#185,.T.);
#152=ORIENTED_EDGE('',*,*,#189,.T.);
#153=ORIENTED_EDGE('',*,*,#198,.F.);
#154=ORIENTED_EDGE('',*,*,#214,.F.);
#155=ORIENTED_EDGE('',*,*,#205,.T.);
#156=ORIENTED_EDGE('',*,*,#215,.T.);
#157=ORIENTED_EDGE('',*,*,#212,.F.);
#158=ORIENTED_EDGE('',*,*,#213,.T.);
#159=ORIENTED_EDGE('',*,*,#215,.F.);
#160=ORIENTED_EDGE('',*,*,#204,.T.);
#161=ORIENTED_EDGE('',*,*,#208,.T.);
#162=ORIENTED_EDGE('',*,*,#210,.F.);
#163=ORIENTED_EDGE('',*,*,#201,.F.);
#164=ORIENTED_EDGE('',*,*,#194,.F.);
#165=ORIENTED_EDGE('',*,*,#200,.F.);
#166=ORIENTED_EDGE('',*,*,#209,.F.);
#167=ORIENTED_EDGE('',*,*,#206,.T.);
#168=ORIENTED_EDGE('',*,*,#202,.T.);
#169=ORIENTED_EDGE('',*,*,#214,.T.);
#170=ORIENTED_EDGE('',*,*,#211,.T.);
#171=ORIENTED_EDGE('',*,*,#197,.F.);
#172=EDGE_CURVE('',#216,#216,#247,.T.);
#173=EDGE_CURVE('',#217,#217,#248,.T.);
#174=EDGE_CURVE('',#218,#218,#249,.F.);
#175=EDGE_CURVE('',#219,#219,#250,.T.);
#176=EDGE_CURVE('',#220,#221,#13,.T.);
#177=EDGE_CURVE('',#221,#222,#14,.T.);
#178=EDGE_CURVE('',#223,#222,#15,.T.);
#179=EDGE_CURVE('',#220,#223,#16,.T.);
#180=EDGE_CURVE('',#220,#224,#17,.T.);
#181=EDGE_CURVE('',#224,#225,#18,.T.);
#182=EDGE_CURVE('',#221,#225,#19,.T.);
#183=EDGE_CURVE('',#224,#226,#20,.T.);
#184=EDGE_CURVE('',#226,#227,#21,.T.);
#185=EDGE_CURVE('',#225,#227,#22,.T.);
#186=EDGE_CURVE('',#228,#228,#251,.T.);
#187=EDGE_CURVE('',#226,#229,#252,.F.);
#188=EDGE_CURVE('',#229,#230,#23,.T.);
#189=EDGE_CURVE('',#227,#230,#253,.T.);
#190=EDGE_CURVE('',#231,#223,#254,.F.);
#191=EDGE_CURVE('',#232,#222,#255,.T.);
#192=EDGE_CURVE('',#231,#232,#24,.T.);
#193=EDGE_CURVE('',#232,#233,#25,.T.);
#194=EDGE_CURVE('',#233,#234,#26,.T.);
#195=EDGE_CURVE('',#231,#234,#27,.T.);
#196=EDGE_CURVE('',#235,#229,#28,.T.);
#197=EDGE_CURVE('',#235,#236,#29,.T.);
#198=EDGE_CURVE('',#236,#230,#30,.T.);
#199=EDGE_CURVE('',#237,#238,#31,.T.);
#200=EDGE_CURVE('',#237,#235,#32,.T.);
#201=EDGE_CURVE('',#234,#238,#33,.T.);
#202=EDGE_CURVE('',#239,#240,#256,.F.);
#203=EDGE_CURVE('',#241,#239,#34,.F.);
#204=EDGE_CURVE('',#242,#241,#257,.F.);
#205=EDGE_CURVE('',#240,#242,#35,.T.);
#206=EDGE_CURVE('',#243,#239,#36,.T.);
#207=EDGE_CURVE('',#243,#244,#37,.T.);
#208=EDGE_CURVE('',#241,#244,#38,.T.);
#209=EDGE_CURVE('',#243,#237,#39,.T.);
#210=EDGE_CURVE('',#238,#244,#40,.T.);
#211=EDGE_CURVE('',#245,#236,#41,.F.);
#212=EDGE_CURVE('',#245,#246,#42,.T.);
#213=EDGE_CURVE('',#233,#246,#43,.T.);
#214=EDGE_CURVE('',#240,#245,#44,.T.);
#215=EDGE_CURVE('',#242,#246,#45,.T.);
#216=VERTEX_POINT('',#486);
#217=VERTEX_POINT('',#489);
#218=VERTEX_POINT('',#492);
#219=VERTEX_POINT('',#495);
#220=VERTEX_POINT('',#498);
#221=VERTEX_POINT('',#499);
#222=VERTEX_POINT('',#501);
#223=VERTEX_POINT('',#503);
#224=VERTEX_POINT('',#507);
#225=VERTEX_POINT('',#509);
#226=VERTEX_POINT('',#513);
#227=VERTEX_POINT('',#515);
#228=VERTEX_POINT('',#519);
#229=VERTEX_POINT('',#522);
#230=VERTEX_POINT('',#524);
#231=VERTEX_POINT('',#528);
#232=VERTEX_POINT('',#530);
#233=VERTEX_POINT('',#534);
#234=VERTEX_POINT('',#536);
#235=VERTEX_POINT('',#540);
#236=VERTEX_POINT('',#542);
#237=VERTEX_POINT('',#546);
#238=VERTEX_POINT('',#547);
#239=VERTEX_POINT('',#552);
#240=VERTEX_POINT('',#553);
#241=VERTEX_POINT('',#555);
#242=VERTEX_POINT('',#557);
#243=VERTEX_POINT('',#561);
#244=VERTEX_POINT('',#563);
#245=VERTEX_POINT('',#570);
#246=VERTEX_POINT('',#572);
#247=CIRCLE('',#356,0.0016);
#248=CIRCLE('',#358,0.0016);
#249=CIRCLE('',#360,0.0016);
#250=CIRCLE('',#362,0.0016);
#251=CIRCLE('',#367,0.0021);
#252=CIRCLE('',#369,0.001);
#253=CIRCLE('',#370,0.001);
#254=CIRCLE('',#372,0.001);
#255=CIRCLE('',#373,0.001);
#256=CIRCLE('',#378,0.003);
#257=CIRCLE('',#379,0.003);
#258=EDGE_LOOP('',(#84));
#259=EDGE_LOOP('',(#85));
#260=EDGE_LOOP('',(#86));
#261=EDGE_LOOP('',(#87));
#262=EDGE_LOOP('',(#88));
#263=EDGE_LOOP('',(#89));
#264=EDGE_LOOP('',(#90,#91,#92,#93));
#265=EDGE_LOOP('',(#94,#95,#96,#97));
#266=EDGE_LOOP('',(#98,#99,#100,#101));
#267=EDGE_LOOP('',(#102));
#268=EDGE_LOOP('',(#103));
#269=EDGE_LOOP('',(#104,#105,#106,#107));
#270=EDGE_LOOP('',(#108,#109,#110,#111));
#271=EDGE_LOOP('',(#112,#113,#114,#115));
#272=EDGE_LOOP('',(#116,#117,#118,#119));
#273=EDGE_LOOP('',(#120));
#274=EDGE_LOOP('',(#121,#122,#123,#124,#125,#126,#127,#128,#129,#130));
#275=EDGE_LOOP('',(#131,#132,#133,#134));
#276=EDGE_LOOP('',(#135,#136,#137,#138));
#277=EDGE_LOOP('',(#139,#140,#141,#142));
#278=EDGE_LOOP('',(#143));
#279=EDGE_LOOP('',(#144,#145,#146,#147,#148,#149,#150,#151,#152,#153));
#280=EDGE_LOOP('',(#154,#155,#156,#157));
#281=EDGE_LOOP('',(#158,#159,#160,#161,#162,#163,#164));
#282=EDGE_LOOP('',(#165,#166,#167,#168,#169,#170,#171));
#283=FACE_BOUND('',#258,.T.);
#284=FACE_BOUND('',#259,.T.);
#285=FACE_BOUND('',#260,.T.);
#286=FACE_BOUND('',#261,.T.);
#287=FACE_BOUND('',#262,.T.);
#288=FACE_BOUND('',#263,.T.);
#289=FACE_BOUND('',#264,.T.);
#290=FACE_BOUND('',#265,.T.);
#291=FACE_BOUND('',#266,.T.);
#292=FACE_BOUND('',#267,.T.);
#293=FACE_BOUND('',#268,.T.);
#294=FACE_BOUND('',#269,.T.);
#295=FACE_BOUND('',#270,.T.);
#296=FACE_BOUND('',#271,.T.);
#297=FACE_BOUND('',#272,.T.);
#298=FACE_BOUND('',#273,.T.);
#299=FACE_BOUND('',#274,.T.);
#300=FACE_BOUND('',#275,.T.);
#301=FACE_BOUND('',#276,.T.);
#302=FACE_BOUND('',#277,.T.);
#303=FACE_BOUND('',#278,.T.);
#304=FACE_BOUND('',#279,.T.);
#305=FACE_BOUND('',#280,.T.);
#306=FACE_BOUND('',#281,.T.);
#307=FACE_BOUND('',#282,.T.);
#308=PLANE('',#355);
#309=PLANE('',#357);
#310=PLANE('',#363);
#311=PLANE('',#364);
#312=PLANE('',#365);
#313=PLANE('',#374);
#314=PLANE('',#375);
#315=PLANE('',#376);
#316=PLANE('',#380);
#317=PLANE('',#381);
#318=PLANE('',#382);
#319=PLANE('',#383);
#320=PLANE('',#384);
#321=PLANE('',#385);
#322=ADVANCED_FACE('',(#283),#308,.T.);
#323=ADVANCED_FACE('',(#284),#309,.T.);
#324=ADVANCED_FACE('',(#285,#286),#79,.F.);
#325=ADVANCED_FACE('',(#287,#288),#80,.F.);
#326=ADVANCED_FACE('',(#289),#310,.F.);
#327=ADVANCED_FACE('',(#290),#311,.T.);
#328=ADVANCED_FACE('',(#291),#312,.T.);
#329=ADVANCED_FACE('',(#292,#293),#12,.F.);
#330=ADVANCED_FACE('',(#294),#81,.T.);
#331=ADVANCED_FACE('',(#295),#82,.T.);
#332=ADVANCED_FACE('',(#296),#313,.F.);
#333=ADVANCED_FACE('',(#297),#314,.F.);
#334=ADVANCED_FACE('',(#298,#299),#315,.F.);
#335=ADVANCED_FACE('',(#300),#83,.T.);
#336=ADVANCED_FACE('',(#301),#316,.T.);
#337=ADVANCED_FACE('',(#302),#317,.F.);
#338=ADVANCED_FACE('',(#303,#304),#318,.F.);
#339=ADVANCED_FACE('',(#305),#319,.T.);
#340=ADVANCED_FACE('',(#306),#320,.F.);
#341=ADVANCED_FACE('',(#307),#321,.F.);
#342=CLOSED_SHELL('',(#322,#323,#324,#325,#326,#327,#328,#329,#330,#331,
#332,#333,#334,#335,#336,#337,#338,#339,#340,#341));
#343=STYLED_ITEM('',(#344),#351);
#344=PRESENTATION_STYLE_ASSIGNMENT((#345));
#345=SURFACE_STYLE_USAGE(.BOTH.,#346);
#346=SURFACE_SIDE_STYLE('',(#347));
#347=SURFACE_STYLE_FILL_AREA(#348);
#348=FILL_AREA_STYLE('',(#349));
#349=FILL_AREA_STYLE_COLOUR('',#350);
#350=COLOUR_RGB('',0.647058823529412,0.647058823529412,0.647058823529412);
#351=MANIFOLD_SOLID_BREP('TopCaseMidTop',#342);
#352=SHAPE_DEFINITION_REPRESENTATION(#585,#353);
#353=SHAPE_REPRESENTATION('TopCaseMidTop',(#354),#580);
#354=AXIS2_PLACEMENT_3D('',#483,#386,#387);
#355=AXIS2_PLACEMENT_3D('',#484,#388,#389);
#356=AXIS2_PLACEMENT_3D('',#485,#390,#391);
#357=AXIS2_PLACEMENT_3D('',#487,#392,#393);
#358=AXIS2_PLACEMENT_3D('',#488,#394,#395);
#359=AXIS2_PLACEMENT_3D('',#490,#396,#397);
#360=AXIS2_PLACEMENT_3D('',#491,#398,#399);
#361=AXIS2_PLACEMENT_3D('',#493,#400,#401);
#362=AXIS2_PLACEMENT_3D('',#494,#402,#403);
#363=AXIS2_PLACEMENT_3D('',#496,#404,#405);
#364=AXIS2_PLACEMENT_3D('',#505,#410,#411);
#365=AXIS2_PLACEMENT_3D('',#511,#415,#416);
#366=AXIS2_PLACEMENT_3D('',#517,#420,#421);
#367=AXIS2_PLACEMENT_3D('',#518,#422,#423);
#368=AXIS2_PLACEMENT_3D('',#520,#424,#425);
#369=AXIS2_PLACEMENT_3D('',#521,#426,#427);
#370=AXIS2_PLACEMENT_3D('',#525,#429,#430);
#371=AXIS2_PLACEMENT_3D('',#526,#431,#432);
#372=AXIS2_PLACEMENT_3D('',#527,#433,#434);
#373=AXIS2_PLACEMENT_3D('',#529,#435,#436);
#374=AXIS2_PLACEMENT_3D('',#532,#438,#439);
#375=AXIS2_PLACEMENT_3D('',#538,#443,#444);
#376=AXIS2_PLACEMENT_3D('',#544,#448,#449);
#377=AXIS2_PLACEMENT_3D('',#550,#453,#454);
#378=AXIS2_PLACEMENT_3D('',#551,#455,#456);
#379=AXIS2_PLACEMENT_3D('',#556,#458,#459);
#380=AXIS2_PLACEMENT_3D('',#559,#461,#462);
#381=AXIS2_PLACEMENT_3D('',#565,#466,#467);
#382=AXIS2_PLACEMENT_3D('',#568,#470,#471);
#383=AXIS2_PLACEMENT_3D('',#574,#475,#476);
#384=AXIS2_PLACEMENT_3D('',#577,#479,#480);
#385=AXIS2_PLACEMENT_3D('',#578,#481,#482);
#386=DIRECTION('',(0.,0.,1.));
#387=DIRECTION('',(1.,0.,0.));
#388=DIRECTION('',(0.,0.,-1.));
#389=DIRECTION('',(1.,0.,0.));
#390=DIRECTION('',(0.,0.,-1.));
#391=DIRECTION('',(-1.,0.,0.));
#392=DIRECTION('',(0.,0.,-1.));
#393=DIRECTION('',(1.,0.,0.));
#394=DIRECTION('',(0.,0.,-1.));
#395=DIRECTION('',(-1.,0.,0.));
#396=DIRECTION('',(0.,0.,-1.));
#397=DIRECTION('',(-1.,0.,0.));
#398=DIRECTION('',(0.,0.,1.));
#399=DIRECTION('',(1.,0.,0.));
#400=DIRECTION('',(0.,0.,-1.));
#401=DIRECTION('',(-1.,0.,0.));
#402=DIRECTION('',(0.,0.,-1.));
#403=DIRECTION('',(-1.,0.,0.));
#404=DIRECTION('',(1.,0.,0.));
#405=DIRECTION('',(0.,0.,-1.));
#406=DIRECTION('',(0.,0.,-1.));
#407=DIRECTION('',(0.,-1.,0.));
#408=DIRECTION('',(0.,0.,-1.));
#409=DIRECTION('',(0.,-1.,0.));
#410=DIRECTION('',(0.,-1.,0.));
#411=DIRECTION('',(0.,0.,-1.));
#412=DIRECTION('',(-1.,0.,0.));
#413=DIRECTION('',(0.,0.,-1.));
#414=DIRECTION('',(-1.,0.,0.));
#415=DIRECTION('',(1.,0.,0.));
#416=DIRECTION('',(0.,0.,-1.));
#417=DIRECTION('',(0.,-1.,0.));
#418=DIRECTION('',(0.,0.,-1.));
#419=DIRECTION('',(0.,-1.,0.));
#420=DIRECTION('',(0.,0.,-1.));
#421=DIRECTION('',(-1.,0.,0.));
#422=DIRECTION('',(0.,0.,1.));
#423=DIRECTION('',(1.,0.,0.));
#424=DIRECTION('',(0.,0.,-1.));
#425=DIRECTION('',(-1.,0.,0.));
#426=DIRECTION('',(0.,0.,1.));
#427=DIRECTION('',(1.,0.,0.));
#428=DIRECTION('',(0.,0.,-1.));
#429=DIRECTION('',(0.,0.,-1.));
#430=DIRECTION('',(-1.,0.,0.));
#431=DIRECTION('',(0.,0.,-1.));
#432=DIRECTION('',(-1.,0.,0.));
#433=DIRECTION('',(0.,0.,1.));
#434=DIRECTION('',(1.,0.,0.));
#435=DIRECTION('',(0.,0.,-1.));
#436=DIRECTION('',(-1.,0.,0.));
#437=DIRECTION('',(0.,0.,-1.));
#438=DIRECTION('',(0.,1.,0.));
#439=DIRECTION('',(0.,0.,1.));
#440=DIRECTION('',(1.,0.,0.));
#441=DIRECTION('',(0.,0.,1.));
#442=DIRECTION('',(1.,0.,0.));
#443=DIRECTION('',(0.,1.,0.));
#444=DIRECTION('',(0.,0.,1.));
#445=DIRECTION('',(1.,0.,0.));
#446=DIRECTION('',(0.,0.,-1.));
#447=DIRECTION('',(1.,0.,0.));
#448=DIRECTION('',(0.,0.,1.));
#449=DIRECTION('',(1.,0.,0.));
#450=DIRECTION('',(1.,1.2892330309762E-16,0.));
#451=DIRECTION('',(-6.08842551727161E-17,1.,0.));
#452=DIRECTION('',(6.08842551727161E-17,-1.,0.));
#453=DIRECTION('',(1.,1.22116595130084E-16,0.));
#454=DIRECTION('',(-1.22116595130084E-16,1.,0.));
#455=DIRECTION('',(1.,6.08842551727161E-17,0.));
#456=DIRECTION('',(-6.08842551727161E-17,1.,0.));
#457=DIRECTION('',(1.,1.22116595130084E-16,0.));
#458=DIRECTION('',(-1.,-6.08842551727161E-17,0.));
#459=DIRECTION('',(6.08842551727161E-17,-1.,0.));
#460=DIRECTION('',(1.,1.22116595130084E-16,0.));
#461=DIRECTION('',(0.,0.,1.));
#462=DIRECTION('',(1.,0.,0.));
#463=DIRECTION('',(-6.08842551727161E-17,1.,0.));
#464=DIRECTION('',(1.,1.2892330309762E-16,0.));
#465=DIRECTION('',(6.08842551727161E-17,-1.,0.));
#466=DIRECTION('',(-1.2892330309762E-16,1.,0.));
#467=DIRECTION('',(-1.,-1.2892330309762E-16,0.));
#468=DIRECTION('',(0.,0.,-1.));
#469=DIRECTION('',(0.,0.,1.));
#470=DIRECTION('',(0.,0.,1.));
#471=DIRECTION('',(1.,0.,0.));
#472=DIRECTION('',(-6.08842551727161E-17,1.,0.));
#473=DIRECTION('',(1.,1.22116595130084E-16,0.));
#474=DIRECTION('',(-6.08842551727161E-17,1.,0.));
#475=DIRECTION('',(-1.22116595130084E-16,1.,0.));
#476=DIRECTION('',(-1.,-1.22116595130084E-16,0.));
#477=DIRECTION('',(0.,0.,-1.));
#478=DIRECTION('',(0.,0.,-1.));
#479=DIRECTION('',(-1.,-6.08842551727161E-17,0.));
#480=DIRECTION('',(6.08842551727161E-17,-1.,0.));
#481=DIRECTION('',(1.,6.08842551727161E-17,0.));
#482=DIRECTION('',(-6.08842551727161E-17,1.,0.));
#483=CARTESIAN_POINT('',(0.,0.,0.));
#484=CARTESIAN_POINT('',(0.2425,-0.09,0.01151));
#485=CARTESIAN_POINT('',(0.31670625,-0.02,0.01151));
#486=CARTESIAN_POINT('',(0.31510625,-0.02,0.01151));
#487=CARTESIAN_POINT('',(0.2428875,-0.0904875,-0.00249));
#488=CARTESIAN_POINT('',(0.2978,-0.0188,-0.00249));
#489=CARTESIAN_POINT('',(0.2962,-0.0188,-0.00249));
#490=CARTESIAN_POINT('',(0.31670625,-0.02,0.01151));
#491=CARTESIAN_POINT('',(0.31670625,-0.02,0.00701));
#492=CARTESIAN_POINT('',(0.31830625,-0.02,0.00701));
#493=CARTESIAN_POINT('',(0.2978,-0.0188,-0.00249));
#494=CARTESIAN_POINT('',(0.2978,-0.0188,-0.00749));
#495=CARTESIAN_POINT('',(0.2962,-0.0188,-0.00749));
#496=CARTESIAN_POINT('',(0.32370625,-0.0185,0.006512));
#497=CARTESIAN_POINT('',(0.32370625,-0.016,0.006512));
#498=CARTESIAN_POINT('',(0.32370625,-0.016,0.00651));
#499=CARTESIAN_POINT('',(0.32370625,-0.016,-0.00749));
#500=CARTESIAN_POINT('',(0.32370625,-0.0185,-0.00749));
#501=CARTESIAN_POINT('',(0.32370625,-0.021,-0.00749));
#502=CARTESIAN_POINT('',(0.32370625,-0.021,0.006512));
#503=CARTESIAN_POINT('',(0.32370625,-0.021,0.00651));
#504=CARTESIAN_POINT('',(0.32370625,-0.0185,0.00651));
#505=CARTESIAN_POINT('',(0.31670625,-0.016,0.006512));
#506=CARTESIAN_POINT('',(0.31670625,-0.016,0.00651));
#507=CARTESIAN_POINT('',(0.30970625,-0.016,0.00651));
#508=CARTESIAN_POINT('',(0.30970625,-0.016,0.006512));
#509=CARTESIAN_POINT('',(0.30970625,-0.016,-0.00749));
#510=CARTESIAN_POINT('',(0.31670625,-0.016,-0.00749));
#511=CARTESIAN_POINT('',(0.30970625,-0.0185,0.006512));
#512=CARTESIAN_POINT('',(0.30970625,-0.0185,0.00651));
#513=CARTESIAN_POINT('',(0.30970625,-0.021,0.00651));
#514=CARTESIAN_POINT('',(0.30970625,-0.021,0.006512));
#515=CARTESIAN_POINT('',(0.30970625,-0.021,-0.00749));
#516=CARTESIAN_POINT('',(0.30970625,-0.0185,-0.00749));
#517=CARTESIAN_POINT('',(0.31670625,-0.02,0.00701));
#518=CARTESIAN_POINT('',(0.31670625,-0.02,0.00651));
#519=CARTESIAN_POINT('',(0.31880625,-0.02,0.00651));
#520=CARTESIAN_POINT('',(0.30870625,-0.021,0.006512));
#521=CARTESIAN_POINT('',(0.30870625,-0.021,0.00651));
#522=CARTESIAN_POINT('',(0.30870625,-0.022,0.00651));
#523=CARTESIAN_POINT('',(0.30870625,-0.022,0.006512));
#524=CARTESIAN_POINT('',(0.30870625,-0.022,-0.00749));
#525=CARTESIAN_POINT('',(0.30870625,-0.021,-0.00749));
#526=CARTESIAN_POINT('',(0.32470625,-0.021,0.006512));
#527=CARTESIAN_POINT('',(0.32470625,-0.021,0.00651));
#528=CARTESIAN_POINT('',(0.32470625,-0.022,0.00651));
#529=CARTESIAN_POINT('',(0.32470625,-0.021,-0.00749));
#530=CARTESIAN_POINT('',(0.32470625,-0.022,-0.00749));
#531=CARTESIAN_POINT('',(0.32470625,-0.022,0.006512));
#532=CARTESIAN_POINT('',(0.367903125,-0.022,0.006512));
#533=CARTESIAN_POINT('',(0.367903125,-0.022,-0.00749));
#534=CARTESIAN_POINT('',(0.335025,-0.022,-0.00749));
#535=CARTESIAN_POINT('',(0.335025,-0.022,0.006512));
#536=CARTESIAN_POINT('',(0.335025,-0.022,0.00651));
#537=CARTESIAN_POINT('',(0.367903125,-0.022,0.00651));
#538=CARTESIAN_POINT('',(0.2320925,-0.022,0.006512));
#539=CARTESIAN_POINT('',(0.2320925,-0.022,0.00651));
#540=CARTESIAN_POINT('',(0.1886,-0.022,0.00651));
#541=CARTESIAN_POINT('',(0.1886,-0.022,0.006512));
#542=CARTESIAN_POINT('',(0.1886,-0.022,-0.00749));
#543=CARTESIAN_POINT('',(0.2320925,-0.022,-0.00749));
#544=CARTESIAN_POINT('',(0.2425,-0.09,0.00651));
#545=CARTESIAN_POINT('',(0.2428875,-0.0276,0.00651));
#546=CARTESIAN_POINT('',(0.1886,-0.0276,0.00651));
#547=CARTESIAN_POINT('',(0.335025,-0.0276,0.00651));
#548=CARTESIAN_POINT('',(0.1886,-0.09,0.00651));
#549=CARTESIAN_POINT('',(0.335025,-0.09,0.00651));
#550=CARTESIAN_POINT('',(0.2428875,-0.0186,0.01051));
#551=CARTESIAN_POINT('',(0.1886,-0.0186,0.01051));
#552=CARTESIAN_POINT('',(0.1886,-0.0186,0.01351));
#553=CARTESIAN_POINT('',(0.1886,-0.0156,0.01051));
#554=CARTESIAN_POINT('',(0.2428875,-0.0186,0.01351));
#555=CARTESIAN_POINT('',(0.335025,-0.0186,0.01351));
#556=CARTESIAN_POINT('',(0.335025,-0.0186,0.01051));
#557=CARTESIAN_POINT('',(0.335025,-0.0156,0.01051));
#558=CARTESIAN_POINT('',(0.2428875,-0.0156,0.01051));
#559=CARTESIAN_POINT('',(0.2428875,-0.0904875,0.01351));
#560=CARTESIAN_POINT('',(0.1886,-0.0904875,0.01351));
#561=CARTESIAN_POINT('',(0.1886,-0.0276,0.01351));
#562=CARTESIAN_POINT('',(0.2428875,-0.0276,0.01351));
#563=CARTESIAN_POINT('',(0.335025,-0.0276,0.01351));
#564=CARTESIAN_POINT('',(0.335025,-0.0904875,0.01351));
#565=CARTESIAN_POINT('',(0.2428875,-0.0276,0.01351));
#566=CARTESIAN_POINT('',(0.1886,-0.0276,0.01351));
#567=CARTESIAN_POINT('',(0.335025,-0.0276,0.01351));
#568=CARTESIAN_POINT('',(0.2428875,-0.0904875,-0.00749));
#569=CARTESIAN_POINT('',(0.1886,-0.0904875,-0.00749));
#570=CARTESIAN_POINT('',(0.1886,-0.0156,-0.00749));
#571=CARTESIAN_POINT('',(0.2428875,-0.0156,-0.00749));
#572=CARTESIAN_POINT('',(0.335025,-0.0156,-0.00749));
#573=CARTESIAN_POINT('',(0.335025,-0.0904875,-0.00749));
#574=CARTESIAN_POINT('',(0.2428875,-0.0156,0.01351));
#575=CARTESIAN_POINT('',(0.1886,-0.0156,0.472864554191488));
#576=CARTESIAN_POINT('',(0.335025,-0.0156,0.472864554191488));
#577=CARTESIAN_POINT('',(0.335025,-0.0904875,0.472864554191488));
#578=CARTESIAN_POINT('',(0.1886,-0.0904875,0.472864554191488));
#579=MECHANICAL_DESIGN_GEOMETRIC_PRESENTATION_REPRESENTATION('',(#343),
#580);
#580=(
GEOMETRIC_REPRESENTATION_CONTEXT(3)
GLOBAL_UNCERTAINTY_ASSIGNED_CONTEXT((#581))
GLOBAL_UNIT_ASSIGNED_CONTEXT((#584,#583,#582))
REPRESENTATION_CONTEXT('TopCaseMidTop','TOP_LEVEL_ASSEMBLY_PART')
);
#581=UNCERTAINTY_MEASURE_WITH_UNIT(LENGTH_MEASURE(1.E-8),#584,
'DISTANCE_ACCURACY_VALUE','Maximum Tolerance applied to model');
#582=(
NAMED_UNIT(*)
SI_UNIT($,.STERADIAN.)
SOLID_ANGLE_UNIT()
);
#583=(
NAMED_UNIT(*)
PLANE_ANGLE_UNIT()
SI_UNIT($,.RADIAN.)
);
#584=(
LENGTH_UNIT()
NAMED_UNIT(*)
SI_UNIT($,.METRE.)
);
#585=PRODUCT_DEFINITION_SHAPE('','',#586);
#586=PRODUCT_DEFINITION('','',#588,#587);
#587=PRODUCT_DEFINITION_CONTEXT('',#594,'design');
#588=PRODUCT_DEFINITION_FORMATION_WITH_SPECIFIED_SOURCE('','',#590,
 .NOT_KNOWN.);
#589=PRODUCT_RELATED_PRODUCT_CATEGORY('','',(#590));
#590=PRODUCT('TopCaseMidTop','TopCaseMidTop','TopCaseMidTop',(#592));
#591=PRODUCT_CATEGORY('','');
#592=PRODUCT_CONTEXT('',#594,'mechanical');
#593=APPLICATION_PROTOCOL_DEFINITION('international standard',
'ap242_managed_model_based_3d_engineering',2020,#594);
#594=APPLICATION_CONTEXT('managed model based 3d engineering');
ENDSEC;
END-ISO-10303-21;
