ISO-10303-21;
HEADER;
/* Generated by software containing ST-Developer
 * from STEP Tools, Inc. (www.steptools.com) 
 */
/* OPTION: using custom renumber hook */

FILE_DESCRIPTION(
/* description */ ('STEP AP242 Edition 2',
'CAx-IF Rec.Pracs.---Representation and Presentation of Product Manufa
cturing Information (PMI)---4.0---2014-10-13',
'CAx-IF Rec.Pracs.---3D Tessellated Geometry---0.4---2014-09-14','2;1',
'CAx-IF Rec.Pracs.---User Defined Attributes---1.5---2016-08-15'),
/* implementation_level */ '2;1');

FILE_NAME(
/* name */ 'Case - TopCaseMidBottom',
/* time_stamp */ '2026-10-05T22:04:30Z',
/* author */ (''),
/* organization */ (''),
/* preprocessor_version */ 'ST-DEVELOPER v20',
/* originating_system */ 'ONSHAPE BY PTC INC, 1.221',
/* authorisation */ '  ');

FILE_SCHEMA (('AP242_MANAGED_MODEL_BASED_3D_ENGINEERING_MIM_LF { 1 0 10303 442 3 1 4 }'));
ENDSEC;

DATA;
#10=SHAPE_REPRESENTATION_RELATIONSHIP('','',#508,#11);
#11=ADVANCED_BREP_SHAPE_REPRESENTATION('',(#506),#842);
#12=CONICAL_SURFACE('',#535,0.0016,0.785398163397448);
#13=CONICAL_SURFACE('',#537,0.0016,0.785398163397448);
#14=LINE('',#720,#61);
#15=LINE('',#723,#62);
#16=LINE('',#725,#63);
#17=LINE('',#727,#64);
#18=LINE('',#729,#65);
#19=LINE('',#732,#66);
#20=LINE('',#733,#67);
#21=LINE('',#735,#68);
#22=LINE('',#738,#69);
#23=LINE('',#739,#70);
#24=LINE('',#743,#71);
#25=LINE('',#747,#72);
#26=LINE('',#750,#73);
#27=LINE('',#751,#74);
#28=LINE('',#755,#75);
#29=LINE('',#759,#76);
#30=LINE('',#761,#77);
#31=LINE('',#763,#78);
#32=LINE('',#765,#79);
#33=LINE('',#768,#80);
#34=LINE('',#769,#81);
#35=LINE('',#771,#82);
#36=LINE('',#774,#83);
#37=LINE('',#775,#84);
#38=LINE('',#785,#85);
#39=LINE('',#793,#86);
#40=LINE('',#795,#87);
#41=LINE('',#797,#88);
#42=LINE('',#799,#89);
#43=LINE('',#801,#90);
#44=LINE('',#803,#91);
#45=LINE('',#805,#92);
#46=LINE('',#807,#93);
#47=LINE('',#809,#94);
#48=LINE('',#811,#95);
#49=LINE('',#816,#96);
#50=LINE('',#820,#97);
#51=LINE('',#822,#98);
#52=LINE('',#824,#99);
#53=LINE('',#826,#100);
#54=LINE('',#828,#101);
#55=LINE('',#829,#102);
#56=LINE('',#831,#103);
#57=LINE('',#833,#104);
#58=LINE('',#835,#105);
#59=LINE('',#837,#106);
#60=LINE('',#838,#107);
#61=VECTOR('',#585,1.);
#62=VECTOR('',#586,1.);
#63=VECTOR('',#587,1.);
#64=VECTOR('',#588,1.);
#65=VECTOR('',#591,1.);
#66=VECTOR('',#592,1.);
#67=VECTOR('',#593,1.);
#68=VECTOR('',#596,1.);
#69=VECTOR('',#597,1.);
#70=VECTOR('',#598,1.);
#71=VECTOR('',#603,1.);
#72=VECTOR('',#608,1.);
#73=VECTOR('',#609,1.);
#74=VECTOR('',#610,1.);
#75=VECTOR('',#615,1.);
#76=VECTOR('',#620,1.);
#77=VECTOR('',#621,1.);
#78=VECTOR('',#622,1.);
#79=VECTOR('',#625,1.);
#80=VECTOR('',#626,1.);
#81=VECTOR('',#627,1.);
#82=VECTOR('',#630,1.);
#83=VECTOR('',#631,1.);
#84=VECTOR('',#632,1.);
#85=VECTOR('',#645,1.);
#86=VECTOR('',#654,1.);
#87=VECTOR('',#657,1.);
#88=VECTOR('',#658,1.);
#89=VECTOR('',#659,1.);
#90=VECTOR('',#662,1.);
#91=VECTOR('',#663,1.);
#92=VECTOR('',#664,1.);
#93=VECTOR('',#667,1.);
#94=VECTOR('',#668,1.);
#95=VECTOR('',#669,1.);
#96=VECTOR('',#674,1.);
#97=VECTOR('',#677,1.);
#98=VECTOR('',#680,1.);
#99=VECTOR('',#681,1.);
#100=VECTOR('',#682,1.);
#101=VECTOR('',#685,1.);
#102=VECTOR('',#686,1.);
#103=VECTOR('',#689,1.);
#104=VECTOR('',#690,1.);
#105=VECTOR('',#691,1.);
#106=VECTOR('',#694,1.);
#107=VECTOR('',#695,1.);
#108=CYLINDRICAL_SURFACE('',#516,0.0016);
#109=CYLINDRICAL_SURFACE('',#518,0.0016);
#110=CYLINDRICAL_SURFACE('',#520,0.0016);
#111=CYLINDRICAL_SURFACE('',#525,0.001);
#112=CYLINDRICAL_SURFACE('',#529,0.001);
#113=CYLINDRICAL_SURFACE('',#539,0.000999999999999959);
#114=CYLINDRICAL_SURFACE('',#542,0.001);
#115=CYLINDRICAL_SURFACE('',#548,0.003);
#116=ORIENTED_EDGE('',*,*,#246,.T.);
#117=ORIENTED_EDGE('',*,*,#247,.T.);
#118=ORIENTED_EDGE('',*,*,#248,.T.);
#119=ORIENTED_EDGE('',*,*,#249,.T.);
#120=ORIENTED_EDGE('',*,*,#246,.F.);
#121=ORIENTED_EDGE('',*,*,#250,.T.);
#122=ORIENTED_EDGE('',*,*,#247,.F.);
#123=ORIENTED_EDGE('',*,*,#248,.F.);
#124=ORIENTED_EDGE('',*,*,#251,.T.);
#125=ORIENTED_EDGE('',*,*,#252,.T.);
#126=ORIENTED_EDGE('',*,*,#253,.T.);
#127=ORIENTED_EDGE('',*,*,#254,.F.);
#128=ORIENTED_EDGE('',*,*,#255,.F.);
#129=ORIENTED_EDGE('',*,*,#256,.T.);
#130=ORIENTED_EDGE('',*,*,#257,.T.);
#131=ORIENTED_EDGE('',*,*,#253,.F.);
#132=ORIENTED_EDGE('',*,*,#258,.F.);
#133=ORIENTED_EDGE('',*,*,#259,.T.);
#134=ORIENTED_EDGE('',*,*,#260,.T.);
#135=ORIENTED_EDGE('',*,*,#256,.F.);
#136=ORIENTED_EDGE('',*,*,#261,.F.);
#137=ORIENTED_EDGE('',*,*,#262,.T.);
#138=ORIENTED_EDGE('',*,*,#263,.T.);
#139=ORIENTED_EDGE('',*,*,#264,.F.);
#140=ORIENTED_EDGE('',*,*,#259,.F.);
#141=ORIENTED_EDGE('',*,*,#265,.T.);
#142=ORIENTED_EDGE('',*,*,#266,.T.);
#143=ORIENTED_EDGE('',*,*,#263,.F.);
#144=ORIENTED_EDGE('',*,*,#267,.F.);
#145=ORIENTED_EDGE('',*,*,#268,.T.);
#146=ORIENTED_EDGE('',*,*,#269,.T.);
#147=ORIENTED_EDGE('',*,*,#270,.F.);
#148=ORIENTED_EDGE('',*,*,#265,.F.);
#149=ORIENTED_EDGE('',*,*,#271,.T.);
#150=ORIENTED_EDGE('',*,*,#272,.T.);
#151=ORIENTED_EDGE('',*,*,#273,.F.);
#152=ORIENTED_EDGE('',*,*,#269,.F.);
#153=ORIENTED_EDGE('',*,*,#274,.T.);
#154=ORIENTED_EDGE('',*,*,#275,.T.);
#155=ORIENTED_EDGE('',*,*,#272,.F.);
#156=ORIENTED_EDGE('',*,*,#276,.F.);
#157=ORIENTED_EDGE('',*,*,#277,.T.);
#158=ORIENTED_EDGE('',*,*,#278,.T.);
#159=ORIENTED_EDGE('',*,*,#274,.F.);
#160=ORIENTED_EDGE('',*,*,#279,.F.);
#161=ORIENTED_EDGE('',*,*,#280,.F.);
#162=ORIENTED_EDGE('',*,*,#249,.F.);
#163=ORIENTED_EDGE('',*,*,#281,.F.);
#164=ORIENTED_EDGE('',*,*,#250,.F.);
#165=ORIENTED_EDGE('',*,*,#282,.T.);
#166=ORIENTED_EDGE('',*,*,#283,.T.);
#167=ORIENTED_EDGE('',*,*,#284,.F.);
#168=ORIENTED_EDGE('',*,*,#277,.F.);
#169=ORIENTED_EDGE('',*,*,#285,.T.);
#170=ORIENTED_EDGE('',*,*,#255,.T.);
#171=ORIENTED_EDGE('',*,*,#286,.F.);
#172=ORIENTED_EDGE('',*,*,#287,.F.);
#173=ORIENTED_EDGE('',*,*,#288,.F.);
#174=ORIENTED_EDGE('',*,*,#289,.T.);
#175=ORIENTED_EDGE('',*,*,#290,.T.);
#176=ORIENTED_EDGE('',*,*,#283,.F.);
#177=ORIENTED_EDGE('',*,*,#291,.T.);
#178=ORIENTED_EDGE('',*,*,#292,.T.);
#179=ORIENTED_EDGE('',*,*,#293,.F.);
#180=ORIENTED_EDGE('',*,*,#287,.T.);
#181=ORIENTED_EDGE('',*,*,#281,.T.);
#182=ORIENTED_EDGE('',*,*,#280,.T.);
#183=ORIENTED_EDGE('',*,*,#293,.T.);
#184=ORIENTED_EDGE('',*,*,#294,.T.);
#185=ORIENTED_EDGE('',*,*,#295,.T.);
#186=ORIENTED_EDGE('',*,*,#296,.T.);
#187=ORIENTED_EDGE('',*,*,#288,.T.);
#188=ORIENTED_EDGE('',*,*,#282,.F.);
#189=ORIENTED_EDGE('',*,*,#279,.T.);
#190=ORIENTED_EDGE('',*,*,#276,.T.);
#191=ORIENTED_EDGE('',*,*,#271,.F.);
#192=ORIENTED_EDGE('',*,*,#268,.F.);
#193=ORIENTED_EDGE('',*,*,#267,.T.);
#194=ORIENTED_EDGE('',*,*,#262,.F.);
#195=ORIENTED_EDGE('',*,*,#261,.T.);
#196=ORIENTED_EDGE('',*,*,#258,.T.);
#197=ORIENTED_EDGE('',*,*,#252,.F.);
#198=ORIENTED_EDGE('',*,*,#285,.F.);
#199=ORIENTED_EDGE('',*,*,#297,.F.);
#200=ORIENTED_EDGE('',*,*,#298,.F.);
#201=ORIENTED_EDGE('',*,*,#299,.F.);
#202=ORIENTED_EDGE('',*,*,#300,.F.);
#203=ORIENTED_EDGE('',*,*,#301,.F.);
#204=ORIENTED_EDGE('',*,*,#300,.T.);
#205=ORIENTED_EDGE('',*,*,#302,.F.);
#206=ORIENTED_EDGE('',*,*,#303,.F.);
#207=ORIENTED_EDGE('',*,*,#304,.F.);
#208=ORIENTED_EDGE('',*,*,#303,.T.);
#209=ORIENTED_EDGE('',*,*,#305,.F.);
#210=ORIENTED_EDGE('',*,*,#295,.F.);
#211=ORIENTED_EDGE('',*,*,#251,.F.);
#212=ORIENTED_EDGE('',*,*,#306,.F.);
#213=ORIENTED_EDGE('',*,*,#291,.F.);
#214=ORIENTED_EDGE('',*,*,#286,.T.);
#215=ORIENTED_EDGE('',*,*,#254,.T.);
#216=ORIENTED_EDGE('',*,*,#257,.F.);
#217=ORIENTED_EDGE('',*,*,#260,.F.);
#218=ORIENTED_EDGE('',*,*,#264,.T.);
#219=ORIENTED_EDGE('',*,*,#266,.F.);
#220=ORIENTED_EDGE('',*,*,#270,.T.);
#221=ORIENTED_EDGE('',*,*,#273,.T.);
#222=ORIENTED_EDGE('',*,*,#275,.F.);
#223=ORIENTED_EDGE('',*,*,#278,.F.);
#224=ORIENTED_EDGE('',*,*,#284,.T.);
#225=ORIENTED_EDGE('',*,*,#290,.F.);
#226=ORIENTED_EDGE('',*,*,#307,.F.);
#227=ORIENTED_EDGE('',*,*,#308,.F.);
#228=ORIENTED_EDGE('',*,*,#298,.T.);
#229=ORIENTED_EDGE('',*,*,#309,.T.);
#230=ORIENTED_EDGE('',*,*,#308,.T.);
#231=ORIENTED_EDGE('',*,*,#310,.F.);
#232=ORIENTED_EDGE('',*,*,#296,.F.);
#233=ORIENTED_EDGE('',*,*,#305,.T.);
#234=ORIENTED_EDGE('',*,*,#302,.T.);
#235=ORIENTED_EDGE('',*,*,#299,.T.);
#236=ORIENTED_EDGE('',*,*,#310,.T.);
#237=ORIENTED_EDGE('',*,*,#307,.T.);
#238=ORIENTED_EDGE('',*,*,#289,.F.);
#239=ORIENTED_EDGE('',*,*,#306,.T.);
#240=ORIENTED_EDGE('',*,*,#309,.F.);
#241=ORIENTED_EDGE('',*,*,#297,.T.);
#242=ORIENTED_EDGE('',*,*,#301,.T.);
#243=ORIENTED_EDGE('',*,*,#304,.T.);
#244=ORIENTED_EDGE('',*,*,#294,.F.);
#245=ORIENTED_EDGE('',*,*,#292,.F.);
#246=EDGE_CURVE('',#311,#311,#357,.T.);
#247=EDGE_CURVE('',#312,#312,#358,.T.);
#248=EDGE_CURVE('',#313,#313,#359,.T.);
#249=EDGE_CURVE('',#314,#314,#360,.F.);
#250=EDGE_CURVE('',#315,#315,#361,.F.);
#251=EDGE_CURVE('',#316,#316,#362,.T.);
#252=EDGE_CURVE('',#317,#318,#14,.T.);
#253=EDGE_CURVE('',#318,#319,#15,.T.);
#254=EDGE_CURVE('',#320,#319,#16,.T.);
#255=EDGE_CURVE('',#317,#320,#17,.T.);
#256=EDGE_CURVE('',#321,#322,#18,.T.);
#257=EDGE_CURVE('',#322,#319,#19,.T.);
#258=EDGE_CURVE('',#321,#318,#20,.T.);
#259=EDGE_CURVE('',#323,#324,#21,.T.);
#260=EDGE_CURVE('',#324,#322,#22,.T.);
#261=EDGE_CURVE('',#323,#321,#23,.T.);
#262=EDGE_CURVE('',#323,#325,#363,.F.);
#263=EDGE_CURVE('',#325,#326,#24,.T.);
#264=EDGE_CURVE('',#324,#326,#364,.T.);
#265=EDGE_CURVE('',#327,#328,#25,.T.);
#266=EDGE_CURVE('',#328,#326,#26,.T.);
#267=EDGE_CURVE('',#327,#325,#27,.T.);
#268=EDGE_CURVE('',#327,#329,#365,.F.);
#269=EDGE_CURVE('',#329,#330,#28,.T.);
#270=EDGE_CURVE('',#328,#330,#366,.T.);
#271=EDGE_CURVE('',#329,#331,#29,.T.);
#272=EDGE_CURVE('',#331,#332,#30,.T.);
#273=EDGE_CURVE('',#330,#332,#31,.T.);
#274=EDGE_CURVE('',#333,#334,#32,.T.);
#275=EDGE_CURVE('',#334,#332,#33,.T.);
#276=EDGE_CURVE('',#333,#331,#34,.T.);
#277=EDGE_CURVE('',#335,#336,#35,.T.);
#278=EDGE_CURVE('',#336,#334,#36,.T.);
#279=EDGE_CURVE('',#335,#333,#37,.T.);
#280=EDGE_CURVE('',#337,#337,#367,.T.);
#281=EDGE_CURVE('',#338,#338,#368,.T.);
#282=EDGE_CURVE('',#335,#339,#369,.F.);
#283=EDGE_CURVE('',#339,#340,#38,.T.);
#284=EDGE_CURVE('',#336,#340,#370,.T.);
#285=EDGE_CURVE('',#341,#317,#371,.F.);
#286=EDGE_CURVE('',#342,#320,#372,.T.);
#287=EDGE_CURVE('',#341,#342,#39,.T.);
#288=EDGE_CURVE('',#343,#339,#40,.T.);
#289=EDGE_CURVE('',#343,#344,#41,.T.);
#290=EDGE_CURVE('',#344,#340,#42,.T.);
#291=EDGE_CURVE('',#342,#345,#43,.T.);
#292=EDGE_CURVE('',#345,#346,#44,.T.);
#293=EDGE_CURVE('',#341,#346,#45,.T.);
#294=EDGE_CURVE('',#346,#347,#46,.T.);
#295=EDGE_CURVE('',#347,#348,#47,.T.);
#296=EDGE_CURVE('',#348,#343,#48,.T.);
#297=EDGE_CURVE('',#349,#350,#373,.F.);
#298=EDGE_CURVE('',#351,#349,#49,.F.);
#299=EDGE_CURVE('',#352,#351,#374,.F.);
#300=EDGE_CURVE('',#350,#352,#50,.T.);
#301=EDGE_CURVE('',#350,#353,#51,.T.);
#302=EDGE_CURVE('',#354,#352,#52,.T.);
#303=EDGE_CURVE('',#353,#354,#53,.T.);
#304=EDGE_CURVE('',#353,#347,#54,.T.);
#305=EDGE_CURVE('',#348,#354,#55,.T.);
#306=EDGE_CURVE('',#345,#355,#56,.F.);
#307=EDGE_CURVE('',#356,#344,#57,.T.);
#308=EDGE_CURVE('',#355,#356,#58,.T.);
#309=EDGE_CURVE('',#349,#355,#59,.T.);
#310=EDGE_CURVE('',#351,#356,#60,.T.);
#311=VERTEX_POINT('',#703);
#312=VERTEX_POINT('',#706);
#313=VERTEX_POINT('',#709);
#314=VERTEX_POINT('',#712);
#315=VERTEX_POINT('',#715);
#316=VERTEX_POINT('',#718);
#317=VERTEX_POINT('',#721);
#318=VERTEX_POINT('',#722);
#319=VERTEX_POINT('',#724);
#320=VERTEX_POINT('',#726);
#321=VERTEX_POINT('',#730);
#322=VERTEX_POINT('',#731);
#323=VERTEX_POINT('',#736);
#324=VERTEX_POINT('',#737);
#325=VERTEX_POINT('',#742);
#326=VERTEX_POINT('',#744);
#327=VERTEX_POINT('',#748);
#328=VERTEX_POINT('',#749);
#329=VERTEX_POINT('',#754);
#330=VERTEX_POINT('',#756);
#331=VERTEX_POINT('',#760);
#332=VERTEX_POINT('',#762);
#333=VERTEX_POINT('',#766);
#334=VERTEX_POINT('',#767);
#335=VERTEX_POINT('',#772);
#336=VERTEX_POINT('',#773);
#337=VERTEX_POINT('',#778);
#338=VERTEX_POINT('',#781);
#339=VERTEX_POINT('',#784);
#340=VERTEX_POINT('',#786);
#341=VERTEX_POINT('',#790);
#342=VERTEX_POINT('',#792);
#343=VERTEX_POINT('',#796);
#344=VERTEX_POINT('',#798);
#345=VERTEX_POINT('',#802);
#346=VERTEX_POINT('',#804);
#347=VERTEX_POINT('',#808);
#348=VERTEX_POINT('',#810);
#349=VERTEX_POINT('',#814);
#350=VERTEX_POINT('',#815);
#351=VERTEX_POINT('',#817);
#352=VERTEX_POINT('',#819);
#353=VERTEX_POINT('',#823);
#354=VERTEX_POINT('',#825);
#355=VERTEX_POINT('',#832);
#356=VERTEX_POINT('',#834);
#357=CIRCLE('',#511,0.0016);
#358=CIRCLE('',#513,0.0016);
#359=CIRCLE('',#515,0.0016);
#360=CIRCLE('',#517,0.0016);
#361=CIRCLE('',#519,0.0016);
#362=CIRCLE('',#521,0.0016);
#363=CIRCLE('',#526,0.001);
#364=CIRCLE('',#527,0.001);
#365=CIRCLE('',#530,0.001);
#366=CIRCLE('',#531,0.001);
#367=CIRCLE('',#536,0.0021);
#368=CIRCLE('',#538,0.0021);
#369=CIRCLE('',#540,0.000999999999999959);
#370=CIRCLE('',#541,0.000999999999999959);
#371=CIRCLE('',#543,0.001);
#372=CIRCLE('',#544,0.001);
#373=CIRCLE('',#549,0.003);
#374=CIRCLE('',#550,0.003);
#375=EDGE_LOOP('',(#116));
#376=EDGE_LOOP('',(#117));
#377=EDGE_LOOP('',(#118));
#378=EDGE_LOOP('',(#119));
#379=EDGE_LOOP('',(#120));
#380=EDGE_LOOP('',(#121));
#381=EDGE_LOOP('',(#122));
#382=EDGE_LOOP('',(#123));
#383=EDGE_LOOP('',(#124));
#384=EDGE_LOOP('',(#125,#126,#127,#128));
#385=EDGE_LOOP('',(#129,#130,#131,#132));
#386=EDGE_LOOP('',(#133,#134,#135,#136));
#387=EDGE_LOOP('',(#137,#138,#139,#140));
#388=EDGE_LOOP('',(#141,#142,#143,#144));
#389=EDGE_LOOP('',(#145,#146,#147,#148));
#390=EDGE_LOOP('',(#149,#150,#151,#152));
#391=EDGE_LOOP('',(#153,#154,#155,#156));
#392=EDGE_LOOP('',(#157,#158,#159,#160));
#393=EDGE_LOOP('',(#161));
#394=EDGE_LOOP('',(#162));
#395=EDGE_LOOP('',(#163));
#396=EDGE_LOOP('',(#164));
#397=EDGE_LOOP('',(#165,#166,#167,#168));
#398=EDGE_LOOP('',(#169,#170,#171,#172));
#399=EDGE_LOOP('',(#173,#174,#175,#176));
#400=EDGE_LOOP('',(#177,#178,#179,#180));
#401=EDGE_LOOP('',(#181));
#402=EDGE_LOOP('',(#182));
#403=EDGE_LOOP('',(#183,#184,#185,#186,#187,#188,#189,#190,#191,#192,#193,
#194,#195,#196,#197,#198));
#404=EDGE_LOOP('',(#199,#200,#201,#202));
#405=EDGE_LOOP('',(#203,#204,#205,#206));
#406=EDGE_LOOP('',(#207,#208,#209,#210));
#407=EDGE_LOOP('',(#211));
#408=EDGE_LOOP('',(#212,#213,#214,#215,#216,#217,#218,#219,#220,#221,#222,
#223,#224,#225,#226,#227));
#409=EDGE_LOOP('',(#228,#229,#230,#231));
#410=EDGE_LOOP('',(#232,#233,#234,#235,#236,#237,#238));
#411=EDGE_LOOP('',(#239,#240,#241,#242,#243,#244,#245));
#412=FACE_BOUND('',#375,.T.);
#413=FACE_BOUND('',#376,.T.);
#414=FACE_BOUND('',#377,.T.);
#415=FACE_BOUND('',#378,.T.);
#416=FACE_BOUND('',#379,.T.);
#417=FACE_BOUND('',#380,.T.);
#418=FACE_BOUND('',#381,.T.);
#419=FACE_BOUND('',#382,.T.);
#420=FACE_BOUND('',#383,.T.);
#421=FACE_BOUND('',#384,.T.);
#422=FACE_BOUND('',#385,.T.);
#423=FACE_BOUND('',#386,.T.);
#424=FACE_BOUND('',#387,.T.);
#425=FACE_BOUND('',#388,.T.);
#426=FACE_BOUND('',#389,.T.);
#427=FACE_BOUND('',#390,.T.);
#428=FACE_BOUND('',#391,.T.);
#429=FACE_BOUND('',#392,.T.);
#430=FACE_BOUND('',#393,.T.);
#431=FACE_BOUND('',#394,.T.);
#432=FACE_BOUND('',#395,.T.);
#433=FACE_BOUND('',#396,.T.);
#434=FACE_BOUND('',#397,.T.);
#435=FACE_BOUND('',#398,.T.);
#436=FACE_BOUND('',#399,.T.);
#437=FACE_BOUND('',#400,.T.);
#438=FACE_BOUND('',#401,.T.);
#439=FACE_BOUND('',#402,.T.);
#440=FACE_BOUND('',#403,.T.);
#441=FACE_BOUND('',#404,.T.);
#442=FACE_BOUND('',#405,.T.);
#443=FACE_BOUND('',#406,.T.);
#444=FACE_BOUND('',#407,.T.);
#445=FACE_BOUND('',#408,.T.);
#446=FACE_BOUND('',#409,.T.);
#447=FACE_BOUND('',#410,.T.);
#448=FACE_BOUND('',#411,.T.);
#449=PLANE('',#510);
#450=PLANE('',#512);
#451=PLANE('',#514);
#452=PLANE('',#522);
#453=PLANE('',#523);
#454=PLANE('',#524);
#455=PLANE('',#528);
#456=PLANE('',#532);
#457=PLANE('',#533);
#458=PLANE('',#534);
#459=PLANE('',#545);
#460=PLANE('',#546);
#461=PLANE('',#547);
#462=PLANE('',#551);
#463=PLANE('',#552);
#464=PLANE('',#553);
#465=PLANE('',#554);
#466=PLANE('',#555);
#467=PLANE('',#556);
#468=ADVANCED_FACE('',(#412),#449,.T.);
#469=ADVANCED_FACE('',(#413),#450,.T.);
#470=ADVANCED_FACE('',(#414),#451,.T.);
#471=ADVANCED_FACE('',(#415,#416),#108,.F.);
#472=ADVANCED_FACE('',(#417,#418),#109,.F.);
#473=ADVANCED_FACE('',(#419,#420),#110,.F.);
#474=ADVANCED_FACE('',(#421),#452,.T.);
#475=ADVANCED_FACE('',(#422),#453,.F.);
#476=ADVANCED_FACE('',(#423),#454,.F.);
#477=ADVANCED_FACE('',(#424),#111,.T.);
#478=ADVANCED_FACE('',(#425),#455,.F.);
#479=ADVANCED_FACE('',(#426),#112,.T.);
#480=ADVANCED_FACE('',(#427),#456,.T.);
#481=ADVANCED_FACE('',(#428),#457,.F.);
#482=ADVANCED_FACE('',(#429),#458,.F.);
#483=ADVANCED_FACE('',(#430,#431),#12,.F.);
#484=ADVANCED_FACE('',(#432,#433),#13,.F.);
#485=ADVANCED_FACE('',(#434),#113,.T.);
#486=ADVANCED_FACE('',(#435),#114,.T.);
#487=ADVANCED_FACE('',(#436),#459,.F.);
#488=ADVANCED_FACE('',(#437),#460,.F.);
#489=ADVANCED_FACE('',(#438,#439,#440),#461,.F.);
#490=ADVANCED_FACE('',(#441),#115,.T.);
#491=ADVANCED_FACE('',(#442),#462,.T.);
#492=ADVANCED_FACE('',(#443),#463,.T.);
#493=ADVANCED_FACE('',(#444,#445),#464,.F.);
#494=ADVANCED_FACE('',(#446),#465,.F.);
#495=ADVANCED_FACE('',(#447),#466,.F.);
#496=ADVANCED_FACE('',(#448),#467,.F.);
#497=CLOSED_SHELL('',(#468,#469,#470,#471,#472,#473,#474,#475,#476,#477,
#478,#479,#480,#481,#482,#483,#484,#485,#486,#487,#488,#489,#490,#491,#492,
#493,#494,#495,#496));
#498=STYLED_ITEM('',(#499),#506);
#499=PRESENTATION_STYLE_ASSIGNMENT((#500));
#500=SURFACE_STYLE_USAGE(.BOTH.,#501);
#501=SURFACE_SIDE_STYLE('',(#502));
#502=SURFACE_STYLE_FILL_AREA(#503);
#503=FILL_AREA_STYLE('',(#504));
#504=FILL_AREA_STYLE_COLOUR('',#505);
#505=COLOUR_RGB('',0.647058823529412,0.647058823529412,0.647058823529412);
#506=MANIFOLD_SOLID_BREP('TopCaseMidBottom',#497);
#507=SHAPE_DEFINITION_REPRESENTATION(#847,#508);
#508=SHAPE_REPRESENTATION('TopCaseMidBottom',(#509),#842);
#509=AXIS2_PLACEMENT_3D('',#700,#557,#558);
#510=AXIS2_PLACEMENT_3D('',#701,#559,#560);
#511=AXIS2_PLACEMENT_3D('',#702,#561,#562);
#512=AXIS2_PLACEMENT_3D('',#704,#563,#564);
#513=AXIS2_PLACEMENT_3D('',#705,#565,#566);
#514=AXIS2_PLACEMENT_3D('',#707,#567,#568);
#515=AXIS2_PLACEMENT_3D('',#708,#569,#570);
#516=AXIS2_PLACEMENT_3D('',#710,#571,#572);
#517=AXIS2_PLACEMENT_3D('',#711,#573,#574);
#518=AXIS2_PLACEMENT_3D('',#713,#575,#576);
#519=AXIS2_PLACEMENT_3D('',#714,#577,#578);
#520=AXIS2_PLACEMENT_3D('',#716,#579,#580);
#521=AXIS2_PLACEMENT_3D('',#717,#581,#582);
#522=AXIS2_PLACEMENT_3D('',#719,#583,#584);
#523=AXIS2_PLACEMENT_3D('',#728,#589,#590);
#524=AXIS2_PLACEMENT_3D('',#734,#594,#595);
#525=AXIS2_PLACEMENT_3D('',#740,#599,#600);
#526=AXIS2_PLACEMENT_3D('',#741,#601,#602);
#527=AXIS2_PLACEMENT_3D('',#745,#604,#605);
#528=AXIS2_PLACEMENT_3D('',#746,#606,#607);
#529=AXIS2_PLACEMENT_3D('',#752,#611,#612);
#530=AXIS2_PLACEMENT_3D('',#753,#613,#614);
#531=AXIS2_PLACEMENT_3D('',#757,#616,#617);
#532=AXIS2_PLACEMENT_3D('',#758,#618,#619);
#533=AXIS2_PLACEMENT_3D('',#764,#623,#624);
#534=AXIS2_PLACEMENT_3D('',#770,#628,#629);
#535=AXIS2_PLACEMENT_3D('',#776,#633,#634);
#536=AXIS2_PLACEMENT_3D('',#777,#635,#636);
#537=AXIS2_PLACEMENT_3D('',#779,#637,#638);
#538=AXIS2_PLACEMENT_3D('',#780,#639,#640);
#539=AXIS2_PLACEMENT_3D('',#782,#641,#642);
#540=AXIS2_PLACEMENT_3D('',#783,#643,#644);
#541=AXIS2_PLACEMENT_3D('',#787,#646,#647);
#542=AXIS2_PLACEMENT_3D('',#788,#648,#649);
#543=AXIS2_PLACEMENT_3D('',#789,#650,#651);
#544=AXIS2_PLACEMENT_3D('',#791,#652,#653);
#545=AXIS2_PLACEMENT_3D('',#794,#655,#656);
#546=AXIS2_PLACEMENT_3D('',#800,#660,#661);
#547=AXIS2_PLACEMENT_3D('',#806,#665,#666);
#548=AXIS2_PLACEMENT_3D('',#812,#670,#671);
#549=AXIS2_PLACEMENT_3D('',#813,#672,#673);
#550=AXIS2_PLACEMENT_3D('',#818,#675,#676);
#551=AXIS2_PLACEMENT_3D('',#821,#678,#679);
#552=AXIS2_PLACEMENT_3D('',#827,#683,#684);
#553=AXIS2_PLACEMENT_3D('',#830,#687,#688);
#554=AXIS2_PLACEMENT_3D('',#836,#692,#693);
#555=AXIS2_PLACEMENT_3D('',#839,#696,#697);
#556=AXIS2_PLACEMENT_3D('',#840,#698,#699);
#557=DIRECTION('',(0.,0.,1.));
#558=DIRECTION('',(1.,0.,0.));
#559=DIRECTION('',(0.,0.,-1.));
#560=DIRECTION('',(1.,0.,0.));
#561=DIRECTION('',(0.,0.,-1.));
#562=DIRECTION('',(-1.,0.,0.));
#563=DIRECTION('',(0.,0.,-1.));
#564=DIRECTION('',(1.,0.,0.));
#565=DIRECTION('',(0.,0.,-1.));
#566=DIRECTION('',(-1.,0.,0.));
#567=DIRECTION('',(0.,0.,-1.));
#568=DIRECTION('',(1.,0.,0.));
#569=DIRECTION('',(0.,0.,-1.));
#570=DIRECTION('',(-1.,0.,0.));
#571=DIRECTION('',(0.,0.,-1.));
#572=DIRECTION('',(-1.,0.,0.));
#573=DIRECTION('',(0.,0.,1.));
#574=DIRECTION('',(1.,0.,0.));
#575=DIRECTION('',(0.,0.,-1.));
#576=DIRECTION('',(-1.,0.,0.));
#577=DIRECTION('',(0.,0.,1.));
#578=DIRECTION('',(1.,0.,0.));
#579=DIRECTION('',(0.,0.,-1.));
#580=DIRECTION('',(-1.,0.,0.));
#581=DIRECTION('',(0.,0.,-1.));
#582=DIRECTION('',(-1.,0.,0.));
#583=DIRECTION('',(1.,0.,0.));
#584=DIRECTION('',(0.,0.,-1.));
#585=DIRECTION('',(0.,-1.,0.));
#586=DIRECTION('',(0.,0.,-1.));
#587=DIRECTION('',(0.,-1.,0.));
#588=DIRECTION('',(0.,0.,-1.));
#589=DIRECTION('',(0.,-1.,0.));
#590=DIRECTION('',(0.,0.,-1.));
#591=DIRECTION('',(0.,0.,-1.));
#592=DIRECTION('',(-1.,0.,0.));
#593=DIRECTION('',(-1.,0.,0.));
#594=DIRECTION('',(1.,0.,0.));
#595=DIRECTION('',(0.,0.,-1.));
#596=DIRECTION('',(0.,0.,-1.));
#597=DIRECTION('',(0.,-1.,0.));
#598=DIRECTION('',(0.,-1.,0.));
#599=DIRECTION('',(0.,0.,-1.));
#600=DIRECTION('',(-1.,0.,0.));
#601=DIRECTION('',(0.,0.,1.));
#602=DIRECTION('',(1.,0.,0.));
#603=DIRECTION('',(0.,0.,-1.));
#604=DIRECTION('',(0.,0.,-1.));
#605=DIRECTION('',(-1.,0.,0.));
#606=DIRECTION('',(0.,-1.,0.));
#607=DIRECTION('',(0.,0.,-1.));
#608=DIRECTION('',(0.,0.,-1.));
#609=DIRECTION('',(-1.,0.,0.));
#610=DIRECTION('',(-1.,0.,0.));
#611=DIRECTION('',(0.,0.,-1.));
#612=DIRECTION('',(-1.,0.,0.));
#613=DIRECTION('',(0.,0.,1.));
#614=DIRECTION('',(1.,0.,0.));
#615=DIRECTION('',(0.,0.,-1.));
#616=DIRECTION('',(0.,0.,-1.));
#617=DIRECTION('',(-1.,0.,0.));
#618=DIRECTION('',(1.,0.,0.));
#619=DIRECTION('',(0.,0.,-1.));
#620=DIRECTION('',(0.,-1.,0.));
#621=DIRECTION('',(0.,0.,-1.));
#622=DIRECTION('',(0.,-1.,0.));
#623=DIRECTION('',(0.,-1.,0.));
#624=DIRECTION('',(0.,0.,-1.));
#625=DIRECTION('',(0.,0.,-1.));
#626=DIRECTION('',(-1.,0.,0.));
#627=DIRECTION('',(-1.,0.,0.));
#628=DIRECTION('',(1.,0.,0.));
#629=DIRECTION('',(0.,0.,-1.));
#630=DIRECTION('',(0.,0.,-1.));
#631=DIRECTION('',(0.,-1.,0.));
#632=DIRECTION('',(0.,-1.,0.));
#633=DIRECTION('',(0.,0.,-1.));
#634=DIRECTION('',(-1.,0.,0.));
#635=DIRECTION('',(0.,0.,1.));
#636=DIRECTION('',(1.,0.,0.));
#637=DIRECTION('',(0.,0.,-1.));
#638=DIRECTION('',(-1.,0.,0.));
#639=DIRECTION('',(0.,0.,1.));
#640=DIRECTION('',(1.,0.,0.));
#641=DIRECTION('',(0.,0.,-1.));
#642=DIRECTION('',(-1.,0.,0.));
#643=DIRECTION('',(0.,0.,1.));
#644=DIRECTION('',(1.,0.,0.));
#645=DIRECTION('',(0.,0.,-1.));
#646=DIRECTION('',(0.,0.,-1.));
#647=DIRECTION('',(-1.,0.,0.));
#648=DIRECTION('',(0.,0.,-1.));
#649=DIRECTION('',(-1.,0.,0.));
#650=DIRECTION('',(0.,0.,1.));
#651=DIRECTION('',(1.,0.,0.));
#652=DIRECTION('',(0.,0.,-1.));
#653=DIRECTION('',(-1.,0.,0.));
#654=DIRECTION('',(0.,0.,-1.));
#655=DIRECTION('',(0.,-1.,0.));
#656=DIRECTION('',(0.,0.,-1.));
#657=DIRECTION('',(-1.,0.,0.));
#658=DIRECTION('',(0.,0.,-1.));
#659=DIRECTION('',(-1.,0.,0.));
#660=DIRECTION('',(0.,-1.,0.));
#661=DIRECTION('',(0.,0.,-1.));
#662=DIRECTION('',(-1.,0.,0.));
#663=DIRECTION('',(0.,0.,1.));
#664=DIRECTION('',(-1.,0.,0.));
#665=DIRECTION('',(0.,0.,1.));
#666=DIRECTION('',(1.,0.,0.));
#667=DIRECTION('',(-6.08842551727161E-17,1.,0.));
#668=DIRECTION('',(1.,1.2892330309762E-16,0.));
#669=DIRECTION('',(6.08842551727161E-17,-1.,0.));
#670=DIRECTION('',(-1.,-1.22116595130084E-16,0.));
#671=DIRECTION('',(1.22116595130084E-16,-1.,0.));
#672=DIRECTION('',(1.,6.08842551727161E-17,0.));
#673=DIRECTION('',(-6.08842551727161E-17,1.,0.));
#674=DIRECTION('',(1.,1.22116595130084E-16,0.));
#675=DIRECTION('',(-1.,-6.08842551727161E-17,0.));
#676=DIRECTION('',(6.08842551727161E-17,-1.,0.));
#677=DIRECTION('',(1.,1.22116595130084E-16,0.));
#678=DIRECTION('',(0.,0.,1.));
#679=DIRECTION('',(1.,0.,0.));
#680=DIRECTION('',(-6.08842551727161E-17,1.,0.));
#681=DIRECTION('',(6.08842551727161E-17,-1.,0.));
#682=DIRECTION('',(1.,1.2892330309762E-16,0.));
#683=DIRECTION('',(-1.2892330309762E-16,1.,0.));
#684=DIRECTION('',(-1.,-1.2892330309762E-16,0.));
#685=DIRECTION('',(0.,0.,-1.));
#686=DIRECTION('',(0.,0.,1.));
#687=DIRECTION('',(0.,0.,1.));
#688=DIRECTION('',(1.,0.,0.));
#689=DIRECTION('',(-6.08842551727161E-17,1.,0.));
#690=DIRECTION('',(-6.08842551727161E-17,1.,0.));
#691=DIRECTION('',(1.,1.22116595130084E-16,0.));
#692=DIRECTION('',(-1.22116595130084E-16,1.,0.));
#693=DIRECTION('',(-1.,-1.22116595130084E-16,0.));
#694=DIRECTION('',(0.,0.,-1.));
#695=DIRECTION('',(0.,0.,-1.));
#696=DIRECTION('',(-1.,-6.08842551727161E-17,0.));
#697=DIRECTION('',(6.08842551727161E-17,-1.,0.));
#698=DIRECTION('',(1.,6.08842551727161E-17,0.));
#699=DIRECTION('',(-6.08842551727161E-17,1.,0.));
#700=CARTESIAN_POINT('',(0.,0.,0.));
#701=CARTESIAN_POINT('',(0.2425,-0.09,0.01151));
#702=CARTESIAN_POINT('',(0.315515625,-0.16,0.01151));
#703=CARTESIAN_POINT('',(0.313915625,-0.16,0.01151));
#704=CARTESIAN_POINT('',(0.2425,-0.09,0.01151));
#705=CARTESIAN_POINT('',(0.2428875,-0.16,0.01151));
#706=CARTESIAN_POINT('',(0.2412875,-0.16,0.01151));
#707=CARTESIAN_POINT('',(0.2428875,-0.0904875,-0.00249));
#708=CARTESIAN_POINT('',(0.2978,-0.1616875,-0.00249));
#709=CARTESIAN_POINT('',(0.2962,-0.1616875,-0.00249));
#710=CARTESIAN_POINT('',(0.315515625,-0.16,0.01151));
#711=CARTESIAN_POINT('',(0.315515625,-0.16,0.00701));
#712=CARTESIAN_POINT('',(0.317115625,-0.16,0.00701));
#713=CARTESIAN_POINT('',(0.2428875,-0.16,0.01151));
#714=CARTESIAN_POINT('',(0.2428875,-0.16,0.00701));
#715=CARTESIAN_POINT('',(0.2444875,-0.16,0.00701));
#716=CARTESIAN_POINT('',(0.2978,-0.1616875,-0.00249));
#717=CARTESIAN_POINT('',(0.2978,-0.1616875,-0.00749));
#718=CARTESIAN_POINT('',(0.2962,-0.1616875,-0.00749));
#719=CARTESIAN_POINT('',(0.2358875,-0.1615,0.006512));
#720=CARTESIAN_POINT('',(0.2358875,-0.1615,0.00651));
#721=CARTESIAN_POINT('',(0.2358875,-0.159,0.00651));
#722=CARTESIAN_POINT('',(0.2358875,-0.164,0.00651));
#723=CARTESIAN_POINT('',(0.2358875,-0.164,0.006512));
#724=CARTESIAN_POINT('',(0.2358875,-0.164,-0.00749));
#725=CARTESIAN_POINT('',(0.2358875,-0.1615,-0.00749));
#726=CARTESIAN_POINT('',(0.2358875,-0.159,-0.00749));
#727=CARTESIAN_POINT('',(0.2358875,-0.159,0.006512));
#728=CARTESIAN_POINT('',(0.2428875,-0.164,0.006512));
#729=CARTESIAN_POINT('',(0.2498875,-0.164,0.006512));
#730=CARTESIAN_POINT('',(0.2498875,-0.164,0.00651));
#731=CARTESIAN_POINT('',(0.2498875,-0.164,-0.00749));
#732=CARTESIAN_POINT('',(0.2428875,-0.164,-0.00749));
#733=CARTESIAN_POINT('',(0.2428875,-0.164,0.00651));
#734=CARTESIAN_POINT('',(0.2498875,-0.1615,0.006512));
#735=CARTESIAN_POINT('',(0.2498875,-0.159,0.006512));
#736=CARTESIAN_POINT('',(0.2498875,-0.159,0.00651));
#737=CARTESIAN_POINT('',(0.2498875,-0.159,-0.00749));
#738=CARTESIAN_POINT('',(0.2498875,-0.1615,-0.00749));
#739=CARTESIAN_POINT('',(0.2498875,-0.1615,0.00651));
#740=CARTESIAN_POINT('',(0.2508875,-0.159,0.006512));
#741=CARTESIAN_POINT('',(0.2508875,-0.159,0.00651));
#742=CARTESIAN_POINT('',(0.2508875,-0.158,0.00651));
#743=CARTESIAN_POINT('',(0.2508875,-0.158,0.006512));
#744=CARTESIAN_POINT('',(0.2508875,-0.158,-0.00749));
#745=CARTESIAN_POINT('',(0.2508875,-0.159,-0.00749));
#746=CARTESIAN_POINT('',(0.2792015625,-0.158,0.006512));
#747=CARTESIAN_POINT('',(0.307515625,-0.158,0.006512));
#748=CARTESIAN_POINT('',(0.307515625,-0.158,0.00651));
#749=CARTESIAN_POINT('',(0.307515625,-0.158,-0.00749));
#750=CARTESIAN_POINT('',(0.2792015625,-0.158,-0.00749));
#751=CARTESIAN_POINT('',(0.2792015625,-0.158,0.00651));
#752=CARTESIAN_POINT('',(0.307515625,-0.159,0.006512));
#753=CARTESIAN_POINT('',(0.307515625,-0.159,0.00651));
#754=CARTESIAN_POINT('',(0.308515625,-0.159,0.00651));
#755=CARTESIAN_POINT('',(0.308515625,-0.159,0.006512));
#756=CARTESIAN_POINT('',(0.308515625,-0.159,-0.00749));
#757=CARTESIAN_POINT('',(0.307515625,-0.159,-0.00749));
#758=CARTESIAN_POINT('',(0.308515625,-0.1615,0.006512));
#759=CARTESIAN_POINT('',(0.308515625,-0.1615,0.00651));
#760=CARTESIAN_POINT('',(0.308515625,-0.164,0.00651));
#761=CARTESIAN_POINT('',(0.308515625,-0.164,0.006512));
#762=CARTESIAN_POINT('',(0.308515625,-0.164,-0.00749));
#763=CARTESIAN_POINT('',(0.308515625,-0.1615,-0.00749));
#764=CARTESIAN_POINT('',(0.315515625,-0.164,0.006512));
#765=CARTESIAN_POINT('',(0.322515625,-0.164,0.006512));
#766=CARTESIAN_POINT('',(0.322515625,-0.164,0.00651));
#767=CARTESIAN_POINT('',(0.322515625,-0.164,-0.00749));
#768=CARTESIAN_POINT('',(0.315515625,-0.164,-0.00749));
#769=CARTESIAN_POINT('',(0.315515625,-0.164,0.00651));
#770=CARTESIAN_POINT('',(0.322515625,-0.1615,0.006512));
#771=CARTESIAN_POINT('',(0.322515625,-0.159,0.006512));
#772=CARTESIAN_POINT('',(0.322515625,-0.159,0.00651));
#773=CARTESIAN_POINT('',(0.322515625,-0.159,-0.00749));
#774=CARTESIAN_POINT('',(0.322515625,-0.1615,-0.00749));
#775=CARTESIAN_POINT('',(0.322515625,-0.1615,0.00651));
#776=CARTESIAN_POINT('',(0.315515625,-0.16,0.00701));
#777=CARTESIAN_POINT('',(0.315515625,-0.16,0.00651));
#778=CARTESIAN_POINT('',(0.317615625,-0.16,0.00651));
#779=CARTESIAN_POINT('',(0.2428875,-0.16,0.00701));
#780=CARTESIAN_POINT('',(0.2428875,-0.16,0.00651));
#781=CARTESIAN_POINT('',(0.2449875,-0.16,0.00651));
#782=CARTESIAN_POINT('',(0.323515625,-0.159,0.006512));
#783=CARTESIAN_POINT('',(0.323515625,-0.159,0.00651));
#784=CARTESIAN_POINT('',(0.323515625,-0.158,0.00651));
#785=CARTESIAN_POINT('',(0.323515625,-0.158,0.006512));
#786=CARTESIAN_POINT('',(0.323515625,-0.158,-0.00749));
#787=CARTESIAN_POINT('',(0.323515625,-0.159,-0.00749));
#788=CARTESIAN_POINT('',(0.2348875,-0.159,0.006512));
#789=CARTESIAN_POINT('',(0.2348875,-0.159,0.00651));
#790=CARTESIAN_POINT('',(0.2348875,-0.158,0.00651));
#791=CARTESIAN_POINT('',(0.2348875,-0.159,-0.00749));
#792=CARTESIAN_POINT('',(0.2348875,-0.158,-0.00749));
#793=CARTESIAN_POINT('',(0.2348875,-0.158,0.006512));
#794=CARTESIAN_POINT('',(0.3768328125,-0.158,0.006512));
#795=CARTESIAN_POINT('',(0.3768328125,-0.158,0.00651));
#796=CARTESIAN_POINT('',(0.335025,-0.158,0.00651));
#797=CARTESIAN_POINT('',(0.335025,-0.158,0.006512));
#798=CARTESIAN_POINT('',(0.335025,-0.158,-0.00749));
#799=CARTESIAN_POINT('',(0.3768328125,-0.158,-0.00749));
#800=CARTESIAN_POINT('',(0.148828125,-0.158,0.006512));
#801=CARTESIAN_POINT('',(0.148828125,-0.158,-0.00749));
#802=CARTESIAN_POINT('',(0.1886,-0.158,-0.00749));
#803=CARTESIAN_POINT('',(0.1886,-0.158,0.006512));
#804=CARTESIAN_POINT('',(0.1886,-0.158,0.00651));
#805=CARTESIAN_POINT('',(0.148828125,-0.158,0.00651));
#806=CARTESIAN_POINT('',(0.2425,-0.09,0.00651));
#807=CARTESIAN_POINT('',(0.1886,-0.09,0.00651));
#808=CARTESIAN_POINT('',(0.1886,-0.153375,0.00651));
#809=CARTESIAN_POINT('',(0.2428875,-0.153375,0.00651));
#810=CARTESIAN_POINT('',(0.335025,-0.153375,0.00651));
#811=CARTESIAN_POINT('',(0.335025,-0.09,0.00651));
#812=CARTESIAN_POINT('',(0.2428875,-0.162375,0.01051));
#813=CARTESIAN_POINT('',(0.1886,-0.162375,0.01051));
#814=CARTESIAN_POINT('',(0.1886,-0.165375,0.01051));
#815=CARTESIAN_POINT('',(0.1886,-0.162375,0.01351));
#816=CARTESIAN_POINT('',(0.0156,-0.165375,0.01051));
#817=CARTESIAN_POINT('',(0.335025,-0.165375,0.01051));
#818=CARTESIAN_POINT('',(0.335025,-0.162375,0.01051));
#819=CARTESIAN_POINT('',(0.335025,-0.162375,0.01351));
#820=CARTESIAN_POINT('',(0.470175,-0.162375,0.01351));
#821=CARTESIAN_POINT('',(0.2428875,-0.0904875,0.01351));
#822=CARTESIAN_POINT('',(0.1886,-0.0904875,0.01351));
#823=CARTESIAN_POINT('',(0.1886,-0.153375,0.01351));
#824=CARTESIAN_POINT('',(0.335025,-0.0904875,0.01351));
#825=CARTESIAN_POINT('',(0.335025,-0.153375,0.01351));
#826=CARTESIAN_POINT('',(0.2428875,-0.153375,0.01351));
#827=CARTESIAN_POINT('',(0.2428875,-0.153375,0.01351));
#828=CARTESIAN_POINT('',(0.1886,-0.153375,0.01351));
#829=CARTESIAN_POINT('',(0.335025,-0.153375,0.01351));
#830=CARTESIAN_POINT('',(0.2428875,-0.0904875,-0.00749));
#831=CARTESIAN_POINT('',(0.1886,-0.0904875,-0.00749));
#832=CARTESIAN_POINT('',(0.1886,-0.165375,-0.00749));
#833=CARTESIAN_POINT('',(0.335025,-0.0904875,-0.00749));
#834=CARTESIAN_POINT('',(0.335025,-0.165375,-0.00749));
#835=CARTESIAN_POINT('',(0.2428875,-0.165375,-0.00749));
#836=CARTESIAN_POINT('',(0.2428875,-0.165375,0.01351));
#837=CARTESIAN_POINT('',(0.1886,-0.165375,0.472864554191488));
#838=CARTESIAN_POINT('',(0.335025,-0.165375,0.472864554191488));
#839=CARTESIAN_POINT('',(0.335025,-0.0904875,0.472864554191488));
#840=CARTESIAN_POINT('',(0.1886,-0.0904875,0.472864554191488));
#841=MECHANICAL_DESIGN_GEOMETRIC_PRESENTATION_REPRESENTATION('',(#498),
#842);
#842=(
GEOMETRIC_REPRESENTATION_CONTEXT(3)
GLOBAL_UNCERTAINTY_ASSIGNED_CONTEXT((#843))
GLOBAL_UNIT_ASSIGNED_CONTEXT((#846,#845,#844))
REPRESENTATION_CONTEXT('TopCaseMidBottom','TOP_LEVEL_ASSEMBLY_PART')
);
#843=UNCERTAINTY_MEASURE_WITH_UNIT(LENGTH_MEASURE(1.E-8),#846,
'DISTANCE_ACCURACY_VALUE','Maximum Tolerance applied to model');
#844=(
NAMED_UNIT(*)
SI_UNIT($,.STERADIAN.)
SOLID_ANGLE_UNIT()
);
#845=(
NAMED_UNIT(*)
PLANE_ANGLE_UNIT()
SI_UNIT($,.RADIAN.)
);
#846=(
LENGTH_UNIT()
NAMED_UNIT(*)
SI_UNIT($,.METRE.)
);
#847=PRODUCT_DEFINITION_SHAPE('','',#848);
#848=PRODUCT_DEFINITION('','',#850,#849);
#849=PRODUCT_DEFINITION_CONTEXT('',#856,'design');
#850=PRODUCT_DEFINITION_FORMATION_WITH_SPECIFIED_SOURCE('','',#852,
 .NOT_KNOWN.);
#851=PRODUCT_RELATED_PRODUCT_CATEGORY('','',(#852));
#852=PRODUCT('TopCaseMidBottom','TopCaseMidBottom','TopCaseMidBottom',(#854));
#853=PRODUCT_CATEGORY('','');
#854=PRODUCT_CONTEXT('',#856,'mechanical');
#855=APPLICATION_PROTOCOL_DEFINITION('international standard',
'ap242_managed_model_based_3d_engineering',2020,#856);
#856=APPLICATION_CONTEXT('managed model based 3d engineering');
ENDSEC;
END-ISO-10303-21;
