ISO-10303-21;
HEADER;
/* Generated by software containing ST-Developer
 * from STEP Tools, Inc. (www.steptools.com) 
 */
/* OPTION: using custom renumber hook */

FILE_DESCRIPTION(
/* description */ ('STEP AP242 Edition 2',
'CAx-IF Rec.Pracs.---Representation and Presentation of Product Manufa
cturing Information (PMI)---4.0---2014-10-13',
'CAx-IF Rec.Pracs.---3D Tessellated Geometry---0.4---2014-09-14','2;1',
'CAx-IF Rec.Pracs.---User Defined Attributes---1.5---2016-08-15'),
/* implementation_level */ '2;1');

FILE_NAME(
/* name */ 'Case - TopCaseRight',
/* time_stamp */ '2026-10-05T22:05:19Z',
/* author */ (''),
/* organization */ (''),
/* preprocessor_version */ 'ST-DEVELOPER v20',
/* originating_system */ 'ONSHAPE BY PTC INC, 1.221',
/* authorisation */ '  ');

FILE_SCHEMA (('AP242_MANAGED_MODEL_BASED_3D_ENGINEERING_MIM_LF { 1 0 10303 442 3 1 4 }'));
ENDSEC;

DATA;
#10=SHAPE_REPRESENTATION_RELATIONSHIP('','',#768,#11);
#11=ADVANCED_BREP_SHAPE_REPRESENTATION('',(#766),#1270);
#12=ELLIPSE('',#822,0.00424264068711928,0.003);
#13=ELLIPSE('',#823,0.00424264068711928,0.003);
#14=CONICAL_SURFACE('',#811,0.0016,0.785398163397448);
#15=CONICAL_SURFACE('',#813,0.0016,0.785398163397448);
#16=LINE('',#1071,#91);
#17=LINE('',#1075,#92);
#18=LINE('',#1077,#93);
#19=LINE('',#1080,#94);
#20=LINE('',#1081,#95);
#21=LINE('',#1085,#96);
#22=LINE('',#1089,#97);
#23=LINE('',#1090,#98);
#24=LINE('',#1098,#99);
#25=LINE('',#1101,#100);
#26=LINE('',#1103,#101);
#27=LINE('',#1105,#102);
#28=LINE('',#1113,#103);
#29=LINE('',#1116,#104);
#30=LINE('',#1118,#105);
#31=LINE('',#1120,#106);
#32=LINE('',#1122,#107);
#33=LINE('',#1125,#108);
#34=LINE('',#1126,#109);
#35=LINE('',#1128,#110);
#36=LINE('',#1131,#111);
#37=LINE('',#1132,#112);
#38=LINE('',#1136,#113);
#39=LINE('',#1140,#114);
#40=LINE('',#1143,#115);
#41=LINE('',#1144,#116);
#42=LINE('',#1146,#117);
#43=LINE('',#1149,#118);
#44=LINE('',#1150,#119);
#45=LINE('',#1152,#120);
#46=LINE('',#1155,#121);
#47=LINE('',#1156,#122);
#48=LINE('',#1160,#123);
#49=LINE('',#1164,#124);
#50=LINE('',#1166,#125);
#51=LINE('',#1168,#126);
#52=LINE('',#1170,#127);
#53=LINE('',#1172,#128);
#54=LINE('',#1174,#129);
#55=LINE('',#1176,#130);
#56=LINE('',#1179,#131);
#57=LINE('',#1180,#132);
#58=LINE('',#1182,#133);
#59=LINE('',#1185,#134);
#60=LINE('',#1187,#135);
#61=LINE('',#1189,#136);
#62=LINE('',#1199,#137);
#63=LINE('',#1207,#138);
#64=LINE('',#1213,#139);
#65=LINE('',#1215,#140);
#66=LINE('',#1217,#141);
#67=LINE('',#1219,#142);
#68=LINE('',#1221,#143);
#69=LINE('',#1223,#144);
#70=LINE('',#1225,#145);
#71=LINE('',#1227,#146);
#72=LINE('',#1229,#147);
#73=LINE('',#1230,#148);
#74=LINE('',#1232,#149);
#75=LINE('',#1237,#150);
#76=LINE('',#1238,#151);
#77=LINE('',#1243,#152);
#78=LINE('',#1244,#153);
#79=LINE('',#1246,#154);
#80=LINE('',#1248,#155);
#81=LINE('',#1250,#156);
#82=LINE('',#1251,#157);
#83=LINE('',#1253,#158);
#84=LINE('',#1255,#159);
#85=LINE('',#1257,#160);
#86=LINE('',#1259,#161);
#87=LINE('',#1260,#162);
#88=LINE('',#1262,#163);
#89=LINE('',#1264,#164);
#90=LINE('',#1266,#165);
#91=VECTOR('',#861,1.);
#92=VECTOR('',#864,1.);
#93=VECTOR('',#867,1.);
#94=VECTOR('',#868,1.);
#95=VECTOR('',#869,1.);
#96=VECTOR('',#874,1.);
#97=VECTOR('',#879,1.);
#98=VECTOR('',#880,1.);
#99=VECTOR('',#891,1.);
#100=VECTOR('',#892,1.);
#101=VECTOR('',#893,1.);
#102=VECTOR('',#894,1.);
#103=VECTOR('',#905,1.);
#104=VECTOR('',#906,1.);
#105=VECTOR('',#907,1.);
#106=VECTOR('',#908,1.);
#107=VECTOR('',#911,1.);
#108=VECTOR('',#912,1.);
#109=VECTOR('',#913,1.);
#110=VECTOR('',#916,1.);
#111=VECTOR('',#917,1.);
#112=VECTOR('',#918,1.);
#113=VECTOR('',#923,1.);
#114=VECTOR('',#928,1.);
#115=VECTOR('',#929,1.);
#116=VECTOR('',#930,1.);
#117=VECTOR('',#933,1.);
#118=VECTOR('',#934,1.);
#119=VECTOR('',#935,1.);
#120=VECTOR('',#938,1.);
#121=VECTOR('',#939,1.);
#122=VECTOR('',#940,1.);
#123=VECTOR('',#945,1.);
#124=VECTOR('',#950,1.);
#125=VECTOR('',#951,1.);
#126=VECTOR('',#952,1.);
#127=VECTOR('',#955,1.);
#128=VECTOR('',#956,1.);
#129=VECTOR('',#957,1.);
#130=VECTOR('',#960,1.);
#131=VECTOR('',#961,1.);
#132=VECTOR('',#962,1.);
#133=VECTOR('',#965,1.);
#134=VECTOR('',#966,1.);
#135=VECTOR('',#967,1.);
#136=VECTOR('',#968,1.);
#137=VECTOR('',#981,1.);
#138=VECTOR('',#990,1.);
#139=VECTOR('',#997,1.);
#140=VECTOR('',#1000,1.);
#141=VECTOR('',#1001,1.);
#142=VECTOR('',#1002,1.);
#143=VECTOR('',#1005,1.);
#144=VECTOR('',#1006,1.);
#145=VECTOR('',#1007,1.);
#146=VECTOR('',#1010,1.);
#147=VECTOR('',#1011,1.);
#148=VECTOR('',#1012,1.);
#149=VECTOR('',#1013,1.);
#150=VECTOR('',#1018,1.);
#151=VECTOR('',#1019,1.);
#152=VECTOR('',#1024,1.);
#153=VECTOR('',#1025,1.);
#154=VECTOR('',#1028,1.);
#155=VECTOR('',#1029,1.);
#156=VECTOR('',#1030,1.);
#157=VECTOR('',#1031,1.);
#158=VECTOR('',#1034,1.);
#159=VECTOR('',#1037,1.);
#160=VECTOR('',#1040,1.);
#161=VECTOR('',#1041,1.);
#162=VECTOR('',#1042,1.);
#163=VECTOR('',#1043,1.);
#164=VECTOR('',#1046,1.);
#165=VECTOR('',#1049,1.);
#166=CYLINDRICAL_SURFACE('',#778,0.0035);
#167=CYLINDRICAL_SURFACE('',#782,0.0035);
#168=CYLINDRICAL_SURFACE('',#786,0.0016);
#169=CYLINDRICAL_SURFACE('',#788,0.0016);
#170=CYLINDRICAL_SURFACE('',#791,0.0016);
#171=CYLINDRICAL_SURFACE('',#793,0.0016);
#172=CYLINDRICAL_SURFACE('',#798,0.000999999999999959);
#173=CYLINDRICAL_SURFACE('',#804,0.001);
#174=CYLINDRICAL_SURFACE('',#815,0.001);
#175=CYLINDRICAL_SURFACE('',#818,0.00100000000000004);
#176=CYLINDRICAL_SURFACE('',#821,0.003);
#177=CYLINDRICAL_SURFACE('',#827,0.003);
#178=CYLINDRICAL_SURFACE('',#829,0.003);
#179=ORIENTED_EDGE('',*,*,#381,.T.);
#180=ORIENTED_EDGE('',*,*,#382,.T.);
#181=ORIENTED_EDGE('',*,*,#383,.T.);
#182=ORIENTED_EDGE('',*,*,#384,.T.);
#183=ORIENTED_EDGE('',*,*,#385,.T.);
#184=ORIENTED_EDGE('',*,*,#386,.T.);
#185=ORIENTED_EDGE('',*,*,#387,.F.);
#186=ORIENTED_EDGE('',*,*,#388,.F.);
#187=ORIENTED_EDGE('',*,*,#389,.T.);
#188=ORIENTED_EDGE('',*,*,#390,.T.);
#189=ORIENTED_EDGE('',*,*,#386,.F.);
#190=ORIENTED_EDGE('',*,*,#391,.F.);
#191=ORIENTED_EDGE('',*,*,#392,.T.);
#192=ORIENTED_EDGE('',*,*,#393,.T.);
#193=ORIENTED_EDGE('',*,*,#394,.F.);
#194=ORIENTED_EDGE('',*,*,#389,.F.);
#195=ORIENTED_EDGE('',*,*,#395,.T.);
#196=ORIENTED_EDGE('',*,*,#388,.T.);
#197=ORIENTED_EDGE('',*,*,#396,.F.);
#198=ORIENTED_EDGE('',*,*,#393,.F.);
#199=ORIENTED_EDGE('',*,*,#397,.T.);
#200=ORIENTED_EDGE('',*,*,#381,.F.);
#201=ORIENTED_EDGE('',*,*,#398,.T.);
#202=ORIENTED_EDGE('',*,*,#382,.F.);
#203=ORIENTED_EDGE('',*,*,#394,.T.);
#204=ORIENTED_EDGE('',*,*,#396,.T.);
#205=ORIENTED_EDGE('',*,*,#387,.T.);
#206=ORIENTED_EDGE('',*,*,#390,.F.);
#207=ORIENTED_EDGE('',*,*,#399,.F.);
#208=ORIENTED_EDGE('',*,*,#400,.T.);
#209=ORIENTED_EDGE('',*,*,#401,.T.);
#210=ORIENTED_EDGE('',*,*,#402,.F.);
#211=ORIENTED_EDGE('',*,*,#383,.F.);
#212=ORIENTED_EDGE('',*,*,#403,.T.);
#213=ORIENTED_EDGE('',*,*,#384,.F.);
#214=ORIENTED_EDGE('',*,*,#404,.T.);
#215=ORIENTED_EDGE('',*,*,#405,.T.);
#216=ORIENTED_EDGE('',*,*,#406,.T.);
#217=ORIENTED_EDGE('',*,*,#407,.F.);
#218=ORIENTED_EDGE('',*,*,#408,.F.);
#219=ORIENTED_EDGE('',*,*,#409,.T.);
#220=ORIENTED_EDGE('',*,*,#410,.T.);
#221=ORIENTED_EDGE('',*,*,#406,.F.);
#222=ORIENTED_EDGE('',*,*,#411,.F.);
#223=ORIENTED_EDGE('',*,*,#412,.T.);
#224=ORIENTED_EDGE('',*,*,#413,.T.);
#225=ORIENTED_EDGE('',*,*,#409,.F.);
#226=ORIENTED_EDGE('',*,*,#414,.F.);
#227=ORIENTED_EDGE('',*,*,#415,.T.);
#228=ORIENTED_EDGE('',*,*,#416,.T.);
#229=ORIENTED_EDGE('',*,*,#417,.F.);
#230=ORIENTED_EDGE('',*,*,#412,.F.);
#231=ORIENTED_EDGE('',*,*,#418,.T.);
#232=ORIENTED_EDGE('',*,*,#419,.T.);
#233=ORIENTED_EDGE('',*,*,#416,.F.);
#234=ORIENTED_EDGE('',*,*,#420,.F.);
#235=ORIENTED_EDGE('',*,*,#395,.F.);
#236=ORIENTED_EDGE('',*,*,#392,.F.);
#237=ORIENTED_EDGE('',*,*,#391,.T.);
#238=ORIENTED_EDGE('',*,*,#385,.F.);
#239=ORIENTED_EDGE('',*,*,#421,.T.);
#240=ORIENTED_EDGE('',*,*,#422,.T.);
#241=ORIENTED_EDGE('',*,*,#418,.F.);
#242=ORIENTED_EDGE('',*,*,#423,.F.);
#243=ORIENTED_EDGE('',*,*,#424,.T.);
#244=ORIENTED_EDGE('',*,*,#425,.T.);
#245=ORIENTED_EDGE('',*,*,#421,.F.);
#246=ORIENTED_EDGE('',*,*,#426,.F.);
#247=ORIENTED_EDGE('',*,*,#427,.T.);
#248=ORIENTED_EDGE('',*,*,#428,.T.);
#249=ORIENTED_EDGE('',*,*,#429,.F.);
#250=ORIENTED_EDGE('',*,*,#424,.F.);
#251=ORIENTED_EDGE('',*,*,#430,.T.);
#252=ORIENTED_EDGE('',*,*,#431,.T.);
#253=ORIENTED_EDGE('',*,*,#432,.F.);
#254=ORIENTED_EDGE('',*,*,#428,.F.);
#255=ORIENTED_EDGE('',*,*,#433,.T.);
#256=ORIENTED_EDGE('',*,*,#434,.T.);
#257=ORIENTED_EDGE('',*,*,#435,.F.);
#258=ORIENTED_EDGE('',*,*,#431,.F.);
#259=ORIENTED_EDGE('',*,*,#436,.T.);
#260=ORIENTED_EDGE('',*,*,#437,.T.);
#261=ORIENTED_EDGE('',*,*,#434,.F.);
#262=ORIENTED_EDGE('',*,*,#438,.F.);
#263=ORIENTED_EDGE('',*,*,#439,.T.);
#264=ORIENTED_EDGE('',*,*,#440,.T.);
#265=ORIENTED_EDGE('',*,*,#441,.F.);
#266=ORIENTED_EDGE('',*,*,#442,.F.);
#267=ORIENTED_EDGE('',*,*,#443,.F.);
#268=ORIENTED_EDGE('',*,*,#397,.F.);
#269=ORIENTED_EDGE('',*,*,#444,.F.);
#270=ORIENTED_EDGE('',*,*,#398,.F.);
#271=ORIENTED_EDGE('',*,*,#445,.T.);
#272=ORIENTED_EDGE('',*,*,#446,.T.);
#273=ORIENTED_EDGE('',*,*,#447,.F.);
#274=ORIENTED_EDGE('',*,*,#436,.F.);
#275=ORIENTED_EDGE('',*,*,#448,.T.);
#276=ORIENTED_EDGE('',*,*,#408,.T.);
#277=ORIENTED_EDGE('',*,*,#449,.F.);
#278=ORIENTED_EDGE('',*,*,#450,.F.);
#279=ORIENTED_EDGE('',*,*,#451,.F.);
#280=ORIENTED_EDGE('',*,*,#400,.F.);
#281=ORIENTED_EDGE('',*,*,#452,.F.);
#282=ORIENTED_EDGE('',*,*,#453,.F.);
#283=ORIENTED_EDGE('',*,*,#454,.F.);
#284=ORIENTED_EDGE('',*,*,#455,.T.);
#285=ORIENTED_EDGE('',*,*,#456,.T.);
#286=ORIENTED_EDGE('',*,*,#446,.F.);
#287=ORIENTED_EDGE('',*,*,#457,.T.);
#288=ORIENTED_EDGE('',*,*,#458,.T.);
#289=ORIENTED_EDGE('',*,*,#459,.F.);
#290=ORIENTED_EDGE('',*,*,#450,.T.);
#291=ORIENTED_EDGE('',*,*,#444,.T.);
#292=ORIENTED_EDGE('',*,*,#443,.T.);
#293=ORIENTED_EDGE('',*,*,#459,.T.);
#294=ORIENTED_EDGE('',*,*,#460,.T.);
#295=ORIENTED_EDGE('',*,*,#461,.T.);
#296=ORIENTED_EDGE('',*,*,#440,.F.);
#297=ORIENTED_EDGE('',*,*,#462,.F.);
#298=ORIENTED_EDGE('',*,*,#463,.T.);
#299=ORIENTED_EDGE('',*,*,#454,.T.);
#300=ORIENTED_EDGE('',*,*,#445,.F.);
#301=ORIENTED_EDGE('',*,*,#438,.T.);
#302=ORIENTED_EDGE('',*,*,#433,.F.);
#303=ORIENTED_EDGE('',*,*,#430,.F.);
#304=ORIENTED_EDGE('',*,*,#427,.F.);
#305=ORIENTED_EDGE('',*,*,#426,.T.);
#306=ORIENTED_EDGE('',*,*,#423,.T.);
#307=ORIENTED_EDGE('',*,*,#420,.T.);
#308=ORIENTED_EDGE('',*,*,#415,.F.);
#309=ORIENTED_EDGE('',*,*,#414,.T.);
#310=ORIENTED_EDGE('',*,*,#411,.T.);
#311=ORIENTED_EDGE('',*,*,#405,.F.);
#312=ORIENTED_EDGE('',*,*,#448,.F.);
#313=ORIENTED_EDGE('',*,*,#464,.F.);
#314=ORIENTED_EDGE('',*,*,#465,.F.);
#315=ORIENTED_EDGE('',*,*,#452,.T.);
#316=ORIENTED_EDGE('',*,*,#466,.F.);
#317=ORIENTED_EDGE('',*,*,#467,.F.);
#318=ORIENTED_EDGE('',*,*,#468,.F.);
#319=ORIENTED_EDGE('',*,*,#451,.T.);
#320=ORIENTED_EDGE('',*,*,#469,.F.);
#321=ORIENTED_EDGE('',*,*,#470,.F.);
#322=ORIENTED_EDGE('',*,*,#469,.T.);
#323=ORIENTED_EDGE('',*,*,#453,.T.);
#324=ORIENTED_EDGE('',*,*,#465,.T.);
#325=ORIENTED_EDGE('',*,*,#471,.F.);
#326=ORIENTED_EDGE('',*,*,#472,.T.);
#327=ORIENTED_EDGE('',*,*,#442,.T.);
#328=ORIENTED_EDGE('',*,*,#473,.F.);
#329=ORIENTED_EDGE('',*,*,#474,.F.);
#330=ORIENTED_EDGE('',*,*,#473,.T.);
#331=ORIENTED_EDGE('',*,*,#441,.T.);
#332=ORIENTED_EDGE('',*,*,#461,.F.);
#333=ORIENTED_EDGE('',*,*,#472,.F.);
#334=ORIENTED_EDGE('',*,*,#475,.T.);
#335=ORIENTED_EDGE('',*,*,#462,.T.);
#336=ORIENTED_EDGE('',*,*,#439,.F.);
#337=ORIENTED_EDGE('',*,*,#404,.F.);
#338=ORIENTED_EDGE('',*,*,#403,.F.);
#339=ORIENTED_EDGE('',*,*,#476,.F.);
#340=ORIENTED_EDGE('',*,*,#477,.T.);
#341=ORIENTED_EDGE('',*,*,#402,.T.);
#342=ORIENTED_EDGE('',*,*,#478,.F.);
#343=ORIENTED_EDGE('',*,*,#479,.F.);
#344=ORIENTED_EDGE('',*,*,#457,.F.);
#345=ORIENTED_EDGE('',*,*,#449,.T.);
#346=ORIENTED_EDGE('',*,*,#407,.T.);
#347=ORIENTED_EDGE('',*,*,#410,.F.);
#348=ORIENTED_EDGE('',*,*,#413,.F.);
#349=ORIENTED_EDGE('',*,*,#417,.T.);
#350=ORIENTED_EDGE('',*,*,#419,.F.);
#351=ORIENTED_EDGE('',*,*,#422,.F.);
#352=ORIENTED_EDGE('',*,*,#425,.F.);
#353=ORIENTED_EDGE('',*,*,#429,.T.);
#354=ORIENTED_EDGE('',*,*,#432,.T.);
#355=ORIENTED_EDGE('',*,*,#435,.T.);
#356=ORIENTED_EDGE('',*,*,#437,.F.);
#357=ORIENTED_EDGE('',*,*,#447,.T.);
#358=ORIENTED_EDGE('',*,*,#456,.F.);
#359=ORIENTED_EDGE('',*,*,#480,.F.);
#360=ORIENTED_EDGE('',*,*,#466,.T.);
#361=ORIENTED_EDGE('',*,*,#399,.T.);
#362=ORIENTED_EDGE('',*,*,#477,.F.);
#363=ORIENTED_EDGE('',*,*,#468,.T.);
#364=ORIENTED_EDGE('',*,*,#481,.T.);
#365=ORIENTED_EDGE('',*,*,#478,.T.);
#366=ORIENTED_EDGE('',*,*,#401,.F.);
#367=ORIENTED_EDGE('',*,*,#479,.T.);
#368=ORIENTED_EDGE('',*,*,#481,.F.);
#369=ORIENTED_EDGE('',*,*,#467,.T.);
#370=ORIENTED_EDGE('',*,*,#470,.T.);
#371=ORIENTED_EDGE('',*,*,#474,.T.);
#372=ORIENTED_EDGE('',*,*,#460,.F.);
#373=ORIENTED_EDGE('',*,*,#458,.F.);
#374=ORIENTED_EDGE('',*,*,#463,.F.);
#375=ORIENTED_EDGE('',*,*,#475,.F.);
#376=ORIENTED_EDGE('',*,*,#471,.T.);
#377=ORIENTED_EDGE('',*,*,#464,.T.);
#378=ORIENTED_EDGE('',*,*,#480,.T.);
#379=ORIENTED_EDGE('',*,*,#476,.T.);
#380=ORIENTED_EDGE('',*,*,#455,.F.);
#381=EDGE_CURVE('',#482,#482,#552,.T.);
#382=EDGE_CURVE('',#483,#483,#553,.T.);
#383=EDGE_CURVE('',#484,#484,#554,.T.);
#384=EDGE_CURVE('',#485,#485,#555,.T.);
#385=EDGE_CURVE('',#486,#487,#556,.F.);
#386=EDGE_CURVE('',#487,#488,#16,.T.);
#387=EDGE_CURVE('',#489,#488,#557,.T.);
#388=EDGE_CURVE('',#486,#489,#17,.T.);
#389=EDGE_CURVE('',#490,#491,#18,.T.);
#390=EDGE_CURVE('',#491,#488,#19,.T.);
#391=EDGE_CURVE('',#490,#487,#20,.T.);
#392=EDGE_CURVE('',#490,#492,#558,.F.);
#393=EDGE_CURVE('',#492,#493,#21,.T.);
#394=EDGE_CURVE('',#491,#493,#559,.T.);
#395=EDGE_CURVE('',#492,#486,#22,.T.);
#396=EDGE_CURVE('',#493,#489,#23,.T.);
#397=EDGE_CURVE('',#494,#494,#560,.F.);
#398=EDGE_CURVE('',#495,#495,#561,.F.);
#399=EDGE_CURVE('',#496,#497,#24,.T.);
#400=EDGE_CURVE('',#496,#498,#25,.T.);
#401=EDGE_CURVE('',#498,#499,#26,.T.);
#402=EDGE_CURVE('',#497,#499,#27,.T.);
#403=EDGE_CURVE('',#500,#500,#562,.T.);
#404=EDGE_CURVE('',#501,#501,#563,.T.);
#405=EDGE_CURVE('',#502,#503,#28,.T.);
#406=EDGE_CURVE('',#503,#504,#29,.T.);
#407=EDGE_CURVE('',#505,#504,#30,.T.);
#408=EDGE_CURVE('',#502,#505,#31,.T.);
#409=EDGE_CURVE('',#506,#507,#32,.T.);
#410=EDGE_CURVE('',#507,#504,#33,.T.);
#411=EDGE_CURVE('',#506,#503,#34,.T.);
#412=EDGE_CURVE('',#508,#509,#35,.T.);
#413=EDGE_CURVE('',#509,#507,#36,.T.);
#414=EDGE_CURVE('',#508,#506,#37,.T.);
#415=EDGE_CURVE('',#508,#510,#564,.F.);
#416=EDGE_CURVE('',#510,#511,#38,.T.);
#417=EDGE_CURVE('',#509,#511,#565,.T.);
#418=EDGE_CURVE('',#512,#513,#39,.T.);
#419=EDGE_CURVE('',#513,#511,#40,.T.);
#420=EDGE_CURVE('',#512,#510,#41,.T.);
#421=EDGE_CURVE('',#514,#515,#42,.T.);
#422=EDGE_CURVE('',#515,#513,#43,.T.);
#423=EDGE_CURVE('',#514,#512,#44,.T.);
#424=EDGE_CURVE('',#516,#517,#45,.T.);
#425=EDGE_CURVE('',#517,#515,#46,.T.);
#426=EDGE_CURVE('',#516,#514,#47,.T.);
#427=EDGE_CURVE('',#516,#518,#566,.F.);
#428=EDGE_CURVE('',#518,#519,#48,.T.);
#429=EDGE_CURVE('',#517,#519,#567,.T.);
#430=EDGE_CURVE('',#518,#520,#49,.T.);
#431=EDGE_CURVE('',#520,#521,#50,.T.);
#432=EDGE_CURVE('',#519,#521,#51,.T.);
#433=EDGE_CURVE('',#520,#522,#52,.T.);
#434=EDGE_CURVE('',#522,#523,#53,.T.);
#435=EDGE_CURVE('',#521,#523,#54,.T.);
#436=EDGE_CURVE('',#524,#525,#55,.T.);
#437=EDGE_CURVE('',#525,#523,#56,.T.);
#438=EDGE_CURVE('',#524,#522,#57,.T.);
#439=EDGE_CURVE('',#526,#527,#58,.T.);
#440=EDGE_CURVE('',#527,#528,#59,.T.);
#441=EDGE_CURVE('',#529,#528,#60,.T.);
#442=EDGE_CURVE('',#526,#529,#61,.T.);
#443=EDGE_CURVE('',#530,#530,#568,.T.);
#444=EDGE_CURVE('',#531,#531,#569,.T.);
#445=EDGE_CURVE('',#524,#532,#570,.F.);
#446=EDGE_CURVE('',#532,#533,#62,.T.);
#447=EDGE_CURVE('',#525,#533,#571,.T.);
#448=EDGE_CURVE('',#534,#502,#572,.F.);
#449=EDGE_CURVE('',#535,#505,#573,.T.);
#450=EDGE_CURVE('',#534,#535,#63,.T.);
#451=EDGE_CURVE('',#498,#536,#12,.T.);
#452=EDGE_CURVE('',#537,#496,#13,.F.);
#453=EDGE_CURVE('',#536,#537,#64,.F.);
#454=EDGE_CURVE('',#538,#532,#65,.T.);
#455=EDGE_CURVE('',#538,#539,#66,.T.);
#456=EDGE_CURVE('',#539,#533,#67,.T.);
#457=EDGE_CURVE('',#535,#540,#68,.T.);
#458=EDGE_CURVE('',#540,#541,#69,.T.);
#459=EDGE_CURVE('',#534,#541,#70,.T.);
#460=EDGE_CURVE('',#541,#542,#71,.T.);
#461=EDGE_CURVE('',#542,#528,#72,.T.);
#462=EDGE_CURVE('',#543,#527,#73,.T.);
#463=EDGE_CURVE('',#543,#538,#74,.T.);
#464=EDGE_CURVE('',#544,#545,#574,.F.);
#465=EDGE_CURVE('',#537,#544,#75,.F.);
#466=EDGE_CURVE('',#545,#496,#76,.T.);
#467=EDGE_CURVE('',#546,#547,#575,.F.);
#468=EDGE_CURVE('',#498,#546,#77,.F.);
#469=EDGE_CURVE('',#547,#536,#78,.T.);
#470=EDGE_CURVE('',#547,#548,#79,.T.);
#471=EDGE_CURVE('',#549,#544,#80,.T.);
#472=EDGE_CURVE('',#549,#526,#81,.T.);
#473=EDGE_CURVE('',#548,#529,#82,.T.);
#474=EDGE_CURVE('',#548,#542,#83,.T.);
#475=EDGE_CURVE('',#549,#543,#84,.T.);
#476=EDGE_CURVE('',#550,#539,#85,.F.);
#477=EDGE_CURVE('',#550,#497,#86,.T.);
#478=EDGE_CURVE('',#551,#499,#87,.T.);
#479=EDGE_CURVE('',#540,#551,#88,.F.);
#480=EDGE_CURVE('',#545,#550,#89,.T.);
#481=EDGE_CURVE('',#546,#551,#90,.T.);
#482=VERTEX_POINT('',#1057);
#483=VERTEX_POINT('',#1060);
#484=VERTEX_POINT('',#1063);
#485=VERTEX_POINT('',#1066);
#486=VERTEX_POINT('',#1069);
#487=VERTEX_POINT('',#1070);
#488=VERTEX_POINT('',#1072);
#489=VERTEX_POINT('',#1074);
#490=VERTEX_POINT('',#1078);
#491=VERTEX_POINT('',#1079);
#492=VERTEX_POINT('',#1084);
#493=VERTEX_POINT('',#1086);
#494=VERTEX_POINT('',#1093);
#495=VERTEX_POINT('',#1096);
#496=VERTEX_POINT('',#1099);
#497=VERTEX_POINT('',#1100);
#498=VERTEX_POINT('',#1102);
#499=VERTEX_POINT('',#1104);
#500=VERTEX_POINT('',#1108);
#501=VERTEX_POINT('',#1111);
#502=VERTEX_POINT('',#1114);
#503=VERTEX_POINT('',#1115);
#504=VERTEX_POINT('',#1117);
#505=VERTEX_POINT('',#1119);
#506=VERTEX_POINT('',#1123);
#507=VERTEX_POINT('',#1124);
#508=VERTEX_POINT('',#1129);
#509=VERTEX_POINT('',#1130);
#510=VERTEX_POINT('',#1135);
#511=VERTEX_POINT('',#1137);
#512=VERTEX_POINT('',#1141);
#513=VERTEX_POINT('',#1142);
#514=VERTEX_POINT('',#1147);
#515=VERTEX_POINT('',#1148);
#516=VERTEX_POINT('',#1153);
#517=VERTEX_POINT('',#1154);
#518=VERTEX_POINT('',#1159);
#519=VERTEX_POINT('',#1161);
#520=VERTEX_POINT('',#1165);
#521=VERTEX_POINT('',#1167);
#522=VERTEX_POINT('',#1171);
#523=VERTEX_POINT('',#1173);
#524=VERTEX_POINT('',#1177);
#525=VERTEX_POINT('',#1178);
#526=VERTEX_POINT('',#1183);
#527=VERTEX_POINT('',#1184);
#528=VERTEX_POINT('',#1186);
#529=VERTEX_POINT('',#1188);
#530=VERTEX_POINT('',#1192);
#531=VERTEX_POINT('',#1195);
#532=VERTEX_POINT('',#1198);
#533=VERTEX_POINT('',#1200);
#534=VERTEX_POINT('',#1204);
#535=VERTEX_POINT('',#1206);
#536=VERTEX_POINT('',#1210);
#537=VERTEX_POINT('',#1212);
#538=VERTEX_POINT('',#1216);
#539=VERTEX_POINT('',#1218);
#540=VERTEX_POINT('',#1222);
#541=VERTEX_POINT('',#1224);
#542=VERTEX_POINT('',#1228);
#543=VERTEX_POINT('',#1231);
#544=VERTEX_POINT('',#1235);
#545=VERTEX_POINT('',#1236);
#546=VERTEX_POINT('',#1241);
#547=VERTEX_POINT('',#1242);
#548=VERTEX_POINT('',#1247);
#549=VERTEX_POINT('',#1249);
#550=VERTEX_POINT('',#1258);
#551=VERTEX_POINT('',#1261);
#552=CIRCLE('',#771,0.0016);
#553=CIRCLE('',#773,0.0016);
#554=CIRCLE('',#775,0.0016);
#555=CIRCLE('',#777,0.0016);
#556=CIRCLE('',#779,0.0035);
#557=CIRCLE('',#780,0.0035);
#558=CIRCLE('',#783,0.0035);
#559=CIRCLE('',#784,0.0035);
#560=CIRCLE('',#787,0.0016);
#561=CIRCLE('',#789,0.0016);
#562=CIRCLE('',#792,0.0016);
#563=CIRCLE('',#794,0.0016);
#564=CIRCLE('',#799,0.000999999999999959);
#565=CIRCLE('',#800,0.000999999999999959);
#566=CIRCLE('',#805,0.001);
#567=CIRCLE('',#806,0.001);
#568=CIRCLE('',#812,0.0021);
#569=CIRCLE('',#814,0.0021);
#570=CIRCLE('',#816,0.001);
#571=CIRCLE('',#817,0.001);
#572=CIRCLE('',#819,0.00100000000000004);
#573=CIRCLE('',#820,0.00100000000000004);
#574=CIRCLE('',#828,0.003);
#575=CIRCLE('',#830,0.003);
#576=EDGE_LOOP('',(#179));
#577=EDGE_LOOP('',(#180));
#578=EDGE_LOOP('',(#181));
#579=EDGE_LOOP('',(#182));
#580=EDGE_LOOP('',(#183,#184,#185,#186));
#581=EDGE_LOOP('',(#187,#188,#189,#190));
#582=EDGE_LOOP('',(#191,#192,#193,#194));
#583=EDGE_LOOP('',(#195,#196,#197,#198));
#584=EDGE_LOOP('',(#199));
#585=EDGE_LOOP('',(#200));
#586=EDGE_LOOP('',(#201));
#587=EDGE_LOOP('',(#202));
#588=EDGE_LOOP('',(#203,#204,#205,#206));
#589=EDGE_LOOP('',(#207,#208,#209,#210));
#590=EDGE_LOOP('',(#211));
#591=EDGE_LOOP('',(#212));
#592=EDGE_LOOP('',(#213));
#593=EDGE_LOOP('',(#214));
#594=EDGE_LOOP('',(#215,#216,#217,#218));
#595=EDGE_LOOP('',(#219,#220,#221,#222));
#596=EDGE_LOOP('',(#223,#224,#225,#226));
#597=EDGE_LOOP('',(#227,#228,#229,#230));
#598=EDGE_LOOP('',(#231,#232,#233,#234));
#599=EDGE_LOOP('',(#235,#236,#237,#238));
#600=EDGE_LOOP('',(#239,#240,#241,#242));
#601=EDGE_LOOP('',(#243,#244,#245,#246));
#602=EDGE_LOOP('',(#247,#248,#249,#250));
#603=EDGE_LOOP('',(#251,#252,#253,#254));
#604=EDGE_LOOP('',(#255,#256,#257,#258));
#605=EDGE_LOOP('',(#259,#260,#261,#262));
#606=EDGE_LOOP('',(#263,#264,#265,#266));
#607=EDGE_LOOP('',(#267));
#608=EDGE_LOOP('',(#268));
#609=EDGE_LOOP('',(#269));
#610=EDGE_LOOP('',(#270));
#611=EDGE_LOOP('',(#271,#272,#273,#274));
#612=EDGE_LOOP('',(#275,#276,#277,#278));
#613=EDGE_LOOP('',(#279,#280,#281,#282));
#614=EDGE_LOOP('',(#283,#284,#285,#286));
#615=EDGE_LOOP('',(#287,#288,#289,#290));
#616=EDGE_LOOP('',(#291));
#617=EDGE_LOOP('',(#292));
#618=EDGE_LOOP('',(#293,#294,#295,#296,#297,#298,#299,#300,#301,#302,#303,
#304,#305,#306,#307,#308,#309,#310,#311,#312));
#619=EDGE_LOOP('',(#313,#314,#315,#316));
#620=EDGE_LOOP('',(#317,#318,#319,#320));
#621=EDGE_LOOP('',(#321,#322,#323,#324,#325,#326,#327,#328));
#622=EDGE_LOOP('',(#329,#330,#331,#332));
#623=EDGE_LOOP('',(#333,#334,#335,#336));
#624=EDGE_LOOP('',(#337));
#625=EDGE_LOOP('',(#338));
#626=EDGE_LOOP('',(#339,#340,#341,#342,#343,#344,#345,#346,#347,#348,#349,
#350,#351,#352,#353,#354,#355,#356,#357,#358));
#627=EDGE_LOOP('',(#359,#360,#361,#362));
#628=EDGE_LOOP('',(#363,#364,#365,#366));
#629=EDGE_LOOP('',(#367,#368,#369,#370,#371,#372,#373));
#630=EDGE_LOOP('',(#374,#375,#376,#377,#378,#379,#380));
#631=FACE_BOUND('',#576,.T.);
#632=FACE_BOUND('',#577,.T.);
#633=FACE_BOUND('',#578,.T.);
#634=FACE_BOUND('',#579,.T.);
#635=FACE_BOUND('',#580,.T.);
#636=FACE_BOUND('',#581,.T.);
#637=FACE_BOUND('',#582,.T.);
#638=FACE_BOUND('',#583,.T.);
#639=FACE_BOUND('',#584,.T.);
#640=FACE_BOUND('',#585,.T.);
#641=FACE_BOUND('',#586,.T.);
#642=FACE_BOUND('',#587,.T.);
#643=FACE_BOUND('',#588,.T.);
#644=FACE_BOUND('',#589,.T.);
#645=FACE_BOUND('',#590,.T.);
#646=FACE_BOUND('',#591,.T.);
#647=FACE_BOUND('',#592,.T.);
#648=FACE_BOUND('',#593,.T.);
#649=FACE_BOUND('',#594,.T.);
#650=FACE_BOUND('',#595,.T.);
#651=FACE_BOUND('',#596,.T.);
#652=FACE_BOUND('',#597,.T.);
#653=FACE_BOUND('',#598,.T.);
#654=FACE_BOUND('',#599,.T.);
#655=FACE_BOUND('',#600,.T.);
#656=FACE_BOUND('',#601,.T.);
#657=FACE_BOUND('',#602,.T.);
#658=FACE_BOUND('',#603,.T.);
#659=FACE_BOUND('',#604,.T.);
#660=FACE_BOUND('',#605,.T.);
#661=FACE_BOUND('',#606,.T.);
#662=FACE_BOUND('',#607,.T.);
#663=FACE_BOUND('',#608,.T.);
#664=FACE_BOUND('',#609,.T.);
#665=FACE_BOUND('',#610,.T.);
#666=FACE_BOUND('',#611,.T.);
#667=FACE_BOUND('',#612,.T.);
#668=FACE_BOUND('',#613,.T.);
#669=FACE_BOUND('',#614,.T.);
#670=FACE_BOUND('',#615,.T.);
#671=FACE_BOUND('',#616,.T.);
#672=FACE_BOUND('',#617,.T.);
#673=FACE_BOUND('',#618,.T.);
#674=FACE_BOUND('',#619,.T.);
#675=FACE_BOUND('',#620,.T.);
#676=FACE_BOUND('',#621,.T.);
#677=FACE_BOUND('',#622,.T.);
#678=FACE_BOUND('',#623,.T.);
#679=FACE_BOUND('',#624,.T.);
#680=FACE_BOUND('',#625,.T.);
#681=FACE_BOUND('',#626,.T.);
#682=FACE_BOUND('',#627,.T.);
#683=FACE_BOUND('',#628,.T.);
#684=FACE_BOUND('',#629,.T.);
#685=FACE_BOUND('',#630,.T.);
#686=PLANE('',#770);
#687=PLANE('',#772);
#688=PLANE('',#774);
#689=PLANE('',#776);
#690=PLANE('',#781);
#691=PLANE('',#785);
#692=PLANE('',#790);
#693=PLANE('',#795);
#694=PLANE('',#796);
#695=PLANE('',#797);
#696=PLANE('',#801);
#697=PLANE('',#802);
#698=PLANE('',#803);
#699=PLANE('',#807);
#700=PLANE('',#808);
#701=PLANE('',#809);
#702=PLANE('',#810);
#703=PLANE('',#824);
#704=PLANE('',#825);
#705=PLANE('',#826);
#706=PLANE('',#831);
#707=PLANE('',#832);
#708=PLANE('',#833);
#709=PLANE('',#834);
#710=PLANE('',#835);
#711=PLANE('',#836);
#712=PLANE('',#837);
#713=PLANE('',#838);
#714=ADVANCED_FACE('',(#631),#686,.T.);
#715=ADVANCED_FACE('',(#632),#687,.T.);
#716=ADVANCED_FACE('',(#633),#688,.T.);
#717=ADVANCED_FACE('',(#634),#689,.T.);
#718=ADVANCED_FACE('',(#635),#166,.F.);
#719=ADVANCED_FACE('',(#636),#690,.F.);
#720=ADVANCED_FACE('',(#637),#167,.F.);
#721=ADVANCED_FACE('',(#638),#691,.T.);
#722=ADVANCED_FACE('',(#639,#640),#168,.F.);
#723=ADVANCED_FACE('',(#641,#642),#169,.F.);
#724=ADVANCED_FACE('',(#643,#644),#692,.T.);
#725=ADVANCED_FACE('',(#645,#646),#170,.F.);
#726=ADVANCED_FACE('',(#647,#648),#171,.F.);
#727=ADVANCED_FACE('',(#649),#693,.T.);
#728=ADVANCED_FACE('',(#650),#694,.F.);
#729=ADVANCED_FACE('',(#651),#695,.F.);
#730=ADVANCED_FACE('',(#652),#172,.T.);
#731=ADVANCED_FACE('',(#653),#696,.F.);
#732=ADVANCED_FACE('',(#654,#655),#697,.F.);
#733=ADVANCED_FACE('',(#656),#698,.F.);
#734=ADVANCED_FACE('',(#657),#173,.T.);
#735=ADVANCED_FACE('',(#658),#699,.T.);
#736=ADVANCED_FACE('',(#659),#700,.T.);
#737=ADVANCED_FACE('',(#660),#701,.F.);
#738=ADVANCED_FACE('',(#661),#702,.F.);
#739=ADVANCED_FACE('',(#662,#663),#14,.F.);
#740=ADVANCED_FACE('',(#664,#665),#15,.F.);
#741=ADVANCED_FACE('',(#666),#174,.T.);
#742=ADVANCED_FACE('',(#667),#175,.T.);
#743=ADVANCED_FACE('',(#668),#176,.T.);
#744=ADVANCED_FACE('',(#669),#703,.F.);
#745=ADVANCED_FACE('',(#670),#704,.F.);
#746=ADVANCED_FACE('',(#671,#672,#673),#705,.F.);
#747=ADVANCED_FACE('',(#674),#177,.T.);
#748=ADVANCED_FACE('',(#675),#178,.T.);
#749=ADVANCED_FACE('',(#676),#706,.T.);
#750=ADVANCED_FACE('',(#677),#707,.T.);
#751=ADVANCED_FACE('',(#678),#708,.F.);
#752=ADVANCED_FACE('',(#679,#680,#681),#709,.F.);
#753=ADVANCED_FACE('',(#682),#710,.T.);
#754=ADVANCED_FACE('',(#683),#711,.F.);
#755=ADVANCED_FACE('',(#684),#712,.F.);
#756=ADVANCED_FACE('',(#685),#713,.F.);
#757=CLOSED_SHELL('',(#714,#715,#716,#717,#718,#719,#720,#721,#722,#723,
#724,#725,#726,#727,#728,#729,#730,#731,#732,#733,#734,#735,#736,#737,#738,
#739,#740,#741,#742,#743,#744,#745,#746,#747,#748,#749,#750,#751,#752,#753,
#754,#755,#756));
#758=STYLED_ITEM('',(#759),#766);
#759=PRESENTATION_STYLE_ASSIGNMENT((#760));
#760=SURFACE_STYLE_USAGE(.BOTH.,#761);
#761=SURFACE_SIDE_STYLE('',(#762));
#762=SURFACE_STYLE_FILL_AREA(#763);
#763=FILL_AREA_STYLE('',(#764));
#764=FILL_AREA_STYLE_COLOUR('',#765);
#765=COLOUR_RGB('',0.647058823529412,0.647058823529412,0.647058823529412);
#766=MANIFOLD_SOLID_BREP('TopCaseRight',#757);
#767=SHAPE_DEFINITION_REPRESENTATION(#1275,#768);
#768=SHAPE_REPRESENTATION('TopCaseRight',(#769),#1270);
#769=AXIS2_PLACEMENT_3D('',#1054,#839,#840);
#770=AXIS2_PLACEMENT_3D('',#1055,#841,#842);
#771=AXIS2_PLACEMENT_3D('',#1056,#843,#844);
#772=AXIS2_PLACEMENT_3D('',#1058,#845,#846);
#773=AXIS2_PLACEMENT_3D('',#1059,#847,#848);
#774=AXIS2_PLACEMENT_3D('',#1061,#849,#850);
#775=AXIS2_PLACEMENT_3D('',#1062,#851,#852);
#776=AXIS2_PLACEMENT_3D('',#1064,#853,#854);
#777=AXIS2_PLACEMENT_3D('',#1065,#855,#856);
#778=AXIS2_PLACEMENT_3D('',#1067,#857,#858);
#779=AXIS2_PLACEMENT_3D('',#1068,#859,#860);
#780=AXIS2_PLACEMENT_3D('',#1073,#862,#863);
#781=AXIS2_PLACEMENT_3D('',#1076,#865,#866);
#782=AXIS2_PLACEMENT_3D('',#1082,#870,#871);
#783=AXIS2_PLACEMENT_3D('',#1083,#872,#873);
#784=AXIS2_PLACEMENT_3D('',#1087,#875,#876);
#785=AXIS2_PLACEMENT_3D('',#1088,#877,#878);
#786=AXIS2_PLACEMENT_3D('',#1091,#881,#882);
#787=AXIS2_PLACEMENT_3D('',#1092,#883,#884);
#788=AXIS2_PLACEMENT_3D('',#1094,#885,#886);
#789=AXIS2_PLACEMENT_3D('',#1095,#887,#888);
#790=AXIS2_PLACEMENT_3D('',#1097,#889,#890);
#791=AXIS2_PLACEMENT_3D('',#1106,#895,#896);
#792=AXIS2_PLACEMENT_3D('',#1107,#897,#898);
#793=AXIS2_PLACEMENT_3D('',#1109,#899,#900);
#794=AXIS2_PLACEMENT_3D('',#1110,#901,#902);
#795=AXIS2_PLACEMENT_3D('',#1112,#903,#904);
#796=AXIS2_PLACEMENT_3D('',#1121,#909,#910);
#797=AXIS2_PLACEMENT_3D('',#1127,#914,#915);
#798=AXIS2_PLACEMENT_3D('',#1133,#919,#920);
#799=AXIS2_PLACEMENT_3D('',#1134,#921,#922);
#800=AXIS2_PLACEMENT_3D('',#1138,#924,#925);
#801=AXIS2_PLACEMENT_3D('',#1139,#926,#927);
#802=AXIS2_PLACEMENT_3D('',#1145,#931,#932);
#803=AXIS2_PLACEMENT_3D('',#1151,#936,#937);
#804=AXIS2_PLACEMENT_3D('',#1157,#941,#942);
#805=AXIS2_PLACEMENT_3D('',#1158,#943,#944);
#806=AXIS2_PLACEMENT_3D('',#1162,#946,#947);
#807=AXIS2_PLACEMENT_3D('',#1163,#948,#949);
#808=AXIS2_PLACEMENT_3D('',#1169,#953,#954);
#809=AXIS2_PLACEMENT_3D('',#1175,#958,#959);
#810=AXIS2_PLACEMENT_3D('',#1181,#963,#964);
#811=AXIS2_PLACEMENT_3D('',#1190,#969,#970);
#812=AXIS2_PLACEMENT_3D('',#1191,#971,#972);
#813=AXIS2_PLACEMENT_3D('',#1193,#973,#974);
#814=AXIS2_PLACEMENT_3D('',#1194,#975,#976);
#815=AXIS2_PLACEMENT_3D('',#1196,#977,#978);
#816=AXIS2_PLACEMENT_3D('',#1197,#979,#980);
#817=AXIS2_PLACEMENT_3D('',#1201,#982,#983);
#818=AXIS2_PLACEMENT_3D('',#1202,#984,#985);
#819=AXIS2_PLACEMENT_3D('',#1203,#986,#987);
#820=AXIS2_PLACEMENT_3D('',#1205,#988,#989);
#821=AXIS2_PLACEMENT_3D('',#1208,#991,#992);
#822=AXIS2_PLACEMENT_3D('',#1209,#993,#994);
#823=AXIS2_PLACEMENT_3D('',#1211,#995,#996);
#824=AXIS2_PLACEMENT_3D('',#1214,#998,#999);
#825=AXIS2_PLACEMENT_3D('',#1220,#1003,#1004);
#826=AXIS2_PLACEMENT_3D('',#1226,#1008,#1009);
#827=AXIS2_PLACEMENT_3D('',#1233,#1014,#1015);
#828=AXIS2_PLACEMENT_3D('',#1234,#1016,#1017);
#829=AXIS2_PLACEMENT_3D('',#1239,#1020,#1021);
#830=AXIS2_PLACEMENT_3D('',#1240,#1022,#1023);
#831=AXIS2_PLACEMENT_3D('',#1245,#1026,#1027);
#832=AXIS2_PLACEMENT_3D('',#1252,#1032,#1033);
#833=AXIS2_PLACEMENT_3D('',#1254,#1035,#1036);
#834=AXIS2_PLACEMENT_3D('',#1256,#1038,#1039);
#835=AXIS2_PLACEMENT_3D('',#1263,#1044,#1045);
#836=AXIS2_PLACEMENT_3D('',#1265,#1047,#1048);
#837=AXIS2_PLACEMENT_3D('',#1267,#1050,#1051);
#838=AXIS2_PLACEMENT_3D('',#1268,#1052,#1053);
#839=DIRECTION('',(0.,0.,1.));
#840=DIRECTION('',(1.,0.,0.));
#841=DIRECTION('',(0.,0.,-1.));
#842=DIRECTION('',(1.,0.,0.));
#843=DIRECTION('',(0.,0.,-1.));
#844=DIRECTION('',(-1.,0.,0.));
#845=DIRECTION('',(0.,0.,-1.));
#846=DIRECTION('',(1.,0.,0.));
#847=DIRECTION('',(0.,0.,-1.));
#848=DIRECTION('',(-1.,0.,0.));
#849=DIRECTION('',(0.,0.,-1.));
#850=DIRECTION('',(1.,0.,0.));
#851=DIRECTION('',(0.,0.,-1.));
#852=DIRECTION('',(-1.,0.,0.));
#853=DIRECTION('',(0.,0.,-1.));
#854=DIRECTION('',(1.,0.,0.));
#855=DIRECTION('',(0.,0.,-1.));
#856=DIRECTION('',(-1.,0.,0.));
#857=DIRECTION('',(1.,0.,0.));
#858=DIRECTION('',(0.,0.,-1.));
#859=DIRECTION('',(1.,0.,0.));
#860=DIRECTION('',(0.,0.,-1.));
#861=DIRECTION('',(1.,0.,0.));
#862=DIRECTION('',(-1.,0.,0.));
#863=DIRECTION('',(0.,0.,-1.));
#864=DIRECTION('',(1.,0.,0.));
#865=DIRECTION('',(0.,0.,-1.));
#866=DIRECTION('',(-1.,0.,0.));
#867=DIRECTION('',(1.,0.,0.));
#868=DIRECTION('',(0.,1.,0.));
#869=DIRECTION('',(0.,1.,0.));
#870=DIRECTION('',(1.,0.,0.));
#871=DIRECTION('',(0.,0.,-1.));
#872=DIRECTION('',(1.,0.,0.));
#873=DIRECTION('',(0.,0.,-1.));
#874=DIRECTION('',(1.,0.,0.));
#875=DIRECTION('',(-1.,0.,0.));
#876=DIRECTION('',(0.,0.,-1.));
#877=DIRECTION('',(0.,0.,-1.));
#878=DIRECTION('',(-1.,0.,0.));
#879=DIRECTION('',(0.,1.,0.));
#880=DIRECTION('',(0.,1.,0.));
#881=DIRECTION('',(0.,0.,-1.));
#882=DIRECTION('',(-1.,0.,0.));
#883=DIRECTION('',(0.,0.,1.));
#884=DIRECTION('',(1.,0.,0.));
#885=DIRECTION('',(0.,0.,-1.));
#886=DIRECTION('',(-1.,0.,0.));
#887=DIRECTION('',(0.,0.,1.));
#888=DIRECTION('',(1.,0.,0.));
#889=DIRECTION('',(1.,0.,0.));
#890=DIRECTION('',(0.,0.,-1.));
#891=DIRECTION('',(0.,0.,-1.));
#892=DIRECTION('',(0.,-1.,0.));
#893=DIRECTION('',(0.,0.,-1.));
#894=DIRECTION('',(0.,-1.,0.));
#895=DIRECTION('',(0.,0.,-1.));
#896=DIRECTION('',(-1.,0.,0.));
#897=DIRECTION('',(0.,0.,-1.));
#898=DIRECTION('',(-1.,0.,0.));
#899=DIRECTION('',(0.,0.,-1.));
#900=DIRECTION('',(-1.,0.,0.));
#901=DIRECTION('',(0.,0.,-1.));
#902=DIRECTION('',(-1.,0.,0.));
#903=DIRECTION('',(1.,0.,0.));
#904=DIRECTION('',(0.,0.,-1.));
#905=DIRECTION('',(0.,-1.,0.));
#906=DIRECTION('',(0.,0.,-1.));
#907=DIRECTION('',(0.,-1.,0.));
#908=DIRECTION('',(0.,0.,-1.));
#909=DIRECTION('',(0.,-1.,0.));
#910=DIRECTION('',(0.,0.,-1.));
#911=DIRECTION('',(0.,0.,-1.));
#912=DIRECTION('',(-1.,0.,0.));
#913=DIRECTION('',(-1.,0.,0.));
#914=DIRECTION('',(1.,0.,0.));
#915=DIRECTION('',(0.,0.,-1.));
#916=DIRECTION('',(0.,0.,-1.));
#917=DIRECTION('',(0.,-1.,0.));
#918=DIRECTION('',(0.,-1.,0.));
#919=DIRECTION('',(0.,0.,-1.));
#920=DIRECTION('',(-1.,0.,0.));
#921=DIRECTION('',(0.,0.,1.));
#922=DIRECTION('',(1.,0.,0.));
#923=DIRECTION('',(0.,0.,-1.));
#924=DIRECTION('',(0.,0.,-1.));
#925=DIRECTION('',(-1.,0.,0.));
#926=DIRECTION('',(0.,-1.,0.));
#927=DIRECTION('',(0.,0.,-1.));
#928=DIRECTION('',(0.,0.,-1.));
#929=DIRECTION('',(-1.,0.,0.));
#930=DIRECTION('',(-1.,0.,0.));
#931=DIRECTION('',(1.,0.,0.));
#932=DIRECTION('',(0.,0.,-1.));
#933=DIRECTION('',(0.,0.,-1.));
#934=DIRECTION('',(0.,-1.,0.));
#935=DIRECTION('',(0.,-1.,0.));
#936=DIRECTION('',(0.,1.,0.));
#937=DIRECTION('',(0.,0.,1.));
#938=DIRECTION('',(0.,0.,-1.));
#939=DIRECTION('',(1.,0.,0.));
#940=DIRECTION('',(1.,0.,0.));
#941=DIRECTION('',(0.,0.,-1.));
#942=DIRECTION('',(-1.,0.,0.));
#943=DIRECTION('',(0.,0.,1.));
#944=DIRECTION('',(1.,0.,0.));
#945=DIRECTION('',(0.,0.,-1.));
#946=DIRECTION('',(0.,0.,-1.));
#947=DIRECTION('',(-1.,0.,0.));
#948=DIRECTION('',(-1.,0.,0.));
#949=DIRECTION('',(0.,0.,1.));
#950=DIRECTION('',(0.,1.,0.));
#951=DIRECTION('',(0.,0.,-1.));
#952=DIRECTION('',(0.,1.,0.));
#953=DIRECTION('',(0.,-1.,0.));
#954=DIRECTION('',(0.,0.,-1.));
#955=DIRECTION('',(-1.,0.,0.));
#956=DIRECTION('',(0.,0.,-1.));
#957=DIRECTION('',(-1.,0.,0.));
#958=DIRECTION('',(-1.,0.,0.));
#959=DIRECTION('',(0.,0.,1.));
#960=DIRECTION('',(0.,0.,-1.));
#961=DIRECTION('',(0.,1.,0.));
#962=DIRECTION('',(0.,1.,0.));
#963=DIRECTION('',(1.,0.,0.));
#964=DIRECTION('',(0.,0.,-1.));
#965=DIRECTION('',(0.,0.,-1.));
#966=DIRECTION('',(0.,-1.,0.));
#967=DIRECTION('',(0.,0.,-1.));
#968=DIRECTION('',(0.,-1.,0.));
#969=DIRECTION('',(0.,0.,-1.));
#970=DIRECTION('',(-1.,0.,0.));
#971=DIRECTION('',(0.,0.,1.));
#972=DIRECTION('',(1.,0.,0.));
#973=DIRECTION('',(0.,0.,-1.));
#974=DIRECTION('',(-1.,0.,0.));
#975=DIRECTION('',(0.,0.,1.));
#976=DIRECTION('',(1.,0.,0.));
#977=DIRECTION('',(0.,0.,-1.));
#978=DIRECTION('',(-1.,0.,0.));
#979=DIRECTION('',(0.,0.,1.));
#980=DIRECTION('',(1.,0.,0.));
#981=DIRECTION('',(0.,0.,-1.));
#982=DIRECTION('',(0.,0.,-1.));
#983=DIRECTION('',(-1.,0.,0.));
#984=DIRECTION('',(0.,0.,-1.));
#985=DIRECTION('',(-1.,0.,0.));
#986=DIRECTION('',(0.,0.,1.));
#987=DIRECTION('',(1.,0.,0.));
#988=DIRECTION('',(0.,0.,-1.));
#989=DIRECTION('',(-1.,0.,0.));
#990=DIRECTION('',(0.,0.,-1.));
#991=DIRECTION('',(0.,-1.,0.));
#992=DIRECTION('',(0.,0.,-1.));
#993=DIRECTION('',(-0.707106781186548,-0.707106781186548,0.));
#994=DIRECTION('',(-0.707106781186548,0.707106781186548,0.));
#995=DIRECTION('',(0.707106781186548,-0.707106781186548,0.));
#996=DIRECTION('',(-0.707106781186548,-0.707106781186548,0.));
#997=DIRECTION('',(0.,-1.,0.));
#998=DIRECTION('',(0.,1.,0.));
#999=DIRECTION('',(0.,0.,1.));
#1000=DIRECTION('',(1.,0.,0.));
#1001=DIRECTION('',(0.,0.,-1.));
#1002=DIRECTION('',(1.,0.,0.));
#1003=DIRECTION('',(0.,-1.,0.));
#1004=DIRECTION('',(0.,0.,-1.));
#1005=DIRECTION('',(-1.,0.,0.));
#1006=DIRECTION('',(0.,0.,1.));
#1007=DIRECTION('',(-1.,0.,0.));
#1008=DIRECTION('',(0.,0.,1.));
#1009=DIRECTION('',(1.,0.,0.));
#1010=DIRECTION('',(-6.08842551727161E-17,1.,0.));
#1011=DIRECTION('',(1.,1.2892330309762E-16,0.));
#1012=DIRECTION('',(1.,1.2892330309762E-16,0.));
#1013=DIRECTION('',(-6.08842551727161E-17,1.,0.));
#1014=DIRECTION('',(1.,1.22116595130084E-16,0.));
#1015=DIRECTION('',(-1.22116595130084E-16,1.,0.));
#1016=DIRECTION('',(1.,6.08842551727161E-17,0.));
#1017=DIRECTION('',(-6.08842551727161E-17,1.,0.));
#1018=DIRECTION('',(1.,1.22116595130084E-16,0.));
#1019=DIRECTION('',(1.,1.22116595130084E-16,0.));
#1020=DIRECTION('',(-1.,-1.22116595130084E-16,0.));
#1021=DIRECTION('',(1.22116595130084E-16,-1.,0.));
#1022=DIRECTION('',(1.,6.08842551727161E-17,0.));
#1023=DIRECTION('',(-6.08842551727161E-17,1.,0.));
#1024=DIRECTION('',(1.,1.22116595130084E-16,0.));
#1025=DIRECTION('',(1.,1.22116595130084E-16,0.));
#1026=DIRECTION('',(0.,0.,1.));
#1027=DIRECTION('',(1.,0.,0.));
#1028=DIRECTION('',(-6.08842551727161E-17,1.,0.));
#1029=DIRECTION('',(-6.08842551727161E-17,1.,0.));
#1030=DIRECTION('',(1.,1.2892330309762E-16,0.));
#1031=DIRECTION('',(1.,1.2892330309762E-16,0.));
#1032=DIRECTION('',(-1.2892330309762E-16,1.,0.));
#1033=DIRECTION('',(-1.,-1.2892330309762E-16,0.));
#1034=DIRECTION('',(0.,0.,-1.));
#1035=DIRECTION('',(-1.2892330309762E-16,1.,0.));
#1036=DIRECTION('',(-1.,-1.2892330309762E-16,0.));
#1037=DIRECTION('',(0.,0.,-1.));
#1038=DIRECTION('',(0.,0.,1.));
#1039=DIRECTION('',(1.,0.,0.));
#1040=DIRECTION('',(-6.08842551727161E-17,1.,0.));
#1041=DIRECTION('',(1.,1.22116595130084E-16,0.));
#1042=DIRECTION('',(1.,1.22116595130084E-16,0.));
#1043=DIRECTION('',(-6.08842551727161E-17,1.,0.));
#1044=DIRECTION('',(-1.22116595130084E-16,1.,0.));
#1045=DIRECTION('',(-1.,-1.22116595130084E-16,0.));
#1046=DIRECTION('',(0.,0.,-1.));
#1047=DIRECTION('',(-1.22116595130084E-16,1.,0.));
#1048=DIRECTION('',(-1.,-1.22116595130084E-16,0.));
#1049=DIRECTION('',(0.,0.,-1.));
#1050=DIRECTION('',(1.,6.08842551727161E-17,0.));
#1051=DIRECTION('',(-6.08842551727161E-17,1.,0.));
#1052=DIRECTION('',(1.,6.08842551727161E-17,0.));
#1053=DIRECTION('',(-6.08842551727161E-17,1.,0.));
#1054=CARTESIAN_POINT('',(0.,0.,0.));
#1055=CARTESIAN_POINT('',(0.2425,-0.09,0.01151));
#1056=CARTESIAN_POINT('',(0.4191,-0.02,0.01151));
#1057=CARTESIAN_POINT('',(0.4175,-0.02,0.01151));
#1058=CARTESIAN_POINT('',(0.2425,-0.09,0.01151));
#1059=CARTESIAN_POINT('',(0.43815,-0.16,0.01151));
#1060=CARTESIAN_POINT('',(0.43655,-0.16,0.01151));
#1061=CARTESIAN_POINT('',(0.2428875,-0.0904875,-0.00249));
#1062=CARTESIAN_POINT('',(0.4665875,-0.0188,-0.00249));
#1063=CARTESIAN_POINT('',(0.4649875,-0.0188,-0.00249));
#1064=CARTESIAN_POINT('',(0.2428875,-0.0904875,-0.00249));
#1065=CARTESIAN_POINT('',(0.4665875,-0.1616875,-0.00249));
#1066=CARTESIAN_POINT('',(0.4649875,-0.1616875,-0.00249));
#1067=CARTESIAN_POINT('',(0.445175,-0.0351,-0.002435));
#1068=CARTESIAN_POINT('',(0.463,-0.0351,-0.002435));
#1069=CARTESIAN_POINT('',(0.463,-0.0351,0.00106499999999998));
#1070=CARTESIAN_POINT('',(0.463,-0.0351,-0.005935));
#1071=CARTESIAN_POINT('',(0.445175,-0.0351,-0.005935));
#1072=CARTESIAN_POINT('',(0.470175,-0.0351,-0.005935));
#1073=CARTESIAN_POINT('',(0.470175,-0.0351,-0.002435));
#1074=CARTESIAN_POINT('',(0.470175,-0.0351,0.00106499999999998));
#1075=CARTESIAN_POINT('',(0.445175,-0.0351,0.00106499999999998));
#1076=CARTESIAN_POINT('',(0.445175,-0.0381,-0.005935));
#1077=CARTESIAN_POINT('',(0.445175,-0.0411,-0.005935));
#1078=CARTESIAN_POINT('',(0.463,-0.0411,-0.005935));
#1079=CARTESIAN_POINT('',(0.470175,-0.0411,-0.005935));
#1080=CARTESIAN_POINT('',(0.470175,-0.0381,-0.005935));
#1081=CARTESIAN_POINT('',(0.463,-0.09,-0.005935));
#1082=CARTESIAN_POINT('',(0.445175,-0.0411,-0.002435));
#1083=CARTESIAN_POINT('',(0.463,-0.0411,-0.002435));
#1084=CARTESIAN_POINT('',(0.463,-0.0411,0.00106499999999998));
#1085=CARTESIAN_POINT('',(0.445175,-0.0411,0.00106499999999998));
#1086=CARTESIAN_POINT('',(0.470175,-0.0411,0.00106499999999998));
#1087=CARTESIAN_POINT('',(0.470175,-0.0411,-0.002435));
#1088=CARTESIAN_POINT('',(0.445175,-0.0381,0.00106499999999999));
#1089=CARTESIAN_POINT('',(0.463,-0.09,0.00106499999999999));
#1090=CARTESIAN_POINT('',(0.470175,-0.0381,0.00106499999999999));
#1091=CARTESIAN_POINT('',(0.4191,-0.02,0.01151));
#1092=CARTESIAN_POINT('',(0.4191,-0.02,0.00701));
#1093=CARTESIAN_POINT('',(0.4207,-0.02,0.00701));
#1094=CARTESIAN_POINT('',(0.43815,-0.16,0.01151));
#1095=CARTESIAN_POINT('',(0.43815,-0.16,0.00701));
#1096=CARTESIAN_POINT('',(0.43975,-0.16,0.00701));
#1097=CARTESIAN_POINT('',(0.470175,-0.0904875,0.01351));
#1098=CARTESIAN_POINT('',(0.470175,-0.0156,0.01351));
#1099=CARTESIAN_POINT('',(0.470175,-0.0156,0.01051));
#1100=CARTESIAN_POINT('',(0.470175,-0.0156,-0.00749));
#1101=CARTESIAN_POINT('',(0.470175,-0.0904875,0.01051));
#1102=CARTESIAN_POINT('',(0.470175,-0.165375,0.01051));
#1103=CARTESIAN_POINT('',(0.470175,-0.165375,0.01351));
#1104=CARTESIAN_POINT('',(0.470175,-0.165375,-0.00749));
#1105=CARTESIAN_POINT('',(0.470175,-0.0904875,-0.00749));
#1106=CARTESIAN_POINT('',(0.4665875,-0.0188,-0.00249));
#1107=CARTESIAN_POINT('',(0.4665875,-0.0188,-0.00749));
#1108=CARTESIAN_POINT('',(0.4649875,-0.0188,-0.00749));
#1109=CARTESIAN_POINT('',(0.4665875,-0.1616875,-0.00249));
#1110=CARTESIAN_POINT('',(0.4665875,-0.1616875,-0.00749));
#1111=CARTESIAN_POINT('',(0.4649875,-0.1616875,-0.00749));
#1112=CARTESIAN_POINT('',(0.43115,-0.1615,0.006512));
#1113=CARTESIAN_POINT('',(0.43115,-0.1615,0.00651));
#1114=CARTESIAN_POINT('',(0.43115,-0.159,0.00651));
#1115=CARTESIAN_POINT('',(0.43115,-0.164,0.00651));
#1116=CARTESIAN_POINT('',(0.43115,-0.164,0.006512));
#1117=CARTESIAN_POINT('',(0.43115,-0.164,-0.00749));
#1118=CARTESIAN_POINT('',(0.43115,-0.1615,-0.00749));
#1119=CARTESIAN_POINT('',(0.43115,-0.159,-0.00749));
#1120=CARTESIAN_POINT('',(0.43115,-0.159,0.006512));
#1121=CARTESIAN_POINT('',(0.43815,-0.164,0.006512));
#1122=CARTESIAN_POINT('',(0.44515,-0.164,0.006512));
#1123=CARTESIAN_POINT('',(0.44515,-0.164,0.00651));
#1124=CARTESIAN_POINT('',(0.44515,-0.164,-0.00749));
#1125=CARTESIAN_POINT('',(0.43815,-0.164,-0.00749));
#1126=CARTESIAN_POINT('',(0.43815,-0.164,0.00651));
#1127=CARTESIAN_POINT('',(0.44515,-0.1615,0.006512));
#1128=CARTESIAN_POINT('',(0.44515,-0.159,0.006512));
#1129=CARTESIAN_POINT('',(0.44515,-0.159,0.00651));
#1130=CARTESIAN_POINT('',(0.44515,-0.159,-0.00749));
#1131=CARTESIAN_POINT('',(0.44515,-0.1615,-0.00749));
#1132=CARTESIAN_POINT('',(0.44515,-0.1615,0.00651));
#1133=CARTESIAN_POINT('',(0.44615,-0.159,0.006512));
#1134=CARTESIAN_POINT('',(0.44615,-0.159,0.00651));
#1135=CARTESIAN_POINT('',(0.44615,-0.158,0.00651));
#1136=CARTESIAN_POINT('',(0.44615,-0.158,0.006512));
#1137=CARTESIAN_POINT('',(0.44615,-0.158,-0.00749));
#1138=CARTESIAN_POINT('',(0.44615,-0.159,-0.00749));
#1139=CARTESIAN_POINT('',(0.454575,-0.158,0.006512));
#1140=CARTESIAN_POINT('',(0.463,-0.158,0.006512));
#1141=CARTESIAN_POINT('',(0.463,-0.158,0.00651));
#1142=CARTESIAN_POINT('',(0.463,-0.158,-0.00749));
#1143=CARTESIAN_POINT('',(0.454575,-0.158,-0.00749));
#1144=CARTESIAN_POINT('',(0.454575,-0.158,0.00651));
#1145=CARTESIAN_POINT('',(0.463,-0.09,0.006512));
#1146=CARTESIAN_POINT('',(0.463,-0.022,0.006512));
#1147=CARTESIAN_POINT('',(0.463,-0.022,0.00651));
#1148=CARTESIAN_POINT('',(0.463,-0.022,-0.00749));
#1149=CARTESIAN_POINT('',(0.463,-0.09,-0.00749));
#1150=CARTESIAN_POINT('',(0.463,-0.09,0.00651));
#1151=CARTESIAN_POINT('',(0.44505,-0.022,0.006512));
#1152=CARTESIAN_POINT('',(0.4271,-0.022,0.006512));
#1153=CARTESIAN_POINT('',(0.4271,-0.022,0.00651));
#1154=CARTESIAN_POINT('',(0.4271,-0.022,-0.00749));
#1155=CARTESIAN_POINT('',(0.44505,-0.022,-0.00749));
#1156=CARTESIAN_POINT('',(0.44505,-0.022,0.00651));
#1157=CARTESIAN_POINT('',(0.4271,-0.021,0.006512));
#1158=CARTESIAN_POINT('',(0.4271,-0.021,0.00651));
#1159=CARTESIAN_POINT('',(0.4261,-0.021,0.00651));
#1160=CARTESIAN_POINT('',(0.4261,-0.021,0.006512));
#1161=CARTESIAN_POINT('',(0.4261,-0.021,-0.00749));
#1162=CARTESIAN_POINT('',(0.4271,-0.021,-0.00749));
#1163=CARTESIAN_POINT('',(0.4261,-0.0185,0.006512));
#1164=CARTESIAN_POINT('',(0.4261,-0.0185,0.00651));
#1165=CARTESIAN_POINT('',(0.4261,-0.016,0.00651));
#1166=CARTESIAN_POINT('',(0.4261,-0.016,0.006512));
#1167=CARTESIAN_POINT('',(0.4261,-0.016,-0.00749));
#1168=CARTESIAN_POINT('',(0.4261,-0.0185,-0.00749));
#1169=CARTESIAN_POINT('',(0.4191,-0.016,0.006512));
#1170=CARTESIAN_POINT('',(0.4191,-0.016,0.00651));
#1171=CARTESIAN_POINT('',(0.4121,-0.016,0.00651));
#1172=CARTESIAN_POINT('',(0.4121,-0.016,0.006512));
#1173=CARTESIAN_POINT('',(0.4121,-0.016,-0.00749));
#1174=CARTESIAN_POINT('',(0.4191,-0.016,-0.00749));
#1175=CARTESIAN_POINT('',(0.4121,-0.0185,0.006512));
#1176=CARTESIAN_POINT('',(0.4121,-0.021,0.006512));
#1177=CARTESIAN_POINT('',(0.4121,-0.021,0.00651));
#1178=CARTESIAN_POINT('',(0.4121,-0.021,-0.00749));
#1179=CARTESIAN_POINT('',(0.4121,-0.0185,-0.00749));
#1180=CARTESIAN_POINT('',(0.4121,-0.0185,0.00651));
#1181=CARTESIAN_POINT('',(0.458175,-0.0904875,0.01351));
#1182=CARTESIAN_POINT('',(0.458175,-0.0276,0.01351));
#1183=CARTESIAN_POINT('',(0.458175,-0.0276,0.01351));
#1184=CARTESIAN_POINT('',(0.458175,-0.0276,0.00651));
#1185=CARTESIAN_POINT('',(0.458175,-0.0904875,0.00651));
#1186=CARTESIAN_POINT('',(0.458175,-0.153375,0.00651));
#1187=CARTESIAN_POINT('',(0.458175,-0.153375,0.01351));
#1188=CARTESIAN_POINT('',(0.458175,-0.153375,0.01351));
#1189=CARTESIAN_POINT('',(0.458175,-0.0904875,0.01351));
#1190=CARTESIAN_POINT('',(0.4191,-0.02,0.00701));
#1191=CARTESIAN_POINT('',(0.4191,-0.02,0.00651));
#1192=CARTESIAN_POINT('',(0.4212,-0.02,0.00651));
#1193=CARTESIAN_POINT('',(0.43815,-0.16,0.00701));
#1194=CARTESIAN_POINT('',(0.43815,-0.16,0.00651));
#1195=CARTESIAN_POINT('',(0.44025,-0.16,0.00651));
#1196=CARTESIAN_POINT('',(0.4111,-0.021,0.006512));
#1197=CARTESIAN_POINT('',(0.4111,-0.021,0.00651));
#1198=CARTESIAN_POINT('',(0.4111,-0.022,0.00651));
#1199=CARTESIAN_POINT('',(0.4111,-0.022,0.006512));
#1200=CARTESIAN_POINT('',(0.4111,-0.022,-0.00749));
#1201=CARTESIAN_POINT('',(0.4111,-0.021,-0.00749));
#1202=CARTESIAN_POINT('',(0.43015,-0.159,0.006512));
#1203=CARTESIAN_POINT('',(0.43015,-0.159,0.00651));
#1204=CARTESIAN_POINT('',(0.43015,-0.158,0.00651));
#1205=CARTESIAN_POINT('',(0.43015,-0.159,-0.00749));
#1206=CARTESIAN_POINT('',(0.43015,-0.158,-0.00749));
#1207=CARTESIAN_POINT('',(0.43015,-0.158,0.006512));
#1208=CARTESIAN_POINT('',(0.467175,-0.0904875,0.01051));
#1209=CARTESIAN_POINT('',(0.467175,-0.162375,0.01051));
#1210=CARTESIAN_POINT('',(0.467175,-0.162375,0.01351));
#1211=CARTESIAN_POINT('',(0.467175,-0.0186,0.01051));
#1212=CARTESIAN_POINT('',(0.467175,-0.0186,0.01351));
#1213=CARTESIAN_POINT('',(0.467175,-0.0904875,0.01351));
#1214=CARTESIAN_POINT('',(0.367903125,-0.022,0.006512));
#1215=CARTESIAN_POINT('',(0.367903125,-0.022,0.00651));
#1216=CARTESIAN_POINT('',(0.335175,-0.022,0.00651));
#1217=CARTESIAN_POINT('',(0.335175,-0.022,0.006512));
#1218=CARTESIAN_POINT('',(0.335175,-0.022,-0.00749));
#1219=CARTESIAN_POINT('',(0.367903125,-0.022,-0.00749));
#1220=CARTESIAN_POINT('',(0.3768328125,-0.158,0.006512));
#1221=CARTESIAN_POINT('',(0.3768328125,-0.158,-0.00749));
#1222=CARTESIAN_POINT('',(0.335175,-0.158,-0.00749));
#1223=CARTESIAN_POINT('',(0.335175,-0.158,0.006512));
#1224=CARTESIAN_POINT('',(0.335175,-0.158,0.00651));
#1225=CARTESIAN_POINT('',(0.3768328125,-0.158,0.00651));
#1226=CARTESIAN_POINT('',(0.2425,-0.09,0.00651));
#1227=CARTESIAN_POINT('',(0.335175,-0.09,0.00651));
#1228=CARTESIAN_POINT('',(0.335175,-0.153375,0.00651));
#1229=CARTESIAN_POINT('',(0.2428875,-0.153375,0.00651));
#1230=CARTESIAN_POINT('',(0.2428875,-0.0276,0.00651));
#1231=CARTESIAN_POINT('',(0.335175,-0.0276,0.00651));
#1232=CARTESIAN_POINT('',(0.335175,-0.09,0.00651));
#1233=CARTESIAN_POINT('',(0.2428875,-0.0186,0.01051));
#1234=CARTESIAN_POINT('',(0.335175,-0.0186,0.01051));
#1235=CARTESIAN_POINT('',(0.335175,-0.0186,0.01351));
#1236=CARTESIAN_POINT('',(0.335175,-0.0156,0.01051));
#1237=CARTESIAN_POINT('',(0.2428875,-0.0186,0.01351));
#1238=CARTESIAN_POINT('',(0.2428875,-0.0156,0.01051));
#1239=CARTESIAN_POINT('',(0.2428875,-0.162375,0.01051));
#1240=CARTESIAN_POINT('',(0.335175,-0.162375,0.01051));
#1241=CARTESIAN_POINT('',(0.335175,-0.165375,0.01051));
#1242=CARTESIAN_POINT('',(0.335175,-0.162375,0.01351));
#1243=CARTESIAN_POINT('',(0.0156,-0.165375,0.01051));
#1244=CARTESIAN_POINT('',(0.470175,-0.162375,0.01351));
#1245=CARTESIAN_POINT('',(0.2428875,-0.0904875,0.01351));
#1246=CARTESIAN_POINT('',(0.335175,-0.0904875,0.01351));
#1247=CARTESIAN_POINT('',(0.335175,-0.153375,0.01351));
#1248=CARTESIAN_POINT('',(0.335175,-0.0904875,0.01351));
#1249=CARTESIAN_POINT('',(0.335175,-0.0276,0.01351));
#1250=CARTESIAN_POINT('',(0.2428875,-0.0276,0.01351));
#1251=CARTESIAN_POINT('',(0.2428875,-0.153375,0.01351));
#1252=CARTESIAN_POINT('',(0.2428875,-0.153375,0.01351));
#1253=CARTESIAN_POINT('',(0.335175,-0.153375,0.01351));
#1254=CARTESIAN_POINT('',(0.2428875,-0.0276,0.01351));
#1255=CARTESIAN_POINT('',(0.335175,-0.0276,0.01351));
#1256=CARTESIAN_POINT('',(0.2428875,-0.0904875,-0.00749));
#1257=CARTESIAN_POINT('',(0.335175,-0.0904875,-0.00749));
#1258=CARTESIAN_POINT('',(0.335175,-0.0156,-0.00749));
#1259=CARTESIAN_POINT('',(0.2428875,-0.0156,-0.00749));
#1260=CARTESIAN_POINT('',(0.2428875,-0.165375,-0.00749));
#1261=CARTESIAN_POINT('',(0.335175,-0.165375,-0.00749));
#1262=CARTESIAN_POINT('',(0.335175,-0.0904875,-0.00749));
#1263=CARTESIAN_POINT('',(0.2428875,-0.0156,0.01351));
#1264=CARTESIAN_POINT('',(0.335175,-0.0156,0.472864554191488));
#1265=CARTESIAN_POINT('',(0.2428875,-0.165375,0.01351));
#1266=CARTESIAN_POINT('',(0.335175,-0.165375,0.472864554191488));
#1267=CARTESIAN_POINT('',(0.335175,-0.0904875,0.472864554191488));
#1268=CARTESIAN_POINT('',(0.335175,-0.0904875,0.472864554191488));
#1269=MECHANICAL_DESIGN_GEOMETRIC_PRESENTATION_REPRESENTATION('',(#758),
#1270);
#1270=(
GEOMETRIC_REPRESENTATION_CONTEXT(3)
GLOBAL_UNCERTAINTY_ASSIGNED_CONTEXT((#1271))
GLOBAL_UNIT_ASSIGNED_CONTEXT((#1274,#1273,#1272))
REPRESENTATION_CONTEXT('TopCaseRight','TOP_LEVEL_ASSEMBLY_PART')
);
#1271=UNCERTAINTY_MEASURE_WITH_UNIT(LENGTH_MEASURE(1.E-8),#1274,
'DISTANCE_ACCURACY_VALUE','Maximum Tolerance applied to model');
#1272=(
NAMED_UNIT(*)
SI_UNIT($,.STERADIAN.)
SOLID_ANGLE_UNIT()
);
#1273=(
NAMED_UNIT(*)
PLANE_ANGLE_UNIT()
SI_UNIT($,.RADIAN.)
);
#1274=(
LENGTH_UNIT()
NAMED_UNIT(*)
SI_UNIT($,.METRE.)
);
#1275=PRODUCT_DEFINITION_SHAPE('','',#1276);
#1276=PRODUCT_DEFINITION('','',#1278,#1277);
#1277=PRODUCT_DEFINITION_CONTEXT('',#1284,'design');
#1278=PRODUCT_DEFINITION_FORMATION_WITH_SPECIFIED_SOURCE('','',#1280,
 .NOT_KNOWN.);
#1279=PRODUCT_RELATED_PRODUCT_CATEGORY('','',(#1280));
#1280=PRODUCT('TopCaseRight','TopCaseRight','TopCaseRight',(#1282));
#1281=PRODUCT_CATEGORY('','');
#1282=PRODUCT_CONTEXT('',#1284,'mechanical');
#1283=APPLICATION_PROTOCOL_DEFINITION('international standard',
'ap242_managed_model_based_3d_engineering',2020,#1284);
#1284=APPLICATION_CONTEXT('managed model based 3d engineering');
ENDSEC;
END-ISO-10303-21;
