ISO-10303-21;
HEADER;
/* Generated by software containing ST-Developer
 * from STEP Tools, Inc. (www.steptools.com) 
 */
/* OPTION: using custom renumber hook */

FILE_DESCRIPTION(
/* description */ ('STEP AP242 Edition 2',
'CAx-IF Rec.Pracs.---Representation and Presentation of Product Manufa
cturing Information (PMI)---4.0---2014-10-13',
'CAx-IF Rec.Pracs.---3D Tessellated Geometry---0.4---2014-09-14','2;1',
'CAx-IF Rec.Pracs.---User Defined Attributes---1.5---2016-08-15'),
/* implementation_level */ '2;1');

FILE_NAME(
/* name */ 'Case - BottomCaseMiddle',
/* time_stamp */ '2026-10-05T22:04:08Z',
/* author */ (''),
/* organization */ (''),
/* preprocessor_version */ 'ST-DEVELOPER v20',
/* originating_system */ 'ONSHAPE BY PTC INC, 1.221',
/* authorisation */ '  ');

FILE_SCHEMA (('AP242_MANAGED_MODEL_BASED_3D_ENGINEERING_MIM_LF { 1 0 10303 442 3 1 4 }'));
ENDSEC;

DATA;
#10=SHAPE_REPRESENTATION_RELATIONSHIP('','',#493,#11);
#11=ADVANCED_BREP_SHAPE_REPRESENTATION('',(#491),#795);
#12=LINE('',#688,#60);
#13=LINE('',#691,#61);
#14=LINE('',#693,#62);
#15=LINE('',#695,#63);
#16=LINE('',#697,#64);
#17=LINE('',#700,#65);
#18=LINE('',#701,#66);
#19=LINE('',#703,#67);
#20=LINE('',#706,#68);
#21=LINE('',#707,#69);
#22=LINE('',#709,#70);
#23=LINE('',#712,#71);
#24=LINE('',#713,#72);
#25=LINE('',#715,#73);
#26=LINE('',#718,#74);
#27=LINE('',#719,#75);
#28=LINE('',#721,#76);
#29=LINE('',#724,#77);
#30=LINE('',#725,#78);
#31=LINE('',#727,#79);
#32=LINE('',#730,#80);
#33=LINE('',#731,#81);
#34=LINE('',#742,#82);
#35=LINE('',#745,#83);
#36=LINE('',#746,#84);
#37=LINE('',#748,#85);
#38=LINE('',#750,#86);
#39=LINE('',#752,#87);
#40=LINE('',#754,#88);
#41=LINE('',#756,#89);
#42=LINE('',#758,#90);
#43=LINE('',#760,#91);
#44=LINE('',#762,#92);
#45=LINE('',#764,#93);
#46=LINE('',#766,#94);
#47=LINE('',#768,#95);
#48=LINE('',#770,#96);
#49=LINE('',#772,#97);
#50=LINE('',#774,#98);
#51=LINE('',#776,#99);
#52=LINE('',#778,#100);
#53=LINE('',#780,#101);
#54=LINE('',#782,#102);
#55=LINE('',#784,#103);
#56=LINE('',#786,#104);
#57=LINE('',#788,#105);
#58=LINE('',#790,#106);
#59=LINE('',#792,#107);
#60=VECTOR('',#568,1.);
#61=VECTOR('',#569,1.);
#62=VECTOR('',#570,1.);
#63=VECTOR('',#571,1.);
#64=VECTOR('',#574,1.);
#65=VECTOR('',#575,1.);
#66=VECTOR('',#576,1.);
#67=VECTOR('',#579,1.);
#68=VECTOR('',#580,1.);
#69=VECTOR('',#581,1.);
#70=VECTOR('',#584,1.);
#71=VECTOR('',#585,1.);
#72=VECTOR('',#586,1.);
#73=VECTOR('',#589,1.);
#74=VECTOR('',#590,1.);
#75=VECTOR('',#591,1.);
#76=VECTOR('',#594,1.);
#77=VECTOR('',#595,1.);
#78=VECTOR('',#596,1.);
#79=VECTOR('',#599,1.);
#80=VECTOR('',#600,1.);
#81=VECTOR('',#601,1.);
#82=VECTOR('',#616,1.);
#83=VECTOR('',#617,1.);
#84=VECTOR('',#618,1.);
#85=VECTOR('',#619,1.);
#86=VECTOR('',#620,1.);
#87=VECTOR('',#621,1.);
#88=VECTOR('',#622,1.);
#89=VECTOR('',#623,1.);
#90=VECTOR('',#624,1.);
#91=VECTOR('',#627,1.);
#92=VECTOR('',#628,1.);
#93=VECTOR('',#629,1.);
#94=VECTOR('',#630,1.);
#95=VECTOR('',#631,1.);
#96=VECTOR('',#632,1.);
#97=VECTOR('',#633,1.);
#98=VECTOR('',#634,1.);
#99=VECTOR('',#635,1.);
#100=VECTOR('',#638,1.);
#101=VECTOR('',#641,1.);
#102=VECTOR('',#644,1.);
#103=VECTOR('',#647,1.);
#104=VECTOR('',#650,1.);
#105=VECTOR('',#653,1.);
#106=VECTOR('',#656,1.);
#107=VECTOR('',#659,1.);
#108=CYLINDRICAL_SURFACE('',#504,0.00119999999999998);
#109=CYLINDRICAL_SURFACE('',#506,0.00119999999999998);
#110=CYLINDRICAL_SURFACE('',#508,0.0012);
#111=CYLINDRICAL_SURFACE('',#517,0.0025);
#112=CYLINDRICAL_SURFACE('',#519,0.0025);
#113=CYLINDRICAL_SURFACE('',#521,0.0025);
#114=CIRCLE('',#497,0.0025);
#115=CIRCLE('',#500,0.0025);
#116=CIRCLE('',#503,0.0025);
#117=CIRCLE('',#505,0.00119999999999998);
#118=CIRCLE('',#507,0.00119999999999998);
#119=CIRCLE('',#509,0.0012);
#120=CIRCLE('',#518,0.0025);
#121=CIRCLE('',#520,0.0025);
#122=CIRCLE('',#522,0.0025);
#123=ORIENTED_EDGE('',*,*,#243,.F.);
#124=ORIENTED_EDGE('',*,*,#244,.T.);
#125=ORIENTED_EDGE('',*,*,#245,.F.);
#126=ORIENTED_EDGE('',*,*,#246,.T.);
#127=ORIENTED_EDGE('',*,*,#247,.F.);
#128=ORIENTED_EDGE('',*,*,#248,.T.);
#129=ORIENTED_EDGE('',*,*,#249,.F.);
#130=ORIENTED_EDGE('',*,*,#247,.T.);
#131=ORIENTED_EDGE('',*,*,#250,.F.);
#132=ORIENTED_EDGE('',*,*,#245,.T.);
#133=ORIENTED_EDGE('',*,*,#251,.F.);
#134=ORIENTED_EDGE('',*,*,#243,.T.);
#135=ORIENTED_EDGE('',*,*,#252,.T.);
#136=ORIENTED_EDGE('',*,*,#253,.T.);
#137=ORIENTED_EDGE('',*,*,#254,.F.);
#138=ORIENTED_EDGE('',*,*,#255,.F.);
#139=ORIENTED_EDGE('',*,*,#256,.T.);
#140=ORIENTED_EDGE('',*,*,#257,.T.);
#141=ORIENTED_EDGE('',*,*,#252,.F.);
#142=ORIENTED_EDGE('',*,*,#258,.F.);
#143=ORIENTED_EDGE('',*,*,#259,.T.);
#144=ORIENTED_EDGE('',*,*,#260,.T.);
#145=ORIENTED_EDGE('',*,*,#256,.F.);
#146=ORIENTED_EDGE('',*,*,#261,.F.);
#147=ORIENTED_EDGE('',*,*,#262,.T.);
#148=ORIENTED_EDGE('',*,*,#263,.T.);
#149=ORIENTED_EDGE('',*,*,#259,.F.);
#150=ORIENTED_EDGE('',*,*,#264,.F.);
#151=ORIENTED_EDGE('',*,*,#265,.T.);
#152=ORIENTED_EDGE('',*,*,#266,.T.);
#153=ORIENTED_EDGE('',*,*,#262,.F.);
#154=ORIENTED_EDGE('',*,*,#267,.F.);
#155=ORIENTED_EDGE('',*,*,#268,.T.);
#156=ORIENTED_EDGE('',*,*,#269,.T.);
#157=ORIENTED_EDGE('',*,*,#265,.F.);
#158=ORIENTED_EDGE('',*,*,#270,.F.);
#159=ORIENTED_EDGE('',*,*,#271,.T.);
#160=ORIENTED_EDGE('',*,*,#272,.T.);
#161=ORIENTED_EDGE('',*,*,#268,.F.);
#162=ORIENTED_EDGE('',*,*,#273,.F.);
#163=ORIENTED_EDGE('',*,*,#244,.F.);
#164=ORIENTED_EDGE('',*,*,#274,.T.);
#165=ORIENTED_EDGE('',*,*,#246,.F.);
#166=ORIENTED_EDGE('',*,*,#275,.T.);
#167=ORIENTED_EDGE('',*,*,#248,.F.);
#168=ORIENTED_EDGE('',*,*,#276,.T.);
#169=ORIENTED_EDGE('',*,*,#251,.T.);
#170=ORIENTED_EDGE('',*,*,#250,.T.);
#171=ORIENTED_EDGE('',*,*,#249,.T.);
#172=ORIENTED_EDGE('',*,*,#277,.F.);
#173=ORIENTED_EDGE('',*,*,#278,.F.);
#174=ORIENTED_EDGE('',*,*,#253,.F.);
#175=ORIENTED_EDGE('',*,*,#257,.F.);
#176=ORIENTED_EDGE('',*,*,#260,.F.);
#177=ORIENTED_EDGE('',*,*,#263,.F.);
#178=ORIENTED_EDGE('',*,*,#266,.F.);
#179=ORIENTED_EDGE('',*,*,#269,.F.);
#180=ORIENTED_EDGE('',*,*,#272,.F.);
#181=ORIENTED_EDGE('',*,*,#279,.T.);
#182=ORIENTED_EDGE('',*,*,#280,.F.);
#183=ORIENTED_EDGE('',*,*,#281,.F.);
#184=ORIENTED_EDGE('',*,*,#282,.F.);
#185=ORIENTED_EDGE('',*,*,#283,.F.);
#186=ORIENTED_EDGE('',*,*,#284,.F.);
#187=ORIENTED_EDGE('',*,*,#285,.F.);
#188=ORIENTED_EDGE('',*,*,#276,.F.);
#189=ORIENTED_EDGE('',*,*,#275,.F.);
#190=ORIENTED_EDGE('',*,*,#274,.F.);
#191=ORIENTED_EDGE('',*,*,#286,.F.);
#192=ORIENTED_EDGE('',*,*,#287,.T.);
#193=ORIENTED_EDGE('',*,*,#288,.T.);
#194=ORIENTED_EDGE('',*,*,#289,.T.);
#195=ORIENTED_EDGE('',*,*,#290,.T.);
#196=ORIENTED_EDGE('',*,*,#291,.T.);
#197=ORIENTED_EDGE('',*,*,#292,.T.);
#198=ORIENTED_EDGE('',*,*,#293,.T.);
#199=ORIENTED_EDGE('',*,*,#294,.F.);
#200=ORIENTED_EDGE('',*,*,#273,.T.);
#201=ORIENTED_EDGE('',*,*,#270,.T.);
#202=ORIENTED_EDGE('',*,*,#267,.T.);
#203=ORIENTED_EDGE('',*,*,#264,.T.);
#204=ORIENTED_EDGE('',*,*,#261,.T.);
#205=ORIENTED_EDGE('',*,*,#258,.T.);
#206=ORIENTED_EDGE('',*,*,#255,.T.);
#207=ORIENTED_EDGE('',*,*,#294,.T.);
#208=ORIENTED_EDGE('',*,*,#295,.T.);
#209=ORIENTED_EDGE('',*,*,#279,.F.);
#210=ORIENTED_EDGE('',*,*,#271,.F.);
#211=ORIENTED_EDGE('',*,*,#296,.F.);
#212=ORIENTED_EDGE('',*,*,#286,.T.);
#213=ORIENTED_EDGE('',*,*,#254,.T.);
#214=ORIENTED_EDGE('',*,*,#278,.T.);
#215=ORIENTED_EDGE('',*,*,#297,.T.);
#216=ORIENTED_EDGE('',*,*,#280,.T.);
#217=ORIENTED_EDGE('',*,*,#295,.F.);
#218=ORIENTED_EDGE('',*,*,#293,.F.);
#219=ORIENTED_EDGE('',*,*,#298,.T.);
#220=ORIENTED_EDGE('',*,*,#281,.T.);
#221=ORIENTED_EDGE('',*,*,#297,.F.);
#222=ORIENTED_EDGE('',*,*,#292,.F.);
#223=ORIENTED_EDGE('',*,*,#299,.T.);
#224=ORIENTED_EDGE('',*,*,#282,.T.);
#225=ORIENTED_EDGE('',*,*,#298,.F.);
#226=ORIENTED_EDGE('',*,*,#291,.F.);
#227=ORIENTED_EDGE('',*,*,#300,.T.);
#228=ORIENTED_EDGE('',*,*,#283,.T.);
#229=ORIENTED_EDGE('',*,*,#299,.F.);
#230=ORIENTED_EDGE('',*,*,#290,.F.);
#231=ORIENTED_EDGE('',*,*,#301,.T.);
#232=ORIENTED_EDGE('',*,*,#284,.T.);
#233=ORIENTED_EDGE('',*,*,#300,.F.);
#234=ORIENTED_EDGE('',*,*,#289,.F.);
#235=ORIENTED_EDGE('',*,*,#302,.T.);
#236=ORIENTED_EDGE('',*,*,#285,.T.);
#237=ORIENTED_EDGE('',*,*,#301,.F.);
#238=ORIENTED_EDGE('',*,*,#288,.F.);
#239=ORIENTED_EDGE('',*,*,#296,.T.);
#240=ORIENTED_EDGE('',*,*,#277,.T.);
#241=ORIENTED_EDGE('',*,*,#302,.F.);
#242=ORIENTED_EDGE('',*,*,#287,.F.);
#243=EDGE_CURVE('',#303,#303,#347,.T.);
#244=EDGE_CURVE('',#304,#304,#114,.T.);
#245=EDGE_CURVE('',#305,#305,#348,.T.);
#246=EDGE_CURVE('',#306,#306,#115,.T.);
#247=EDGE_CURVE('',#307,#307,#349,.T.);
#248=EDGE_CURVE('',#308,#308,#116,.T.);
#249=EDGE_CURVE('',#309,#309,#117,.T.);
#250=EDGE_CURVE('',#310,#310,#118,.T.);
#251=EDGE_CURVE('',#311,#311,#119,.T.);
#252=EDGE_CURVE('',#312,#313,#12,.T.);
#253=EDGE_CURVE('',#313,#314,#13,.F.);
#254=EDGE_CURVE('',#315,#314,#14,.T.);
#255=EDGE_CURVE('',#312,#315,#15,.T.);
#256=EDGE_CURVE('',#316,#317,#16,.T.);
#257=EDGE_CURVE('',#317,#313,#17,.F.);
#258=EDGE_CURVE('',#316,#312,#18,.T.);
#259=EDGE_CURVE('',#318,#319,#19,.T.);
#260=EDGE_CURVE('',#319,#317,#20,.F.);
#261=EDGE_CURVE('',#318,#316,#21,.T.);
#262=EDGE_CURVE('',#320,#321,#22,.T.);
#263=EDGE_CURVE('',#321,#319,#23,.F.);
#264=EDGE_CURVE('',#320,#318,#24,.T.);
#265=EDGE_CURVE('',#322,#323,#25,.T.);
#266=EDGE_CURVE('',#323,#321,#26,.F.);
#267=EDGE_CURVE('',#322,#320,#27,.T.);
#268=EDGE_CURVE('',#324,#325,#28,.T.);
#269=EDGE_CURVE('',#325,#323,#29,.F.);
#270=EDGE_CURVE('',#324,#322,#30,.T.);
#271=EDGE_CURVE('',#326,#327,#31,.T.);
#272=EDGE_CURVE('',#327,#325,#32,.F.);
#273=EDGE_CURVE('',#326,#324,#33,.T.);
#274=EDGE_CURVE('',#328,#328,#120,.T.);
#275=EDGE_CURVE('',#329,#329,#121,.T.);
#276=EDGE_CURVE('',#330,#330,#122,.T.);
#277=EDGE_CURVE('',#331,#332,#34,.T.);
#278=EDGE_CURVE('',#314,#331,#35,.T.);
#279=EDGE_CURVE('',#327,#333,#36,.T.);
#280=EDGE_CURVE('',#334,#333,#37,.T.);
#281=EDGE_CURVE('',#335,#334,#38,.T.);
#282=EDGE_CURVE('',#336,#335,#39,.T.);
#283=EDGE_CURVE('',#337,#336,#40,.T.);
#284=EDGE_CURVE('',#338,#337,#41,.T.);
#285=EDGE_CURVE('',#332,#338,#42,.T.);
#286=EDGE_CURVE('',#339,#315,#43,.T.);
#287=EDGE_CURVE('',#339,#340,#44,.T.);
#288=EDGE_CURVE('',#340,#341,#45,.T.);
#289=EDGE_CURVE('',#341,#342,#46,.T.);
#290=EDGE_CURVE('',#342,#343,#47,.T.);
#291=EDGE_CURVE('',#343,#344,#48,.T.);
#292=EDGE_CURVE('',#344,#345,#49,.T.);
#293=EDGE_CURVE('',#345,#346,#50,.T.);
#294=EDGE_CURVE('',#326,#346,#51,.T.);
#295=EDGE_CURVE('',#346,#333,#52,.T.);
#296=EDGE_CURVE('',#339,#331,#53,.T.);
#297=EDGE_CURVE('',#345,#334,#54,.T.);
#298=EDGE_CURVE('',#344,#335,#55,.T.);
#299=EDGE_CURVE('',#343,#336,#56,.T.);
#300=EDGE_CURVE('',#342,#337,#57,.T.);
#301=EDGE_CURVE('',#341,#338,#58,.T.);
#302=EDGE_CURVE('',#340,#332,#59,.T.);
#303=VERTEX_POINT('',#665);
#304=VERTEX_POINT('',#667);
#305=VERTEX_POINT('',#670);
#306=VERTEX_POINT('',#672);
#307=VERTEX_POINT('',#675);
#308=VERTEX_POINT('',#677);
#309=VERTEX_POINT('',#680);
#310=VERTEX_POINT('',#683);
#311=VERTEX_POINT('',#686);
#312=VERTEX_POINT('',#689);
#313=VERTEX_POINT('',#690);
#314=VERTEX_POINT('',#692);
#315=VERTEX_POINT('',#694);
#316=VERTEX_POINT('',#698);
#317=VERTEX_POINT('',#699);
#318=VERTEX_POINT('',#704);
#319=VERTEX_POINT('',#705);
#320=VERTEX_POINT('',#710);
#321=VERTEX_POINT('',#711);
#322=VERTEX_POINT('',#716);
#323=VERTEX_POINT('',#717);
#324=VERTEX_POINT('',#722);
#325=VERTEX_POINT('',#723);
#326=VERTEX_POINT('',#728);
#327=VERTEX_POINT('',#729);
#328=VERTEX_POINT('',#734);
#329=VERTEX_POINT('',#737);
#330=VERTEX_POINT('',#740);
#331=VERTEX_POINT('',#743);
#332=VERTEX_POINT('',#744);
#333=VERTEX_POINT('',#747);
#334=VERTEX_POINT('',#749);
#335=VERTEX_POINT('',#751);
#336=VERTEX_POINT('',#753);
#337=VERTEX_POINT('',#755);
#338=VERTEX_POINT('',#757);
#339=VERTEX_POINT('',#761);
#340=VERTEX_POINT('',#763);
#341=VERTEX_POINT('',#765);
#342=VERTEX_POINT('',#767);
#343=VERTEX_POINT('',#769);
#344=VERTEX_POINT('',#771);
#345=VERTEX_POINT('',#773);
#346=VERTEX_POINT('',#775);
#347=ELLIPSE('',#496,0.00120660993547623,0.0012);
#348=ELLIPSE('',#499,0.0012066099354762,0.00119999999999998);
#349=ELLIPSE('',#502,0.0012066099354762,0.00119999999999998);
#350=EDGE_LOOP('',(#123));
#351=EDGE_LOOP('',(#124));
#352=EDGE_LOOP('',(#125));
#353=EDGE_LOOP('',(#126));
#354=EDGE_LOOP('',(#127));
#355=EDGE_LOOP('',(#128));
#356=EDGE_LOOP('',(#129));
#357=EDGE_LOOP('',(#130));
#358=EDGE_LOOP('',(#131));
#359=EDGE_LOOP('',(#132));
#360=EDGE_LOOP('',(#133));
#361=EDGE_LOOP('',(#134));
#362=EDGE_LOOP('',(#135,#136,#137,#138));
#363=EDGE_LOOP('',(#139,#140,#141,#142));
#364=EDGE_LOOP('',(#143,#144,#145,#146));
#365=EDGE_LOOP('',(#147,#148,#149,#150));
#366=EDGE_LOOP('',(#151,#152,#153,#154));
#367=EDGE_LOOP('',(#155,#156,#157,#158));
#368=EDGE_LOOP('',(#159,#160,#161,#162));
#369=EDGE_LOOP('',(#163));
#370=EDGE_LOOP('',(#164));
#371=EDGE_LOOP('',(#165));
#372=EDGE_LOOP('',(#166));
#373=EDGE_LOOP('',(#167));
#374=EDGE_LOOP('',(#168));
#375=EDGE_LOOP('',(#169));
#376=EDGE_LOOP('',(#170));
#377=EDGE_LOOP('',(#171));
#378=EDGE_LOOP('',(#172,#173,#174,#175,#176,#177,#178,#179,#180,#181,#182,
#183,#184,#185,#186,#187));
#379=EDGE_LOOP('',(#188));
#380=EDGE_LOOP('',(#189));
#381=EDGE_LOOP('',(#190));
#382=EDGE_LOOP('',(#191,#192,#193,#194,#195,#196,#197,#198,#199,#200,#201,
#202,#203,#204,#205,#206));
#383=EDGE_LOOP('',(#207,#208,#209,#210));
#384=EDGE_LOOP('',(#211,#212,#213,#214));
#385=EDGE_LOOP('',(#215,#216,#217,#218));
#386=EDGE_LOOP('',(#219,#220,#221,#222));
#387=EDGE_LOOP('',(#223,#224,#225,#226));
#388=EDGE_LOOP('',(#227,#228,#229,#230));
#389=EDGE_LOOP('',(#231,#232,#233,#234));
#390=EDGE_LOOP('',(#235,#236,#237,#238));
#391=EDGE_LOOP('',(#239,#240,#241,#242));
#392=FACE_BOUND('',#350,.T.);
#393=FACE_BOUND('',#351,.T.);
#394=FACE_BOUND('',#352,.T.);
#395=FACE_BOUND('',#353,.T.);
#396=FACE_BOUND('',#354,.T.);
#397=FACE_BOUND('',#355,.T.);
#398=FACE_BOUND('',#356,.T.);
#399=FACE_BOUND('',#357,.T.);
#400=FACE_BOUND('',#358,.T.);
#401=FACE_BOUND('',#359,.T.);
#402=FACE_BOUND('',#360,.T.);
#403=FACE_BOUND('',#361,.T.);
#404=FACE_BOUND('',#362,.T.);
#405=FACE_BOUND('',#363,.T.);
#406=FACE_BOUND('',#364,.T.);
#407=FACE_BOUND('',#365,.T.);
#408=FACE_BOUND('',#366,.T.);
#409=FACE_BOUND('',#367,.T.);
#410=FACE_BOUND('',#368,.T.);
#411=FACE_BOUND('',#369,.T.);
#412=FACE_BOUND('',#370,.T.);
#413=FACE_BOUND('',#371,.T.);
#414=FACE_BOUND('',#372,.T.);
#415=FACE_BOUND('',#373,.T.);
#416=FACE_BOUND('',#374,.T.);
#417=FACE_BOUND('',#375,.T.);
#418=FACE_BOUND('',#376,.T.);
#419=FACE_BOUND('',#377,.T.);
#420=FACE_BOUND('',#378,.T.);
#421=FACE_BOUND('',#379,.T.);
#422=FACE_BOUND('',#380,.T.);
#423=FACE_BOUND('',#381,.T.);
#424=FACE_BOUND('',#382,.T.);
#425=FACE_BOUND('',#383,.T.);
#426=FACE_BOUND('',#384,.T.);
#427=FACE_BOUND('',#385,.T.);
#428=FACE_BOUND('',#386,.T.);
#429=FACE_BOUND('',#387,.T.);
#430=FACE_BOUND('',#388,.T.);
#431=FACE_BOUND('',#389,.T.);
#432=FACE_BOUND('',#390,.T.);
#433=FACE_BOUND('',#391,.T.);
#434=PLANE('',#495);
#435=PLANE('',#498);
#436=PLANE('',#501);
#437=PLANE('',#510);
#438=PLANE('',#511);
#439=PLANE('',#512);
#440=PLANE('',#513);
#441=PLANE('',#514);
#442=PLANE('',#515);
#443=PLANE('',#516);
#444=PLANE('',#523);
#445=PLANE('',#524);
#446=PLANE('',#525);
#447=PLANE('',#526);
#448=PLANE('',#527);
#449=PLANE('',#528);
#450=PLANE('',#529);
#451=PLANE('',#530);
#452=PLANE('',#531);
#453=PLANE('',#532);
#454=PLANE('',#533);
#455=ADVANCED_FACE('',(#392,#393),#434,.T.);
#456=ADVANCED_FACE('',(#394,#395),#435,.T.);
#457=ADVANCED_FACE('',(#396,#397),#436,.T.);
#458=ADVANCED_FACE('',(#398,#399),#108,.F.);
#459=ADVANCED_FACE('',(#400,#401),#109,.F.);
#460=ADVANCED_FACE('',(#402,#403),#110,.F.);
#461=ADVANCED_FACE('',(#404),#437,.F.);
#462=ADVANCED_FACE('',(#405),#438,.F.);
#463=ADVANCED_FACE('',(#406),#439,.F.);
#464=ADVANCED_FACE('',(#407),#440,.F.);
#465=ADVANCED_FACE('',(#408),#441,.F.);
#466=ADVANCED_FACE('',(#409),#442,.F.);
#467=ADVANCED_FACE('',(#410),#443,.F.);
#468=ADVANCED_FACE('',(#411,#412),#111,.F.);
#469=ADVANCED_FACE('',(#413,#414),#112,.F.);
#470=ADVANCED_FACE('',(#415,#416),#113,.F.);
#471=ADVANCED_FACE('',(#417,#418,#419,#420),#444,.F.);
#472=ADVANCED_FACE('',(#421,#422,#423,#424),#445,.F.);
#473=ADVANCED_FACE('',(#425),#446,.T.);
#474=ADVANCED_FACE('',(#426),#447,.F.);
#475=ADVANCED_FACE('',(#427),#448,.F.);
#476=ADVANCED_FACE('',(#428),#449,.F.);
#477=ADVANCED_FACE('',(#429),#450,.F.);
#478=ADVANCED_FACE('',(#430),#451,.F.);
#479=ADVANCED_FACE('',(#431),#452,.F.);
#480=ADVANCED_FACE('',(#432),#453,.F.);
#481=ADVANCED_FACE('',(#433),#454,.F.);
#482=CLOSED_SHELL('',(#455,#456,#457,#458,#459,#460,#461,#462,#463,#464,
#465,#466,#467,#468,#469,#470,#471,#472,#473,#474,#475,#476,#477,#478,#479,
#480,#481));
#483=STYLED_ITEM('',(#484),#491);
#484=PRESENTATION_STYLE_ASSIGNMENT((#485));
#485=SURFACE_STYLE_USAGE(.BOTH.,#486);
#486=SURFACE_SIDE_STYLE('',(#487));
#487=SURFACE_STYLE_FILL_AREA(#488);
#488=FILL_AREA_STYLE('',(#489));
#489=FILL_AREA_STYLE_COLOUR('',#490);
#490=COLOUR_RGB('',0.231372549019608,0.380392156862745,0.705882352941177);
#491=MANIFOLD_SOLID_BREP('BottomCaseMiddle',#482);
#492=SHAPE_DEFINITION_REPRESENTATION(#800,#493);
#493=SHAPE_REPRESENTATION('BottomCaseMiddle',(#494),#795);
#494=AXIS2_PLACEMENT_3D('',#662,#534,#535);
#495=AXIS2_PLACEMENT_3D('',#663,#536,#537);
#496=AXIS2_PLACEMENT_3D('',#664,#538,#539);
#497=AXIS2_PLACEMENT_3D('',#666,#540,#541);
#498=AXIS2_PLACEMENT_3D('',#668,#542,#543);
#499=AXIS2_PLACEMENT_3D('',#669,#544,#545);
#500=AXIS2_PLACEMENT_3D('',#671,#546,#547);
#501=AXIS2_PLACEMENT_3D('',#673,#548,#549);
#502=AXIS2_PLACEMENT_3D('',#674,#550,#551);
#503=AXIS2_PLACEMENT_3D('',#676,#552,#553);
#504=AXIS2_PLACEMENT_3D('',#678,#554,#555);
#505=AXIS2_PLACEMENT_3D('',#679,#556,#557);
#506=AXIS2_PLACEMENT_3D('',#681,#558,#559);
#507=AXIS2_PLACEMENT_3D('',#682,#560,#561);
#508=AXIS2_PLACEMENT_3D('',#684,#562,#563);
#509=AXIS2_PLACEMENT_3D('',#685,#564,#565);
#510=AXIS2_PLACEMENT_3D('',#687,#566,#567);
#511=AXIS2_PLACEMENT_3D('',#696,#572,#573);
#512=AXIS2_PLACEMENT_3D('',#702,#577,#578);
#513=AXIS2_PLACEMENT_3D('',#708,#582,#583);
#514=AXIS2_PLACEMENT_3D('',#714,#587,#588);
#515=AXIS2_PLACEMENT_3D('',#720,#592,#593);
#516=AXIS2_PLACEMENT_3D('',#726,#597,#598);
#517=AXIS2_PLACEMENT_3D('',#732,#602,#603);
#518=AXIS2_PLACEMENT_3D('',#733,#604,#605);
#519=AXIS2_PLACEMENT_3D('',#735,#606,#607);
#520=AXIS2_PLACEMENT_3D('',#736,#608,#609);
#521=AXIS2_PLACEMENT_3D('',#738,#610,#611);
#522=AXIS2_PLACEMENT_3D('',#739,#612,#613);
#523=AXIS2_PLACEMENT_3D('',#741,#614,#615);
#524=AXIS2_PLACEMENT_3D('',#759,#625,#626);
#525=AXIS2_PLACEMENT_3D('',#777,#636,#637);
#526=AXIS2_PLACEMENT_3D('',#779,#639,#640);
#527=AXIS2_PLACEMENT_3D('',#781,#642,#643);
#528=AXIS2_PLACEMENT_3D('',#783,#645,#646);
#529=AXIS2_PLACEMENT_3D('',#785,#648,#649);
#530=AXIS2_PLACEMENT_3D('',#787,#651,#652);
#531=AXIS2_PLACEMENT_3D('',#789,#654,#655);
#532=AXIS2_PLACEMENT_3D('',#791,#657,#658);
#533=AXIS2_PLACEMENT_3D('',#793,#660,#661);
#534=DIRECTION('',(0.,0.,1.));
#535=DIRECTION('',(1.,0.,0.));
#536=DIRECTION('',(1.93707071688255E-17,-0.104528463267654,-0.994521895368273));
#537=DIRECTION('',(1.,2.02479025276506E-18,1.92645924081642E-17));
#538=DIRECTION('',(1.93707071688255E-17,-0.104528463267654,-0.994521895368273));
#539=DIRECTION('',(1.84299967740228E-16,-0.994521895368273,0.104528463267654));
#540=DIRECTION('',(1.93707071688255E-17,-0.104528463267654,-0.994521895368273));
#541=DIRECTION('',(0.,0.994521895368273,-0.104528463267654));
#542=DIRECTION('',(1.93707071688255E-17,-0.104528463267654,-0.994521895368273));
#543=DIRECTION('',(1.,2.02479025276506E-18,1.92645924081642E-17));
#544=DIRECTION('',(1.93707071688255E-17,-0.104528463267654,-0.994521895368273));
#545=DIRECTION('',(1.84299967740228E-16,-0.994521895368273,0.104528463267654));
#546=DIRECTION('',(1.93707071688255E-17,-0.104528463267654,-0.994521895368273));
#547=DIRECTION('',(0.,0.994521895368273,-0.104528463267654));
#548=DIRECTION('',(1.93707071688255E-17,-0.104528463267654,-0.994521895368273));
#549=DIRECTION('',(1.,2.02479025276506E-18,1.92645924081642E-17));
#550=DIRECTION('',(1.93707071688255E-17,-0.104528463267654,-0.994521895368273));
#551=DIRECTION('',(1.84299967740228E-16,-0.994521895368273,0.104528463267654));
#552=DIRECTION('',(1.93707071688255E-17,-0.104528463267654,-0.994521895368273));
#553=DIRECTION('',(0.,0.994521895368273,-0.104528463267654));
#554=DIRECTION('',(0.,0.,1.));
#555=DIRECTION('',(1.,0.,0.));
#556=DIRECTION('',(0.,0.,-1.));
#557=DIRECTION('',(-1.,0.,0.));
#558=DIRECTION('',(0.,0.,1.));
#559=DIRECTION('',(1.,0.,0.));
#560=DIRECTION('',(0.,0.,-1.));
#561=DIRECTION('',(-1.,0.,0.));
#562=DIRECTION('',(0.,0.,1.));
#563=DIRECTION('',(1.,0.,0.));
#564=DIRECTION('',(0.,0.,-1.));
#565=DIRECTION('',(-1.,0.,0.));
#566=DIRECTION('',(1.,1.85315143486088E-16,0.));
#567=DIRECTION('',(-1.85315143486088E-16,1.,0.));
#568=DIRECTION('',(0.,0.,1.));
#569=DIRECTION('',(1.85315143486088E-16,-1.,0.));
#570=DIRECTION('',(0.,0.,1.));
#571=DIRECTION('',(-1.84299967740228E-16,0.994521895368274,-0.104528463267654));
#572=DIRECTION('',(-0.5,0.866025403784438,0.));
#573=DIRECTION('',(-0.866025403784438,-0.5,0.));
#574=DIRECTION('',(0.,0.,1.));
#575=DIRECTION('',(0.866025403784438,0.5,0.));
#576=DIRECTION('',(-0.864832013045731,-0.49931099553576,0.0524797003455297));
#577=DIRECTION('',(1.,1.22464679914735E-16,0.));
#578=DIRECTION('',(-1.22464679914735E-16,1.,0.));
#579=DIRECTION('',(0.,0.,1.));
#580=DIRECTION('',(1.22464679914735E-16,-1.,0.));
#581=DIRECTION('',(-1.21793805584471E-16,0.994521895368274,-0.104528463267654));
#582=DIRECTION('',(-0.5,-0.866025403784439,0.));
#583=DIRECTION('',(0.866025403784439,-0.5,0.));
#584=DIRECTION('',(0.,0.,1.));
#585=DIRECTION('',(-0.866025403784439,0.5,0.));
#586=DIRECTION('',(0.864832013045732,-0.499310995535759,0.0524797003455297));
#587=DIRECTION('',(1.,-6.15804247420192E-17,0.));
#588=DIRECTION('',(6.15804247420192E-17,1.,0.));
#589=DIRECTION('',(0.,0.,1.));
#590=DIRECTION('',(-6.15804247420192E-17,-1.,0.));
#591=DIRECTION('',(6.12430807320162E-17,0.994521895368274,-0.104528463267654));
#592=DIRECTION('',(-0.5,0.866025403784439,0.));
#593=DIRECTION('',(-0.866025403784439,-0.5,0.));
#594=DIRECTION('',(0.,0.,1.));
#595=DIRECTION('',(0.866025403784439,0.5,0.));
#596=DIRECTION('',(-0.864832013045732,-0.499310995535759,0.0524797003455296));
#597=DIRECTION('',(1.,-6.15804247420192E-17,0.));
#598=DIRECTION('',(6.15804247420192E-17,1.,0.));
#599=DIRECTION('',(0.,0.,1.));
#600=DIRECTION('',(-6.15804247420192E-17,-1.,0.));
#601=DIRECTION('',(6.12430807320162E-17,0.994521895368274,-0.104528463267654));
#602=DIRECTION('',(1.93707071688255E-17,-0.104528463267654,-0.994521895368273));
#603=DIRECTION('',(0.,0.994521895368273,-0.104528463267654));
#604=DIRECTION('',(1.93707071688255E-17,-0.104528463267654,-0.994521895368273));
#605=DIRECTION('',(0.,0.994521895368273,-0.104528463267654));
#606=DIRECTION('',(1.93707071688255E-17,-0.104528463267654,-0.994521895368273));
#607=DIRECTION('',(0.,0.994521895368273,-0.104528463267654));
#608=DIRECTION('',(1.93707071688255E-17,-0.104528463267654,-0.994521895368273));
#609=DIRECTION('',(0.,0.994521895368273,-0.104528463267654));
#610=DIRECTION('',(1.93707071688255E-17,-0.104528463267654,-0.994521895368273));
#611=DIRECTION('',(0.,0.994521895368273,-0.104528463267654));
#612=DIRECTION('',(1.93707071688255E-17,-0.104528463267654,-0.994521895368273));
#613=DIRECTION('',(0.,0.994521895368273,-0.104528463267654));
#614=DIRECTION('',(0.,0.,-1.));
#615=DIRECTION('',(1.,0.,0.));
#616=DIRECTION('',(0.,-1.,0.));
#617=DIRECTION('',(1.,1.22116595130084E-16,0.));
#618=DIRECTION('',(1.,1.22116595130084E-16,0.));
#619=DIRECTION('',(0.,-1.,0.));
#620=DIRECTION('',(0.866025403784439,0.5,0.));
#621=DIRECTION('',(0.,-1.,0.));
#622=DIRECTION('',(-0.866025403784439,0.5,0.));
#623=DIRECTION('',(1.22464679914735E-16,-1.,0.));
#624=DIRECTION('',(0.866025403784438,0.5,0.));
#625=DIRECTION('',(-1.93707071688255E-17,0.104528463267654,0.994521895368273));
#626=DIRECTION('',(0.,-0.994521895368273,0.104528463267654));
#627=DIRECTION('',(-1.,-1.85315143486088E-16,0.));
#628=DIRECTION('',(0.,-0.994521895368274,0.104528463267654));
#629=DIRECTION('',(0.864832013045731,0.49931099553576,-0.0524797003455297));
#630=DIRECTION('',(1.21793805584471E-16,-0.994521895368274,0.104528463267654));
#631=DIRECTION('',(-0.864832013045732,0.499310995535759,-0.0524797003455297));
#632=DIRECTION('',(0.,-0.994521895368274,0.104528463267654));
#633=DIRECTION('',(0.864832013045731,0.49931099553576,-0.0524797003455297));
#634=DIRECTION('',(0.,-0.994521895368274,0.104528463267654));
#635=DIRECTION('',(1.,1.22116595130084E-16,0.));
#636=DIRECTION('',(1.22116595130084E-16,-1.,0.));
#637=DIRECTION('',(1.,1.22116595130084E-16,0.));
#638=DIRECTION('',(0.,0.,1.));
#639=DIRECTION('',(1.22116595130084E-16,-1.,0.));
#640=DIRECTION('',(1.,1.22116595130084E-16,0.));
#641=DIRECTION('',(0.,0.,1.));
#642=DIRECTION('',(-1.,0.,0.));
#643=DIRECTION('',(0.,0.,1.));
#644=DIRECTION('',(0.,0.,1.));
#645=DIRECTION('',(0.5,-0.866025403784438,0.));
#646=DIRECTION('',(0.866025403784438,0.5,0.));
#647=DIRECTION('',(0.,0.,1.));
#648=DIRECTION('',(-1.,0.,0.));
#649=DIRECTION('',(0.,0.,1.));
#650=DIRECTION('',(0.,0.,1.));
#651=DIRECTION('',(0.5,0.866025403784439,0.));
#652=DIRECTION('',(-0.866025403784439,0.5,0.));
#653=DIRECTION('',(0.,0.,1.));
#654=DIRECTION('',(-1.,-1.22464679914735E-16,0.));
#655=DIRECTION('',(1.22464679914735E-16,-1.,0.));
#656=DIRECTION('',(0.,0.,1.));
#657=DIRECTION('',(0.5,-0.866025403784438,0.));
#658=DIRECTION('',(0.866025403784439,0.5,0.));
#659=DIRECTION('',(0.,0.,1.));
#660=DIRECTION('',(-1.,0.,0.));
#661=DIRECTION('',(0.,0.,1.));
#662=CARTESIAN_POINT('',(0.,0.,0.));
#663=CARTESIAN_POINT('',(0.2428875,-0.0902261788418309,-0.0168746886800377));
#664=CARTESIAN_POINT('',(0.1678,-0.0188,-0.0243818825851578));
#665=CARTESIAN_POINT('',(0.1678,-0.02,-0.024255757502839));
#666=CARTESIAN_POINT('',(0.1678,-0.0185386788418309,-0.0244093485456459));
#667=CARTESIAN_POINT('',(0.1678,-0.0160523741034102,-0.024670669703815));
#668=CARTESIAN_POINT('',(0.2428875,-0.0902261788418309,-0.0168746886800377));
#669=CARTESIAN_POINT('',(0.2978,-0.0188,-0.0243818825851578));
#670=CARTESIAN_POINT('',(0.2978,-0.02,-0.024255757502839));
#671=CARTESIAN_POINT('',(0.2978,-0.0185386788418309,-0.0244093485456459));
#672=CARTESIAN_POINT('',(0.2978,-0.0160523741034102,-0.024670669703815));
#673=CARTESIAN_POINT('',(0.2428875,-0.0902261788418309,-0.0168746886800377));
#674=CARTESIAN_POINT('',(0.2978,-0.1616875,-0.00936380116863339));
#675=CARTESIAN_POINT('',(0.2978,-0.1628875,-0.00923767608631458));
#676=CARTESIAN_POINT('',(0.2978,-0.161426178841831,-0.00939126712912151));
#677=CARTESIAN_POINT('',(0.2978,-0.15893987410341,-0.00965258828729064));
#678=CARTESIAN_POINT('',(0.2978,-0.1616875,-0.487844554191488));
#679=CARTESIAN_POINT('',(0.2978,-0.1616875,-0.00749));
#680=CARTESIAN_POINT('',(0.2966,-0.1616875,-0.00749));
#681=CARTESIAN_POINT('',(0.2978,-0.0188,-0.487844554191488));
#682=CARTESIAN_POINT('',(0.2978,-0.0188,-0.00749));
#683=CARTESIAN_POINT('',(0.2966,-0.0188,-0.00749));
#684=CARTESIAN_POINT('',(0.1678,-0.0188,-0.487844554191488));
#685=CARTESIAN_POINT('',(0.1678,-0.0188,-0.00749));
#686=CARTESIAN_POINT('',(0.1666,-0.0188,-0.00749));
#687=CARTESIAN_POINT('',(0.1586,-0.0399450419723987,-0.487844554191488));
#688=CARTESIAN_POINT('',(0.1586,-0.0656,-0.487844554191488));
#689=CARTESIAN_POINT('',(0.1586,-0.0656,-0.021976775073633));
#690=CARTESIAN_POINT('',(0.1586,-0.0656,-0.00749));
#691=CARTESIAN_POINT('',(0.1586,-0.0399450419723987,-0.00749));
#692=CARTESIAN_POINT('',(0.1586,-0.0156,-0.00749));
#693=CARTESIAN_POINT('',(0.1586,-0.0156,-0.487844554191488));
#694=CARTESIAN_POINT('',(0.1586,-0.0156,-0.0272319868369167));
#695=CARTESIAN_POINT('',(0.1586,-0.0904875,-0.0193609934184583));
#696=CARTESIAN_POINT('',(0.168034466230066,-0.0601530083824109,-0.487844554191488));
#697=CARTESIAN_POINT('',(0.187096125905073,-0.0491477540378444,-0.487844554191488));
#698=CARTESIAN_POINT('',(0.187096125905073,-0.0491477540378444,-0.0237059758038881));
#699=CARTESIAN_POINT('',(0.187096125905073,-0.0491477540378444,-0.00749));
#700=CARTESIAN_POINT('',(0.168034466230066,-0.0601530083824109,-0.00749));
#701=CARTESIAN_POINT('',(0.380773516147305,0.0626719393544527,-0.0354586991655279));
#702=CARTESIAN_POINT('',(0.187096125905073,-0.0725942154130307,-0.487844554191488));
#703=CARTESIAN_POINT('',(0.187096125905073,-0.0991477540378444,-0.487844554191488));
#704=CARTESIAN_POINT('',(0.187096125905073,-0.0991477540378444,-0.0184507640406044));
#705=CARTESIAN_POINT('',(0.187096125905073,-0.0991477540378444,-0.00749));
#706=CARTESIAN_POINT('',(0.187096125905073,-0.0725942154130307,-0.00749));
#707=CARTESIAN_POINT('',(0.187096125905073,-0.0904875,-0.0193609934184583));
#708=CARTESIAN_POINT('',(0.178678127173528,-0.0942876202041489,-0.487844554191488));
#709=CARTESIAN_POINT('',(0.1586,-0.0826955080756889,-0.487844554191488));
#710=CARTESIAN_POINT('',(0.1586,-0.0826955080756889,-0.0201799647708594));
#711=CARTESIAN_POINT('',(0.1586,-0.0826955080756889,-0.00749));
#712=CARTESIAN_POINT('',(0.178678127173528,-0.0942876202041489,-0.00749));
#713=CARTESIAN_POINT('',(0.395041068838652,-0.219204822817168,-0.0058322576383147));
#714=CARTESIAN_POINT('',(0.1586,-0.0865571222161735,-0.487844554191488));
#715=CARTESIAN_POINT('',(0.1586,-0.132695508075689,-0.487844554191488));
#716=CARTESIAN_POINT('',(0.1586,-0.132695508075689,-0.0149247530075757));
#717=CARTESIAN_POINT('',(0.1586,-0.132695508075689,-0.00749));
#718=CARTESIAN_POINT('',(0.1586,-0.0865571222161735,-0.00749));
#719=CARTESIAN_POINT('',(0.1586,-0.0904875,-0.0193609934184583));
#720=CARTESIAN_POINT('',(0.18374687914099,-0.118176950634359,-0.487844554191488));
#721=CARTESIAN_POINT('',(0.1886,-0.115375,-0.487844554191488));
#722=CARTESIAN_POINT('',(0.1886,-0.115375,-0.0167452117632838));
#723=CARTESIAN_POINT('',(0.1886,-0.115375,-0.00749));
#724=CARTESIAN_POINT('',(0.18374687914099,-0.118176950634359,-0.00749));
#725=CARTESIAN_POINT('',(0.410066771349674,0.0124889000552917,-0.0301842491966821));
#726=CARTESIAN_POINT('',(0.1886,-0.134597200166556,-0.487844554191488));
#727=CARTESIAN_POINT('',(0.1886,-0.165375,-0.487844554191488));
#728=CARTESIAN_POINT('',(0.1886,-0.165375,-0.01149));
#729=CARTESIAN_POINT('',(0.1886,-0.165375,-0.00749));
#730=CARTESIAN_POINT('',(0.1886,-0.134597200166556,-0.00749));
#731=CARTESIAN_POINT('',(0.1886,-0.0904875,-0.0193609934184583));
#732=CARTESIAN_POINT('',(0.1678,-0.0185386788418309,-0.0244093485456459));
#733=CARTESIAN_POINT('',(0.1678,-0.0188,-0.0268956532840666));
#734=CARTESIAN_POINT('',(0.1678,-0.0163136952615793,-0.0271569744422357));
#735=CARTESIAN_POINT('',(0.2978,-0.0185386788418309,-0.0244093485456459));
#736=CARTESIAN_POINT('',(0.2978,-0.0188,-0.0268956532840666));
#737=CARTESIAN_POINT('',(0.2978,-0.0163136952615793,-0.0271569744422357));
#738=CARTESIAN_POINT('',(0.2978,-0.161426178841831,-0.00939126712912151));
#739=CARTESIAN_POINT('',(0.2978,-0.1616875,-0.0118775718675422));
#740=CARTESIAN_POINT('',(0.2978,-0.159201195261579,-0.0121388930257113));
#741=CARTESIAN_POINT('',(0.2428875,-0.0904875,-0.00749));
#742=CARTESIAN_POINT('',(0.305025,-0.0313502403229475,-0.00749));
#743=CARTESIAN_POINT('',(0.305025,-0.0156,-0.00749));
#744=CARTESIAN_POINT('',(0.305025,-0.0658598076211353,-0.00749));
#745=CARTESIAN_POINT('',(0.2428875,-0.0156,-0.00749));
#746=CARTESIAN_POINT('',(0.2428875,-0.165375,-0.00749));
#747=CARTESIAN_POINT('',(0.335025,-0.165375,-0.00749));
#748=CARTESIAN_POINT('',(0.335025,-0.135716221362352,-0.00749));
#749=CARTESIAN_POINT('',(0.335025,-0.115634807621135,-0.00749));
#750=CARTESIAN_POINT('',(0.335457729166113,-0.115384971320594,-0.00749));
#751=CARTESIAN_POINT('',(0.305025,-0.132955315696824,-0.00749));
#752=CARTESIAN_POINT('',(0.305025,-0.0754823868772953,-0.00749));
#753=CARTESIAN_POINT('',(0.305025,-0.0824357004545535,-0.00749));
#754=CARTESIAN_POINT('',(0.339302045245281,-0.102225561753941,-0.00749));
#755=CARTESIAN_POINT('',(0.333521125905073,-0.0988879464167091,-0.00749));
#756=CARTESIAN_POINT('',(0.333521125905073,-0.0558343460217151,-0.00749));
#757=CARTESIAN_POINT('',(0.333521125905073,-0.0494075616589797,-0.00749));
#758=CARTESIAN_POINT('',(0.339679237192094,-0.045852174449719,-0.00749));
#759=CARTESIAN_POINT('',(0.470177,-0.0904875,-0.0193609934184583));
#760=CARTESIAN_POINT('',(0.470177,-0.0156,-0.0272319868369167));
#761=CARTESIAN_POINT('',(0.305025,-0.0156,-0.0272319868369168));
#762=CARTESIAN_POINT('',(0.305025,-0.0904875,-0.0193609934184583));
#763=CARTESIAN_POINT('',(0.305025,-0.0658598076211353,-0.0219494681922973));
#764=CARTESIAN_POINT('',(0.41779564956271,-0.000751642739415359,-0.028792612071742));
#765=CARTESIAN_POINT('',(0.333521125905073,-0.0494075616589797,-0.0236786689225526));
#766=CARTESIAN_POINT('',(0.333521125905073,-0.0904875,-0.0193609934184583));
#767=CARTESIAN_POINT('',(0.333521125905073,-0.0988879464167091,-0.0184780709219398));
#768=CARTESIAN_POINT('',(0.432063202254057,-0.1557812407233,-0.0124983447321006));
#769=CARTESIAN_POINT('',(0.305025,-0.0824357004545535,-0.0202072716521952));
#770=CARTESIAN_POINT('',(0.305025,-0.0904875,-0.0193609934184583));
#771=CARTESIAN_POINT('',(0.305025,-0.132955315696824,-0.0148974461262399));
#772=CARTESIAN_POINT('',(0.447088904765079,-0.0509346820385763,-0.0235181621028963));
#773=CARTESIAN_POINT('',(0.335025,-0.115634807621135,-0.0167179048819483));
#774=CARTESIAN_POINT('',(0.335025,-0.0904875,-0.0193609934184583));
#775=CARTESIAN_POINT('',(0.335025,-0.165375,-0.01149));
#776=CARTESIAN_POINT('',(0.2428875,-0.165375,-0.01149));
#777=CARTESIAN_POINT('',(0.2428875,-0.165375,-0.01149));
#778=CARTESIAN_POINT('',(0.335025,-0.165375,-0.487844554191488));
#779=CARTESIAN_POINT('',(0.2428875,-0.0156,-0.01149));
#780=CARTESIAN_POINT('',(0.305025,-0.0156,-0.487844554191488));
#781=CARTESIAN_POINT('',(0.335025,-0.135716221362352,-0.487844554191488));
#782=CARTESIAN_POINT('',(0.335025,-0.115634807621135,-0.487844554191488));
#783=CARTESIAN_POINT('',(0.335457729166113,-0.115384971320594,-0.487844554191488));
#784=CARTESIAN_POINT('',(0.305025,-0.132955315696824,-0.487844554191488));
#785=CARTESIAN_POINT('',(0.305025,-0.0754823868772953,-0.487844554191488));
#786=CARTESIAN_POINT('',(0.305025,-0.0824357004545535,-0.487844554191488));
#787=CARTESIAN_POINT('',(0.339302045245281,-0.102225561753941,-0.487844554191488));
#788=CARTESIAN_POINT('',(0.333521125905073,-0.0988879464167091,-0.487844554191488));
#789=CARTESIAN_POINT('',(0.333521125905073,-0.0558343460217151,-0.487844554191488));
#790=CARTESIAN_POINT('',(0.333521125905073,-0.0494075616589797,-0.487844554191488));
#791=CARTESIAN_POINT('',(0.339679237192094,-0.045852174449719,-0.487844554191488));
#792=CARTESIAN_POINT('',(0.305025,-0.0658598076211353,-0.487844554191488));
#793=CARTESIAN_POINT('',(0.305025,-0.0313502403229475,-0.487844554191488));
#794=MECHANICAL_DESIGN_GEOMETRIC_PRESENTATION_REPRESENTATION('',(#483),
#795);
#795=(
GEOMETRIC_REPRESENTATION_CONTEXT(3)
GLOBAL_UNCERTAINTY_ASSIGNED_CONTEXT((#796))
GLOBAL_UNIT_ASSIGNED_CONTEXT((#799,#798,#797))
REPRESENTATION_CONTEXT('BottomCaseMiddle','TOP_LEVEL_ASSEMBLY_PART')
);
#796=UNCERTAINTY_MEASURE_WITH_UNIT(LENGTH_MEASURE(1.E-8),#799,
'DISTANCE_ACCURACY_VALUE','Maximum Tolerance applied to model');
#797=(
NAMED_UNIT(*)
SI_UNIT($,.STERADIAN.)
SOLID_ANGLE_UNIT()
);
#798=(
NAMED_UNIT(*)
PLANE_ANGLE_UNIT()
SI_UNIT($,.RADIAN.)
);
#799=(
LENGTH_UNIT()
NAMED_UNIT(*)
SI_UNIT($,.METRE.)
);
#800=PRODUCT_DEFINITION_SHAPE('','',#801);
#801=PRODUCT_DEFINITION('','',#803,#802);
#802=PRODUCT_DEFINITION_CONTEXT('',#809,'design');
#803=PRODUCT_DEFINITION_FORMATION_WITH_SPECIFIED_SOURCE('','',#805,
 .NOT_KNOWN.);
#804=PRODUCT_RELATED_PRODUCT_CATEGORY('','',(#805));
#805=PRODUCT('BottomCaseMiddle','BottomCaseMiddle','BottomCaseMiddle',(#807));
#806=PRODUCT_CATEGORY('','');
#807=PRODUCT_CONTEXT('',#809,'mechanical');
#808=APPLICATION_PROTOCOL_DEFINITION('international standard',
'ap242_managed_model_based_3d_engineering',2020,#809);
#809=APPLICATION_CONTEXT('managed model based 3d engineering');
ENDSEC;
END-ISO-10303-21;
