%TF.GenerationSoftware,KiCad,Pcbnew,10.0.5*%
%TF.CreationDate,2026-08-19T04:10:51-04:00*%
%TF.ProjectId,CustomKeyboard-Simplified,43757374-6f6d-44b6-9579-626f6172642d,rev?*%
%TF.SameCoordinates,Original*%
%TF.FileFunction,Paste,Bot*%
%TF.FilePolarity,Positive*%
%FSLAX46Y46*%
G04 Gerber Fmt 4.6, Leading zero omitted, Abs format (unit mm)*
G04 Created by KiCad (PCBNEW 10.0.5) date 2026-08-19 04:10:51*
%MOMM*%
%LPD*%
G01*
G04 APERTURE LIST*
G04 Aperture macros list*
%AMRoundRect*
0 Rectangle with rounded corners*
0 $1 Rounding radius*
0 $2 $3 $4 $5 $6 $7 $8 $9 X,Y pos of 4 corners*
0 Add a 4 corners polygon primitive as box body*
4,1,4,$2,$3,$4,$5,$6,$7,$8,$9,$2,$3,0*
0 Add four circle primitives for the rounded corners*
1,1,$1+$1,$2,$3*
1,1,$1+$1,$4,$5*
1,1,$1+$1,$6,$7*
1,1,$1+$1,$8,$9*
0 Add four rect primitives between the rounded corners*
20,1,$1+$1,$2,$3,$4,$5,0*
20,1,$1+$1,$4,$5,$6,$7,0*
20,1,$1+$1,$6,$7,$8,$9,0*
20,1,$1+$1,$8,$9,$2,$3,0*%
G04 Aperture macros list end*
%ADD10RoundRect,0.250000X1.025000X1.000000X-1.025000X1.000000X-1.025000X-1.000000X1.025000X-1.000000X0*%
%ADD11RoundRect,0.150000X-0.150000X0.875000X-0.150000X-0.875000X0.150000X-0.875000X0.150000X0.875000X0*%
G04 APERTURE END LIST*
D10*
%TO.C,SW55*%
X359352500Y-83185000D03*
X372802500Y-80645000D03*
%TD*%
%TO.C,SW64*%
X121227500Y-102235000D03*
X134677500Y-99695000D03*
%TD*%
%TO.C,SW65*%
X140277500Y-102235000D03*
X153727500Y-99695000D03*
%TD*%
%TO.C,SW48*%
X211715000Y-83185000D03*
X225165000Y-80645000D03*
%TD*%
%TO.C,SW104*%
X392690000Y-140335000D03*
X406140000Y-137795000D03*
%TD*%
%TO.C,SW39*%
X35502500Y-83185000D03*
X48952500Y-80645000D03*
%TD*%
%TO.C,SW40*%
X59315000Y-83185000D03*
X72765000Y-80645000D03*
%TD*%
%TO.C,SW78*%
X92652500Y-121285000D03*
X106102500Y-118745000D03*
%TD*%
%TO.C,SW54*%
X340302500Y-83185000D03*
X353752500Y-80645000D03*
%TD*%
%TO.C,SW34*%
X359352500Y-64135000D03*
X372802500Y-61595000D03*
%TD*%
%TO.C,SW74*%
X402215000Y-102235000D03*
X415665000Y-99695000D03*
%TD*%
%TO.C,SW10*%
X211397500Y-35560000D03*
X224847500Y-33020000D03*
%TD*%
%TO.C,SW57*%
X402215000Y-83185000D03*
X415665000Y-80645000D03*
%TD*%
%TO.C,SW98*%
X247433750Y-140335000D03*
X260883750Y-137795000D03*
%TD*%
%TO.C,SW44*%
X135515000Y-83185000D03*
X148965000Y-80645000D03*
%TD*%
%TO.C,SW36*%
X402215000Y-64135000D03*
X415665000Y-61595000D03*
%TD*%
%TO.C,SW96*%
X152183750Y-140335000D03*
X165633750Y-137795000D03*
%TD*%
%TO.C,SW90*%
X402215000Y-121285000D03*
X415665000Y-118745000D03*
%TD*%
%TO.C,SW18*%
X30740000Y-64135000D03*
X44190000Y-61595000D03*
%TD*%
%TO.C,SW82*%
X168852500Y-121285000D03*
X182302500Y-118745000D03*
%TD*%
%TO.C,SW21*%
X87890000Y-64135000D03*
X101340000Y-61595000D03*
%TD*%
%TO.C,SW7*%
X154247500Y-35560000D03*
X167697500Y-33020000D03*
%TD*%
%TO.C,SW62*%
X83127500Y-102235000D03*
X96577500Y-99695000D03*
%TD*%
%TO.C,SW27*%
X202190000Y-64135000D03*
X215640000Y-61595000D03*
%TD*%
%TO.C,SW5*%
X106940000Y-35560000D03*
X120390000Y-33020000D03*
%TD*%
%TO.C,SW102*%
X340302500Y-140335000D03*
X353752500Y-137795000D03*
%TD*%
%TO.C,SW70*%
X235527500Y-102235000D03*
X248977500Y-99695000D03*
%TD*%
%TO.C,SW29*%
X240290000Y-64135000D03*
X253740000Y-61595000D03*
%TD*%
%TO.C,SW8*%
X173297500Y-35560000D03*
X186747500Y-33020000D03*
%TD*%
%TO.C,SW35*%
X383165000Y-64135000D03*
X396615000Y-61595000D03*
%TD*%
%TO.C,SW99*%
X271246250Y-140335000D03*
X284696250Y-137795000D03*
%TD*%
%TO.C,SW14*%
X297440000Y-35560000D03*
X310890000Y-33020000D03*
%TD*%
%TO.C,SW31*%
X287915000Y-64135000D03*
X301365000Y-61595000D03*
%TD*%
%TO.C,SW46*%
X173615000Y-83185000D03*
X187065000Y-80645000D03*
%TD*%
%TO.C,SW42*%
X97415000Y-83185000D03*
X110865000Y-80645000D03*
%TD*%
%TO.C,SW22*%
X106940000Y-64135000D03*
X120390000Y-61595000D03*
%TD*%
%TO.C,SW47*%
X192665000Y-83185000D03*
X206115000Y-80645000D03*
%TD*%
%TO.C,SW93*%
X35502500Y-140335000D03*
X48952500Y-137795000D03*
%TD*%
%TO.C,SW38*%
X440315000Y-64135000D03*
X453765000Y-61595000D03*
%TD*%
%TO.C,SW72*%
X285533750Y-102235000D03*
X298983750Y-99695000D03*
%TD*%
%TO.C,SW37*%
X421265000Y-64135000D03*
X434715000Y-61595000D03*
%TD*%
%TO.C,SW86*%
X245052500Y-121285000D03*
X258502500Y-118745000D03*
%TD*%
%TO.C,SW66*%
X159327500Y-102235000D03*
X172777500Y-99695000D03*
%TD*%
%TO.C,SW45*%
X154565000Y-83185000D03*
X168015000Y-80645000D03*
%TD*%
%TO.C,SW52*%
X292677500Y-83185000D03*
X306127500Y-80645000D03*
%TD*%
%TO.C,SW3*%
X68840000Y-35560000D03*
X82290000Y-33020000D03*
%TD*%
%TO.C,SW2*%
X30740000Y-35560000D03*
X44190000Y-33020000D03*
%TD*%
%TO.C,SW20*%
X68840000Y-64135000D03*
X82290000Y-61595000D03*
%TD*%
%TO.C,SW43*%
X116465000Y-83185000D03*
X129915000Y-80645000D03*
%TD*%
%TO.C,SW73*%
X383165000Y-102235000D03*
X396615000Y-99695000D03*
%TD*%
%TO.C,SW97*%
X223621250Y-140335000D03*
X237071250Y-137795000D03*
%TD*%
%TO.C,SW33*%
X340302500Y-64135000D03*
X353752500Y-61595000D03*
%TD*%
%TO.C,SW60*%
X37883750Y-102235000D03*
X51333750Y-99695000D03*
%TD*%
%TO.C,SW4*%
X87890000Y-35560000D03*
X101340000Y-33020000D03*
%TD*%
%TO.C,SW103*%
X359352500Y-140335000D03*
X372802500Y-137795000D03*
%TD*%
%TO.C,SW30*%
X259340000Y-64135000D03*
X272790000Y-61595000D03*
%TD*%
%TO.C,SW16*%
X340302500Y-35560000D03*
X353752500Y-33020000D03*
%TD*%
%TO.C,SW32*%
X321252500Y-64135000D03*
X334702500Y-61595000D03*
%TD*%
%TO.C,SW41*%
X78365000Y-83185000D03*
X91815000Y-80645000D03*
%TD*%
%TO.C,SW69*%
X216477500Y-102235000D03*
X229927500Y-99695000D03*
%TD*%
%TO.C,SW75*%
X421265000Y-102235000D03*
X434715000Y-99695000D03*
%TD*%
%TO.C,SW12*%
X259340000Y-35560000D03*
X272790000Y-33020000D03*
%TD*%
%TO.C,SW89*%
X383165000Y-121285000D03*
X396615000Y-118745000D03*
%TD*%
%TO.C,SW101*%
X321252500Y-140335000D03*
X334702500Y-137795000D03*
%TD*%
%TO.C,SW95*%
X83127500Y-140335000D03*
X96577500Y-137795000D03*
%TD*%
%TO.C,SW100*%
X295058750Y-140335000D03*
X308508750Y-137795000D03*
%TD*%
%TO.C,SW15*%
X321252500Y-35560000D03*
X334702500Y-33020000D03*
%TD*%
%TO.C,SW49*%
X230765000Y-83185000D03*
X244215000Y-80645000D03*
%TD*%
%TO.C,SW68*%
X197427500Y-102235000D03*
X210877500Y-99695000D03*
%TD*%
%TO.C,SW71*%
X254577500Y-102235000D03*
X268027500Y-99695000D03*
%TD*%
%TO.C,SW94*%
X59315000Y-140335000D03*
X72765000Y-137795000D03*
%TD*%
%TO.C,SW76*%
X42646250Y-121285000D03*
X56096250Y-118745000D03*
%TD*%
%TO.C,SW59*%
X440315000Y-92710000D03*
X453765000Y-90170000D03*
%TD*%
%TO.C,SW6*%
X125990000Y-35560000D03*
X139440000Y-33020000D03*
%TD*%
%TO.C,SW81*%
X149802500Y-121285000D03*
X163252500Y-118745000D03*
%TD*%
%TO.C,SW13*%
X278390000Y-35560000D03*
X291840000Y-33020000D03*
%TD*%
%TO.C,SW92*%
X440315000Y-130810000D03*
X453765000Y-128270000D03*
%TD*%
%TO.C,SW85*%
X226002500Y-121285000D03*
X239452500Y-118745000D03*
%TD*%
%TO.C,SW87*%
X280771250Y-121285000D03*
X294221250Y-118745000D03*
%TD*%
%TO.C,SW84*%
X206952500Y-121285000D03*
X220402500Y-118745000D03*
%TD*%
%TO.C,SW88*%
X340302500Y-121285000D03*
X353752500Y-118745000D03*
%TD*%
%TO.C,SW9*%
X192347500Y-35560000D03*
X205797500Y-33020000D03*
%TD*%
%TO.C,SW61*%
X64077500Y-102235000D03*
X77527500Y-99695000D03*
%TD*%
%TO.C,SW80*%
X130752500Y-121285000D03*
X144202500Y-118745000D03*
%TD*%
%TO.C,SW23*%
X125990000Y-64135000D03*
X139440000Y-61595000D03*
%TD*%
%TO.C,SW105*%
X421265000Y-140335000D03*
X434715000Y-137795000D03*
%TD*%
D11*
%TO.C,U1*%
X340495000Y-101100000D03*
X341765000Y-101100000D03*
X343035000Y-101100000D03*
X344305000Y-101100000D03*
X345575000Y-101100000D03*
X346845000Y-101100000D03*
X348115000Y-101100000D03*
X349385000Y-101100000D03*
X350655000Y-101100000D03*
X351925000Y-101100000D03*
X353195000Y-101100000D03*
X354465000Y-101100000D03*
X355735000Y-101100000D03*
X357005000Y-101100000D03*
X357005000Y-110400000D03*
X355735000Y-110400000D03*
X354465000Y-110400000D03*
X353195000Y-110400000D03*
X351925000Y-110400000D03*
X350655000Y-110400000D03*
X349385000Y-110400000D03*
X348115000Y-110400000D03*
X346845000Y-110400000D03*
X345575000Y-110400000D03*
X344305000Y-110400000D03*
X343035000Y-110400000D03*
X341765000Y-110400000D03*
X340495000Y-110400000D03*
%TD*%
D10*
%TO.C,SW26*%
X183140000Y-64135000D03*
X196590000Y-61595000D03*
%TD*%
%TO.C,SW67*%
X178377500Y-102235000D03*
X191827500Y-99695000D03*
%TD*%
%TO.C,SW79*%
X111702500Y-121285000D03*
X125152500Y-118745000D03*
%TD*%
%TO.C,SW17*%
X359352500Y-35560000D03*
X372802500Y-33020000D03*
%TD*%
%TO.C,SW56*%
X383165000Y-83185000D03*
X396615000Y-80645000D03*
%TD*%
%TO.C,SW77*%
X73602500Y-121285000D03*
X87052500Y-118745000D03*
%TD*%
%TO.C,SW28*%
X221240000Y-64135000D03*
X234690000Y-61595000D03*
%TD*%
%TO.C,SW51*%
X268865000Y-83185000D03*
X282315000Y-80645000D03*
%TD*%
%TO.C,SW11*%
X240290000Y-35560000D03*
X253740000Y-33020000D03*
%TD*%
%TO.C,SW19*%
X49790000Y-64135000D03*
X63240000Y-61595000D03*
%TD*%
%TO.C,SW91*%
X421265000Y-121285000D03*
X434715000Y-118745000D03*
%TD*%
%TO.C,SW24*%
X145040000Y-64135000D03*
X158490000Y-61595000D03*
%TD*%
%TO.C,SW50*%
X249815000Y-83185000D03*
X263265000Y-80645000D03*
%TD*%
%TO.C,SW83*%
X187902500Y-121285000D03*
X201352500Y-118745000D03*
%TD*%
%TO.C,SW25*%
X164090000Y-64135000D03*
X177540000Y-61595000D03*
%TD*%
%TO.C,SW63*%
X102177500Y-102235000D03*
X115627500Y-99695000D03*
%TD*%
%TO.C,SW58*%
X421265000Y-83185000D03*
X434715000Y-80645000D03*
%TD*%
%TO.C,SW53*%
X321252500Y-83185000D03*
X334702500Y-80645000D03*
%TD*%
M02*
