M48
; DRILL file KiCad 10.0.5 date 2026-08-19T04:12:01
; FORMAT={-:-/ absolute / metric / decimal}
; #@! TF.CreationDate,2026-08-19T04:12:01-04:00
; #@! TF.GenerationSoftware,Kicad,Pcbnew,10.0.5
; #@! TF.FileFunction,NonPlated,1,2,NPTH
FMAT,2
METRIC
; #@! TA.AperFunction,NonPlated,NPTH,ComponentDrill
T1C1.750
; #@! TA.AperFunction,NonPlated,NPTH,ComponentDrill
T2C1.850
; #@! TA.AperFunction,NonPlated,NPTH,ComponentDrill
T3C2.200
; #@! TA.AperFunction,NonPlated,NPTH,ComponentDrill
T4C3.988
%
G90
G05
T1
X33.02Y-38.1
X33.02Y-66.675
X37.782Y-85.725
X37.782Y-142.875
X40.164Y-104.775
X43.18Y-38.1
X43.18Y-66.675
X44.926Y-123.825
X47.942Y-85.725
X47.942Y-142.875
X50.324Y-104.775
X52.07Y-66.675
X55.086Y-123.825
X61.595Y-85.725
X61.595Y-142.875
X62.23Y-66.675
X66.358Y-104.775
X71.12Y-38.1
X71.12Y-66.675
X71.755Y-85.725
X71.755Y-142.875
X75.882Y-123.825
X76.517Y-104.775
X80.645Y-85.725
X81.28Y-38.1
X81.28Y-66.675
X85.407Y-104.775
X85.407Y-142.875
X86.042Y-123.825
X90.17Y-38.1
X90.17Y-66.675
X90.805Y-85.725
X94.932Y-123.825
X95.567Y-104.775
X95.567Y-142.875
X99.695Y-85.725
X100.33Y-38.1
X100.33Y-66.675
X104.457Y-104.775
X105.093Y-123.825
X109.22Y-38.1
X109.22Y-66.675
X109.855Y-85.725
X113.983Y-123.825
X114.617Y-104.775
X118.745Y-85.725
X119.38Y-38.1
X119.38Y-66.675
X123.507Y-104.775
X124.142Y-123.825
X128.27Y-38.1
X128.27Y-66.675
X128.905Y-85.725
X133.032Y-123.825
X133.667Y-104.775
X137.795Y-85.725
X138.43Y-38.1
X138.43Y-66.675
X142.558Y-104.775
X143.192Y-123.825
X147.32Y-66.675
X147.955Y-85.725
X152.082Y-123.825
X152.718Y-104.775
X154.464Y-142.875
X156.528Y-38.1
X156.845Y-85.725
X157.48Y-66.675
X161.607Y-104.775
X162.243Y-123.825
X164.624Y-142.875
X166.37Y-66.675
X166.688Y-38.1
X167.005Y-85.725
X171.132Y-123.825
X171.767Y-104.775
X175.577Y-38.1
X175.895Y-85.725
X176.53Y-66.675
X180.657Y-104.775
X181.292Y-123.825
X185.42Y-66.675
X185.737Y-38.1
X186.055Y-85.725
X190.183Y-123.825
X190.817Y-104.775
X194.627Y-38.1
X194.945Y-85.725
X195.58Y-66.675
X199.707Y-104.775
X200.343Y-123.825
X204.47Y-66.675
X204.787Y-38.1
X205.105Y-85.725
X209.232Y-123.825
X209.867Y-104.775
X213.677Y-38.1
X213.995Y-85.725
X214.63Y-66.675
X218.757Y-104.775
X219.392Y-123.825
X223.52Y-66.675
X223.837Y-38.1
X224.155Y-85.725
X225.901Y-142.875
X228.282Y-123.825
X228.917Y-104.775
X233.045Y-85.725
X233.68Y-66.675
X236.061Y-142.875
X237.807Y-104.775
X238.442Y-123.825
X242.57Y-38.1
X242.57Y-66.675
X243.205Y-85.725
X247.332Y-123.825
X247.968Y-104.775
X249.714Y-142.875
X252.095Y-85.725
X252.73Y-38.1
X252.73Y-66.675
X256.858Y-104.775
X257.493Y-123.825
X259.874Y-142.875
X261.62Y-38.1
X261.62Y-66.675
X262.255Y-85.725
X267.017Y-104.775
X271.145Y-85.725
X271.78Y-38.1
X271.78Y-66.675
X273.526Y-142.875
X280.67Y-38.1
X281.305Y-85.725
X283.051Y-123.825
X283.686Y-142.875
X287.814Y-104.775
X290.195Y-66.675
X290.83Y-38.1
X293.211Y-123.825
X294.957Y-85.725
X297.339Y-142.875
X297.974Y-104.775
X299.72Y-38.1
X300.355Y-66.675
X305.118Y-85.725
X307.499Y-142.875
X309.88Y-38.1
X323.532Y-38.1
X323.532Y-66.675
X323.532Y-85.725
X323.532Y-142.875
X333.692Y-38.1
X333.692Y-66.675
X333.692Y-85.725
X333.692Y-142.875
X342.582Y-38.1
X342.582Y-66.675
X342.582Y-85.725
X342.582Y-123.825
X342.582Y-142.875
X352.743Y-38.1
X352.743Y-66.675
X352.743Y-85.725
X352.743Y-123.825
X352.743Y-142.875
X361.632Y-38.1
X361.632Y-66.675
X361.632Y-85.725
X361.632Y-142.875
X371.792Y-38.1
X371.792Y-66.675
X371.792Y-85.725
X371.792Y-142.875
X385.445Y-66.675
X385.445Y-85.725
X385.445Y-104.775
X385.445Y-123.825
X394.97Y-142.875
X395.605Y-66.675
X395.605Y-85.725
X395.605Y-104.775
X395.605Y-123.825
X404.495Y-66.675
X404.495Y-85.725
X404.495Y-104.775
X404.495Y-123.825
X405.13Y-142.875
X414.655Y-66.675
X414.655Y-85.725
X414.655Y-104.775
X414.655Y-123.825
X423.545Y-66.675
X423.545Y-85.725
X423.545Y-104.775
X423.545Y-123.825
X423.545Y-142.875
X433.705Y-66.675
X433.705Y-85.725
X433.705Y-104.775
X433.705Y-123.825
X433.705Y-142.875
X442.595Y-66.675
X442.595Y-95.25
X442.595Y-133.35
X452.755Y-66.675
X452.755Y-95.25
X452.755Y-133.35
T2
X457.226Y-35.675
X457.226Y-40.525
T3
X460.256Y-35.375
X460.256Y-40.825
T4
X38.1Y-38.1
X38.1Y-66.675
X38.1Y-132.08
X42.862Y-85.725
X42.862Y-142.875
X45.244Y-104.775
X50.006Y-123.825
X57.15Y-66.675
X61.912Y-132.08
X66.675Y-85.725
X66.675Y-142.875
X71.438Y-104.775
X76.2Y-38.1
X76.2Y-66.675
X80.962Y-123.825
X85.725Y-85.725
X90.487Y-104.775
X90.487Y-142.875
X95.25Y-38.1
X95.25Y-66.675
X100.012Y-123.825
X104.775Y-85.725
X109.537Y-104.775
X109.537Y-151.13
X114.3Y-38.1
X114.3Y-66.675
X119.062Y-123.825
X123.825Y-85.725
X128.588Y-104.775
X133.35Y-38.1
X133.35Y-66.675
X138.112Y-123.825
X142.875Y-85.725
X147.637Y-104.775
X152.4Y-66.675
X157.162Y-123.825
X159.544Y-142.875
X161.607Y-38.1
X161.925Y-85.725
X166.688Y-104.775
X171.45Y-66.675
X176.213Y-123.825
X180.657Y-38.1
X180.975Y-85.725
X185.737Y-104.775
X190.5Y-66.675
X195.262Y-123.825
X199.707Y-38.1
X200.025Y-85.725
X204.787Y-104.775
X209.55Y-66.675
X209.55Y-151.13
X214.312Y-123.825
X218.757Y-38.1
X219.075Y-85.725
X223.837Y-104.775
X228.6Y-66.675
X230.981Y-142.875
X233.362Y-123.825
X238.125Y-85.725
X242.887Y-104.775
X247.65Y-38.1
X247.65Y-66.675
X252.412Y-123.825
X254.794Y-142.875
X257.175Y-85.725
X261.938Y-104.775
X266.7Y-38.1
X266.7Y-66.675
X276.225Y-85.725
X276.225Y-132.08
X278.606Y-142.875
X280.988Y-113.03
X283.369Y-74.93
X285.75Y-38.1
X288.131Y-123.825
X292.894Y-104.775
X295.275Y-66.675
X300.037Y-85.725
X300.037Y-132.08
X302.419Y-142.875
X304.8Y-38.1
X304.8Y-113.03
X307.181Y-74.93
X328.613Y-38.1
X328.613Y-66.675
X328.613Y-85.725
X328.613Y-142.875
X347.662Y-38.1
X347.662Y-66.675
X347.662Y-85.725
X347.662Y-123.825
X347.662Y-142.875
X366.712Y-38.1
X366.712Y-66.675
X366.712Y-85.725
X366.712Y-142.875
X388.144Y-151.13
X390.525Y-66.675
X390.525Y-85.725
X390.525Y-104.775
X390.525Y-123.825
X400.05Y-142.875
X409.575Y-66.675
X409.575Y-85.725
X409.575Y-104.775
X409.575Y-123.825
X411.956Y-151.13
X428.625Y-66.675
X428.625Y-85.725
X428.625Y-104.775
X428.625Y-123.825
X428.625Y-142.875
X447.675Y-66.675
X447.675Y-95.25
X447.675Y-133.35
X455.93Y-83.344
X455.93Y-107.156
X455.93Y-121.444
X455.93Y-145.256
M30
