%TF.GenerationSoftware,KiCad,Pcbnew,10.0.5*%
%TF.CreationDate,2026-08-19T04:10:51-04:00*%
%TF.ProjectId,CustomKeyboard-Simplified,43757374-6f6d-44b6-9579-626f6172642d,rev?*%
%TF.SameCoordinates,Original*%
%TF.FileFunction,Soldermask,Top*%
%TF.FilePolarity,Negative*%
%FSLAX46Y46*%
G04 Gerber Fmt 4.6, Leading zero omitted, Abs format (unit mm)*
G04 Created by KiCad (PCBNEW 10.0.5) date 2026-08-19 04:10:51*
%MOMM*%
%LPD*%
G01*
G04 APERTURE LIST*
G04 Aperture macros list*
%AMRoundRect*
0 Rectangle with rounded corners*
0 $1 Rounding radius*
0 $2 $3 $4 $5 $6 $7 $8 $9 X,Y pos of 4 corners*
0 Add a 4 corners polygon primitive as box body*
4,1,4,$2,$3,$4,$5,$6,$7,$8,$9,$2,$3,0*
0 Add four circle primitives for the rounded corners*
1,1,$1+$1,$2,$3*
1,1,$1+$1,$4,$5*
1,1,$1+$1,$6,$7*
1,1,$1+$1,$8,$9*
0 Add four rect primitives between the rounded corners*
20,1,$1+$1,$2,$3,$4,$5,0*
20,1,$1+$1,$4,$5,$6,$7,0*
20,1,$1+$1,$6,$7,$8,$9,0*
20,1,$1+$1,$8,$9,$2,$3,0*%
%AMFreePoly0*
4,1,37,0.603843,0.796157,0.639018,0.796157,0.711114,0.766294,0.766294,0.711114,0.796157,0.639018,0.796157,0.603843,0.800000,0.600000,0.800000,-0.600000,0.796157,-0.603843,0.796157,-0.639018,0.766294,-0.711114,0.711114,-0.766294,0.639018,-0.796157,0.603843,-0.796157,0.600000,-0.800000,0.000000,-0.800000,0.000000,-0.796148,-0.078414,-0.796148,-0.232228,-0.765552,-0.377117,-0.705537,
-0.507515,-0.618408,-0.618408,-0.507515,-0.705537,-0.377117,-0.765552,-0.232228,-0.796148,-0.078414,-0.796148,0.078414,-0.765552,0.232228,-0.705537,0.377117,-0.618408,0.507515,-0.507515,0.618408,-0.377117,0.705537,-0.232228,0.765552,-0.078414,0.796148,0.000000,0.796148,0.000000,0.800000,0.600000,0.800000,0.603843,0.796157,0.603843,0.796157,$1*%
%AMFreePoly1*
4,1,37,0.000000,0.796148,0.078414,0.796148,0.232228,0.765552,0.377117,0.705537,0.507515,0.618408,0.618408,0.507515,0.705537,0.377117,0.765552,0.232228,0.796148,0.078414,0.796148,-0.078414,0.765552,-0.232228,0.705537,-0.377117,0.618408,-0.507515,0.507515,-0.618408,0.377117,-0.705537,0.232228,-0.765552,0.078414,-0.796148,0.000000,-0.796148,0.000000,-0.800000,-0.600000,-0.800000,
-0.603843,-0.796157,-0.639018,-0.796157,-0.711114,-0.766294,-0.766294,-0.711114,-0.796157,-0.639018,-0.796157,-0.603843,-0.800000,-0.600000,-0.800000,0.600000,-0.796157,0.603843,-0.796157,0.639018,-0.766294,0.711114,-0.711114,0.766294,-0.639018,0.796157,-0.603843,0.796157,-0.600000,0.800000,0.000000,0.800000,0.000000,0.796148,0.000000,0.796148,$1*%
G04 Aperture macros list end*
%ADD10C,2.200000*%
%ADD11C,1.850000*%
%ADD12RoundRect,0.200000X0.600000X-0.600000X0.600000X0.600000X-0.600000X0.600000X-0.600000X-0.600000X0*%
%ADD13C,1.600000*%
%ADD14FreePoly0,90.000000*%
%ADD15FreePoly1,90.000000*%
%ADD16C,3.987800*%
%ADD17R,2.000000X2.000000*%
%ADD18C,2.000000*%
%ADD19R,3.200000X2.000000*%
%ADD20RoundRect,0.250000X-0.550000X-0.550000X0.550000X-0.550000X0.550000X0.550000X-0.550000X0.550000X0*%
%ADD21C,1.750000*%
%ADD22C,3.300000*%
%ADD23RoundRect,0.250000X0.550000X-0.550000X0.550000X0.550000X-0.550000X0.550000X-0.550000X-0.550000X0*%
G04 APERTURE END LIST*
D10*
%TO.C,A1*%
X460256250Y-40825000D03*
D11*
X457226250Y-40525000D03*
X457226250Y-35675000D03*
D10*
X460256250Y-35375000D03*
D12*
X460386250Y-46990000D03*
D13*
X457846250Y-46990000D03*
D14*
X455306250Y-46990000D03*
D13*
X452766250Y-46990000D03*
X450226250Y-46990000D03*
X447686250Y-46990000D03*
X445146250Y-46990000D03*
D14*
X442606250Y-46990000D03*
D13*
X440066250Y-46990000D03*
X437526250Y-46990000D03*
X434986250Y-46990000D03*
X432446250Y-46990000D03*
D14*
X429906250Y-46990000D03*
D13*
X427366250Y-46990000D03*
X424826250Y-46990000D03*
X422286250Y-46990000D03*
X419746250Y-46990000D03*
D14*
X417206250Y-46990000D03*
D13*
X414666250Y-46990000D03*
X412126250Y-46990000D03*
X412126250Y-29210000D03*
X414666250Y-29210000D03*
D15*
X417206250Y-29210000D03*
D13*
X419746250Y-29210000D03*
X422286250Y-29210000D03*
X424826250Y-29210000D03*
X427366250Y-29210000D03*
D15*
X429906250Y-29210000D03*
D13*
X432446250Y-29210000D03*
X434986250Y-29210000D03*
X437526250Y-29210000D03*
X440066250Y-29210000D03*
D15*
X442606250Y-29210000D03*
D13*
X445146250Y-29210000D03*
X447686250Y-29210000D03*
X450226250Y-29210000D03*
X452766250Y-29210000D03*
D15*
X455306250Y-29210000D03*
D13*
X457846250Y-29210000D03*
X460386250Y-29210000D03*
%TD*%
D16*
%TO.C,S1*%
X283368750Y-74930000D03*
X307181250Y-74930000D03*
%TD*%
%TO.C,S2*%
X455930000Y-107156250D03*
X455930000Y-83343750D03*
%TD*%
%TO.C,S7*%
X388143750Y-151130000D03*
X411956250Y-151130000D03*
%TD*%
%TO.C,S8*%
X109537500Y-151130000D03*
X209550000Y-151130000D03*
%TD*%
%TO.C,S3*%
X280987500Y-113030000D03*
X304800000Y-113030000D03*
%TD*%
%TO.C,S4*%
X276225000Y-132080000D03*
X300037500Y-132080000D03*
%TD*%
D17*
%TO.C,SW1*%
X400000000Y-41750000D03*
D18*
X400000000Y-36750000D03*
X400000000Y-39250000D03*
D19*
X392500000Y-44850000D03*
X392500000Y-33650000D03*
D18*
X385500000Y-36750000D03*
X385500000Y-41750000D03*
%TD*%
D16*
%TO.C,S5*%
X38100000Y-132080000D03*
X61912500Y-132080000D03*
%TD*%
%TO.C,S6*%
X455930000Y-145256250D03*
X455930000Y-121443750D03*
%TD*%
D20*
%TO.C,D48*%
X214000000Y-94250000D03*
D13*
X221620000Y-94250000D03*
%TD*%
D21*
%TO.C,SW55*%
X371792500Y-85725000D03*
D16*
X366712500Y-85725000D03*
D21*
X361632500Y-85725000D03*
D22*
X362902500Y-83185000D03*
X369252500Y-80645000D03*
%TD*%
D21*
%TO.C,SW64*%
X133667500Y-104775000D03*
D16*
X128587500Y-104775000D03*
D21*
X123507500Y-104775000D03*
D22*
X124777500Y-102235000D03*
X131127500Y-99695000D03*
%TD*%
D21*
%TO.C,SW65*%
X152717500Y-104775000D03*
D16*
X147637500Y-104775000D03*
D21*
X142557500Y-104775000D03*
D22*
X143827500Y-102235000D03*
X150177500Y-99695000D03*
%TD*%
D20*
%TO.C,D98*%
X249750000Y-151500000D03*
D13*
X257370000Y-151500000D03*
%TD*%
D20*
%TO.C,D60*%
X40250000Y-113250000D03*
D13*
X47870000Y-113250000D03*
%TD*%
D20*
%TO.C,D76*%
X385500000Y-132300000D03*
D13*
X393120000Y-132300000D03*
%TD*%
D21*
%TO.C,SW48*%
X224155000Y-85725000D03*
D16*
X219075000Y-85725000D03*
D21*
X213995000Y-85725000D03*
D22*
X215265000Y-83185000D03*
X221615000Y-80645000D03*
%TD*%
D20*
%TO.C,D47*%
X195000000Y-94250000D03*
D13*
X202620000Y-94250000D03*
%TD*%
D20*
%TO.C,D21*%
X90250000Y-75250000D03*
D13*
X97870000Y-75250000D03*
%TD*%
D21*
%TO.C,SW104*%
X405130000Y-142875000D03*
D16*
X400050000Y-142875000D03*
D21*
X394970000Y-142875000D03*
D22*
X396240000Y-140335000D03*
X402590000Y-137795000D03*
%TD*%
D20*
%TO.C,D87*%
X247500000Y-132500000D03*
D13*
X255120000Y-132500000D03*
%TD*%
D21*
%TO.C,SW39*%
X47942500Y-85725000D03*
D16*
X42862500Y-85725000D03*
D21*
X37782500Y-85725000D03*
D22*
X39052500Y-83185000D03*
X45402500Y-80645000D03*
%TD*%
D20*
%TO.C,D39*%
X37750000Y-94250000D03*
D13*
X45370000Y-94250000D03*
%TD*%
D20*
%TO.C,D100*%
X297250000Y-151500000D03*
D13*
X304870000Y-151500000D03*
%TD*%
D20*
%TO.C,D41*%
X80750000Y-94250000D03*
D13*
X88370000Y-94250000D03*
%TD*%
D20*
%TO.C,D28*%
X242500000Y-75250000D03*
D13*
X250120000Y-75250000D03*
%TD*%
D20*
%TO.C,D101*%
X323500000Y-151500000D03*
D13*
X331120000Y-151500000D03*
%TD*%
D21*
%TO.C,SW40*%
X71755000Y-85725000D03*
D16*
X66675000Y-85725000D03*
D21*
X61595000Y-85725000D03*
D22*
X62865000Y-83185000D03*
X69215000Y-80645000D03*
%TD*%
D20*
%TO.C,D4*%
X90250000Y-46750000D03*
D13*
X97870000Y-46750000D03*
%TD*%
D20*
%TO.C,D46*%
X176250000Y-94250000D03*
D13*
X183870000Y-94250000D03*
%TD*%
D21*
%TO.C,SW78*%
X105092500Y-123825000D03*
D16*
X100012500Y-123825000D03*
D21*
X94932500Y-123825000D03*
D22*
X96202500Y-121285000D03*
X102552500Y-118745000D03*
%TD*%
D21*
%TO.C,SW54*%
X352742500Y-85725000D03*
D16*
X347662500Y-85725000D03*
D21*
X342582500Y-85725000D03*
D22*
X343852500Y-83185000D03*
X350202500Y-80645000D03*
%TD*%
D20*
%TO.C,D13*%
X281000000Y-46750000D03*
D13*
X288620000Y-46750000D03*
%TD*%
D21*
%TO.C,SW34*%
X371792500Y-66675000D03*
D16*
X366712500Y-66675000D03*
D21*
X361632500Y-66675000D03*
D22*
X362902500Y-64135000D03*
X369252500Y-61595000D03*
%TD*%
D20*
%TO.C,D83*%
X152000000Y-132500000D03*
D13*
X159620000Y-132500000D03*
%TD*%
D20*
%TO.C,D66*%
X162000000Y-113250000D03*
D13*
X169620000Y-113250000D03*
%TD*%
D20*
%TO.C,D63*%
X104500000Y-113250000D03*
D13*
X112120000Y-113250000D03*
%TD*%
D21*
%TO.C,SW74*%
X414655000Y-104775000D03*
D16*
X409575000Y-104775000D03*
D21*
X404495000Y-104775000D03*
D22*
X405765000Y-102235000D03*
X412115000Y-99695000D03*
%TD*%
D21*
%TO.C,SW10*%
X223837500Y-38100000D03*
D16*
X218757500Y-38100000D03*
D21*
X213677500Y-38100000D03*
D22*
X214947500Y-35560000D03*
X221297500Y-33020000D03*
%TD*%
D21*
%TO.C,SW57*%
X414655000Y-85725000D03*
D16*
X409575000Y-85725000D03*
D21*
X404495000Y-85725000D03*
D22*
X405765000Y-83185000D03*
X412115000Y-80645000D03*
%TD*%
D20*
%TO.C,D23*%
X128500000Y-75250000D03*
D13*
X136120000Y-75250000D03*
%TD*%
D21*
%TO.C,SW98*%
X259873750Y-142875000D03*
D16*
X254793750Y-142875000D03*
D21*
X249713750Y-142875000D03*
D22*
X250983750Y-140335000D03*
X257333750Y-137795000D03*
%TD*%
D21*
%TO.C,SW44*%
X147955000Y-85725000D03*
D16*
X142875000Y-85725000D03*
D21*
X137795000Y-85725000D03*
D22*
X139065000Y-83185000D03*
X145415000Y-80645000D03*
%TD*%
D20*
%TO.C,D86*%
X228250000Y-132500000D03*
D13*
X235870000Y-132500000D03*
%TD*%
D21*
%TO.C,SW36*%
X414655000Y-66675000D03*
D16*
X409575000Y-66675000D03*
D21*
X404495000Y-66675000D03*
D22*
X405765000Y-64135000D03*
X412115000Y-61595000D03*
%TD*%
D20*
%TO.C,D40*%
X61500000Y-94250000D03*
D13*
X69120000Y-94250000D03*
%TD*%
D20*
%TO.C,D89*%
X342750000Y-132500000D03*
D13*
X350370000Y-132500000D03*
%TD*%
D20*
%TO.C,D62*%
X85500000Y-113250000D03*
D13*
X93120000Y-113250000D03*
%TD*%
D21*
%TO.C,SW96*%
X164623750Y-142875000D03*
D16*
X159543750Y-142875000D03*
D21*
X154463750Y-142875000D03*
D22*
X155733750Y-140335000D03*
X162083750Y-137795000D03*
%TD*%
D20*
%TO.C,D27*%
X223750000Y-75250000D03*
D13*
X231370000Y-75250000D03*
%TD*%
D21*
%TO.C,SW90*%
X414655000Y-123825000D03*
D16*
X409575000Y-123825000D03*
D21*
X404495000Y-123825000D03*
D22*
X405765000Y-121285000D03*
X412115000Y-118745000D03*
%TD*%
D20*
%TO.C,D56*%
X385500000Y-94250000D03*
D13*
X393120000Y-94250000D03*
%TD*%
D21*
%TO.C,SW18*%
X43180000Y-66675000D03*
D16*
X38100000Y-66675000D03*
D21*
X33020000Y-66675000D03*
D22*
X34290000Y-64135000D03*
X40640000Y-61595000D03*
%TD*%
D20*
%TO.C,D45*%
X157000000Y-94250000D03*
D13*
X164620000Y-94250000D03*
%TD*%
D20*
%TO.C,D85*%
X190250000Y-132500000D03*
D13*
X197870000Y-132500000D03*
%TD*%
D20*
%TO.C,D22*%
X109500000Y-75250000D03*
D13*
X117120000Y-75250000D03*
%TD*%
D21*
%TO.C,SW82*%
X181292500Y-123825000D03*
D16*
X176212500Y-123825000D03*
D21*
X171132500Y-123825000D03*
D22*
X172402500Y-121285000D03*
X178752500Y-118745000D03*
%TD*%
D21*
%TO.C,SW21*%
X100330000Y-66675000D03*
D16*
X95250000Y-66675000D03*
D21*
X90170000Y-66675000D03*
D22*
X91440000Y-64135000D03*
X97790000Y-61595000D03*
%TD*%
D21*
%TO.C,SW7*%
X166687500Y-38100000D03*
D16*
X161607500Y-38100000D03*
D21*
X156527500Y-38100000D03*
D22*
X157797500Y-35560000D03*
X164147500Y-33020000D03*
%TD*%
D21*
%TO.C,SW62*%
X95567500Y-104775000D03*
D16*
X90487500Y-104775000D03*
D21*
X85407500Y-104775000D03*
D22*
X86677500Y-102235000D03*
X93027500Y-99695000D03*
%TD*%
D21*
%TO.C,SW27*%
X214630000Y-66675000D03*
D16*
X209550000Y-66675000D03*
D21*
X204470000Y-66675000D03*
D22*
X205740000Y-64135000D03*
X212090000Y-61595000D03*
%TD*%
D21*
%TO.C,SW5*%
X119380000Y-38100000D03*
D16*
X114300000Y-38100000D03*
D21*
X109220000Y-38100000D03*
D22*
X110490000Y-35560000D03*
X116840000Y-33020000D03*
%TD*%
D20*
%TO.C,D80*%
X95000000Y-132500000D03*
D13*
X102620000Y-132500000D03*
%TD*%
D21*
%TO.C,SW102*%
X352742500Y-142875000D03*
D16*
X347662500Y-142875000D03*
D21*
X342582500Y-142875000D03*
D22*
X343852500Y-140335000D03*
X350202500Y-137795000D03*
%TD*%
D21*
%TO.C,SW70*%
X247967500Y-104775000D03*
D16*
X242887500Y-104775000D03*
D21*
X237807500Y-104775000D03*
D22*
X239077500Y-102235000D03*
X245427500Y-99695000D03*
%TD*%
D21*
%TO.C,SW29*%
X252730000Y-66675000D03*
D16*
X247650000Y-66675000D03*
D21*
X242570000Y-66675000D03*
D22*
X243840000Y-64135000D03*
X250190000Y-61595000D03*
%TD*%
D20*
%TO.C,D74*%
X404500000Y-113250000D03*
D13*
X412120000Y-113250000D03*
%TD*%
D20*
%TO.C,D102*%
X342500000Y-151500000D03*
D13*
X350120000Y-151500000D03*
%TD*%
D20*
%TO.C,D12*%
X261500000Y-46750000D03*
D13*
X269120000Y-46750000D03*
%TD*%
D21*
%TO.C,SW8*%
X185737500Y-38100000D03*
D16*
X180657500Y-38100000D03*
D21*
X175577500Y-38100000D03*
D22*
X176847500Y-35560000D03*
X183197500Y-33020000D03*
%TD*%
D21*
%TO.C,SW35*%
X395605000Y-66675000D03*
D16*
X390525000Y-66675000D03*
D21*
X385445000Y-66675000D03*
D22*
X386715000Y-64135000D03*
X393065000Y-61595000D03*
%TD*%
D20*
%TO.C,D95*%
X85500000Y-151500000D03*
D13*
X93120000Y-151500000D03*
%TD*%
D21*
%TO.C,SW99*%
X283686250Y-142875000D03*
D16*
X278606250Y-142875000D03*
D21*
X273526250Y-142875000D03*
D22*
X274796250Y-140335000D03*
X281146250Y-137795000D03*
%TD*%
D20*
%TO.C,D34*%
X385500000Y-75250000D03*
D13*
X393120000Y-75250000D03*
%TD*%
D21*
%TO.C,SW14*%
X309880000Y-38100000D03*
D16*
X304800000Y-38100000D03*
D21*
X299720000Y-38100000D03*
D22*
X300990000Y-35560000D03*
X307340000Y-33020000D03*
%TD*%
D21*
%TO.C,SW31*%
X300355000Y-66675000D03*
D16*
X295275000Y-66675000D03*
D21*
X290195000Y-66675000D03*
D22*
X291465000Y-64135000D03*
X297815000Y-61595000D03*
%TD*%
D20*
%TO.C,D36*%
X423500000Y-75250000D03*
D13*
X431120000Y-75250000D03*
%TD*%
D20*
%TO.C,D79*%
X76000000Y-132500000D03*
D13*
X83620000Y-132500000D03*
%TD*%
D20*
%TO.C,D50*%
X252250000Y-94250000D03*
D13*
X259870000Y-94250000D03*
%TD*%
D21*
%TO.C,SW46*%
X186055000Y-85725000D03*
D16*
X180975000Y-85725000D03*
D21*
X175895000Y-85725000D03*
D22*
X177165000Y-83185000D03*
X183515000Y-80645000D03*
%TD*%
D20*
%TO.C,D93*%
X37750000Y-151500000D03*
D13*
X45370000Y-151500000D03*
%TD*%
D20*
%TO.C,D52*%
X295000000Y-94250000D03*
D13*
X302620000Y-94250000D03*
%TD*%
D20*
%TO.C,D29*%
X261750000Y-75250000D03*
D13*
X269370000Y-75250000D03*
%TD*%
D23*
%TO.C,D1*%
X381500000Y-44250000D03*
D13*
X381500000Y-36630000D03*
%TD*%
D20*
%TO.C,D51*%
X271250000Y-94250000D03*
D13*
X278870000Y-94250000D03*
%TD*%
D20*
%TO.C,D3*%
X71190000Y-46750000D03*
D13*
X78810000Y-46750000D03*
%TD*%
D21*
%TO.C,SW42*%
X109855000Y-85725000D03*
D16*
X104775000Y-85725000D03*
D21*
X99695000Y-85725000D03*
D22*
X100965000Y-83185000D03*
X107315000Y-80645000D03*
%TD*%
D13*
%TO.C,C1*%
X355750000Y-96750000D03*
X353250000Y-96750000D03*
%TD*%
D20*
%TO.C,D67*%
X180750000Y-113250000D03*
D13*
X188370000Y-113250000D03*
%TD*%
D20*
%TO.C,D65*%
X142750000Y-113250000D03*
D13*
X150370000Y-113250000D03*
%TD*%
D20*
%TO.C,D14*%
X299750000Y-46750000D03*
D13*
X307370000Y-46750000D03*
%TD*%
D21*
%TO.C,SW22*%
X119380000Y-66675000D03*
D16*
X114300000Y-66675000D03*
D21*
X109220000Y-66675000D03*
D22*
X110490000Y-64135000D03*
X116840000Y-61595000D03*
%TD*%
D20*
%TO.C,D37*%
X442750000Y-75250000D03*
D13*
X450370000Y-75250000D03*
%TD*%
D21*
%TO.C,SW47*%
X205105000Y-85725000D03*
D16*
X200025000Y-85725000D03*
D21*
X194945000Y-85725000D03*
D22*
X196215000Y-83185000D03*
X202565000Y-80645000D03*
%TD*%
D20*
%TO.C,D57*%
X404500000Y-94250000D03*
D13*
X412120000Y-94250000D03*
%TD*%
D21*
%TO.C,SW93*%
X47942500Y-142875000D03*
D16*
X42862500Y-142875000D03*
D21*
X37782500Y-142875000D03*
D22*
X39052500Y-140335000D03*
X45402500Y-137795000D03*
%TD*%
D21*
%TO.C,SW38*%
X452755000Y-66675000D03*
D16*
X447675000Y-66675000D03*
D21*
X442595000Y-66675000D03*
D22*
X443865000Y-64135000D03*
X450215000Y-61595000D03*
%TD*%
D21*
%TO.C,SW72*%
X297973750Y-104775000D03*
D16*
X292893750Y-104775000D03*
D21*
X287813750Y-104775000D03*
D22*
X289083750Y-102235000D03*
X295433750Y-99695000D03*
%TD*%
D21*
%TO.C,SW37*%
X433705000Y-66675000D03*
D16*
X428625000Y-66675000D03*
D21*
X423545000Y-66675000D03*
D22*
X424815000Y-64135000D03*
X431165000Y-61595000D03*
%TD*%
D21*
%TO.C,SW86*%
X257492500Y-123825000D03*
D16*
X252412500Y-123825000D03*
D21*
X247332500Y-123825000D03*
D22*
X248602500Y-121285000D03*
X254952500Y-118745000D03*
%TD*%
D21*
%TO.C,SW66*%
X171767500Y-104775000D03*
D16*
X166687500Y-104775000D03*
D21*
X161607500Y-104775000D03*
D22*
X162877500Y-102235000D03*
X169227500Y-99695000D03*
%TD*%
D21*
%TO.C,SW45*%
X167005000Y-85725000D03*
D16*
X161925000Y-85725000D03*
D21*
X156845000Y-85725000D03*
D22*
X158115000Y-83185000D03*
X164465000Y-80645000D03*
%TD*%
D20*
%TO.C,D35*%
X404500000Y-75250000D03*
D13*
X412120000Y-75250000D03*
%TD*%
D21*
%TO.C,SW52*%
X305117500Y-85725000D03*
D16*
X300037500Y-85725000D03*
D21*
X294957500Y-85725000D03*
D22*
X296227500Y-83185000D03*
X302577500Y-80645000D03*
%TD*%
D20*
%TO.C,D42*%
X99750000Y-94250000D03*
D13*
X107370000Y-94250000D03*
%TD*%
D20*
%TO.C,D7*%
X156500000Y-46750000D03*
D13*
X164120000Y-46750000D03*
%TD*%
D20*
%TO.C,D44*%
X137750000Y-94250000D03*
D13*
X145370000Y-94250000D03*
%TD*%
D20*
%TO.C,D30*%
X290500000Y-75250000D03*
D13*
X298120000Y-75250000D03*
%TD*%
D21*
%TO.C,SW3*%
X81280000Y-38100000D03*
D16*
X76200000Y-38100000D03*
D21*
X71120000Y-38100000D03*
D22*
X72390000Y-35560000D03*
X78740000Y-33020000D03*
%TD*%
D21*
%TO.C,SW2*%
X43180000Y-38100000D03*
D16*
X38100000Y-38100000D03*
D21*
X33020000Y-38100000D03*
D22*
X34290000Y-35560000D03*
X40640000Y-33020000D03*
%TD*%
D21*
%TO.C,SW20*%
X81280000Y-66675000D03*
D16*
X76200000Y-66675000D03*
D21*
X71120000Y-66675000D03*
D22*
X72390000Y-64135000D03*
X78740000Y-61595000D03*
%TD*%
D21*
%TO.C,SW43*%
X128905000Y-85725000D03*
D16*
X123825000Y-85725000D03*
D21*
X118745000Y-85725000D03*
D22*
X120015000Y-83185000D03*
X126365000Y-80645000D03*
%TD*%
D21*
%TO.C,SW73*%
X395605000Y-104775000D03*
D16*
X390525000Y-104775000D03*
D21*
X385445000Y-104775000D03*
D22*
X386715000Y-102235000D03*
X393065000Y-99695000D03*
%TD*%
D21*
%TO.C,SW97*%
X236061250Y-142875000D03*
D16*
X230981250Y-142875000D03*
D21*
X225901250Y-142875000D03*
D22*
X227171250Y-140335000D03*
X233521250Y-137795000D03*
%TD*%
D20*
%TO.C,D94*%
X61750000Y-151500000D03*
D13*
X69370000Y-151500000D03*
%TD*%
D21*
%TO.C,SW33*%
X352742500Y-66675000D03*
D16*
X347662500Y-66675000D03*
D21*
X342582500Y-66675000D03*
D22*
X343852500Y-64135000D03*
X350202500Y-61595000D03*
%TD*%
D20*
%TO.C,D90*%
X404500000Y-132500000D03*
D13*
X412120000Y-132500000D03*
%TD*%
D20*
%TO.C,D75*%
X423750000Y-113250000D03*
D13*
X431370000Y-113250000D03*
%TD*%
D21*
%TO.C,SW60*%
X50323750Y-104775000D03*
D16*
X45243750Y-104775000D03*
D21*
X40163750Y-104775000D03*
D22*
X41433750Y-102235000D03*
X47783750Y-99695000D03*
%TD*%
D20*
%TO.C,D2*%
X33190000Y-46750000D03*
D13*
X40810000Y-46750000D03*
%TD*%
D21*
%TO.C,SW4*%
X100330000Y-38100000D03*
D16*
X95250000Y-38100000D03*
D21*
X90170000Y-38100000D03*
D22*
X91440000Y-35560000D03*
X97790000Y-33020000D03*
%TD*%
D21*
%TO.C,SW103*%
X371792500Y-142875000D03*
D16*
X366712500Y-142875000D03*
D21*
X361632500Y-142875000D03*
D22*
X362902500Y-140335000D03*
X369252500Y-137795000D03*
%TD*%
D20*
%TO.C,D103*%
X361750000Y-151500000D03*
D13*
X369370000Y-151500000D03*
%TD*%
D20*
%TO.C,D73*%
X385500000Y-113250000D03*
D13*
X393120000Y-113250000D03*
%TD*%
D21*
%TO.C,SW30*%
X271780000Y-66675000D03*
D16*
X266700000Y-66675000D03*
D21*
X261620000Y-66675000D03*
D22*
X262890000Y-64135000D03*
X269240000Y-61595000D03*
%TD*%
D21*
%TO.C,SW16*%
X352742500Y-38100000D03*
D16*
X347662500Y-38100000D03*
D21*
X342582500Y-38100000D03*
D22*
X343852500Y-35560000D03*
X350202500Y-33020000D03*
%TD*%
D21*
%TO.C,SW32*%
X333692500Y-66675000D03*
D16*
X328612500Y-66675000D03*
D21*
X323532500Y-66675000D03*
D22*
X324802500Y-64135000D03*
X331152500Y-61595000D03*
%TD*%
D20*
%TO.C,D61*%
X66500000Y-113250000D03*
D13*
X74120000Y-113250000D03*
%TD*%
D21*
%TO.C,SW41*%
X90805000Y-85725000D03*
D16*
X85725000Y-85725000D03*
D21*
X80645000Y-85725000D03*
D22*
X81915000Y-83185000D03*
X88265000Y-80645000D03*
%TD*%
D21*
%TO.C,SW69*%
X228917500Y-104775000D03*
D16*
X223837500Y-104775000D03*
D21*
X218757500Y-104775000D03*
D22*
X220027500Y-102235000D03*
X226377500Y-99695000D03*
%TD*%
D21*
%TO.C,SW75*%
X433705000Y-104775000D03*
D16*
X428625000Y-104775000D03*
D21*
X423545000Y-104775000D03*
D22*
X424815000Y-102235000D03*
X431165000Y-99695000D03*
%TD*%
D21*
%TO.C,SW12*%
X271780000Y-38100000D03*
D16*
X266700000Y-38100000D03*
D21*
X261620000Y-38100000D03*
D22*
X262890000Y-35560000D03*
X269240000Y-33020000D03*
%TD*%
D21*
%TO.C,SW89*%
X395605000Y-123825000D03*
D16*
X390525000Y-123825000D03*
D21*
X385445000Y-123825000D03*
D22*
X386715000Y-121285000D03*
X393065000Y-118745000D03*
%TD*%
D21*
%TO.C,SW101*%
X333692500Y-142875000D03*
D16*
X328612500Y-142875000D03*
D21*
X323532500Y-142875000D03*
D22*
X324802500Y-140335000D03*
X331152500Y-137795000D03*
%TD*%
D21*
%TO.C,SW95*%
X95567500Y-142875000D03*
D16*
X90487500Y-142875000D03*
D21*
X85407500Y-142875000D03*
D22*
X86677500Y-140335000D03*
X93027500Y-137795000D03*
%TD*%
D23*
%TO.C,D92*%
X456750000Y-136000000D03*
D13*
X456750000Y-128380000D03*
%TD*%
D20*
%TO.C,D71*%
X257000000Y-113250000D03*
D13*
X264620000Y-113250000D03*
%TD*%
D21*
%TO.C,SW100*%
X307498750Y-142875000D03*
D16*
X302418750Y-142875000D03*
D21*
X297338750Y-142875000D03*
D22*
X298608750Y-140335000D03*
X304958750Y-137795000D03*
%TD*%
D21*
%TO.C,SW15*%
X333692500Y-38100000D03*
D16*
X328612500Y-38100000D03*
D21*
X323532500Y-38100000D03*
D22*
X324802500Y-35560000D03*
X331152500Y-33020000D03*
%TD*%
D20*
%TO.C,D49*%
X233250000Y-94250000D03*
D13*
X240870000Y-94250000D03*
%TD*%
D21*
%TO.C,SW49*%
X243205000Y-85725000D03*
D16*
X238125000Y-85725000D03*
D21*
X233045000Y-85725000D03*
D22*
X234315000Y-83185000D03*
X240665000Y-80645000D03*
%TD*%
D20*
%TO.C,D16*%
X342750000Y-46750000D03*
D13*
X350370000Y-46750000D03*
%TD*%
D20*
%TO.C,D11*%
X242750000Y-46750000D03*
D13*
X250370000Y-46750000D03*
%TD*%
D21*
%TO.C,SW68*%
X209867500Y-104775000D03*
D16*
X204787500Y-104775000D03*
D21*
X199707500Y-104775000D03*
D22*
X200977500Y-102235000D03*
X207327500Y-99695000D03*
%TD*%
D20*
%TO.C,D15*%
X323750000Y-46750000D03*
D13*
X331370000Y-46750000D03*
%TD*%
D20*
%TO.C,D8*%
X175750000Y-46750000D03*
D13*
X183370000Y-46750000D03*
%TD*%
D21*
%TO.C,SW71*%
X267017500Y-104775000D03*
D16*
X261937500Y-104775000D03*
D21*
X256857500Y-104775000D03*
D22*
X258127500Y-102235000D03*
X264477500Y-99695000D03*
%TD*%
D20*
%TO.C,D96*%
X154500000Y-151500000D03*
D13*
X162120000Y-151500000D03*
%TD*%
D21*
%TO.C,SW94*%
X71755000Y-142875000D03*
D16*
X66675000Y-142875000D03*
D21*
X61595000Y-142875000D03*
D22*
X62865000Y-140335000D03*
X69215000Y-137795000D03*
%TD*%
D21*
%TO.C,SW76*%
X55086250Y-123825000D03*
D16*
X50006250Y-123825000D03*
D21*
X44926250Y-123825000D03*
D22*
X46196250Y-121285000D03*
X52546250Y-118745000D03*
%TD*%
D20*
%TO.C,D104*%
X395000000Y-151500000D03*
D13*
X402620000Y-151500000D03*
%TD*%
D21*
%TO.C,SW59*%
X452755000Y-95250000D03*
D16*
X447675000Y-95250000D03*
D21*
X442595000Y-95250000D03*
D22*
X443865000Y-92710000D03*
X450215000Y-90170000D03*
%TD*%
D20*
%TO.C,D17*%
X361750000Y-46750000D03*
D13*
X369370000Y-46750000D03*
%TD*%
D20*
%TO.C,D18*%
X33250000Y-75250000D03*
D13*
X40870000Y-75250000D03*
%TD*%
D21*
%TO.C,SW6*%
X138430000Y-38100000D03*
D16*
X133350000Y-38100000D03*
D21*
X128270000Y-38100000D03*
D22*
X129540000Y-35560000D03*
X135890000Y-33020000D03*
%TD*%
D21*
%TO.C,SW81*%
X162242500Y-123825000D03*
D16*
X157162500Y-123825000D03*
D21*
X152082500Y-123825000D03*
D22*
X153352500Y-121285000D03*
X159702500Y-118745000D03*
%TD*%
D20*
%TO.C,D25*%
X166500000Y-75250000D03*
D13*
X174120000Y-75250000D03*
%TD*%
D20*
%TO.C,D55*%
X361750000Y-94250000D03*
D13*
X369370000Y-94250000D03*
%TD*%
D20*
%TO.C,D19*%
X52250000Y-75250000D03*
D13*
X59870000Y-75250000D03*
%TD*%
D20*
%TO.C,D24*%
X147250000Y-75250000D03*
D13*
X154870000Y-75250000D03*
%TD*%
D20*
%TO.C,D70*%
X238000000Y-113250000D03*
D13*
X245620000Y-113250000D03*
%TD*%
D20*
%TO.C,D91*%
X423500000Y-132500000D03*
D13*
X431120000Y-132500000D03*
%TD*%
D21*
%TO.C,SW13*%
X290830000Y-38100000D03*
D16*
X285750000Y-38100000D03*
D21*
X280670000Y-38100000D03*
D22*
X281940000Y-35560000D03*
X288290000Y-33020000D03*
%TD*%
D20*
%TO.C,D105*%
X423750000Y-151500000D03*
D13*
X431370000Y-151500000D03*
%TD*%
D21*
%TO.C,SW92*%
X452755000Y-133350000D03*
D16*
X447675000Y-133350000D03*
D21*
X442595000Y-133350000D03*
D22*
X443865000Y-130810000D03*
X450215000Y-128270000D03*
%TD*%
D20*
%TO.C,D38*%
X204750000Y-75500000D03*
D13*
X212370000Y-75500000D03*
%TD*%
D21*
%TO.C,SW85*%
X238442500Y-123825000D03*
D16*
X233362500Y-123825000D03*
D21*
X228282500Y-123825000D03*
D22*
X229552500Y-121285000D03*
X235902500Y-118745000D03*
%TD*%
D20*
%TO.C,D68*%
X200250000Y-113250000D03*
D13*
X207870000Y-113250000D03*
%TD*%
D20*
%TO.C,D31*%
X323750000Y-75250000D03*
D13*
X331370000Y-75250000D03*
%TD*%
D21*
%TO.C,SW87*%
X293211250Y-123825000D03*
D16*
X288131250Y-123825000D03*
D21*
X283051250Y-123825000D03*
D22*
X284321250Y-121285000D03*
X290671250Y-118745000D03*
%TD*%
D21*
%TO.C,SW84*%
X219392500Y-123825000D03*
D16*
X214312500Y-123825000D03*
D21*
X209232500Y-123825000D03*
D22*
X210502500Y-121285000D03*
X216852500Y-118745000D03*
%TD*%
D21*
%TO.C,SW88*%
X352742500Y-123825000D03*
D16*
X347662500Y-123825000D03*
D21*
X342582500Y-123825000D03*
D22*
X343852500Y-121285000D03*
X350202500Y-118745000D03*
%TD*%
D21*
%TO.C,SW9*%
X204787500Y-38100000D03*
D16*
X199707500Y-38100000D03*
D21*
X194627500Y-38100000D03*
D22*
X195897500Y-35560000D03*
X202247500Y-33020000D03*
%TD*%
D20*
%TO.C,D26*%
X185500000Y-75250000D03*
D13*
X193120000Y-75250000D03*
%TD*%
D21*
%TO.C,SW61*%
X76517500Y-104775000D03*
D16*
X71437500Y-104775000D03*
D21*
X66357500Y-104775000D03*
D22*
X67627500Y-102235000D03*
X73977500Y-99695000D03*
%TD*%
D21*
%TO.C,SW80*%
X143192500Y-123825000D03*
D16*
X138112500Y-123825000D03*
D21*
X133032500Y-123825000D03*
D22*
X134302500Y-121285000D03*
X140652500Y-118745000D03*
%TD*%
D21*
%TO.C,SW23*%
X138430000Y-66675000D03*
D16*
X133350000Y-66675000D03*
D21*
X128270000Y-66675000D03*
D22*
X129540000Y-64135000D03*
X135890000Y-61595000D03*
%TD*%
D20*
%TO.C,D99*%
X273500000Y-151500000D03*
D13*
X281120000Y-151500000D03*
%TD*%
D21*
%TO.C,SW105*%
X433705000Y-142875000D03*
D16*
X428625000Y-142875000D03*
D21*
X423545000Y-142875000D03*
D22*
X424815000Y-140335000D03*
X431165000Y-137795000D03*
%TD*%
D20*
%TO.C,D32*%
X342750000Y-75250000D03*
D13*
X350370000Y-75250000D03*
%TD*%
D21*
%TO.C,SW26*%
X195580000Y-66675000D03*
D16*
X190500000Y-66675000D03*
D21*
X185420000Y-66675000D03*
D22*
X186690000Y-64135000D03*
X193040000Y-61595000D03*
%TD*%
D20*
%TO.C,D9*%
X194750000Y-46750000D03*
D13*
X202370000Y-46750000D03*
%TD*%
D20*
%TO.C,D6*%
X128250000Y-46750000D03*
D13*
X135870000Y-46750000D03*
%TD*%
D21*
%TO.C,SW67*%
X190817500Y-104775000D03*
D16*
X185737500Y-104775000D03*
D21*
X180657500Y-104775000D03*
D22*
X181927500Y-102235000D03*
X188277500Y-99695000D03*
%TD*%
D20*
%TO.C,D53*%
X323500000Y-94250000D03*
D13*
X331120000Y-94250000D03*
%TD*%
D21*
%TO.C,SW79*%
X124142500Y-123825000D03*
D16*
X119062500Y-123825000D03*
D21*
X113982500Y-123825000D03*
D22*
X115252500Y-121285000D03*
X121602500Y-118745000D03*
%TD*%
D20*
%TO.C,D33*%
X362000000Y-75250000D03*
D13*
X369620000Y-75250000D03*
%TD*%
D21*
%TO.C,SW17*%
X371792500Y-38100000D03*
D16*
X366712500Y-38100000D03*
D21*
X361632500Y-38100000D03*
D22*
X362902500Y-35560000D03*
X369252500Y-33020000D03*
%TD*%
D20*
%TO.C,D72*%
X287750000Y-113250000D03*
D13*
X295370000Y-113250000D03*
%TD*%
D20*
%TO.C,D64*%
X123750000Y-113250000D03*
D13*
X131370000Y-113250000D03*
%TD*%
D21*
%TO.C,SW56*%
X395605000Y-85725000D03*
D16*
X390525000Y-85725000D03*
D21*
X385445000Y-85725000D03*
D22*
X386715000Y-83185000D03*
X393065000Y-80645000D03*
%TD*%
D20*
%TO.C,D5*%
X109500000Y-46750000D03*
D13*
X117120000Y-46750000D03*
%TD*%
D21*
%TO.C,SW77*%
X86042500Y-123825000D03*
D16*
X80962500Y-123825000D03*
D21*
X75882500Y-123825000D03*
D22*
X77152500Y-121285000D03*
X83502500Y-118745000D03*
%TD*%
D20*
%TO.C,D84*%
X171250000Y-132500000D03*
D13*
X178870000Y-132500000D03*
%TD*%
D20*
%TO.C,D20*%
X71250000Y-75250000D03*
D13*
X78870000Y-75250000D03*
%TD*%
D20*
%TO.C,D78*%
X45000000Y-132500000D03*
D13*
X52620000Y-132500000D03*
%TD*%
D21*
%TO.C,SW28*%
X233680000Y-66675000D03*
D16*
X228600000Y-66675000D03*
D21*
X223520000Y-66675000D03*
D22*
X224790000Y-64135000D03*
X231140000Y-61595000D03*
%TD*%
D21*
%TO.C,SW51*%
X281305000Y-85725000D03*
D16*
X276225000Y-85725000D03*
D21*
X271145000Y-85725000D03*
D22*
X272415000Y-83185000D03*
X278765000Y-80645000D03*
%TD*%
D21*
%TO.C,SW11*%
X252730000Y-38100000D03*
D16*
X247650000Y-38100000D03*
D21*
X242570000Y-38100000D03*
D22*
X243840000Y-35560000D03*
X250190000Y-33020000D03*
%TD*%
D21*
%TO.C,SW19*%
X62230000Y-66675000D03*
D16*
X57150000Y-66675000D03*
D21*
X52070000Y-66675000D03*
D22*
X53340000Y-64135000D03*
X59690000Y-61595000D03*
%TD*%
D20*
%TO.C,D43*%
X118750000Y-94250000D03*
D13*
X126370000Y-94250000D03*
%TD*%
D20*
%TO.C,D58*%
X423500000Y-94250000D03*
D13*
X431120000Y-94250000D03*
%TD*%
D21*
%TO.C,SW91*%
X433705000Y-123825000D03*
D16*
X428625000Y-123825000D03*
D21*
X423545000Y-123825000D03*
D22*
X424815000Y-121285000D03*
X431165000Y-118745000D03*
%TD*%
D21*
%TO.C,SW24*%
X157480000Y-66675000D03*
D16*
X152400000Y-66675000D03*
D21*
X147320000Y-66675000D03*
D22*
X148590000Y-64135000D03*
X154940000Y-61595000D03*
%TD*%
D20*
%TO.C,D10*%
X213750000Y-46750000D03*
D13*
X221370000Y-46750000D03*
%TD*%
D21*
%TO.C,SW50*%
X262255000Y-85725000D03*
D16*
X257175000Y-85725000D03*
D21*
X252095000Y-85725000D03*
D22*
X253365000Y-83185000D03*
X259715000Y-80645000D03*
%TD*%
D20*
%TO.C,D54*%
X342750000Y-94250000D03*
D13*
X350370000Y-94250000D03*
%TD*%
D20*
%TO.C,D82*%
X133250000Y-132500000D03*
D13*
X140870000Y-132500000D03*
%TD*%
D23*
%TO.C,D59*%
X456750000Y-97750000D03*
D13*
X456750000Y-90130000D03*
%TD*%
D21*
%TO.C,SW83*%
X200342500Y-123825000D03*
D16*
X195262500Y-123825000D03*
D21*
X190182500Y-123825000D03*
D22*
X191452500Y-121285000D03*
X197802500Y-118745000D03*
%TD*%
D21*
%TO.C,SW25*%
X176530000Y-66675000D03*
D16*
X171450000Y-66675000D03*
D21*
X166370000Y-66675000D03*
D22*
X167640000Y-64135000D03*
X173990000Y-61595000D03*
%TD*%
D20*
%TO.C,D97*%
X226000000Y-151500000D03*
D13*
X233620000Y-151500000D03*
%TD*%
D20*
%TO.C,D88*%
X283250000Y-132500000D03*
D13*
X290870000Y-132500000D03*
%TD*%
D21*
%TO.C,SW63*%
X114617500Y-104775000D03*
D16*
X109537500Y-104775000D03*
D21*
X104457500Y-104775000D03*
D22*
X105727500Y-102235000D03*
X112077500Y-99695000D03*
%TD*%
D20*
%TO.C,D69*%
X219000000Y-113250000D03*
D13*
X226620000Y-113250000D03*
%TD*%
D21*
%TO.C,SW58*%
X433705000Y-85725000D03*
D16*
X428625000Y-85725000D03*
D21*
X423545000Y-85725000D03*
D22*
X424815000Y-83185000D03*
X431165000Y-80645000D03*
%TD*%
D20*
%TO.C,D81*%
X114000000Y-132500000D03*
D13*
X121620000Y-132500000D03*
%TD*%
D21*
%TO.C,SW53*%
X333692500Y-85725000D03*
D16*
X328612500Y-85725000D03*
D21*
X323532500Y-85725000D03*
D22*
X324802500Y-83185000D03*
X331152500Y-80645000D03*
%TD*%
D20*
%TO.C,D77*%
X209490000Y-132350000D03*
D13*
X217110000Y-132350000D03*
%TD*%
M02*
