%TF.GenerationSoftware,KiCad,Pcbnew,10.0.5*%
%TF.CreationDate,2026-08-19T04:10:51-04:00*%
%TF.ProjectId,CustomKeyboard-Simplified,43757374-6f6d-44b6-9579-626f6172642d,rev?*%
%TF.SameCoordinates,Original*%
%TF.FileFunction,Soldermask,Bot*%
%TF.FilePolarity,Negative*%
%FSLAX46Y46*%
G04 Gerber Fmt 4.6, Leading zero omitted, Abs format (unit mm)*
G04 Created by KiCad (PCBNEW 10.0.5) date 2026-08-19 04:10:51*
%MOMM*%
%LPD*%
G01*
G04 APERTURE LIST*
G04 Aperture macros list*
%AMRoundRect*
0 Rectangle with rounded corners*
0 $1 Rounding radius*
0 $2 $3 $4 $5 $6 $7 $8 $9 X,Y pos of 4 corners*
0 Add a 4 corners polygon primitive as box body*
4,1,4,$2,$3,$4,$5,$6,$7,$8,$9,$2,$3,0*
0 Add four circle primitives for the rounded corners*
1,1,$1+$1,$2,$3*
1,1,$1+$1,$4,$5*
1,1,$1+$1,$6,$7*
1,1,$1+$1,$8,$9*
0 Add four rect primitives between the rounded corners*
20,1,$1+$1,$2,$3,$4,$5,0*
20,1,$1+$1,$4,$5,$6,$7,0*
20,1,$1+$1,$6,$7,$8,$9,0*
20,1,$1+$1,$8,$9,$2,$3,0*%
%AMFreePoly0*
4,1,37,0.800000,0.796148,0.878414,0.796148,1.032228,0.765552,1.177117,0.705537,1.307515,0.618408,1.418408,0.507515,1.505537,0.377117,1.565552,0.232228,1.596148,0.078414,1.596148,-0.078414,1.565552,-0.232228,1.505537,-0.377117,1.418408,-0.507515,1.307515,-0.618408,1.177117,-0.705537,1.032228,-0.765552,0.878414,-0.796148,0.800000,-0.796148,0.800000,-0.800000,-1.400000,-0.800000,
-1.403843,-0.796157,-1.439018,-0.796157,-1.511114,-0.766294,-1.566294,-0.711114,-1.596157,-0.639018,-1.596157,-0.603843,-1.600000,-0.600000,-1.600000,0.600000,-1.596157,0.603843,-1.596157,0.639018,-1.566294,0.711114,-1.511114,0.766294,-1.439018,0.796157,-1.403843,0.796157,-1.400000,0.800000,0.800000,0.800000,0.800000,0.796148,0.800000,0.796148,$1*%
%AMFreePoly1*
4,1,37,1.403843,0.796157,1.439018,0.796157,1.511114,0.766294,1.566294,0.711114,1.596157,0.639018,1.596157,0.603843,1.600000,0.600000,1.600000,-0.600000,1.596157,-0.603843,1.596157,-0.639018,1.566294,-0.711114,1.511114,-0.766294,1.439018,-0.796157,1.403843,-0.796157,1.400000,-0.800000,-0.800000,-0.800000,-0.800000,-0.796148,-0.878414,-0.796148,-1.032228,-0.765552,-1.177117,-0.705537,
-1.307515,-0.618408,-1.418408,-0.507515,-1.505537,-0.377117,-1.565552,-0.232228,-1.596148,-0.078414,-1.596148,0.078414,-1.565552,0.232228,-1.505537,0.377117,-1.418408,0.507515,-1.307515,0.618408,-1.177117,0.705537,-1.032228,0.765552,-0.878414,0.796148,-0.800000,0.796148,-0.800000,0.800000,1.400000,0.800000,1.403843,0.796157,1.403843,0.796157,$1*%
%AMFreePoly2*
4,1,37,0.603843,0.796157,0.639018,0.796157,0.711114,0.766294,0.766294,0.711114,0.796157,0.639018,0.796157,0.603843,0.800000,0.600000,0.800000,-0.600000,0.796157,-0.603843,0.796157,-0.639018,0.766294,-0.711114,0.711114,-0.766294,0.639018,-0.796157,0.603843,-0.796157,0.600000,-0.800000,0.000000,-0.800000,0.000000,-0.796148,-0.078414,-0.796148,-0.232228,-0.765552,-0.377117,-0.705537,
-0.507515,-0.618408,-0.618408,-0.507515,-0.705537,-0.377117,-0.765552,-0.232228,-0.796148,-0.078414,-0.796148,0.078414,-0.765552,0.232228,-0.705537,0.377117,-0.618408,0.507515,-0.507515,0.618408,-0.377117,0.705537,-0.232228,0.765552,-0.078414,0.796148,0.000000,0.796148,0.000000,0.800000,0.600000,0.800000,0.603843,0.796157,0.603843,0.796157,$1*%
%AMFreePoly3*
4,1,37,0.000000,0.796148,0.078414,0.796148,0.232228,0.765552,0.377117,0.705537,0.507515,0.618408,0.618408,0.507515,0.705537,0.377117,0.765552,0.232228,0.796148,0.078414,0.796148,-0.078414,0.765552,-0.232228,0.705537,-0.377117,0.618408,-0.507515,0.507515,-0.618408,0.377117,-0.705537,0.232228,-0.765552,0.078414,-0.796148,0.000000,-0.796148,0.000000,-0.800000,-0.600000,-0.800000,
-0.603843,-0.796157,-0.639018,-0.796157,-0.711114,-0.766294,-0.766294,-0.711114,-0.796157,-0.639018,-0.796157,-0.603843,-0.800000,-0.600000,-0.800000,0.600000,-0.796157,0.603843,-0.796157,0.639018,-0.766294,0.711114,-0.711114,0.766294,-0.639018,0.796157,-0.603843,0.796157,-0.600000,0.800000,0.000000,0.800000,0.000000,0.796148,0.000000,0.796148,$1*%
G04 Aperture macros list end*
%ADD10C,2.200000*%
%ADD11C,1.850000*%
%ADD12FreePoly0,90.000000*%
%ADD13RoundRect,0.200000X0.600000X-0.600000X0.600000X0.600000X-0.600000X0.600000X-0.600000X-0.600000X0*%
%ADD14RoundRect,0.800000X0.000010X-0.800000X0.000010X0.800000X-0.000010X0.800000X-0.000010X-0.800000X0*%
%ADD15C,1.600000*%
%ADD16FreePoly1,90.000000*%
%ADD17FreePoly2,90.000000*%
%ADD18FreePoly3,90.000000*%
%ADD19C,4.000000*%
%ADD20C,3.987800*%
%ADD21R,2.000000X2.000000*%
%ADD22C,2.000000*%
%ADD23R,3.200000X2.000000*%
%ADD24RoundRect,0.250000X-0.550000X-0.550000X0.550000X-0.550000X0.550000X0.550000X-0.550000X0.550000X0*%
%ADD25C,1.750000*%
%ADD26C,3.300000*%
%ADD27RoundRect,0.250000X1.025000X1.000000X-1.025000X1.000000X-1.025000X-1.000000X1.025000X-1.000000X0*%
%ADD28RoundRect,0.250000X0.550000X-0.550000X0.550000X0.550000X-0.550000X0.550000X-0.550000X-0.550000X0*%
%ADD29RoundRect,0.150000X-0.150000X0.875000X-0.150000X-0.875000X0.150000X-0.875000X0.150000X0.875000X0*%
G04 APERTURE END LIST*
D10*
%TO.C,A1*%
X460256250Y-40825000D03*
D11*
X457226250Y-40525000D03*
X457226250Y-35675000D03*
D10*
X460256250Y-35375000D03*
D12*
X460386250Y-47790000D03*
D13*
X460386250Y-46990000D03*
D14*
X457846250Y-47790000D03*
D15*
X457846250Y-46990000D03*
D16*
X455306250Y-47790000D03*
D17*
X455306250Y-46990000D03*
D14*
X452766250Y-47790000D03*
D15*
X452766250Y-46990000D03*
D14*
X450226250Y-47790000D03*
D15*
X450226250Y-46990000D03*
D14*
X447686250Y-47790000D03*
D15*
X447686250Y-46990000D03*
D14*
X445146250Y-47790000D03*
D15*
X445146250Y-46990000D03*
D16*
X442606250Y-47790000D03*
D17*
X442606250Y-46990000D03*
D14*
X440066250Y-47790000D03*
D15*
X440066250Y-46990000D03*
D14*
X437526250Y-47790000D03*
D15*
X437526250Y-46990000D03*
D14*
X434986250Y-47790000D03*
D15*
X434986250Y-46990000D03*
D14*
X432446250Y-47790000D03*
D15*
X432446250Y-46990000D03*
D16*
X429906250Y-47790000D03*
D17*
X429906250Y-46990000D03*
D14*
X427366250Y-47790000D03*
D15*
X427366250Y-46990000D03*
D14*
X424826250Y-47790000D03*
D15*
X424826250Y-46990000D03*
D14*
X422286250Y-47790000D03*
D15*
X422286250Y-46990000D03*
D14*
X419746250Y-47790000D03*
D15*
X419746250Y-46990000D03*
D16*
X417206250Y-47790000D03*
D17*
X417206250Y-46990000D03*
D14*
X414666250Y-47790000D03*
D15*
X414666250Y-46990000D03*
D14*
X412126250Y-47790000D03*
D15*
X412126250Y-46990000D03*
X412126250Y-29210000D03*
D14*
X412126250Y-28410000D03*
D15*
X414666250Y-29210000D03*
D14*
X414666250Y-28410000D03*
D18*
X417206250Y-29210000D03*
D12*
X417206250Y-28410000D03*
D15*
X419746250Y-29210000D03*
D14*
X419746250Y-28410000D03*
D15*
X422286250Y-29210000D03*
D14*
X422286250Y-28410000D03*
D15*
X424826250Y-29210000D03*
D14*
X424826250Y-28410000D03*
D15*
X427366250Y-29210000D03*
D14*
X427366250Y-28410000D03*
D18*
X429906250Y-29210000D03*
D12*
X429906250Y-28410000D03*
D15*
X432446250Y-29210000D03*
D14*
X432446250Y-28410000D03*
D15*
X434986250Y-29210000D03*
D14*
X434986250Y-28410000D03*
D15*
X437526250Y-29210000D03*
D14*
X437526250Y-28410000D03*
D15*
X440066250Y-29210000D03*
D14*
X440066250Y-28410000D03*
D18*
X442606250Y-29210000D03*
D12*
X442606250Y-28410000D03*
D15*
X445146250Y-29210000D03*
D14*
X445146250Y-28410000D03*
D15*
X447686250Y-29210000D03*
D14*
X447686250Y-28410000D03*
D15*
X450226250Y-29210000D03*
D14*
X450226250Y-28410000D03*
D15*
X452766250Y-29210000D03*
D14*
X452766250Y-28410000D03*
D18*
X455306250Y-29210000D03*
D12*
X455306250Y-28410000D03*
D15*
X457846250Y-29210000D03*
D14*
X457846250Y-28410000D03*
D15*
X460386250Y-29210000D03*
D14*
X460386250Y-28410000D03*
%TD*%
D19*
%TO.C,S1*%
X283368750Y-59690000D03*
D20*
X283368750Y-74930000D03*
D19*
X307181250Y-59690000D03*
D20*
X307181250Y-74930000D03*
%TD*%
D19*
%TO.C,S2*%
X440690000Y-107156250D03*
D20*
X455930000Y-107156250D03*
D19*
X440690000Y-83343750D03*
D20*
X455930000Y-83343750D03*
%TD*%
D19*
%TO.C,S7*%
X388143750Y-135890000D03*
D20*
X388143750Y-151130000D03*
D19*
X411956250Y-135890000D03*
D20*
X411956250Y-151130000D03*
%TD*%
D19*
%TO.C,S8*%
X109537500Y-135890000D03*
D20*
X109537500Y-151130000D03*
D19*
X209550000Y-135890000D03*
D20*
X209550000Y-151130000D03*
%TD*%
D19*
%TO.C,S3*%
X280987500Y-97790000D03*
D20*
X280987500Y-113030000D03*
D19*
X304800000Y-97790000D03*
D20*
X304800000Y-113030000D03*
%TD*%
D19*
%TO.C,S4*%
X276225000Y-116840000D03*
D20*
X276225000Y-132080000D03*
D19*
X300037500Y-116840000D03*
D20*
X300037500Y-132080000D03*
%TD*%
D21*
%TO.C,SW1*%
X400000000Y-41750000D03*
D22*
X400000000Y-36750000D03*
X400000000Y-39250000D03*
D23*
X392500000Y-44850000D03*
X392500000Y-33650000D03*
D22*
X385500000Y-36750000D03*
X385500000Y-41750000D03*
%TD*%
D19*
%TO.C,S5*%
X38100000Y-116840000D03*
D20*
X38100000Y-132080000D03*
D19*
X61912500Y-116840000D03*
D20*
X61912500Y-132080000D03*
%TD*%
D19*
%TO.C,S6*%
X440690000Y-145256250D03*
D20*
X455930000Y-145256250D03*
D19*
X440690000Y-121443750D03*
D20*
X455930000Y-121443750D03*
%TD*%
D24*
%TO.C,D48*%
X214000000Y-94250000D03*
D15*
X221620000Y-94250000D03*
%TD*%
D25*
%TO.C,SW55*%
X371792500Y-85725000D03*
D20*
X366712500Y-85725000D03*
D25*
X361632500Y-85725000D03*
D26*
X362902500Y-83185000D03*
D27*
X359352500Y-83185000D03*
X372802500Y-80645000D03*
D26*
X369252500Y-80645000D03*
%TD*%
D25*
%TO.C,SW64*%
X133667500Y-104775000D03*
D20*
X128587500Y-104775000D03*
D25*
X123507500Y-104775000D03*
D26*
X124777500Y-102235000D03*
D27*
X121227500Y-102235000D03*
X134677500Y-99695000D03*
D26*
X131127500Y-99695000D03*
%TD*%
D25*
%TO.C,SW65*%
X152717500Y-104775000D03*
D20*
X147637500Y-104775000D03*
D25*
X142557500Y-104775000D03*
D26*
X143827500Y-102235000D03*
D27*
X140277500Y-102235000D03*
X153727500Y-99695000D03*
D26*
X150177500Y-99695000D03*
%TD*%
D24*
%TO.C,D98*%
X249750000Y-151500000D03*
D15*
X257370000Y-151500000D03*
%TD*%
D24*
%TO.C,D60*%
X40250000Y-113250000D03*
D15*
X47870000Y-113250000D03*
%TD*%
D24*
%TO.C,D76*%
X385500000Y-132300000D03*
D15*
X393120000Y-132300000D03*
%TD*%
D25*
%TO.C,SW48*%
X224155000Y-85725000D03*
D20*
X219075000Y-85725000D03*
D25*
X213995000Y-85725000D03*
D26*
X215265000Y-83185000D03*
D27*
X211715000Y-83185000D03*
X225165000Y-80645000D03*
D26*
X221615000Y-80645000D03*
%TD*%
D24*
%TO.C,D47*%
X195000000Y-94250000D03*
D15*
X202620000Y-94250000D03*
%TD*%
D24*
%TO.C,D21*%
X90250000Y-75250000D03*
D15*
X97870000Y-75250000D03*
%TD*%
D25*
%TO.C,SW104*%
X405130000Y-142875000D03*
D20*
X400050000Y-142875000D03*
D25*
X394970000Y-142875000D03*
D26*
X396240000Y-140335000D03*
D27*
X392690000Y-140335000D03*
X406140000Y-137795000D03*
D26*
X402590000Y-137795000D03*
%TD*%
D24*
%TO.C,D87*%
X247500000Y-132500000D03*
D15*
X255120000Y-132500000D03*
%TD*%
D25*
%TO.C,SW39*%
X47942500Y-85725000D03*
D20*
X42862500Y-85725000D03*
D25*
X37782500Y-85725000D03*
D26*
X39052500Y-83185000D03*
D27*
X35502500Y-83185000D03*
X48952500Y-80645000D03*
D26*
X45402500Y-80645000D03*
%TD*%
D24*
%TO.C,D39*%
X37750000Y-94250000D03*
D15*
X45370000Y-94250000D03*
%TD*%
D24*
%TO.C,D100*%
X297250000Y-151500000D03*
D15*
X304870000Y-151500000D03*
%TD*%
D24*
%TO.C,D41*%
X80750000Y-94250000D03*
D15*
X88370000Y-94250000D03*
%TD*%
D24*
%TO.C,D28*%
X242500000Y-75250000D03*
D15*
X250120000Y-75250000D03*
%TD*%
D24*
%TO.C,D101*%
X323500000Y-151500000D03*
D15*
X331120000Y-151500000D03*
%TD*%
D25*
%TO.C,SW40*%
X71755000Y-85725000D03*
D20*
X66675000Y-85725000D03*
D25*
X61595000Y-85725000D03*
D26*
X62865000Y-83185000D03*
D27*
X59315000Y-83185000D03*
X72765000Y-80645000D03*
D26*
X69215000Y-80645000D03*
%TD*%
D24*
%TO.C,D4*%
X90250000Y-46750000D03*
D15*
X97870000Y-46750000D03*
%TD*%
D24*
%TO.C,D46*%
X176250000Y-94250000D03*
D15*
X183870000Y-94250000D03*
%TD*%
D25*
%TO.C,SW78*%
X105092500Y-123825000D03*
D20*
X100012500Y-123825000D03*
D25*
X94932500Y-123825000D03*
D26*
X96202500Y-121285000D03*
D27*
X92652500Y-121285000D03*
X106102500Y-118745000D03*
D26*
X102552500Y-118745000D03*
%TD*%
D25*
%TO.C,SW54*%
X352742500Y-85725000D03*
D20*
X347662500Y-85725000D03*
D25*
X342582500Y-85725000D03*
D26*
X343852500Y-83185000D03*
D27*
X340302500Y-83185000D03*
X353752500Y-80645000D03*
D26*
X350202500Y-80645000D03*
%TD*%
D24*
%TO.C,D13*%
X281000000Y-46750000D03*
D15*
X288620000Y-46750000D03*
%TD*%
D25*
%TO.C,SW34*%
X371792500Y-66675000D03*
D20*
X366712500Y-66675000D03*
D25*
X361632500Y-66675000D03*
D26*
X362902500Y-64135000D03*
D27*
X359352500Y-64135000D03*
X372802500Y-61595000D03*
D26*
X369252500Y-61595000D03*
%TD*%
D24*
%TO.C,D83*%
X152000000Y-132500000D03*
D15*
X159620000Y-132500000D03*
%TD*%
D24*
%TO.C,D66*%
X162000000Y-113250000D03*
D15*
X169620000Y-113250000D03*
%TD*%
D24*
%TO.C,D63*%
X104500000Y-113250000D03*
D15*
X112120000Y-113250000D03*
%TD*%
D25*
%TO.C,SW74*%
X414655000Y-104775000D03*
D20*
X409575000Y-104775000D03*
D25*
X404495000Y-104775000D03*
D26*
X405765000Y-102235000D03*
D27*
X402215000Y-102235000D03*
X415665000Y-99695000D03*
D26*
X412115000Y-99695000D03*
%TD*%
D25*
%TO.C,SW10*%
X223837500Y-38100000D03*
D20*
X218757500Y-38100000D03*
D25*
X213677500Y-38100000D03*
D26*
X214947500Y-35560000D03*
D27*
X211397500Y-35560000D03*
X224847500Y-33020000D03*
D26*
X221297500Y-33020000D03*
%TD*%
D25*
%TO.C,SW57*%
X414655000Y-85725000D03*
D20*
X409575000Y-85725000D03*
D25*
X404495000Y-85725000D03*
D26*
X405765000Y-83185000D03*
D27*
X402215000Y-83185000D03*
X415665000Y-80645000D03*
D26*
X412115000Y-80645000D03*
%TD*%
D24*
%TO.C,D23*%
X128500000Y-75250000D03*
D15*
X136120000Y-75250000D03*
%TD*%
D25*
%TO.C,SW98*%
X259873750Y-142875000D03*
D20*
X254793750Y-142875000D03*
D25*
X249713750Y-142875000D03*
D26*
X250983750Y-140335000D03*
D27*
X247433750Y-140335000D03*
X260883750Y-137795000D03*
D26*
X257333750Y-137795000D03*
%TD*%
D25*
%TO.C,SW44*%
X147955000Y-85725000D03*
D20*
X142875000Y-85725000D03*
D25*
X137795000Y-85725000D03*
D26*
X139065000Y-83185000D03*
D27*
X135515000Y-83185000D03*
X148965000Y-80645000D03*
D26*
X145415000Y-80645000D03*
%TD*%
D24*
%TO.C,D86*%
X228250000Y-132500000D03*
D15*
X235870000Y-132500000D03*
%TD*%
D25*
%TO.C,SW36*%
X414655000Y-66675000D03*
D20*
X409575000Y-66675000D03*
D25*
X404495000Y-66675000D03*
D26*
X405765000Y-64135000D03*
D27*
X402215000Y-64135000D03*
X415665000Y-61595000D03*
D26*
X412115000Y-61595000D03*
%TD*%
D24*
%TO.C,D40*%
X61500000Y-94250000D03*
D15*
X69120000Y-94250000D03*
%TD*%
D24*
%TO.C,D89*%
X342750000Y-132500000D03*
D15*
X350370000Y-132500000D03*
%TD*%
D24*
%TO.C,D62*%
X85500000Y-113250000D03*
D15*
X93120000Y-113250000D03*
%TD*%
D25*
%TO.C,SW96*%
X164623750Y-142875000D03*
D20*
X159543750Y-142875000D03*
D25*
X154463750Y-142875000D03*
D26*
X155733750Y-140335000D03*
D27*
X152183750Y-140335000D03*
X165633750Y-137795000D03*
D26*
X162083750Y-137795000D03*
%TD*%
D24*
%TO.C,D27*%
X223750000Y-75250000D03*
D15*
X231370000Y-75250000D03*
%TD*%
D25*
%TO.C,SW90*%
X414655000Y-123825000D03*
D20*
X409575000Y-123825000D03*
D25*
X404495000Y-123825000D03*
D26*
X405765000Y-121285000D03*
D27*
X402215000Y-121285000D03*
X415665000Y-118745000D03*
D26*
X412115000Y-118745000D03*
%TD*%
D24*
%TO.C,D56*%
X385500000Y-94250000D03*
D15*
X393120000Y-94250000D03*
%TD*%
D25*
%TO.C,SW18*%
X43180000Y-66675000D03*
D20*
X38100000Y-66675000D03*
D25*
X33020000Y-66675000D03*
D26*
X34290000Y-64135000D03*
D27*
X30740000Y-64135000D03*
X44190000Y-61595000D03*
D26*
X40640000Y-61595000D03*
%TD*%
D24*
%TO.C,D45*%
X157000000Y-94250000D03*
D15*
X164620000Y-94250000D03*
%TD*%
D24*
%TO.C,D85*%
X190250000Y-132500000D03*
D15*
X197870000Y-132500000D03*
%TD*%
D24*
%TO.C,D22*%
X109500000Y-75250000D03*
D15*
X117120000Y-75250000D03*
%TD*%
D25*
%TO.C,SW82*%
X181292500Y-123825000D03*
D20*
X176212500Y-123825000D03*
D25*
X171132500Y-123825000D03*
D26*
X172402500Y-121285000D03*
D27*
X168852500Y-121285000D03*
X182302500Y-118745000D03*
D26*
X178752500Y-118745000D03*
%TD*%
D25*
%TO.C,SW21*%
X100330000Y-66675000D03*
D20*
X95250000Y-66675000D03*
D25*
X90170000Y-66675000D03*
D26*
X91440000Y-64135000D03*
D27*
X87890000Y-64135000D03*
X101340000Y-61595000D03*
D26*
X97790000Y-61595000D03*
%TD*%
D25*
%TO.C,SW7*%
X166687500Y-38100000D03*
D20*
X161607500Y-38100000D03*
D25*
X156527500Y-38100000D03*
D26*
X157797500Y-35560000D03*
D27*
X154247500Y-35560000D03*
X167697500Y-33020000D03*
D26*
X164147500Y-33020000D03*
%TD*%
D25*
%TO.C,SW62*%
X95567500Y-104775000D03*
D20*
X90487500Y-104775000D03*
D25*
X85407500Y-104775000D03*
D26*
X86677500Y-102235000D03*
D27*
X83127500Y-102235000D03*
X96577500Y-99695000D03*
D26*
X93027500Y-99695000D03*
%TD*%
D25*
%TO.C,SW27*%
X214630000Y-66675000D03*
D20*
X209550000Y-66675000D03*
D25*
X204470000Y-66675000D03*
D26*
X205740000Y-64135000D03*
D27*
X202190000Y-64135000D03*
X215640000Y-61595000D03*
D26*
X212090000Y-61595000D03*
%TD*%
D25*
%TO.C,SW5*%
X119380000Y-38100000D03*
D20*
X114300000Y-38100000D03*
D25*
X109220000Y-38100000D03*
D26*
X110490000Y-35560000D03*
D27*
X106940000Y-35560000D03*
X120390000Y-33020000D03*
D26*
X116840000Y-33020000D03*
%TD*%
D24*
%TO.C,D80*%
X95000000Y-132500000D03*
D15*
X102620000Y-132500000D03*
%TD*%
D25*
%TO.C,SW102*%
X352742500Y-142875000D03*
D20*
X347662500Y-142875000D03*
D25*
X342582500Y-142875000D03*
D26*
X343852500Y-140335000D03*
D27*
X340302500Y-140335000D03*
X353752500Y-137795000D03*
D26*
X350202500Y-137795000D03*
%TD*%
D25*
%TO.C,SW70*%
X247967500Y-104775000D03*
D20*
X242887500Y-104775000D03*
D25*
X237807500Y-104775000D03*
D26*
X239077500Y-102235000D03*
D27*
X235527500Y-102235000D03*
X248977500Y-99695000D03*
D26*
X245427500Y-99695000D03*
%TD*%
D25*
%TO.C,SW29*%
X252730000Y-66675000D03*
D20*
X247650000Y-66675000D03*
D25*
X242570000Y-66675000D03*
D26*
X243840000Y-64135000D03*
D27*
X240290000Y-64135000D03*
X253740000Y-61595000D03*
D26*
X250190000Y-61595000D03*
%TD*%
D24*
%TO.C,D74*%
X404500000Y-113250000D03*
D15*
X412120000Y-113250000D03*
%TD*%
D24*
%TO.C,D102*%
X342500000Y-151500000D03*
D15*
X350120000Y-151500000D03*
%TD*%
D24*
%TO.C,D12*%
X261500000Y-46750000D03*
D15*
X269120000Y-46750000D03*
%TD*%
D25*
%TO.C,SW8*%
X185737500Y-38100000D03*
D20*
X180657500Y-38100000D03*
D25*
X175577500Y-38100000D03*
D26*
X176847500Y-35560000D03*
D27*
X173297500Y-35560000D03*
X186747500Y-33020000D03*
D26*
X183197500Y-33020000D03*
%TD*%
D25*
%TO.C,SW35*%
X395605000Y-66675000D03*
D20*
X390525000Y-66675000D03*
D25*
X385445000Y-66675000D03*
D26*
X386715000Y-64135000D03*
D27*
X383165000Y-64135000D03*
X396615000Y-61595000D03*
D26*
X393065000Y-61595000D03*
%TD*%
D24*
%TO.C,D95*%
X85500000Y-151500000D03*
D15*
X93120000Y-151500000D03*
%TD*%
D25*
%TO.C,SW99*%
X283686250Y-142875000D03*
D20*
X278606250Y-142875000D03*
D25*
X273526250Y-142875000D03*
D26*
X274796250Y-140335000D03*
D27*
X271246250Y-140335000D03*
X284696250Y-137795000D03*
D26*
X281146250Y-137795000D03*
%TD*%
D24*
%TO.C,D34*%
X385500000Y-75250000D03*
D15*
X393120000Y-75250000D03*
%TD*%
D25*
%TO.C,SW14*%
X309880000Y-38100000D03*
D20*
X304800000Y-38100000D03*
D25*
X299720000Y-38100000D03*
D26*
X300990000Y-35560000D03*
D27*
X297440000Y-35560000D03*
X310890000Y-33020000D03*
D26*
X307340000Y-33020000D03*
%TD*%
D25*
%TO.C,SW31*%
X300355000Y-66675000D03*
D20*
X295275000Y-66675000D03*
D25*
X290195000Y-66675000D03*
D26*
X291465000Y-64135000D03*
D27*
X287915000Y-64135000D03*
X301365000Y-61595000D03*
D26*
X297815000Y-61595000D03*
%TD*%
D24*
%TO.C,D36*%
X423500000Y-75250000D03*
D15*
X431120000Y-75250000D03*
%TD*%
D24*
%TO.C,D79*%
X76000000Y-132500000D03*
D15*
X83620000Y-132500000D03*
%TD*%
D24*
%TO.C,D50*%
X252250000Y-94250000D03*
D15*
X259870000Y-94250000D03*
%TD*%
D25*
%TO.C,SW46*%
X186055000Y-85725000D03*
D20*
X180975000Y-85725000D03*
D25*
X175895000Y-85725000D03*
D26*
X177165000Y-83185000D03*
D27*
X173615000Y-83185000D03*
X187065000Y-80645000D03*
D26*
X183515000Y-80645000D03*
%TD*%
D24*
%TO.C,D93*%
X37750000Y-151500000D03*
D15*
X45370000Y-151500000D03*
%TD*%
D24*
%TO.C,D52*%
X295000000Y-94250000D03*
D15*
X302620000Y-94250000D03*
%TD*%
D24*
%TO.C,D29*%
X261750000Y-75250000D03*
D15*
X269370000Y-75250000D03*
%TD*%
D28*
%TO.C,D1*%
X381500000Y-44250000D03*
D15*
X381500000Y-36630000D03*
%TD*%
D24*
%TO.C,D51*%
X271250000Y-94250000D03*
D15*
X278870000Y-94250000D03*
%TD*%
D24*
%TO.C,D3*%
X71190000Y-46750000D03*
D15*
X78810000Y-46750000D03*
%TD*%
D25*
%TO.C,SW42*%
X109855000Y-85725000D03*
D20*
X104775000Y-85725000D03*
D25*
X99695000Y-85725000D03*
D26*
X100965000Y-83185000D03*
D27*
X97415000Y-83185000D03*
X110865000Y-80645000D03*
D26*
X107315000Y-80645000D03*
%TD*%
D15*
%TO.C,C1*%
X355750000Y-96750000D03*
X353250000Y-96750000D03*
%TD*%
D24*
%TO.C,D67*%
X180750000Y-113250000D03*
D15*
X188370000Y-113250000D03*
%TD*%
D24*
%TO.C,D65*%
X142750000Y-113250000D03*
D15*
X150370000Y-113250000D03*
%TD*%
D24*
%TO.C,D14*%
X299750000Y-46750000D03*
D15*
X307370000Y-46750000D03*
%TD*%
D25*
%TO.C,SW22*%
X119380000Y-66675000D03*
D20*
X114300000Y-66675000D03*
D25*
X109220000Y-66675000D03*
D26*
X110490000Y-64135000D03*
D27*
X106940000Y-64135000D03*
X120390000Y-61595000D03*
D26*
X116840000Y-61595000D03*
%TD*%
D24*
%TO.C,D37*%
X442750000Y-75250000D03*
D15*
X450370000Y-75250000D03*
%TD*%
D25*
%TO.C,SW47*%
X205105000Y-85725000D03*
D20*
X200025000Y-85725000D03*
D25*
X194945000Y-85725000D03*
D26*
X196215000Y-83185000D03*
D27*
X192665000Y-83185000D03*
X206115000Y-80645000D03*
D26*
X202565000Y-80645000D03*
%TD*%
D24*
%TO.C,D57*%
X404500000Y-94250000D03*
D15*
X412120000Y-94250000D03*
%TD*%
D25*
%TO.C,SW93*%
X47942500Y-142875000D03*
D20*
X42862500Y-142875000D03*
D25*
X37782500Y-142875000D03*
D26*
X39052500Y-140335000D03*
D27*
X35502500Y-140335000D03*
X48952500Y-137795000D03*
D26*
X45402500Y-137795000D03*
%TD*%
D25*
%TO.C,SW38*%
X452755000Y-66675000D03*
D20*
X447675000Y-66675000D03*
D25*
X442595000Y-66675000D03*
D26*
X443865000Y-64135000D03*
D27*
X440315000Y-64135000D03*
X453765000Y-61595000D03*
D26*
X450215000Y-61595000D03*
%TD*%
D25*
%TO.C,SW72*%
X297973750Y-104775000D03*
D20*
X292893750Y-104775000D03*
D25*
X287813750Y-104775000D03*
D26*
X289083750Y-102235000D03*
D27*
X285533750Y-102235000D03*
X298983750Y-99695000D03*
D26*
X295433750Y-99695000D03*
%TD*%
D25*
%TO.C,SW37*%
X433705000Y-66675000D03*
D20*
X428625000Y-66675000D03*
D25*
X423545000Y-66675000D03*
D26*
X424815000Y-64135000D03*
D27*
X421265000Y-64135000D03*
X434715000Y-61595000D03*
D26*
X431165000Y-61595000D03*
%TD*%
D25*
%TO.C,SW86*%
X257492500Y-123825000D03*
D20*
X252412500Y-123825000D03*
D25*
X247332500Y-123825000D03*
D26*
X248602500Y-121285000D03*
D27*
X245052500Y-121285000D03*
X258502500Y-118745000D03*
D26*
X254952500Y-118745000D03*
%TD*%
D25*
%TO.C,SW66*%
X171767500Y-104775000D03*
D20*
X166687500Y-104775000D03*
D25*
X161607500Y-104775000D03*
D26*
X162877500Y-102235000D03*
D27*
X159327500Y-102235000D03*
X172777500Y-99695000D03*
D26*
X169227500Y-99695000D03*
%TD*%
D25*
%TO.C,SW45*%
X167005000Y-85725000D03*
D20*
X161925000Y-85725000D03*
D25*
X156845000Y-85725000D03*
D26*
X158115000Y-83185000D03*
D27*
X154565000Y-83185000D03*
X168015000Y-80645000D03*
D26*
X164465000Y-80645000D03*
%TD*%
D24*
%TO.C,D35*%
X404500000Y-75250000D03*
D15*
X412120000Y-75250000D03*
%TD*%
D25*
%TO.C,SW52*%
X305117500Y-85725000D03*
D20*
X300037500Y-85725000D03*
D25*
X294957500Y-85725000D03*
D26*
X296227500Y-83185000D03*
D27*
X292677500Y-83185000D03*
X306127500Y-80645000D03*
D26*
X302577500Y-80645000D03*
%TD*%
D24*
%TO.C,D42*%
X99750000Y-94250000D03*
D15*
X107370000Y-94250000D03*
%TD*%
D24*
%TO.C,D7*%
X156500000Y-46750000D03*
D15*
X164120000Y-46750000D03*
%TD*%
D24*
%TO.C,D44*%
X137750000Y-94250000D03*
D15*
X145370000Y-94250000D03*
%TD*%
D24*
%TO.C,D30*%
X290500000Y-75250000D03*
D15*
X298120000Y-75250000D03*
%TD*%
D25*
%TO.C,SW3*%
X81280000Y-38100000D03*
D20*
X76200000Y-38100000D03*
D25*
X71120000Y-38100000D03*
D26*
X72390000Y-35560000D03*
D27*
X68840000Y-35560000D03*
X82290000Y-33020000D03*
D26*
X78740000Y-33020000D03*
%TD*%
D25*
%TO.C,SW2*%
X43180000Y-38100000D03*
D20*
X38100000Y-38100000D03*
D25*
X33020000Y-38100000D03*
D26*
X34290000Y-35560000D03*
D27*
X30740000Y-35560000D03*
X44190000Y-33020000D03*
D26*
X40640000Y-33020000D03*
%TD*%
D25*
%TO.C,SW20*%
X81280000Y-66675000D03*
D20*
X76200000Y-66675000D03*
D25*
X71120000Y-66675000D03*
D26*
X72390000Y-64135000D03*
D27*
X68840000Y-64135000D03*
X82290000Y-61595000D03*
D26*
X78740000Y-61595000D03*
%TD*%
D25*
%TO.C,SW43*%
X128905000Y-85725000D03*
D20*
X123825000Y-85725000D03*
D25*
X118745000Y-85725000D03*
D26*
X120015000Y-83185000D03*
D27*
X116465000Y-83185000D03*
X129915000Y-80645000D03*
D26*
X126365000Y-80645000D03*
%TD*%
D25*
%TO.C,SW73*%
X395605000Y-104775000D03*
D20*
X390525000Y-104775000D03*
D25*
X385445000Y-104775000D03*
D26*
X386715000Y-102235000D03*
D27*
X383165000Y-102235000D03*
X396615000Y-99695000D03*
D26*
X393065000Y-99695000D03*
%TD*%
D25*
%TO.C,SW97*%
X236061250Y-142875000D03*
D20*
X230981250Y-142875000D03*
D25*
X225901250Y-142875000D03*
D26*
X227171250Y-140335000D03*
D27*
X223621250Y-140335000D03*
X237071250Y-137795000D03*
D26*
X233521250Y-137795000D03*
%TD*%
D24*
%TO.C,D94*%
X61750000Y-151500000D03*
D15*
X69370000Y-151500000D03*
%TD*%
D25*
%TO.C,SW33*%
X352742500Y-66675000D03*
D20*
X347662500Y-66675000D03*
D25*
X342582500Y-66675000D03*
D26*
X343852500Y-64135000D03*
D27*
X340302500Y-64135000D03*
X353752500Y-61595000D03*
D26*
X350202500Y-61595000D03*
%TD*%
D24*
%TO.C,D90*%
X404500000Y-132500000D03*
D15*
X412120000Y-132500000D03*
%TD*%
D24*
%TO.C,D75*%
X423750000Y-113250000D03*
D15*
X431370000Y-113250000D03*
%TD*%
D25*
%TO.C,SW60*%
X50323750Y-104775000D03*
D20*
X45243750Y-104775000D03*
D25*
X40163750Y-104775000D03*
D26*
X41433750Y-102235000D03*
D27*
X37883750Y-102235000D03*
X51333750Y-99695000D03*
D26*
X47783750Y-99695000D03*
%TD*%
D24*
%TO.C,D2*%
X33190000Y-46750000D03*
D15*
X40810000Y-46750000D03*
%TD*%
D25*
%TO.C,SW4*%
X100330000Y-38100000D03*
D20*
X95250000Y-38100000D03*
D25*
X90170000Y-38100000D03*
D26*
X91440000Y-35560000D03*
D27*
X87890000Y-35560000D03*
X101340000Y-33020000D03*
D26*
X97790000Y-33020000D03*
%TD*%
D25*
%TO.C,SW103*%
X371792500Y-142875000D03*
D20*
X366712500Y-142875000D03*
D25*
X361632500Y-142875000D03*
D26*
X362902500Y-140335000D03*
D27*
X359352500Y-140335000D03*
X372802500Y-137795000D03*
D26*
X369252500Y-137795000D03*
%TD*%
D24*
%TO.C,D103*%
X361750000Y-151500000D03*
D15*
X369370000Y-151500000D03*
%TD*%
D24*
%TO.C,D73*%
X385500000Y-113250000D03*
D15*
X393120000Y-113250000D03*
%TD*%
D25*
%TO.C,SW30*%
X271780000Y-66675000D03*
D20*
X266700000Y-66675000D03*
D25*
X261620000Y-66675000D03*
D26*
X262890000Y-64135000D03*
D27*
X259340000Y-64135000D03*
X272790000Y-61595000D03*
D26*
X269240000Y-61595000D03*
%TD*%
D25*
%TO.C,SW16*%
X352742500Y-38100000D03*
D20*
X347662500Y-38100000D03*
D25*
X342582500Y-38100000D03*
D26*
X343852500Y-35560000D03*
D27*
X340302500Y-35560000D03*
X353752500Y-33020000D03*
D26*
X350202500Y-33020000D03*
%TD*%
D25*
%TO.C,SW32*%
X333692500Y-66675000D03*
D20*
X328612500Y-66675000D03*
D25*
X323532500Y-66675000D03*
D26*
X324802500Y-64135000D03*
D27*
X321252500Y-64135000D03*
X334702500Y-61595000D03*
D26*
X331152500Y-61595000D03*
%TD*%
D24*
%TO.C,D61*%
X66500000Y-113250000D03*
D15*
X74120000Y-113250000D03*
%TD*%
D25*
%TO.C,SW41*%
X90805000Y-85725000D03*
D20*
X85725000Y-85725000D03*
D25*
X80645000Y-85725000D03*
D26*
X81915000Y-83185000D03*
D27*
X78365000Y-83185000D03*
X91815000Y-80645000D03*
D26*
X88265000Y-80645000D03*
%TD*%
D25*
%TO.C,SW69*%
X228917500Y-104775000D03*
D20*
X223837500Y-104775000D03*
D25*
X218757500Y-104775000D03*
D26*
X220027500Y-102235000D03*
D27*
X216477500Y-102235000D03*
X229927500Y-99695000D03*
D26*
X226377500Y-99695000D03*
%TD*%
D25*
%TO.C,SW75*%
X433705000Y-104775000D03*
D20*
X428625000Y-104775000D03*
D25*
X423545000Y-104775000D03*
D26*
X424815000Y-102235000D03*
D27*
X421265000Y-102235000D03*
X434715000Y-99695000D03*
D26*
X431165000Y-99695000D03*
%TD*%
D25*
%TO.C,SW12*%
X271780000Y-38100000D03*
D20*
X266700000Y-38100000D03*
D25*
X261620000Y-38100000D03*
D26*
X262890000Y-35560000D03*
D27*
X259340000Y-35560000D03*
X272790000Y-33020000D03*
D26*
X269240000Y-33020000D03*
%TD*%
D25*
%TO.C,SW89*%
X395605000Y-123825000D03*
D20*
X390525000Y-123825000D03*
D25*
X385445000Y-123825000D03*
D26*
X386715000Y-121285000D03*
D27*
X383165000Y-121285000D03*
X396615000Y-118745000D03*
D26*
X393065000Y-118745000D03*
%TD*%
D25*
%TO.C,SW101*%
X333692500Y-142875000D03*
D20*
X328612500Y-142875000D03*
D25*
X323532500Y-142875000D03*
D26*
X324802500Y-140335000D03*
D27*
X321252500Y-140335000D03*
X334702500Y-137795000D03*
D26*
X331152500Y-137795000D03*
%TD*%
D25*
%TO.C,SW95*%
X95567500Y-142875000D03*
D20*
X90487500Y-142875000D03*
D25*
X85407500Y-142875000D03*
D26*
X86677500Y-140335000D03*
D27*
X83127500Y-140335000D03*
X96577500Y-137795000D03*
D26*
X93027500Y-137795000D03*
%TD*%
D28*
%TO.C,D92*%
X456750000Y-136000000D03*
D15*
X456750000Y-128380000D03*
%TD*%
D24*
%TO.C,D71*%
X257000000Y-113250000D03*
D15*
X264620000Y-113250000D03*
%TD*%
D25*
%TO.C,SW100*%
X307498750Y-142875000D03*
D20*
X302418750Y-142875000D03*
D25*
X297338750Y-142875000D03*
D26*
X298608750Y-140335000D03*
D27*
X295058750Y-140335000D03*
X308508750Y-137795000D03*
D26*
X304958750Y-137795000D03*
%TD*%
D25*
%TO.C,SW15*%
X333692500Y-38100000D03*
D20*
X328612500Y-38100000D03*
D25*
X323532500Y-38100000D03*
D26*
X324802500Y-35560000D03*
D27*
X321252500Y-35560000D03*
X334702500Y-33020000D03*
D26*
X331152500Y-33020000D03*
%TD*%
D24*
%TO.C,D49*%
X233250000Y-94250000D03*
D15*
X240870000Y-94250000D03*
%TD*%
D25*
%TO.C,SW49*%
X243205000Y-85725000D03*
D20*
X238125000Y-85725000D03*
D25*
X233045000Y-85725000D03*
D26*
X234315000Y-83185000D03*
D27*
X230765000Y-83185000D03*
X244215000Y-80645000D03*
D26*
X240665000Y-80645000D03*
%TD*%
D24*
%TO.C,D16*%
X342750000Y-46750000D03*
D15*
X350370000Y-46750000D03*
%TD*%
D24*
%TO.C,D11*%
X242750000Y-46750000D03*
D15*
X250370000Y-46750000D03*
%TD*%
D25*
%TO.C,SW68*%
X209867500Y-104775000D03*
D20*
X204787500Y-104775000D03*
D25*
X199707500Y-104775000D03*
D26*
X200977500Y-102235000D03*
D27*
X197427500Y-102235000D03*
X210877500Y-99695000D03*
D26*
X207327500Y-99695000D03*
%TD*%
D24*
%TO.C,D15*%
X323750000Y-46750000D03*
D15*
X331370000Y-46750000D03*
%TD*%
D24*
%TO.C,D8*%
X175750000Y-46750000D03*
D15*
X183370000Y-46750000D03*
%TD*%
D25*
%TO.C,SW71*%
X267017500Y-104775000D03*
D20*
X261937500Y-104775000D03*
D25*
X256857500Y-104775000D03*
D26*
X258127500Y-102235000D03*
D27*
X254577500Y-102235000D03*
X268027500Y-99695000D03*
D26*
X264477500Y-99695000D03*
%TD*%
D24*
%TO.C,D96*%
X154500000Y-151500000D03*
D15*
X162120000Y-151500000D03*
%TD*%
D25*
%TO.C,SW94*%
X71755000Y-142875000D03*
D20*
X66675000Y-142875000D03*
D25*
X61595000Y-142875000D03*
D26*
X62865000Y-140335000D03*
D27*
X59315000Y-140335000D03*
X72765000Y-137795000D03*
D26*
X69215000Y-137795000D03*
%TD*%
D25*
%TO.C,SW76*%
X55086250Y-123825000D03*
D20*
X50006250Y-123825000D03*
D25*
X44926250Y-123825000D03*
D26*
X46196250Y-121285000D03*
D27*
X42646250Y-121285000D03*
X56096250Y-118745000D03*
D26*
X52546250Y-118745000D03*
%TD*%
D24*
%TO.C,D104*%
X395000000Y-151500000D03*
D15*
X402620000Y-151500000D03*
%TD*%
D25*
%TO.C,SW59*%
X452755000Y-95250000D03*
D20*
X447675000Y-95250000D03*
D25*
X442595000Y-95250000D03*
D26*
X443865000Y-92710000D03*
D27*
X440315000Y-92710000D03*
X453765000Y-90170000D03*
D26*
X450215000Y-90170000D03*
%TD*%
D24*
%TO.C,D17*%
X361750000Y-46750000D03*
D15*
X369370000Y-46750000D03*
%TD*%
D24*
%TO.C,D18*%
X33250000Y-75250000D03*
D15*
X40870000Y-75250000D03*
%TD*%
D25*
%TO.C,SW6*%
X138430000Y-38100000D03*
D20*
X133350000Y-38100000D03*
D25*
X128270000Y-38100000D03*
D26*
X129540000Y-35560000D03*
D27*
X125990000Y-35560000D03*
X139440000Y-33020000D03*
D26*
X135890000Y-33020000D03*
%TD*%
D25*
%TO.C,SW81*%
X162242500Y-123825000D03*
D20*
X157162500Y-123825000D03*
D25*
X152082500Y-123825000D03*
D26*
X153352500Y-121285000D03*
D27*
X149802500Y-121285000D03*
X163252500Y-118745000D03*
D26*
X159702500Y-118745000D03*
%TD*%
D24*
%TO.C,D25*%
X166500000Y-75250000D03*
D15*
X174120000Y-75250000D03*
%TD*%
D24*
%TO.C,D55*%
X361750000Y-94250000D03*
D15*
X369370000Y-94250000D03*
%TD*%
D24*
%TO.C,D19*%
X52250000Y-75250000D03*
D15*
X59870000Y-75250000D03*
%TD*%
D24*
%TO.C,D24*%
X147250000Y-75250000D03*
D15*
X154870000Y-75250000D03*
%TD*%
D24*
%TO.C,D70*%
X238000000Y-113250000D03*
D15*
X245620000Y-113250000D03*
%TD*%
D24*
%TO.C,D91*%
X423500000Y-132500000D03*
D15*
X431120000Y-132500000D03*
%TD*%
D25*
%TO.C,SW13*%
X290830000Y-38100000D03*
D20*
X285750000Y-38100000D03*
D25*
X280670000Y-38100000D03*
D26*
X281940000Y-35560000D03*
D27*
X278390000Y-35560000D03*
X291840000Y-33020000D03*
D26*
X288290000Y-33020000D03*
%TD*%
D24*
%TO.C,D105*%
X423750000Y-151500000D03*
D15*
X431370000Y-151500000D03*
%TD*%
D25*
%TO.C,SW92*%
X452755000Y-133350000D03*
D20*
X447675000Y-133350000D03*
D25*
X442595000Y-133350000D03*
D26*
X443865000Y-130810000D03*
D27*
X440315000Y-130810000D03*
X453765000Y-128270000D03*
D26*
X450215000Y-128270000D03*
%TD*%
D24*
%TO.C,D38*%
X204750000Y-75500000D03*
D15*
X212370000Y-75500000D03*
%TD*%
D25*
%TO.C,SW85*%
X238442500Y-123825000D03*
D20*
X233362500Y-123825000D03*
D25*
X228282500Y-123825000D03*
D26*
X229552500Y-121285000D03*
D27*
X226002500Y-121285000D03*
X239452500Y-118745000D03*
D26*
X235902500Y-118745000D03*
%TD*%
D24*
%TO.C,D68*%
X200250000Y-113250000D03*
D15*
X207870000Y-113250000D03*
%TD*%
D24*
%TO.C,D31*%
X323750000Y-75250000D03*
D15*
X331370000Y-75250000D03*
%TD*%
D25*
%TO.C,SW87*%
X293211250Y-123825000D03*
D20*
X288131250Y-123825000D03*
D25*
X283051250Y-123825000D03*
D26*
X284321250Y-121285000D03*
D27*
X280771250Y-121285000D03*
X294221250Y-118745000D03*
D26*
X290671250Y-118745000D03*
%TD*%
D25*
%TO.C,SW84*%
X219392500Y-123825000D03*
D20*
X214312500Y-123825000D03*
D25*
X209232500Y-123825000D03*
D26*
X210502500Y-121285000D03*
D27*
X206952500Y-121285000D03*
X220402500Y-118745000D03*
D26*
X216852500Y-118745000D03*
%TD*%
D25*
%TO.C,SW88*%
X352742500Y-123825000D03*
D20*
X347662500Y-123825000D03*
D25*
X342582500Y-123825000D03*
D26*
X343852500Y-121285000D03*
D27*
X340302500Y-121285000D03*
X353752500Y-118745000D03*
D26*
X350202500Y-118745000D03*
%TD*%
D25*
%TO.C,SW9*%
X204787500Y-38100000D03*
D20*
X199707500Y-38100000D03*
D25*
X194627500Y-38100000D03*
D26*
X195897500Y-35560000D03*
D27*
X192347500Y-35560000D03*
X205797500Y-33020000D03*
D26*
X202247500Y-33020000D03*
%TD*%
D24*
%TO.C,D26*%
X185500000Y-75250000D03*
D15*
X193120000Y-75250000D03*
%TD*%
D25*
%TO.C,SW61*%
X76517500Y-104775000D03*
D20*
X71437500Y-104775000D03*
D25*
X66357500Y-104775000D03*
D26*
X67627500Y-102235000D03*
D27*
X64077500Y-102235000D03*
X77527500Y-99695000D03*
D26*
X73977500Y-99695000D03*
%TD*%
D25*
%TO.C,SW80*%
X143192500Y-123825000D03*
D20*
X138112500Y-123825000D03*
D25*
X133032500Y-123825000D03*
D26*
X134302500Y-121285000D03*
D27*
X130752500Y-121285000D03*
X144202500Y-118745000D03*
D26*
X140652500Y-118745000D03*
%TD*%
D25*
%TO.C,SW23*%
X138430000Y-66675000D03*
D20*
X133350000Y-66675000D03*
D25*
X128270000Y-66675000D03*
D26*
X129540000Y-64135000D03*
D27*
X125990000Y-64135000D03*
X139440000Y-61595000D03*
D26*
X135890000Y-61595000D03*
%TD*%
D24*
%TO.C,D99*%
X273500000Y-151500000D03*
D15*
X281120000Y-151500000D03*
%TD*%
D25*
%TO.C,SW105*%
X433705000Y-142875000D03*
D20*
X428625000Y-142875000D03*
D25*
X423545000Y-142875000D03*
D26*
X424815000Y-140335000D03*
D27*
X421265000Y-140335000D03*
X434715000Y-137795000D03*
D26*
X431165000Y-137795000D03*
%TD*%
D29*
%TO.C,U1*%
X340495000Y-101100000D03*
X341765000Y-101100000D03*
X343035000Y-101100000D03*
X344305000Y-101100000D03*
X345575000Y-101100000D03*
X346845000Y-101100000D03*
X348115000Y-101100000D03*
X349385000Y-101100000D03*
X350655000Y-101100000D03*
X351925000Y-101100000D03*
X353195000Y-101100000D03*
X354465000Y-101100000D03*
X355735000Y-101100000D03*
X357005000Y-101100000D03*
X357005000Y-110400000D03*
X355735000Y-110400000D03*
X354465000Y-110400000D03*
X353195000Y-110400000D03*
X351925000Y-110400000D03*
X350655000Y-110400000D03*
X349385000Y-110400000D03*
X348115000Y-110400000D03*
X346845000Y-110400000D03*
X345575000Y-110400000D03*
X344305000Y-110400000D03*
X343035000Y-110400000D03*
X341765000Y-110400000D03*
X340495000Y-110400000D03*
%TD*%
D24*
%TO.C,D32*%
X342750000Y-75250000D03*
D15*
X350370000Y-75250000D03*
%TD*%
D25*
%TO.C,SW26*%
X195580000Y-66675000D03*
D20*
X190500000Y-66675000D03*
D25*
X185420000Y-66675000D03*
D26*
X186690000Y-64135000D03*
D27*
X183140000Y-64135000D03*
X196590000Y-61595000D03*
D26*
X193040000Y-61595000D03*
%TD*%
D24*
%TO.C,D9*%
X194750000Y-46750000D03*
D15*
X202370000Y-46750000D03*
%TD*%
D24*
%TO.C,D6*%
X128250000Y-46750000D03*
D15*
X135870000Y-46750000D03*
%TD*%
D25*
%TO.C,SW67*%
X190817500Y-104775000D03*
D20*
X185737500Y-104775000D03*
D25*
X180657500Y-104775000D03*
D26*
X181927500Y-102235000D03*
D27*
X178377500Y-102235000D03*
X191827500Y-99695000D03*
D26*
X188277500Y-99695000D03*
%TD*%
D24*
%TO.C,D53*%
X323500000Y-94250000D03*
D15*
X331120000Y-94250000D03*
%TD*%
D25*
%TO.C,SW79*%
X124142500Y-123825000D03*
D20*
X119062500Y-123825000D03*
D25*
X113982500Y-123825000D03*
D26*
X115252500Y-121285000D03*
D27*
X111702500Y-121285000D03*
X125152500Y-118745000D03*
D26*
X121602500Y-118745000D03*
%TD*%
D24*
%TO.C,D33*%
X362000000Y-75250000D03*
D15*
X369620000Y-75250000D03*
%TD*%
D25*
%TO.C,SW17*%
X371792500Y-38100000D03*
D20*
X366712500Y-38100000D03*
D25*
X361632500Y-38100000D03*
D26*
X362902500Y-35560000D03*
D27*
X359352500Y-35560000D03*
X372802500Y-33020000D03*
D26*
X369252500Y-33020000D03*
%TD*%
D24*
%TO.C,D72*%
X287750000Y-113250000D03*
D15*
X295370000Y-113250000D03*
%TD*%
D24*
%TO.C,D64*%
X123750000Y-113250000D03*
D15*
X131370000Y-113250000D03*
%TD*%
D25*
%TO.C,SW56*%
X395605000Y-85725000D03*
D20*
X390525000Y-85725000D03*
D25*
X385445000Y-85725000D03*
D26*
X386715000Y-83185000D03*
D27*
X383165000Y-83185000D03*
X396615000Y-80645000D03*
D26*
X393065000Y-80645000D03*
%TD*%
D24*
%TO.C,D5*%
X109500000Y-46750000D03*
D15*
X117120000Y-46750000D03*
%TD*%
D25*
%TO.C,SW77*%
X86042500Y-123825000D03*
D20*
X80962500Y-123825000D03*
D25*
X75882500Y-123825000D03*
D26*
X77152500Y-121285000D03*
D27*
X73602500Y-121285000D03*
X87052500Y-118745000D03*
D26*
X83502500Y-118745000D03*
%TD*%
D24*
%TO.C,D84*%
X171250000Y-132500000D03*
D15*
X178870000Y-132500000D03*
%TD*%
D24*
%TO.C,D20*%
X71250000Y-75250000D03*
D15*
X78870000Y-75250000D03*
%TD*%
D24*
%TO.C,D78*%
X45000000Y-132500000D03*
D15*
X52620000Y-132500000D03*
%TD*%
D25*
%TO.C,SW28*%
X233680000Y-66675000D03*
D20*
X228600000Y-66675000D03*
D25*
X223520000Y-66675000D03*
D26*
X224790000Y-64135000D03*
D27*
X221240000Y-64135000D03*
X234690000Y-61595000D03*
D26*
X231140000Y-61595000D03*
%TD*%
D25*
%TO.C,SW51*%
X281305000Y-85725000D03*
D20*
X276225000Y-85725000D03*
D25*
X271145000Y-85725000D03*
D26*
X272415000Y-83185000D03*
D27*
X268865000Y-83185000D03*
X282315000Y-80645000D03*
D26*
X278765000Y-80645000D03*
%TD*%
D25*
%TO.C,SW11*%
X252730000Y-38100000D03*
D20*
X247650000Y-38100000D03*
D25*
X242570000Y-38100000D03*
D26*
X243840000Y-35560000D03*
D27*
X240290000Y-35560000D03*
X253740000Y-33020000D03*
D26*
X250190000Y-33020000D03*
%TD*%
D25*
%TO.C,SW19*%
X62230000Y-66675000D03*
D20*
X57150000Y-66675000D03*
D25*
X52070000Y-66675000D03*
D26*
X53340000Y-64135000D03*
D27*
X49790000Y-64135000D03*
X63240000Y-61595000D03*
D26*
X59690000Y-61595000D03*
%TD*%
D24*
%TO.C,D43*%
X118750000Y-94250000D03*
D15*
X126370000Y-94250000D03*
%TD*%
D24*
%TO.C,D58*%
X423500000Y-94250000D03*
D15*
X431120000Y-94250000D03*
%TD*%
D25*
%TO.C,SW91*%
X433705000Y-123825000D03*
D20*
X428625000Y-123825000D03*
D25*
X423545000Y-123825000D03*
D26*
X424815000Y-121285000D03*
D27*
X421265000Y-121285000D03*
X434715000Y-118745000D03*
D26*
X431165000Y-118745000D03*
%TD*%
D25*
%TO.C,SW24*%
X157480000Y-66675000D03*
D20*
X152400000Y-66675000D03*
D25*
X147320000Y-66675000D03*
D26*
X148590000Y-64135000D03*
D27*
X145040000Y-64135000D03*
X158490000Y-61595000D03*
D26*
X154940000Y-61595000D03*
%TD*%
D24*
%TO.C,D10*%
X213750000Y-46750000D03*
D15*
X221370000Y-46750000D03*
%TD*%
D25*
%TO.C,SW50*%
X262255000Y-85725000D03*
D20*
X257175000Y-85725000D03*
D25*
X252095000Y-85725000D03*
D26*
X253365000Y-83185000D03*
D27*
X249815000Y-83185000D03*
X263265000Y-80645000D03*
D26*
X259715000Y-80645000D03*
%TD*%
D24*
%TO.C,D54*%
X342750000Y-94250000D03*
D15*
X350370000Y-94250000D03*
%TD*%
D24*
%TO.C,D82*%
X133250000Y-132500000D03*
D15*
X140870000Y-132500000D03*
%TD*%
D28*
%TO.C,D59*%
X456750000Y-97750000D03*
D15*
X456750000Y-90130000D03*
%TD*%
D25*
%TO.C,SW83*%
X200342500Y-123825000D03*
D20*
X195262500Y-123825000D03*
D25*
X190182500Y-123825000D03*
D26*
X191452500Y-121285000D03*
D27*
X187902500Y-121285000D03*
X201352500Y-118745000D03*
D26*
X197802500Y-118745000D03*
%TD*%
D25*
%TO.C,SW25*%
X176530000Y-66675000D03*
D20*
X171450000Y-66675000D03*
D25*
X166370000Y-66675000D03*
D26*
X167640000Y-64135000D03*
D27*
X164090000Y-64135000D03*
X177540000Y-61595000D03*
D26*
X173990000Y-61595000D03*
%TD*%
D24*
%TO.C,D97*%
X226000000Y-151500000D03*
D15*
X233620000Y-151500000D03*
%TD*%
D24*
%TO.C,D88*%
X283250000Y-132500000D03*
D15*
X290870000Y-132500000D03*
%TD*%
D25*
%TO.C,SW63*%
X114617500Y-104775000D03*
D20*
X109537500Y-104775000D03*
D25*
X104457500Y-104775000D03*
D26*
X105727500Y-102235000D03*
D27*
X102177500Y-102235000D03*
X115627500Y-99695000D03*
D26*
X112077500Y-99695000D03*
%TD*%
D24*
%TO.C,D69*%
X219000000Y-113250000D03*
D15*
X226620000Y-113250000D03*
%TD*%
D25*
%TO.C,SW58*%
X433705000Y-85725000D03*
D20*
X428625000Y-85725000D03*
D25*
X423545000Y-85725000D03*
D26*
X424815000Y-83185000D03*
D27*
X421265000Y-83185000D03*
X434715000Y-80645000D03*
D26*
X431165000Y-80645000D03*
%TD*%
D24*
%TO.C,D81*%
X114000000Y-132500000D03*
D15*
X121620000Y-132500000D03*
%TD*%
D25*
%TO.C,SW53*%
X333692500Y-85725000D03*
D20*
X328612500Y-85725000D03*
D25*
X323532500Y-85725000D03*
D26*
X324802500Y-83185000D03*
D27*
X321252500Y-83185000D03*
X334702500Y-80645000D03*
D26*
X331152500Y-80645000D03*
%TD*%
D24*
%TO.C,D77*%
X209490000Y-132350000D03*
D15*
X217110000Y-132350000D03*
%TD*%
M02*
