M48
; DRILL file KiCad 10.0.5 date 2026-08-19T04:12:01
; FORMAT={-:-/ absolute / metric / decimal}
; #@! TF.CreationDate,2026-08-19T04:12:01-04:00
; #@! TF.GenerationSoftware,Kicad,Pcbnew,10.0.5
; #@! TF.FileFunction,Plated,1,2,PTH
FMAT,2
METRIC
; #@! TA.AperFunction,Plated,PTH,ViaDrill
T1C0.300
; #@! TA.AperFunction,Plated,PTH,ComponentDrill
T2C0.800
; #@! TA.AperFunction,Plated,PTH,ComponentDrill
T3C1.000
; #@! TA.AperFunction,Plated,PTH,ComponentDrill
T4C1.500
; #@! TA.AperFunction,Plated,PTH,ComponentDrill
T5C3.000
; #@! TA.AperFunction,Plated,PTH,ComponentDrill
T6C3.048
%
G90
G05
T1
X238.25Y-107.75
X257.0Y-107.0
X272.0Y-106.25
X289.5Y-99.25
X323.326Y-106.326
X323.5Y-107.15
X324.25Y-107.75
X325.492Y-102.0
X339.0Y-95.95
X339.0Y-114.75
X356.5Y-113.25
X359.125Y-112.625
X359.25Y-111.0
X359.25Y-114.25
X360.0Y-97.0
X360.0Y-103.5
X360.6Y-114.25
X377.65Y-57.0
X378.25Y-28.75
X382.5Y-58.25
X393.75Y-49.65
X399.5Y-55.5
X400.0Y-112.0
X401.241Y-38.1
X403.75Y-55.75
X404.25Y-46.25
X404.5Y-26.1
X404.5Y-52.5
X404.9Y-47.25
X405.45Y-49.65
X405.5Y-53.15
X406.0Y-26.5
X406.25Y-49.65
X406.25Y-54.35
X406.859Y-47.25
X407.25Y-26.5
X407.5Y-49.65
X407.5Y-53.75
X419.75Y-110.25
X426.25Y-55.75
X435.75Y-111.5
T2
X33.19Y-46.75
X33.25Y-75.25
X37.75Y-94.25
X37.75Y-151.5
X40.25Y-113.25
X40.81Y-46.75
X40.87Y-75.25
X45.0Y-132.5
X45.37Y-94.25
X45.37Y-151.5
X47.87Y-113.25
X52.25Y-75.25
X52.62Y-132.5
X59.87Y-75.25
X61.5Y-94.25
X61.75Y-151.5
X66.5Y-113.25
X69.12Y-94.25
X69.37Y-151.5
X71.19Y-46.75
X71.25Y-75.25
X74.12Y-113.25
X76.0Y-132.5
X78.81Y-46.75
X78.87Y-75.25
X80.75Y-94.25
X83.62Y-132.5
X85.5Y-113.25
X85.5Y-151.5
X88.37Y-94.25
X90.25Y-46.75
X90.25Y-75.25
X93.12Y-113.25
X93.12Y-151.5
X95.0Y-132.5
X97.87Y-46.75
X97.87Y-75.25
X99.75Y-94.25
X102.62Y-132.5
X104.5Y-113.25
X107.37Y-94.25
X109.5Y-46.75
X109.5Y-75.25
X112.12Y-113.25
X114.0Y-132.5
X117.12Y-46.75
X117.12Y-75.25
X118.75Y-94.25
X121.62Y-132.5
X123.75Y-113.25
X126.37Y-94.25
X128.25Y-46.75
X128.5Y-75.25
X131.37Y-113.25
X133.25Y-132.5
X135.87Y-46.75
X136.12Y-75.25
X137.75Y-94.25
X140.87Y-132.5
X142.75Y-113.25
X145.37Y-94.25
X147.25Y-75.25
X150.37Y-113.25
X152.0Y-132.5
X154.5Y-151.5
X154.87Y-75.25
X156.5Y-46.75
X157.0Y-94.25
X159.62Y-132.5
X162.0Y-113.25
X162.12Y-151.5
X164.12Y-46.75
X164.62Y-94.25
X166.5Y-75.25
X169.62Y-113.25
X171.25Y-132.5
X174.12Y-75.25
X175.75Y-46.75
X176.25Y-94.25
X178.87Y-132.5
X180.75Y-113.25
X183.37Y-46.75
X183.87Y-94.25
X185.5Y-75.25
X188.37Y-113.25
X190.25Y-132.5
X193.12Y-75.25
X194.75Y-46.75
X195.0Y-94.25
X197.87Y-132.5
X200.25Y-113.25
X202.37Y-46.75
X202.62Y-94.25
X204.75Y-75.5
X207.87Y-113.25
X209.49Y-132.35
X212.37Y-75.5
X213.75Y-46.75
X214.0Y-94.25
X217.11Y-132.35
X219.0Y-113.25
X221.37Y-46.75
X221.62Y-94.25
X223.75Y-75.25
X226.0Y-151.5
X226.62Y-113.25
X228.25Y-132.5
X231.37Y-75.25
X233.25Y-94.25
X233.62Y-151.5
X235.87Y-132.5
X238.0Y-113.25
X240.87Y-94.25
X242.5Y-75.25
X242.75Y-46.75
X245.62Y-113.25
X247.5Y-132.5
X249.75Y-151.5
X250.12Y-75.25
X250.37Y-46.75
X252.25Y-94.25
X255.12Y-132.5
X257.0Y-113.25
X257.37Y-151.5
X259.87Y-94.25
X261.5Y-46.75
X261.75Y-75.25
X264.62Y-113.25
X269.12Y-46.75
X269.37Y-75.25
X271.25Y-94.25
X273.5Y-151.5
X278.87Y-94.25
X281.0Y-46.75
X281.12Y-151.5
X283.25Y-132.5
X287.75Y-113.25
X288.62Y-46.75
X290.5Y-75.25
X290.87Y-132.5
X295.0Y-94.25
X295.37Y-113.25
X297.25Y-151.5
X298.12Y-75.25
X299.75Y-46.75
X302.62Y-94.25
X304.87Y-151.5
X307.37Y-46.75
X323.5Y-94.25
X323.5Y-151.5
X323.75Y-46.75
X323.75Y-75.25
X331.12Y-94.25
X331.12Y-151.5
X331.37Y-46.75
X331.37Y-75.25
X342.5Y-151.5
X342.75Y-46.75
X342.75Y-75.25
X342.75Y-94.25
X342.75Y-132.5
X350.12Y-151.5
X350.37Y-46.75
X350.37Y-75.25
X350.37Y-94.25
X350.37Y-132.5
X353.25Y-96.75
X355.75Y-96.75
X361.75Y-46.75
X361.75Y-94.25
X361.75Y-151.5
X362.0Y-75.25
X369.37Y-46.75
X369.37Y-94.25
X369.37Y-151.5
X369.62Y-75.25
X381.5Y-36.63
X381.5Y-44.25
X385.5Y-75.25
X385.5Y-94.25
X385.5Y-113.25
X385.5Y-132.3
X393.12Y-75.25
X393.12Y-94.25
X393.12Y-113.25
X393.12Y-132.3
X395.0Y-151.5
X402.62Y-151.5
X404.5Y-75.25
X404.5Y-94.25
X404.5Y-113.25
X404.5Y-132.5
X412.12Y-75.25
X412.12Y-94.25
X412.12Y-113.25
X412.12Y-132.5
X423.5Y-75.25
X423.5Y-94.25
X423.5Y-132.5
X423.75Y-113.25
X423.75Y-151.5
X431.12Y-75.25
X431.12Y-94.25
X431.12Y-132.5
X431.37Y-113.25
X431.37Y-151.5
X442.75Y-75.25
X450.37Y-75.25
X456.75Y-90.13
X456.75Y-97.75
X456.75Y-128.38
X456.75Y-136.0
T3
X385.5Y-36.75
X385.5Y-41.75
X400.0Y-36.75
X400.0Y-39.25
X400.0Y-41.75
X412.126Y-29.21
X412.126Y-46.99
X414.666Y-29.21
X414.666Y-46.99
X417.206Y-29.21
X417.206Y-46.99
X419.746Y-29.21
X419.746Y-46.99
X422.286Y-29.21
X422.286Y-46.99
X424.826Y-29.21
X424.826Y-46.99
X427.366Y-29.21
X427.366Y-46.99
X429.906Y-29.21
X429.906Y-46.99
X432.446Y-29.21
X432.446Y-46.99
X434.986Y-29.21
X434.986Y-46.99
X437.526Y-29.21
X437.526Y-46.99
X440.066Y-29.21
X440.066Y-46.99
X442.606Y-29.21
X442.606Y-46.99
X445.146Y-29.21
X445.146Y-46.99
X447.686Y-29.21
X447.686Y-46.99
X450.226Y-29.21
X450.226Y-46.99
X452.766Y-29.21
X452.766Y-46.99
X455.306Y-29.21
X455.306Y-46.99
X457.846Y-29.21
X457.846Y-46.99
X460.386Y-29.21
X460.386Y-46.99
T5
X34.29Y-35.56
X34.29Y-64.135
X39.052Y-83.185
X39.052Y-140.335
X40.64Y-33.02
X40.64Y-61.595
X41.434Y-102.235
X45.402Y-80.645
X45.402Y-137.795
X46.196Y-121.285
X47.784Y-99.695
X52.546Y-118.745
X53.34Y-64.135
X59.69Y-61.595
X62.865Y-83.185
X62.865Y-140.335
X67.627Y-102.235
X69.215Y-80.645
X69.215Y-137.795
X72.39Y-35.56
X72.39Y-64.135
X73.977Y-99.695
X77.153Y-121.285
X78.74Y-33.02
X78.74Y-61.595
X81.915Y-83.185
X83.502Y-118.745
X86.677Y-102.235
X86.677Y-140.335
X88.265Y-80.645
X91.44Y-35.56
X91.44Y-64.135
X93.027Y-99.695
X93.027Y-137.795
X96.203Y-121.285
X97.79Y-33.02
X97.79Y-61.595
X100.965Y-83.185
X102.552Y-118.745
X105.727Y-102.235
X107.315Y-80.645
X110.49Y-35.56
X110.49Y-64.135
X112.078Y-99.695
X115.252Y-121.285
X116.84Y-33.02
X116.84Y-61.595
X120.015Y-83.185
X121.602Y-118.745
X124.777Y-102.235
X126.365Y-80.645
X129.54Y-35.56
X129.54Y-64.135
X131.127Y-99.695
X134.302Y-121.285
X135.89Y-33.02
X135.89Y-61.595
X139.065Y-83.185
X140.653Y-118.745
X143.827Y-102.235
X145.415Y-80.645
X148.59Y-64.135
X150.177Y-99.695
X153.352Y-121.285
X154.94Y-61.595
X155.734Y-140.335
X157.797Y-35.56
X158.115Y-83.185
X159.702Y-118.745
X162.084Y-137.795
X162.877Y-102.235
X164.147Y-33.02
X164.465Y-80.645
X167.64Y-64.135
X169.227Y-99.695
X172.403Y-121.285
X173.99Y-61.595
X176.847Y-35.56
X177.165Y-83.185
X178.752Y-118.745
X181.927Y-102.235
X183.197Y-33.02
X183.515Y-80.645
X186.69Y-64.135
X188.278Y-99.695
X191.452Y-121.285
X193.04Y-61.595
X195.897Y-35.56
X196.215Y-83.185
X197.802Y-118.745
X200.977Y-102.235
X202.248Y-33.02
X202.565Y-80.645
X205.74Y-64.135
X207.327Y-99.695
X210.502Y-121.285
X212.09Y-61.595
X214.947Y-35.56
X215.265Y-83.185
X216.852Y-118.745
X220.028Y-102.235
X221.297Y-33.02
X221.615Y-80.645
X224.79Y-64.135
X226.377Y-99.695
X227.171Y-140.335
X229.552Y-121.285
X231.14Y-61.595
X233.521Y-137.795
X234.315Y-83.185
X235.903Y-118.745
X239.077Y-102.235
X240.665Y-80.645
X243.84Y-35.56
X243.84Y-64.135
X245.427Y-99.695
X248.602Y-121.285
X250.19Y-33.02
X250.19Y-61.595
X250.984Y-140.335
X253.365Y-83.185
X254.952Y-118.745
X257.334Y-137.795
X258.127Y-102.235
X259.715Y-80.645
X262.89Y-35.56
X262.89Y-64.135
X264.477Y-99.695
X269.24Y-33.02
X269.24Y-61.595
X272.415Y-83.185
X274.796Y-140.335
X278.765Y-80.645
X281.146Y-137.795
X281.94Y-35.56
X284.321Y-121.285
X288.29Y-33.02
X289.084Y-102.235
X290.671Y-118.745
X291.465Y-64.135
X295.434Y-99.695
X296.227Y-83.185
X297.815Y-61.595
X298.609Y-140.335
X300.99Y-35.56
X302.577Y-80.645
X304.959Y-137.795
X307.34Y-33.02
X324.803Y-35.56
X324.803Y-64.135
X324.803Y-83.185
X324.803Y-140.335
X331.152Y-33.02
X331.152Y-61.595
X331.152Y-80.645
X331.152Y-137.795
X343.852Y-35.56
X343.852Y-64.135
X343.852Y-83.185
X343.852Y-121.285
X343.852Y-140.335
X350.202Y-33.02
X350.202Y-61.595
X350.202Y-80.645
X350.202Y-118.745
X350.202Y-137.795
X362.902Y-35.56
X362.902Y-64.135
X362.902Y-83.185
X362.902Y-140.335
X369.252Y-33.02
X369.252Y-61.595
X369.252Y-80.645
X369.252Y-137.795
X386.715Y-64.135
X386.715Y-83.185
X386.715Y-102.235
X386.715Y-121.285
X393.065Y-61.595
X393.065Y-80.645
X393.065Y-99.695
X393.065Y-118.745
X396.24Y-140.335
X402.59Y-137.795
X405.765Y-64.135
X405.765Y-83.185
X405.765Y-102.235
X405.765Y-121.285
X412.115Y-61.595
X412.115Y-80.645
X412.115Y-99.695
X412.115Y-118.745
X424.815Y-64.135
X424.815Y-83.185
X424.815Y-102.235
X424.815Y-121.285
X424.815Y-140.335
X431.165Y-61.595
X431.165Y-80.645
X431.165Y-99.695
X431.165Y-118.745
X431.165Y-137.795
X443.865Y-64.135
X443.865Y-92.71
X443.865Y-130.81
X450.215Y-61.595
X450.215Y-90.17
X450.215Y-128.27
T6
X38.1Y-116.84
X61.912Y-116.84
X109.537Y-135.89
X209.55Y-135.89
X276.225Y-116.84
X280.988Y-97.79
X283.369Y-59.69
X300.037Y-116.84
X304.8Y-97.79
X307.181Y-59.69
X388.144Y-135.89
X411.956Y-135.89
X440.69Y-83.344
X440.69Y-107.156
X440.69Y-121.444
X440.69Y-145.256
T4
G00X393.15Y-33.65
M15
G01X391.85Y-33.65
M16
G05
G00X393.15Y-44.85
M15
G01X391.85Y-44.85
M16
G05
M30
